<?xml version="1.0" encoding="UTF-8" standalone="no"?>
<!-- Generator: Adobe Illustrator 24.1.0, SVG Export Plug-In . SVG Version: 6.00 Build 0)  -->

<svg
   version="1.1"
   id="svg8"
   inkscape:export-filename="/media/juhele/data_2TB/_GRAFIKA/GHS hazard symbols/GHS06_toxic_substances.png"
   inkscape:export-xdpi="99.027519"
   inkscape:export-ydpi="99.027519"
   inkscape:version="1.2.1 (9c6d41e410, 2022-07-14)"
   sodipodi:docname="104.svg"
   x="0px"
   y="0px"
   viewBox="0 0 125 125"
   xml:space="preserve"
   width="125"
   height="125"
   xmlns:inkscape="http://www.inkscape.org/namespaces/inkscape"
   xmlns:sodipodi="http://sodipodi.sourceforge.net/DTD/sodipodi-0.dtd"
   xmlns="http://www.w3.org/2000/svg"
   xmlns:svg="http://www.w3.org/2000/svg"
   xmlns:rdf="http://www.w3.org/1999/02/22-rdf-syntax-ns#"
   xmlns:cc="http://creativecommons.org/ns#"
   xmlns:dc="http://purl.org/dc/elements/1.1/"><metadata
   id="metadata845"><rdf:RDF><cc:Work
       rdf:about=""><dc:format>image/svg+xml</dc:format><dc:type
         rdf:resource="http://purl.org/dc/dcmitype/StillImage" /><dc:title /></cc:Work></rdf:RDF></metadata><defs
   id="defs843" /><sodipodi:namedview
   pagecolor="#ffffff"
   bordercolor="#666666"
   borderopacity="1"
   objecttolerance="10"
   gridtolerance="10"
   guidetolerance="10"
   inkscape:pageopacity="0"
   inkscape:pageshadow="2"
   inkscape:window-width="1475"
   inkscape:window-height="1304"
   id="namedview841"
   showgrid="false"
   inkscape:zoom="4.3739524"
   inkscape:cx="65.844338"
   inkscape:cy="92.022035"
   inkscape:window-x="35"
   inkscape:window-y="32"
   inkscape:window-maximized="0"
   inkscape:current-layer="g31"
   inkscape:showpageshadow="2"
   inkscape:pagecheckerboard="0"
   inkscape:deskcolor="#d1d1d1" />
<style
   type="text/css"
   id="style831">
	.st0{fill:#FFFFFF;stroke:#000000;stroke-width:0.158;stroke-linecap:square;stroke-miterlimit:10;}
	.st1{fill-rule:evenodd;clip-rule:evenodd;}
	.st2{fill:#CC0000;stroke:#CC0000;stroke-width:0.316;stroke-miterlimit:10;}
</style>
<g
   id="layer1"
   transform="translate(-8.7127302,-883.50001)"
   inkscape:groupmode="layer"
   inkscape:label="Laag 1">
	<g
   id="g31"
   transform="matrix(0.00522434,0,0,0.00522434,35.110451,909.57016)">
		
		
		
	<g
   id="g2199"
   transform="matrix(16.091845,0,0,16.091845,675.61467,1423.8282)"
   style="display:inline">
	<polygon
   id="polygon2195"
   points="387,36.4 746.6,657.8 28.2,657.8 "
   class="st0"
   style="fill:#ffeb1d" />
	<path
   id="path2197"
   d="m 411.7,41.6 v 0 0 M 387,84.4 705,633.8 H 69.8 L 387,84.4 m 0,-76.5 c -6.6,0 -13.1,3.2 -16.9,9.7 L 3.5,652.6 c -7.5,13 1.9,29.2 16.9,29.2 h 734.1 c 15,0 24.4,-16.2 16.9,-29.2 L 404,17.6 C 400.1,11.1 393.5,7.9 387,7.9 Z"
   inkscape:connector-curvature="0" />
</g><g
   id="g17"
   transform="matrix(0.85101207,0,0,0.83291333,1232.1014,3209.4546)">
			<path
   id="path13"
   inkscape:connector-curvature="0"
   class="st1"
   d="m 3872.1,7386.6 c 20.4,80.5 62.3,153.5 82.1,233.1 2,69 33.4,135.7 61.7,198.2 26,-38 17.4,-83.6 41,-117.4 v -190.6 c 48.8,32.6 111.6,51.2 132.9,111.6 57.3,93.8 91.6,201.2 118.5,307.4 27.8,142 33.9,290.7 97.7,422.9 25.2,-33.6 61.4,-69.5 61.7,-111.4 13.7,-38.2 21.5,-77.7 41,-114.6 -10.9,-81.4 31.5,12.8 52.7,38 49.5,58.2 39.7,140 56.2,210.8 16.3,69.7 13.7,139.1 -1.1,208.8 -16.3,153 -59.9,305.9 -42.5,460.2 15.2,61.2 5.9,73.8 53,31.9 22.6,-35.6 56,-67.1 66.6,-107.7 22.8,44.7 51.7,87.9 41,140.4 11.5,46.9 -16.9,84.4 -20.6,127.9 5.9,56.2 -32.6,105.5 -20.4,162.8 -36.9,104.2 -88.8,205.8 -175,277.6 -75.1,78.1 -154.6,159.3 -262.2,188.9 -98.8,45.6 -205.4,76.6 -314.8,67.5 -46.9,13 -80.8,-29.1 -126.6,-20.6 -57.1,2.4 -82.5,-32.6 -10.6,-39.1 117,-72.1 236.4,-151.1 320.6,-261.4 41.5,-86.4 99,-163.5 136.3,-252 -9.1,-46.5 32.6,-81 21.5,-127.9 -7.8,-33.4 21.3,-128.7 -27.8,-79.5 -28.2,15.8 -49.3,38.6 -91,41 4.3,-28.7 37.6,-77.1 36.7,-117.2 -5.4,-66.4 16.1,-138.7 -23,-197.8 -11.5,-23.2 -31.3,-130.5 -51.7,-69.5 -41.5,76 -72.9,159.1 -120.5,230.5 -41.7,50.6 -61.7,58 -42.1,-13.7 25.2,-131.5 8.5,-265.3 -17.6,-395.3 -1.1,-74.7 -47.3,-134.2 -86.8,-193.9 -46.9,-71.6 -112.9,-126.6 -171.7,-187.8 -5.4,85.5 5.9,169.8 20.4,253.8 -4.1,94.2 3.9,187.3 20.6,280.2 -15.2,88.4 -25.2,177.1 -20.6,266.8 -20.2,22.4 -24.3,122.9 -56.4,87.3 -68.6,-67.9 -77.7,-171.5 -128.3,-251.6 4.8,-26.7 -14.1,-135.2 -33.6,-76.4 -69.7,109.4 -43.9,242 -48.4,364.5 -3.9,76.8 0.9,152.8 25.8,226.2 26.7,71.9 4.1,56.4 -36.5,9.1 -38,-58 -68.6,-124.2 -95.7,-188.4 -35.4,-145.2 -63,-292.4 -99,-437.6 -20,76 -74.5,143.7 -61.7,226 -35.8,44.5 -8,103.3 -36.7,151.1 -5.4,53.6 1.7,97 -45.6,33.6 -1.3,-44.9 -57.3,-67.3 -82.1,-102.7 9.1,87.5 34.7,171.1 62.7,253.8 9.1,68.2 19.8,135.9 58.6,194.3 45.4,87.5 97.5,173 151.3,254.8 58.8,47.5 118.1,94.4 179.1,139.1 -58.8,27.6 -125.9,27.8 -184.7,0 -69.2,7.2 -135.2,-23 -197.1,-49.3 -47.1,-21.3 -77.1,-70.1 -118.3,-94.4 -51.4,-6.5 -47.3,-67.9 -85.3,-92.7 -9.6,-37.6 -54.3,-67.1 -51,-112.7 -24.7,-35.2 -34.9,-76 -41,-118.7 -8.9,-41.2 -31,-76.8 -20.6,-125.9 -38.9,-33.2 -13.2,-92.9 -20.6,-139.1 v -581.3 c 42.1,7.8 77.5,31.3 108.1,66.9 45.8,48.8 67.9,-33 56.2,-71 -12.4,-115.3 38.9,-222.3 55.4,-334.5 14.1,-98.1 2.6,-198.8 6.3,-298 71.2,28.7 115.1,96.2 143.7,164.3 41.2,31 60.1,78.4 82.1,123.3 30.8,-66.9 73.6,-133.5 82.3,-206.9 -8.2,-87.3 15.4,-173.2 18.5,-259.4 -19.1,-92.5 -18.9,-186.5 -20.2,-280 -10.9,-46.2 -23,-92 -39.3,-136.8 40.8,23.9 91,38.6 126.3,68.2 18.5,49.7 70.6,75.1 84.4,127.9 19.5,40.8 38.9,100.9 58.4,25.2 60.1,-119.6 32.3,-258.1 38.9,-387.3 -2.8,-107.9 -3.9,-222.3 56.4,-316.5 16.7,-6.5 20.4,78.4 37.1,106.6 16.9,80.5 66.6,145 111.6,211.7 67.3,32.8 105.7,92.7 123.3,164.4 z"
   style="clip-rule:evenodd;fill-rule:evenodd" />
			<path
   id="path15"
   inkscape:connector-curvature="0"
   class="st1"
   d="m 6295.2,3258.8 c -110.5,33.4 -117,142.8 -93.3,238.8 31,303.9 62.3,607.8 93.3,911.7 -137,61.4 -274,123.1 -411.1,184.5 102.9,140.7 184.1,295 281.3,438.9 21.3,81.6 140,163 135.5,224.5 -338.4,142.4 -683.8,272 -1017.9,422 -211.2,128.9 -431.8,246.6 -618.7,412.2 -232.7,193 -531.2,341.7 -648.4,638 -7.6,124.8 158.5,81.8 227.1,40.2 65.1,-42.8 233.8,-130.5 94.9,-13.2 -96.2,103.5 -234.9,208 -274,336.5 60.6,74 175,-21.3 247,-49.3 122.6,-45.4 212.3,-150.2 346.9,-161.5 74.2,-7.6 -107,108.3 -145.2,144.4 -128.1,93.8 -269.6,178 -352.8,318.9 -8.5,121.1 120,109.6 199.7,77.7 247.3,-56 478,-161.1 713.8,-249.4 116.4,-33.2 -47.3,132.6 -87,166.5 -75.5,61.9 -168.9,103.3 -199.1,203.6 -76.6,82.9 -25.6,211.2 89.7,131.1 64,-47.5 132.2,-98.8 206.9,-124 -112.4,106.8 -227.3,223.6 -287.6,365.3 -44.3,152.6 88.1,84.2 179.3,61 240.1,-67.5 405.7,-270.7 563.8,-450.9 78.4,-90.7 204.9,-126.6 251.4,-245.7 87,-79.7 176.5,-158.9 249.6,-253.5 201,-163.5 389.7,-346.5 624.8,-461.9 -194.1,243.3 -400.9,475 -627.1,689 -132,117 -234,256.2 -358.6,378.8 -133.5,73.4 -196,215.6 -287.6,328.4 -28.9,94.6 -108.1,172.8 -82.1,280.7 0,0 44.3,3.7 156.9,-88.4 68.8,-19.1 194.1,-151.1 233.1,-73.4 -18,92 -76.4,183.9 -86,287.2 -28.2,132.6 -81.4,267.7 -28,400.3 14.1,117.7 64.3,203.8 132,59.5 152.6,-239 267.7,-499.1 343.9,-771.9 93.8,-229.2 225.8,-444.4 378.2,-638.6 200.8,-239.7 373.2,-514 640.8,-686.2 C 7891.4,6132.1 8563,5606.1 9375.3,5010 9081.2,4537.6 8787,4065.3 8492.9,3592.9 7815.2,3846 7281.2,4032.7 6603.5,4285.8 6570.1,3971 6530.8,3656.5 6501,3341.5 c -47.4,-74.6 -112.1,-89.2 -205.8,-82.7 z m 0,103.1 c 133.1,-41.7 107.5,111.4 121.3,194.5 75.8,701.6 151.5,1403.4 227.3,2105.2 -131.5,33.6 -169.1,-35.6 -157.6,-158.5 -62.3,-713.7 -134.8,-1427.2 -191,-2141.2 z m 40.8,1991.7 c 126.6,90.1 -30.4,114 -61.2,205.6 -75.3,144.1 43,319.1 180.2,369.7 81.6,37.6 195.6,-71.4 244.6,-13 91.8,158.7 217.3,296.3 311.5,453.9 33.4,67.3 169.5,163.9 89.7,226.6 -227.9,201 -477.4,383.6 -643.9,643 -149.6,164.8 -264.8,357.3 -379,546.6 -137.4,316.9 -239.7,648.8 -398.8,956 -64,-116.4 23.9,-259.6 36.3,-386 6.7,-100.9 58.2,-194.9 86.6,-282.9 -14.3,-89.4 -97.5,-148.9 -188.9,-96.4 -84.9,25 -182.1,140.2 -104.8,-2.6 108.3,-229.5 325,-373.8 499.3,-546.8 133.7,-168.9 299.6,-308.7 435,-475.8 122.9,-135.9 264.2,-271.3 324.7,-448 -93.6,-61.2 -186.9,34.5 -279.8,50.1 -243.1,164.3 -438.9,388.6 -661.9,578.7 -312.8,258.3 -549.4,616.1 -927.1,788.2 36.5,-127.9 151.1,-210.8 230.3,-312.2 38.6,-53.4 170,-185.4 41.2,-201.4 -81.8,24.3 -143.9,79.7 -221.4,117.7 -113.7,130 -84.7,-9.1 10.6,-61.9 132.9,-78.1 240.7,-209.7 268.1,-363.6 -116.1,-44.9 -241.8,44.5 -356.7,74.7 -132.4,42.5 -264,89.4 -393.8,135.2 -54.9,-10 -280,80.8 -169.8,-8.7 129.6,-115.7 260.3,-229.9 406.8,-324.7 21.5,-66 153.9,-210.8 9.6,-204.9 -114.2,17.6 -213,73.2 -312.4,127.9 -77.3,38.4 -147.8,84.7 -231.2,118.3 120.3,-120.3 241,-245.1 366.9,-354.7 102.2,-97.9 -16.3,-124 -99.6,-76.6 -77.9,51.9 -168.5,75.1 -251.8,114.6 -142,52.3 -3.5,-102 38.9,-148.5 135,-158.7 313.9,-265.3 479.1,-386.6 182.1,-140.4 379.5,-260.3 575.9,-380.1 342.8,-157.8 697,-288.7 1046.8,-431.4 z"
   style="clip-rule:evenodd;fill-rule:evenodd" />
		</g></g>
</g>
</svg>
