<?xml version="1.0" encoding="UTF-8"?>
<!-- Generator: Adobe Illustrator 24.1.0, SVG Export Plug-In . SVG Version: 6.00 Build 0)  -->
<svg width="125" height="125" version="1.1" viewBox="0 0 125 125" xml:space="preserve" xmlns="http://www.w3.org/2000/svg" xmlns:cc="http://creativecommons.org/ns#" xmlns:dc="http://purl.org/dc/elements/1.1/" xmlns:rdf="http://www.w3.org/1999/02/22-rdf-syntax-ns#"><metadata><rdf:RDF><cc:Work rdf:about=""><dc:format>image/svg+xml</dc:format><dc:type rdf:resource="http://purl.org/dc/dcmitype/StillImage"/><dc:title/></cc:Work></rdf:RDF></metadata>
<style type="text/css">
	.st0{fill:#FFEB1D;}
</style>

<g transform="matrix(.084069 0 0 .084069 29.927 33.509)">
	<polygon class="st0" points="746.6 657.8 28.2 657.8 387 36.4" fill="#ffeb1d"/>
	<path d="m411.7 41.6m-24.7 42.8 318 549.4h-635.2l317.2-549.4m0-76.5c-6.6 0-13.1 3.2-16.9 9.7l-366.6 635c-7.5 13 1.9 29.2 16.9 29.2h734.1c15 0 24.4-16.2 16.9-29.2l-367.4-635c-3.9-6.5-10.5-9.7-17-9.7z"/>

	<path d="m387.3 225.5c21.2-0.1 41.5 15.5 44.7 39.3 0.5 3.3 0.3 6.7 0 10-1 9.2-1.9 18.4-2.8 27.7-1.2 11.9-2.4 23.8-3.6 35.8-0.9 8.7-1.7 17.5-2.6 26.2s-1.8 17.5-2.7 26.2c-0.7 7.1-1.4 14.2-2.1 21.2-0.6 6.3-1 12.6-1.9 18.8-2 13.5-13.8 23.8-27.4 24.5-14.8 0.8-28.5-9.8-30.7-25.5-0.5-4-0.7-8.1-1.1-12.2-0.9-9.1-1.8-18.1-2.7-27.2l-2.1-21-2.7-26.7-2.1-20.7c-0.9-9.1-1.8-18.1-2.8-27.2-0.8-7.9-1.9-15.9-2.3-23.8-0.4-7 1.3-13.7 4.4-19.9 7.2-14.1 18.7-22.6 34.5-24.9 2.1-0.3 4.1-0.4 6-0.6z"/>
	<path d="m427.5 528c0.1 22.5-18.7 40.2-40.4 40-20.3-0.1-39.8-16.6-39.8-40.2 0-21.7 17.4-40.1 40.2-40 24 0.1 40.3 19.8 40 40.2z"/>
</g>
</svg>
