<?xml version="1.0" encoding="UTF-8" standalone="no"?>
<!-- Generator: Adobe Illustrator 24.1.0, SVG Export Plug-In . SVG Version: 6.00 Build 0)  -->

<svg
   version="1.1"
   id="svg8"
   inkscape:export-filename="vervuild water.png"
   inkscape:export-xdpi="99.027519"
   inkscape:export-ydpi="99.027519"
   inkscape:version="1.3 (0e150ed6c4, 2023-07-21)"
   sodipodi:docname="vervuild water.svg"
   x="0px"
   y="0px"
   viewBox="0 0 125 125"
   xml:space="preserve"
   width="125"
   height="125"
   xmlns:inkscape="http://www.inkscape.org/namespaces/inkscape"
   xmlns:sodipodi="http://sodipodi.sourceforge.net/DTD/sodipodi-0.dtd"
   xmlns="http://www.w3.org/2000/svg"
   xmlns:svg="http://www.w3.org/2000/svg"
   xmlns:rdf="http://www.w3.org/1999/02/22-rdf-syntax-ns#"
   xmlns:cc="http://creativecommons.org/ns#"
   xmlns:dc="http://purl.org/dc/elements/1.1/"><metadata
   id="metadata1176"><rdf:RDF><cc:Work
       rdf:about=""><dc:format>image/svg+xml</dc:format><dc:type
         rdf:resource="http://purl.org/dc/dcmitype/StillImage" /></cc:Work></rdf:RDF></metadata><defs
   id="defs1174" /><sodipodi:namedview
   pagecolor="#ffffff"
   bordercolor="#666666"
   borderopacity="1"
   objecttolerance="10"
   gridtolerance="10"
   guidetolerance="10"
   inkscape:pageopacity="0"
   inkscape:pageshadow="2"
   inkscape:window-width="1920"
   inkscape:window-height="1017"
   id="namedview1172"
   showgrid="false"
   inkscape:zoom="11.575153"
   inkscape:cx="62.850141"
   inkscape:cy="60.603951"
   inkscape:window-x="3832"
   inkscape:window-y="-8"
   inkscape:window-maximized="1"
   inkscape:current-layer="svg8"
   inkscape:showpageshadow="2"
   inkscape:pagecheckerboard="0"
   inkscape:deskcolor="#d1d1d1" />&#10;<style
   type="text/css"
   id="style1162">&#10;	.st0{fill:#FFEB1D;}&#10;	.st1{fill-rule:evenodd;clip-rule:evenodd;}&#10;</style>&#10;&#10;<g
   id="g1182"
   transform="matrix(0.08406927,0,0,0.08406927,29.927361,33.508712)"><g
     id="g1168">&#10;	<polygon
   id="polygon1164"
   points="387,36.4 746.6,657.8 28.2,657.8 "
   class="st0"
   style="fill:#ffeb1d" />&#10;	<path
   id="path1166"
   d="m 411.7,41.6 v 0 0 M 387,84.4 705,633.8 H 69.8 L 387,84.4 m 0,-76.5 c -6.6,0 -13.1,3.2 -16.9,9.7 L 3.5,652.6 c -7.5,13 1.9,29.2 16.9,29.2 h 734.1 c 15,0 24.4,-16.2 16.9,-29.2 L 404,17.6 C 400.1,11.1 393.5,7.9 387,7.9 Z"
   inkscape:connector-curvature="0" />&#10;</g></g>&#10;<g
   id="surface1"
   transform="matrix(0.09374111,0,0,0.09362706,90.145111,33.929752)"
   style="stroke-width:14.2322"><g
     id="g1"
     transform="matrix(1.0410564,0,0,1.0410564,19.473899,-21.387895)"
     style="stroke-width:13.6709"><path
       id="path3"
       style="fill:#000202;fill-opacity:1;fill-rule:evenodd;stroke:none;stroke-width:13.6709"
       d="M -312.15157 380.38618 L -312.15157 391.12654 C -261.27836 391.12654 -218.20414 431.56715 -216.48645 487.18872 C -216.59488 487.17088 -216.74532 487.14712 -216.8467 487.12861 C -221.68505 486.62215 -226.13206 485.14575 -230.516 483.48169 C -232.09335 440.8278 -267.34587 403.73045 -310.43039 403.73045 L -310.43039 414.49085 C -275.07491 414.49085 -245.12763 444.38517 -241.54351 479.43401 C -242.08214 479.26711 -242.61902 479.08466 -243.16461 478.93306 C -246.64477 478.0091 -250.07894 477.49727 -253.49164 477.22983 C -256.35771 448.19138 -280.92707 425.63198 -310.43039 425.63198 L -310.43039 436.39239 C -286.73554 436.39239 -267.1116 454.02727 -264.31901 477.2098 C -265.53987 477.28247 -266.7621 477.31962 -267.9815 477.43021 C -277.9229 478.18802 -285.86261 482.90752 -295.3001 485.6458 C -303.48759 488.13017 -312.17593 487.63502 -320.61733 486.14675 C -321.35952 492.11549 -316.91201 497.58671 -311.45109 497.8289 C -300.02531 498.3289 -289.34846 494.84351 -278.66878 490.37476 C -273.95003 488.87866 -269.22583 487.62861 -264.01881 487.12861 C -251.85476 486.14033 -240.93516 490.37449 -229.75548 494.84324 C -223.05236 497.32761 -215.84424 498.83253 -208.64111 498.59034 C -201.69581 498.59034 -194.50378 497.32761 -187.54676 494.84324 C -176.62099 490.37449 -165.44748 486.14033 -153.28344 487.12861 C -148.3186 487.62861 -143.59831 488.87866 -138.63346 490.37476 C -128.2077 494.84351 -117.53319 498.3289 -106.11133 497.8289 C -100.4043 497.58671 -96.186797 492.11549 -96.925077 486.14675 C -105.12819 487.63502 -113.80092 488.13017 -122.24231 485.6458 C -131.68371 482.90752 -139.63276 478.18802 -149.30073 477.43021 C -157.75775 476.68803 -165.93842 476.69088 -174.13763 478.93306 C -183.32121 481.41744 -191.26994 486.14033 -200.69571 487.12861 C -202.38404 487.43689 -204.05461 487.63044 -205.6791 487.74979 C -207.16519 426.31005 -255.26714 380.38618 -312.15157 380.38618 z M -258.75522 499.13137 C -261.84061 499.10908 -264.91266 499.29388 -267.9815 499.57221 C -277.9229 500.5722 -285.86261 505.26993 -295.3001 508.0082 C -303.48759 510.25038 -312.17593 510.01089 -320.61733 508.2687 C -321.35952 514.23353 -316.91201 519.69131 -311.45109 520.19131 C -300.02531 520.69131 -289.34846 516.96373 -278.66878 512.73717 C -273.95003 510.99498 -269.22583 509.99933 -264.01881 509.51105 C -251.85476 508.25715 -240.93516 512.73864 -229.75548 516.96519 C -223.05236 519.69175 -215.84424 520.93272 -208.64111 520.93272 C -201.69581 520.93272 -194.50378 519.69175 -187.54676 516.96519 C -176.62099 512.73864 -165.44748 508.25715 -153.28344 509.51105 C -148.3186 509.99933 -143.59831 510.99498 -138.63346 512.73717 C -128.2077 516.96373 -117.53319 520.69131 -106.11133 520.19131 C -100.4043 519.69131 -96.186797 514.23353 -96.925077 508.2687 C -105.12819 510.01089 -113.80092 510.25038 -122.24231 508.0082 C -131.68371 505.26993 -139.63276 500.5722 -149.30073 499.57221 C -157.75775 498.83002 -165.93842 498.83113 -174.13763 501.31551 C -183.32121 503.54207 -191.26994 508.25715 -200.69571 509.51105 C -203.43398 509.99933 -206.16065 510.2659 -208.64111 510.012 C -208.64111 510.012 -214.10842 509.99933 -216.8467 509.51105 C -226.2881 508.25715 -234.22321 503.54207 -243.16461 501.31551 C -248.44292 499.76278 -253.6129 499.16852 -258.75522 499.13137 z " /><path
       id="path5"
       style="fill:#000202;fill-opacity:1;fill-rule:evenodd;stroke:none;stroke-width:13.6709"
       d="M -348.43626 317.3867 L -348.43626 327.32555 L -414.72138 327.32555 L -487.73107 451.34074 L -348.43626 451.34074 L -348.43626 461.29962 L -328.82291 461.29962 L -328.82291 317.3867 L -348.43626 317.3867 z " /></g></g></svg>
