<?xml version="1.0" encoding="utf-8"?>
<!-- Generator: Adobe Illustrator 25.0.1, SVG Export Plug-In . SVG Version: 6.00 Build 0)  -->
<svg version="1.1"
	 id="svg8" inkscape:export-filename="C:\Users\User\Desktop\Symbolen COGO\WATER\Gevaar_gezondheid.png" inkscape:export-xdpi="338.21539" inkscape:export-ydpi="338.21539" inkscape:version="0.92.5 (2060ec1f9f, 2020-04-08)" sodipodi:docname="Gevaar_gezondheid.svg" xmlns:cc="http://creativecommons.org/ns#" xmlns:dc="http://purl.org/dc/elements/1.1/" xmlns:inkscape="http://www.inkscape.org/namespaces/inkscape" xmlns:rdf="http://www.w3.org/1999/02/22-rdf-syntax-ns#" xmlns:sodipodi="http://sodipodi.sourceforge.net/DTD/sodipodi-0.dtd" xmlns:svg="http://www.w3.org/2000/svg"
	 xmlns="http://www.w3.org/2000/svg" xmlns:xlink="http://www.w3.org/1999/xlink" x="0px" y="0px" width="125px" height="125px"
	 viewBox="0 0 125 125" style="enable-background:new 0 0 125 125;" xml:space="preserve">
<style type="text/css">
	.st0{fill:#FFEB1D;}
</style>
<sodipodi:namedview  bordercolor="#666666" borderopacity="1" gridtolerance="10" guidetolerance="10" id="namedview2687" inkscape:current-layer="svg8" inkscape:cx="36.630188" inkscape:cy="80.476423" inkscape:pageopacity="0" inkscape:pageshadow="2" inkscape:window-height="1017" inkscape:window-maximized="1" inkscape:window-width="1920" inkscape:window-x="-8" inkscape:window-y="-8" inkscape:zoom="4.6943678" objecttolerance="10" pagecolor="#ffffff" showgrid="false">
	</sodipodi:namedview>
<g id="g2711" transform="matrix(0.08406927,0,0,0.08406927,29.927361,33.508712)">
	<g id="g2654">
		<polygon id="polygon2650" class="st0" points="387,17.3 768.8,677.2 6,677.2 		"/>
		<path id="path2652" inkscape:connector-curvature="0" d="M413.2,22.8L413.2,22.8L413.2,22.8 M387,68.3l337.7,583.4H50.1L387,68.3
			 M387-12.9c-7,0-13.9,3.4-17.9,10.3L-20.3,671.6c-8,13.8,2,31,17.9,31h779.5c15.9,0,25.9-17.2,17.9-31L405-2.6
			C400.9-9.5,393.9-12.9,387-12.9z"/>
	</g>
</g>
<g id="g837" transform="matrix(0.03831759,-0.03831759,0.03831759,0.03831759,15.541801,62.538317)">
	<g id="g852" transform="matrix(0.70034568,0.70034568,-0.73848183,0.73848183,613.58604,-87.344404)">
		<path id="path839-7" inkscape:connector-curvature="0" d="M480.2,736.7c10.8,0,7.1-4.3,16.2-4.3c7.4,0,5,4.2,15.1,4.2
			c9.4,0,11.7-7.1,11.7-10c0-4.5-5.1-7.3-7.3-13.4c-2.2-6.1-6.7-28.4-20.3-28.4c-5,0-7.9,2.1-11.7,6.6c-6.2,7.2-6.6,19.4-10.5,24.1
			c-3.7,4.6-5.2,9.5-5.2,12C468.1,730.3,469.5,736.6,480.2,736.7 M375.1,812.9l-10.3,4.9c-10.3,5-23.2,15.4-25.8,36.7
			c-0.5,3.5-8.3,12.8-16.4,12.8c-5,0-10.9-3.3-11.6-8.2c-1.4-8.4-7.7-38.5-8-39.8c-0.8-3.7-4.4-6.1-8.1-5.3s-6.1,4.4-5.3,8.1
			c0,0.1,1,4.8,1,4.8c-11.9-5.7-12.4-6.7-12.4-10.9c0-5.1,11.7-11.5,21-11.5c7.8,0,13.8,2.2,19.6,4.4c5.2,2,10.6,4,16.7,4
			c8.8,0,11.2-0.9,15.3-3l3.4-1.7c5.3-2.2,46.4-21.9,64.6-30.5c2.5,3.6,5.6,7.2,9.1,10.8 M423.2,720.4c16,10,15.7,9.5,15.8,15.7
			c-0.2,1.7-0.3,4.5-0.3,9.7c0,17.1,33.2,31.4,54.2,31.4c23.2,0,53.9-15.6,53.9-32v-8.8c0-6.9,0.7-7.5,14.1-15.4v32.6
			c0,9.1-12.5,28.5-35.1,39.9l-0.7,0.4c-11,5.5-24.5,11.7-30.1,11.7c-5.2,0-22.7-5.1-36.7-12.1c-22.6-11.3-35.1-30.8-35.1-39.9
			V720.4z M282.5,667.1C282.4,667.1,282.4,667.1,282.5,667.1C282.4,667.1,282.4,667.1,282.5,667.1 M687.7,654.2c3,0,4.4,1,5.1,1.8
			c4.4,4.6,4,18,3.7,27.8l-0.2,7.7c-0.1,3.8,2.9,6.7,6.7,6.8c3.8,0.1,6.9-3,7-6.8l0.1-2.7c0.4,1.1,0.6,2,0.6,2.5v13.2
			c0,3.7-1.1,8.2-6.3,8.2c-4.3,0-9.7-2.6-15-5.2c-6.1-2.9-11.8-5.8-17.7-5.8h-1c-3.4-0.2-10.6-0.5-20.6,4.2l-0.2,0.1l-75.3,38.2V725
			c11.1-5.1,53.9-24.6,64.4-30.1c11.9-6.2,21-19.3,26.3-27.1l2.1-2.9C671,660,678.5,654.2,687.7,654.2z M340.4,706L340.4,706
			c-10.2-4.7-17.3-4.4-20.7-4.2h-1c-5.9,0-11.6,2.8-17.7,5.8c-5.2,2.5-10.8,5.2-15,5.2c-5.2,0-6.3-4.5-6.3-8.2v-13.2
			c0-0.6,0.2-1.5,0.6-2.5l0.1,2.7c0.1,3.8,3.2,6.9,7,6.8c3.8-0.1,6.8-3,6.7-6.8l-0.2-7.7c-0.3-9.8-0.7-23.2,3.7-27.8
			c0.7-0.8,2.1-1.8,5.1-1.8c9.3,0,16.7,5.8,20.3,10.7l2.1,2.9c5.4,7.8,14.5,21,26.3,27.1c9.2,4.8,42.1,19.8,58.1,27.2V741L340.4,706
			z M493.1,491.1c38.2,0,56.9,15.9,80.5,37.3l12.5,11.2l4.7,4c15,13,29.1,25.2,29.1,32.5c0,9-3.1,18-7.4,26.3c0.5-3,0.5-5.1,0.5-9
			c0-14.9-4.1-21.2-19.3-37.1l-10,9.5c14.2,14.9,15.4,18,15.4,27.5c0,6,0,6-3,19.3l-4,17.9l0.5,1.7c0.1,0.2,4.7,17.2,4.7,33.5
			c0,17.1-10.5,23.5-23.6,31.6l-4.1,2.5l-14.2,8.5c-15,8.8-22.5,12.7-22.5,28.1v8.8c0,5.1-19.3,18.2-39.8,18.2
			c-18.9,0-39.6-13-40.4-17.8c0-6.3,0.3-9,0.3-9c0-15.1-7.3-19.3-21.9-27.8c-4-2.3-9.1-5.3-15.1-9l-4.1-2.5
			c-13.2-8.1-22.7-12.7-22.7-31.6c0-19.8,4.7-27,4.7-33c0-6.2-6.6-30-6.6-33.7c0-0.5,0.1-4.5,0.1-4.5c0-8.9,1.2-16.4,15-28.6
			c1.1-1,2.8-4,1.5-5.7c-1.4-1.7-2-2.3-3.5-4.3c-0.8-1-2.2-1.3-3.6-1.3c-1.4,0-2.7,0.4-3.3,0.9c-16.3,14.5-19.7,25.5-19.7,39
			c0,0-0.1,4-0.1,4.6c0,3.7-0.2,1.9,1.8,9.6c-5.9-10-10.9-21.2-10.9-32.6c0-7,13.5-19.3,27.8-32.2l6.3-5.7
			c4.9-4.5,9.3-8.7,13.4-12.8c9.5-9.3,16.9-16.6,25.5-21c19.6-9.9,37.3-13.6,55.8-13.6 M412,765.6c-23.9,11.4-58.8,28.1-63.4,29.9
			l-4.6,2.2c-2,1.1-2.6,1.4-8.7,1.4c-3.6,0-7.4-1.5-11.8-3.1c-6.3-2.3-14.1-5.2-24.3-5.2c-14.2,0-34.7,9.9-34.7,25.3
			c0,13.8,8.8,17.9,23.5,24.7l6.3,3c1.5,7.2,2.8,14.3,3.4,17.6c2.1,12.3,14.5,19.7,25.2,19.7c15.4,0,28.8-15.1,30.1-24.7
			c1.6-12.3,7.5-20.8,18.2-26l10.2-4.8l58-27.3c4,2.8,8.3,5.5,12.9,7.8c11.3,5.7,32.9,14.2,42.8,14.2c8.9,0,22.2-6.7,36.7-14
			c6.2-3.1,11.5-6.6,16.3-10.3l71.4,34.3c10.7,5.2,16.6,13.6,18.2,26c1.3,9.8,14.7,24.7,30.1,24.7c10.8,0,23.2-7.3,25.2-19.7
			c0.6-3.3,2-10.4,3.4-17.6l-0.6,0.3l0.6-0.3l6.3-3c14.6-6.8,23.5-11,23.5-24.7c0-15.4-20.5-25.3-34.7-25.3
			c-10.3,0-18.1,2.9-24.3,5.2c-4.4,1.7-8.3,3.1-11.8,3.1c-6.2,0-6.7-0.3-8.7-1.4l-4.6-2.2c-4.8-2.1-45.1-21.2-68.6-32.5
			c0.3-1,0.6-2,0.8-2.9c16.1-8.2,81.8-41.5,82.1-41.6c6.9-3.2,11.2-3,14.1-2.9l1.7,0.1c2.6,0,7.2,2.2,11.6,4.4
			c6.4,3.1,13.6,6.6,21,6.6c11.8,0,20-9.1,20-22v-13.2c0-7.2-5-17.2-14.2-22.8c-0.5-8.5-2.3-16.5-7.6-22c-3.8-3.9-8.9-6-15-6
			c-14.5,0-25.7,8.4-31.4,16.3l-2.2,3.2c-4.4,6.4-12.5,18.1-21.3,22.6c-6.4,3.2-25,11.9-41,19.4c10.4-7.5,19.3-17.7,19.3-36.1
			c0-11.5-2-23-3.5-30l2.4-3.7c9.9-14.4,23.5-33.9,23.5-55.9c0-13.6-14.2-25.8-33.8-42.9l-4.6-4l-12.2-11
			c-23.8-21.6-46.1-41.9-89.7-41.9c-20.5,0-40.8,5.2-62.1,16c-10.6,5.4-19.1,13.8-28.9,23.5c-4,4-8.2,8.1-13,12.4l-6.2,5.7
			c-18.7,16.9-32.3,29.2-32.3,42.3c0,22,13.6,41.7,23.5,55.9l1.8,2.6c-1.4,10.1-2.8,23.4-2.8,32.8c0,12.8,6,21.9,13.7,28.9
			c-12.4-5.8-24.2-11.3-29-13.8c-8.8-4.5-16.9-16.3-21.3-22.6l-2.2-3.2c-5.8-7.9-17.1-16.3-31.4-16.3c-6.2,0-11.1,2-15,6
			c-5.3,5.5-7.1,13.5-7.6,22c0,0,0.1,0,0.1-0.1c0,0-0.1,0-0.1,0.1c-9.3,5.6-14.2,15.6-14.2,22.8V705c0,13,8.2,22,20,22
			c7.4,0,14.7-3.5,21-6.6c4.4-2.2,9-4.4,11.6-4.4l1.7-0.1c2.8-0.1,7.1-0.3,14.1,2.9c0.3,0.1,52.4,26.6,75.3,38 M567,775.3
			c14.1,6.7,63.6,30.4,69.3,32.9l3.4,1.7c4,2.2,6.6,3,15.3,3c6.1,0,11.4-2.1,16.7-4c5.8-2.2,11.7-4.4,19.6-4.4c9.3,0,21,6.5,21,11.5
			c0,4.1-0.5,5.2-12.4,10.9c0.6-2.8,1-4.7,1-4.8c0.8-3.7-1.6-7.3-5.3-8.1c-3.7-0.8-7.3,1.6-8.1,5.3c-0.3,1.3-6.6,31.4-8,39.8
			c-0.8,4.9-6.6,8.1-11.6,8.1c-8.1,0-15.9-9.3-16.4-12.8c-2.6-21.3-15.5-31.7-25.8-36.7l-66.5-32C562.1,782.5,564.8,778.9,567,775.3
			 M549.1,680c23,0,32.6-28.8,32.6-36.3s-5.9-10.6-9.3-10.6h-43.6c-4.7,0-15.8,3.8-15.8,11c0,2.7,2.1,8.7,6.5,14.5
			C526.8,668.8,533.3,680,549.1,680 M435,680c15.6,0,22.3-11.2,29.8-21.2c4.4-5.8,6.5-11.7,6.5-14.5c0-7.2-11.2-11-15.8-11h-43.6
			c-3.4,0-9.3,3.1-9.3,10.6C402.4,651.3,412.1,680.1,435,680 M423.2,708.5h-10.3c4.9,2.2,8.6,3.9,10.3,4.7V708.5 M409.6,756.3
			c0.3,2.8,1.1,5.8,2.3,9L409.6,756.3z"/>
	</g>
	<path id="path7658" inkscape:connector-curvature="0" d="M591,424.4c-1-1-2.8-1.3-4.8-0.7c-4.1,1.2-8.2,5.4-9.3,9.5
		c-0.5,2-0.2,3.7,0.9,4.6c15.4,14.5,15.2,27.9,13.9,41.9s-4.3,29.8,7.1,41.2c11.4,11.4,28.7,11.3,44.4,11.4
		c15.7,0.1,29.7,0.3,38.8,9.6c9.1,9.3,8.9,23.5,8.7,39.5s-0.6,33.6,11,45.1c11.5,11.5,27.1,7.9,40.8,6.1
		c13.7-1.8,27.3-2.4,43.8,13.6c2.1,2.1,6.8,0.8,10.5-2.9c3.6-3.7,4.9-8.3,2.7-10.4c-17.9-17.4-36.1-17.4-50.9-15.5
		c-14.8,1.9-24.4,5.1-33.6-4.2c-9.3-9.3-9.2-23.5-8.9-39.4c0.2-15.9,0.7-33.6-10.7-45.2C684,517.2,666.6,517.1,651,517
		c-15.7-0.1-29.7-0.2-38.9-9.4c-9.1-9.1-6.5-19.7-5.1-34.6C608.4,458.2,607.9,440.3,591,424.4L591,424.4z M549.4,466
		c-1-1-2.8-1.3-4.8-0.7c-4.1,1.2-8.3,5.4-9.4,9.5c-0.5,2-0.2,3.7,0.9,4.7c15.4,14.7,18.2,29.5,19.9,44c1.7,14.6,2.1,29.6,13.3,40.9
		c11.1,11.1,25.7,13.5,39.2,15.7c13.5,2.3,25.8,4.4,35.3,14c9.4,9.6,11.3,22,13.3,35.7c2,13.7,4.2,28.6,15.4,39.8
		c11.2,11.2,24,11.7,35.5,11.7s21.6-0.4,33.2,8.5c2.4,1.8,7.2,0.2,10.7-3.6c3.5-3.8,4.4-8.5,2-10.3c0,0,0,0,0,0
		c-13.2-10.1-26.9-10-38.2-10s-20.2,0-29.9-9.6c-9.6-9.6-11.5-22-13.5-35.7c-2-13.7-4.1-28.6-15.2-39.8
		c-11.1-11.2-25.7-13.7-39.2-15.9s-25.8-4.3-35.3-13.8c-9.3-9.3-9.5-21.4-11.3-36.5C569.6,499.4,566,482,549.4,466z"/>
</g>
</svg>
