<?xml version="1.0" encoding="UTF-8" standalone="no"?>
<!-- Generator: Adobe Illustrator 24.1.0, SVG Export Plug-In . SVG Version: 6.00 Build 0)  -->

<svg
   xmlns:dc="http://purl.org/dc/elements/1.1/"
   xmlns:cc="http://creativecommons.org/ns#"
   xmlns:rdf="http://www.w3.org/1999/02/22-rdf-syntax-ns#"
   xmlns:svg="http://www.w3.org/2000/svg"
   xmlns="http://www.w3.org/2000/svg"
   xmlns:sodipodi="http://sodipodi.sourceforge.net/DTD/sodipodi-0.dtd"
   xmlns:inkscape="http://www.inkscape.org/namespaces/inkscape"
   version="1.1"
   id="svg8"
   inkscape:export-filename="/media/juhele/data_2TB/_GRAFIKA/GHS hazard symbols/GHS06_toxic_substances.png"
   inkscape:export-xdpi="99.027519"
   inkscape:export-ydpi="99.027519"
   inkscape:version="0.92.5 (2060ec1f9f, 2020-04-08)"
   sodipodi:docname="Omvormer_zonnepanelen.svg"
   x="0px"
   y="0px"
   viewBox="0 0 125 125"
   xml:space="preserve"
   width="125"
   height="125"><metadata
   id="metadata1176"><rdf:RDF><cc:Work
       rdf:about=""><dc:format>image/svg+xml</dc:format><dc:type
         rdf:resource="http://purl.org/dc/dcmitype/StillImage" /><dc:title></dc:title></cc:Work></rdf:RDF></metadata><defs
   id="defs1174" /><sodipodi:namedview
   pagecolor="#ffffff"
   bordercolor="#666666"
   borderopacity="1"
   objecttolerance="10"
   gridtolerance="10"
   guidetolerance="10"
   inkscape:pageopacity="0"
   inkscape:pageshadow="2"
   inkscape:window-width="1920"
   inkscape:window-height="1017"
   id="namedview1172"
   showgrid="false"
   inkscape:zoom="9.3780611"
   inkscape:cx="42.061727"
   inkscape:cy="61.86916"
   inkscape:window-x="-8"
   inkscape:window-y="-8"
   inkscape:window-maximized="1"
   inkscape:current-layer="g1182" />
<style
   type="text/css"
   id="style1162">
	.st0{fill:#FFEB1D;}
	.st1{fill-rule:evenodd;clip-rule:evenodd;}
</style>

<g
   id="g1182"
   transform="matrix(0.08406927,0,0,0.08406927,29.927361,33.508712)"><g
     id="g1168">
	<polygon
   id="polygon1164"
   points="387,36.4 746.6,657.8 28.2,657.8 "
   class="st0"
   style="fill:#ffeb1d" />
	<path
   id="path1166"
   d="m 411.7,41.6 v 0 0 M 387,84.4 705,633.8 H 69.8 L 387,84.4 m 0,-76.5 c -6.6,0 -13.1,3.2 -16.9,9.7 L 3.5,652.6 c -7.5,13 1.9,29.2 16.9,29.2 h 734.1 c 15,0 24.4,-16.2 16.9,-29.2 L 404,17.6 C 400.1,11.1 393.5,7.9 387,7.9 Z"
   inkscape:connector-curvature="0" />
</g><path
     d="m 396.84114,439.47546 -23.65336,58.38932 -8.86444,-3.96386 6.01356,20.57759 21.33703,-12.78774 -9.93352,-1.4132 40.31316,-78.10521 -58.0866,21.50823 34.52233,-63.93873 -18.75341,-5.44599 -31.76054,83.20651 48.86579,-18.02692"
     class="st1"
     inkscape:connector-curvature="0"
     id="path28"
     style="clip-rule:evenodd;fill-rule:evenodd;stroke-width:0.39184037" /><ellipse
     style="fill:none;fill-rule:evenodd;stroke:#000000;stroke-width:15.03522036;stroke-miterlimit:4;stroke-dasharray:none;stroke-opacity:1"
     id="path1119"
     cx="384.97919"
     cy="440.98401"
     rx="103.6936"
     ry="103.51745" /><path
     style="fill:none;stroke:#000000;stroke-width:9.19939995px;stroke-linecap:butt;stroke-linejoin:miter;stroke-opacity:1"
     d="m 384.03577,316.14728 c 0,-3.14886 0,-6.29773 0,-9.44659 0,-8.87409 0,-17.74817 0,-26.62224 0,-2.86261 0,-5.72521 0,-8.58782 0,-0.2545 0,-4.28224 0,-1.71757"
     id="path1121"
     inkscape:connector-curvature="0" /><path
     style="fill:none;stroke:#000000;stroke-width:9.19939995px;stroke-linecap:butt;stroke-linejoin:miter;stroke-opacity:1"
     d="m 382.82673,559.07819 c 0.0118,3.14884 0.0236,6.29769 0.0354,9.44654 0.0333,8.87401 0.0665,17.74803 0.0998,26.62204 0.0108,2.86259 0.0215,5.72517 0.0322,8.58776 8.9e-4,0.25449 0.0161,4.28221 0.006,1.71755"
     id="path1121-3"
     inkscape:connector-curvature="0" /><path
     style="fill:none;stroke:#000000;stroke-width:9.19939995px;stroke-linecap:butt;stroke-linejoin:miter;stroke-opacity:1"
     d="m 262.37965,438.1107 c -3.1371,0.0278 -6.27421,0.0554 -9.4113,0.0832 -8.84092,0.0781 -17.68184,0.15627 -26.52275,0.23441 -2.8519,0.0252 -5.70381,0.0504 -8.55572,0.0756 -0.25355,0.003 -4.26623,0.0377 -1.71115,0.0152"
     id="path1121-2"
     inkscape:connector-curvature="0" /><path
     style="fill:none;stroke:#000000;stroke-width:9.19939995px;stroke-linecap:butt;stroke-linejoin:miter;stroke-opacity:1"
     d="m 504.41333,437.18525 c 3.13696,-0.0396 6.27395,-0.0791 9.41091,-0.11873 8.84056,-0.11156 17.68112,-0.22303 26.52167,-0.3346 2.8518,-0.036 5.7036,-0.072 8.55538,-0.10797 0.25354,-0.004 4.26607,-0.0538 1.71108,-0.0214"
     id="path1121-3-8"
     inkscape:connector-curvature="0" /><path
     style="fill:none;stroke:#000000;stroke-width:9.19939995px;stroke-linecap:butt;stroke-linejoin:miter;stroke-opacity:1"
     d="m 298.92528,350.63377 c -2.2013,-2.24355 -4.40261,-4.48713 -6.6039,-6.73069 -6.20369,-6.32277 -12.40736,-12.64554 -18.61103,-18.9683 -2.00119,-2.03961 -4.00237,-4.07922 -6.00356,-6.11882 -0.17791,-0.18133 -2.99362,-3.05109 -1.20071,-1.22376"
     id="path1121-1"
     inkscape:connector-curvature="0" /><path
     style="fill:none;stroke:#000000;stroke-width:9.19939995px;stroke-linecap:butt;stroke-linejoin:miter;stroke-opacity:1"
     d="m 467.89154,524.57325 c 2.20953,2.2354 4.41907,4.4708 6.62936,6.70545 6.22761,6.29902 12.4544,12.59885 18.68201,18.89786 2.00867,2.0322 4.01733,4.06438 6.02673,6.09581 0.17856,0.18071 3.00487,3.03993 1.20512,1.2194"
     id="path1121-3-4"
     inkscape:connector-curvature="0" /><path
     style="fill:none;stroke:#000000;stroke-width:9.19939995px;stroke-linecap:butt;stroke-linejoin:miter;stroke-opacity:1"
     d="m 297.50739,523.21231 c -2.21602,2.2289 -4.43124,4.45864 -6.64726,6.68755 -6.2446,6.28206 -12.48902,12.5643 -18.73351,18.84644 -2.01432,2.02655 -4.02857,4.05315 -6.04289,6.07969 -0.17879,0.18046 -3.01316,3.03166 -1.20884,1.21568"
     id="path1121-2-5"
     inkscape:connector-curvature="0" /><path
     style="fill:none;stroke:#000000;stroke-width:9.19939995px;stroke-linecap:butt;stroke-linejoin:miter;stroke-opacity:1"
     d="m 469.30914,352.0939 c 2.20708,-2.23786 4.41489,-4.47496 6.62225,-6.71252 6.22087,-6.30571 12.44184,-12.61136 18.66277,-18.917 2.00687,-2.03398 4.01366,-4.06802 6.0202,-6.10232 0.17819,-0.1811 3.00194,-3.04285 1.20439,-1.22011"
     id="path1121-3-8-9"
     inkscape:connector-curvature="0" /></g>
</svg>