<?xml version="1.0" encoding="UTF-8" standalone="no"?>
<!-- Generator: Adobe Illustrator 24.1.0, SVG Export Plug-In . SVG Version: 6.00 Build 0)  -->

<svg
   xmlns:dc="http://purl.org/dc/elements/1.1/"
   xmlns:cc="http://creativecommons.org/ns#"
   xmlns:rdf="http://www.w3.org/1999/02/22-rdf-syntax-ns#"
   xmlns:svg="http://www.w3.org/2000/svg"
   xmlns="http://www.w3.org/2000/svg"
   xmlns:sodipodi="http://sodipodi.sourceforge.net/DTD/sodipodi-0.dtd"
   xmlns:inkscape="http://www.inkscape.org/namespaces/inkscape"
   version="1.1"
   id="svg8"
   inkscape:export-filename="/media/juhele/data_2TB/_GRAFIKA/GHS hazard symbols/GHS06_toxic_substances.png"
   inkscape:export-xdpi="99.027519"
   inkscape:export-ydpi="99.027519"
   inkscape:version="0.92.5 (2060ec1f9f, 2020-04-08)"
   sodipodi:docname="Laadpaal.svg"
   x="0px"
   y="0px"
   viewBox="0 0 125 125"
   xml:space="preserve"
   width="125"
   height="125"><metadata
   id="metadata1176"><rdf:RDF><cc:Work
       rdf:about=""><dc:format>image/svg+xml</dc:format><dc:type
         rdf:resource="http://purl.org/dc/dcmitype/StillImage" /><dc:title /></cc:Work></rdf:RDF></metadata><defs
   id="defs1174" /><sodipodi:namedview
   pagecolor="#ffffff"
   bordercolor="#666666"
   borderopacity="1"
   objecttolerance="10"
   gridtolerance="10"
   guidetolerance="10"
   inkscape:pageopacity="0"
   inkscape:pageshadow="2"
   inkscape:window-width="1920"
   inkscape:window-height="1017"
   id="namedview1172"
   showgrid="false"
   inkscape:zoom="14.967977"
   inkscape:cx="54.500572"
   inkscape:cy="62.5"
   inkscape:window-x="-8"
   inkscape:window-y="-8"
   inkscape:window-maximized="1"
   inkscape:current-layer="g1900" />
<style
   type="text/css"
   id="style1162">
	.st0{fill:#FFEB1D;}
	.st1{fill-rule:evenodd;clip-rule:evenodd;}
</style>

<g
   id="g1182"
   transform="matrix(0.08406927,0,0,0.08406927,29.927361,33.508712)"><g
     id="g1168">
	<polygon
   id="polygon1164"
   points="387,36.4 746.6,657.8 28.2,657.8 "
   class="st0"
   style="fill:#ffeb1d" />
	<path
   id="path1166"
   d="m 411.7,41.6 v 0 0 M 387,84.4 705,633.8 H 69.8 L 387,84.4 m 0,-76.5 c -6.6,0 -13.1,3.2 -16.9,9.7 L 3.5,652.6 c -7.5,13 1.9,29.2 16.9,29.2 h 734.1 c 15,0 24.4,-16.2 16.9,-29.2 L 404,17.6 C 400.1,11.1 393.5,7.9 387,7.9 Z"
   inkscape:connector-curvature="0" />
</g><g
     id="g1900"
     transform="matrix(0.9038234,0,0,0.87985073,445.03557,219.98792)"><rect
       y="83.726974"
       x="-183.48476"
       height="319.63196"
       width="166.15788"
       id="rect1843"
       style="fill:none;fill-opacity:1;fill-rule:evenodd;stroke:#000000;stroke-width:16.93921295;stroke-linejoin:round;stroke-miterlimit:4;stroke-dasharray:none;stroke-opacity:1" /><path
       style="clip-rule:evenodd;fill-rule:evenodd;stroke-width:0.39184031"
       id="path28-1"
       inkscape:connector-curvature="0"
       class="st1"
       d="m -85.408181,294.43995 -23.653359,58.38932 -8.86444,-3.96386 6.01356,20.57759 21.337029,-12.78774 -9.933519,-1.41319 40.313159,-78.10522 -58.086599,21.50823 34.522329,-63.93873 -18.753409,-5.44599 -31.76054,83.20651 48.865789,-18.02692" /><rect
       y="124.31512"
       x="-147.97009"
       height="77.371231"
       width="93.860184"
       id="rect1862"
       style="fill:none;fill-opacity:1;fill-rule:evenodd;stroke:#000000;stroke-width:11.91368484;stroke-linejoin:round;stroke-miterlimit:4;stroke-dasharray:none;stroke-opacity:1" /><path
       sodipodi:nodetypes="ccsc"
       inkscape:connector-curvature="0"
       id="path1866"
       d="m -16.058486,157.29304 c 45.661707,-3.80514 35.514663,102.73884 35.514663,102.73884 0,0 -15.394268,85.36478 34.246285,82.44475 C 96.827408,339.93988 77.801698,225.7856 77.801698,225.7856"
       style="fill:none;stroke:#000000;stroke-width:11.89495277px;stroke-linecap:butt;stroke-linejoin:miter;stroke-opacity:1" /><path
       inkscape:connector-curvature="0"
       id="rect1868"
       d="m 47.350101,187.73237 v 32.44246 2.80259 h 0.720203 a 29.806956,13.217998 0 0 0 29.086884,10.41798 29.806956,13.217998 0 0 0 29.133342,-10.41798 h 0.67373 v -2.80259 -32.44246 z"
       style="fill:#111002;fill-opacity:1;fill-rule:evenodd;stroke:none;stroke-width:9.4680872;stroke-linejoin:round;stroke-miterlimit:4;stroke-dasharray:none;stroke-opacity:1" /><path
       inkscape:connector-curvature="0"
       id="rect1873"
       d="m 63.172415,154.95301 a 5.6454564,5.7848502 0 0 0 -5.622233,5.29697 5.6454564,5.7848502 0 0 0 -0.02323,0.48788 5.6454564,5.7848502 0 0 0 0.02323,0.41818 v 37.96163 h 11.197992 v -37.52021 a 5.6454564,5.7848502 0 0 0 0.06969,-0.8596 5.6454564,5.7848502 0 0 0 -5.645452,-5.78485 z"
       style="fill:#111002;fill-opacity:1;fill-rule:evenodd;stroke:none;stroke-width:11.91368484;stroke-linejoin:round;stroke-miterlimit:4;stroke-dasharray:none;stroke-opacity:1" /><path
       inkscape:connector-curvature="0"
       id="rect1873-3"
       d="m 90.633136,153.89421 a 5.6454564,5.7848502 0 0 0 -5.62224,5.29697 5.6454564,5.7848502 0 0 0 -0.0232,0.48788 5.6454564,5.7848502 0 0 0 0.0232,0.41818 v 37.96163 h 11.19799 v -37.52021 a 5.6454564,5.7848502 0 0 0 0.0697,-0.8596 5.6454564,5.7848502 0 0 0 -5.64545,-5.78485 z"
       style="fill:#111002;fill-opacity:1;fill-rule:evenodd;stroke:none;stroke-width:11.91368484;stroke-linejoin:round;stroke-miterlimit:4;stroke-dasharray:none;stroke-opacity:1" /></g></g>
</svg>