<?xml version="1.0" encoding="UTF-8" standalone="no"?>
<!-- Generator: Adobe Illustrator 24.1.0, SVG Export Plug-In . SVG Version: 6.00 Build 0)  -->

<svg
   version="1.1"
   id="svg8"
   inkscape:export-filename="Stroming.png"
   inkscape:export-xdpi="99.027519"
   inkscape:export-ydpi="99.027519"
   inkscape:version="1.3 (0e150ed6c4, 2023-07-21)"
   sodipodi:docname="Stroming.svg"
   x="0px"
   y="0px"
   viewBox="0 0 125 125"
   xml:space="preserve"
   width="125"
   height="125"
   xmlns:inkscape="http://www.inkscape.org/namespaces/inkscape"
   xmlns:sodipodi="http://sodipodi.sourceforge.net/DTD/sodipodi-0.dtd"
   xmlns="http://www.w3.org/2000/svg"
   xmlns:svg="http://www.w3.org/2000/svg"
   xmlns:rdf="http://www.w3.org/1999/02/22-rdf-syntax-ns#"
   xmlns:cc="http://creativecommons.org/ns#"
   xmlns:dc="http://purl.org/dc/elements/1.1/"><metadata
   id="metadata1176"><rdf:RDF><cc:Work
       rdf:about=""><dc:format>image/svg+xml</dc:format><dc:type
         rdf:resource="http://purl.org/dc/dcmitype/StillImage" /></cc:Work></rdf:RDF></metadata><defs
   id="defs1174" /><sodipodi:namedview
   pagecolor="#ffffff"
   bordercolor="#666666"
   borderopacity="1"
   objecttolerance="10"
   gridtolerance="10"
   guidetolerance="10"
   inkscape:pageopacity="0"
   inkscape:pageshadow="2"
   inkscape:window-width="1920"
   inkscape:window-height="1017"
   id="namedview1172"
   showgrid="false"
   inkscape:zoom="6.1091087"
   inkscape:cx="98.623225"
   inkscape:cy="62.611425"
   inkscape:window-x="3832"
   inkscape:window-y="-8"
   inkscape:window-maximized="1"
   inkscape:current-layer="surface1-5"
   inkscape:showpageshadow="2"
   inkscape:pagecheckerboard="0"
   inkscape:deskcolor="#d1d1d1" />&#10;<style
   type="text/css"
   id="style1162">&#10;	.st0{fill:#FFEB1D;}&#10;	.st1{fill-rule:evenodd;clip-rule:evenodd;}&#10;</style>&#10;&#10;<g
   id="g1182"
   transform="matrix(0.08406927,0,0,0.08406927,29.927361,33.508712)"><g
     id="g1168">&#10;	<polygon
   id="polygon1164"
   points="387,36.4 746.6,657.8 28.2,657.8 "
   class="st0"
   style="fill:#ffeb1d" />&#10;	<path
   id="path1166"
   d="m 411.7,41.6 v 0 0 M 387,84.4 705,633.8 H 69.8 L 387,84.4 m 0,-76.5 c -6.6,0 -13.1,3.2 -16.9,9.7 L 3.5,652.6 c -7.5,13 1.9,29.2 16.9,29.2 h 734.1 c 15,0 24.4,-16.2 16.9,-29.2 L 404,17.6 C 400.1,11.1 393.5,7.9 387,7.9 Z"
   inkscape:connector-curvature="0" />&#10;</g></g>&#10;<g
   id="surface1-5"
   transform="matrix(0.08927378,0,0,0.08914383,66.111721,77.761797)"
   style="stroke-width:14.9462"><path
     id="path3-5"
     style="fill:#000202;fill-opacity:1;fill-rule:evenodd;stroke:#000202;stroke-width:1.4439;stroke-linecap:butt;stroke-linejoin:miter;stroke-miterlimit:2.613;stroke-opacity:1"
     d="M -132.32209 -174.84122 L -134.94744 -174.44684 L -137.4634 -173.4609 L -139.45429 -171.81766 L -141.09513 -169.80196 L -142.07964 -167.32615 L -142.45157 -164.67506 L -142.07964 -162.17734 L -141.09513 -159.65771 L -139.45429 -157.53246 L -73.05479 -91.101897 L -73.05479 -33.172341 L -66.535169 -31.047088 L -59.77489 -29.535311 L -52.905222 -28.899926 L -46.013676 -28.899926 L -39.100251 -29.535311 L -32.339973 -31.047088 L -25.710962 -33.172341 L -25.710962 -91.079987 L 40.688538 -157.53246 L 42.329383 -159.65771 L 43.313889 -162.17734 L 43.576424 -164.67506 L 43.313889 -167.32615 L 42.329383 -169.80196 L 40.688538 -171.81766 L 38.56638 -173.4609 L 36.181686 -174.44684 L 33.556335 -174.84122 L 30.930984 -174.44684 L 28.54629 -173.4609 L 26.402254 -171.81766 L -43.475836 -101.88153 L -55.421183 -101.88153 L -125.18988 -171.81766 L -127.31204 -173.4609 L -129.80613 -174.44684 L -132.32209 -174.84122 z M -49.382876 -149.27246 L -53.255269 -148.87808 L -56.908882 -147.76068 L -60.278082 -145.98599 L -63.297236 -143.48827 L -65.660052 -140.61808 L -67.410286 -137.22206 L -68.547938 -133.47548 L -68.919862 -129.70699 L -68.547938 -125.93851 L -67.410286 -122.19193 L -65.660052 -118.79591 L -63.297236 -115.90381 L -60.278082 -113.40609 L -56.908882 -111.65331 L -53.255269 -110.51399 L -49.382876 -110.14153 L -45.619873 -110.51399 L -41.85687 -111.65331 L -38.48767 -113.40609 L -35.599784 -115.90381 L -33.1057 -118.79591 L -31.333588 -122.19193 L -30.217814 -125.93851 L -29.84589 -129.70699 L -30.217814 -133.47548 L -31.333588 -137.22206 L -33.1057 -140.61808 L -35.599784 -143.48827 L -38.48767 -145.98599 L -41.85687 -147.76068 L -45.619873 -148.87808 L -49.382876 -149.27246 z M 85.056969 -55.870911 L 85.056969 -25.525815 L 71.514534 -30.91563 L 63.244678 -33.785816 L 54.843555 -35.932978 L 46.333043 -37.313296 L 37.691263 -38.05823 L 28.918215 -38.05823 L 20.276435 -37.313296 L 11.765922 -35.932978 L 3.3647996 -33.785816 L -4.7956662 -30.91563 L -21.576034 -24.276955 L -28.336313 -22.020244 L -35.227859 -20.377008 L -42.228795 -19.391066 L -49.382876 -18.996689 L -56.515079 -19.391066 L -63.537893 -20.377008 L -70.429439 -22.020244 L -77.189718 -24.276955 L -93.970086 -30.91563 L -102.13055 -33.785816 L -110.53167 -35.932978 L -119.17345 -37.313296 L -127.81523 -38.05823 L -136.43514 -38.05823 L -145.09879 -37.313296 L -153.60931 -35.932978 L -162.1417 -33.785816 L -170.28029 -30.91563 L -187.06065 -24.276955 L -194.21473 -21.888785 L -201.60947 -20.136 L -209.1136 -19.259607 L -216.61773 -18.996689 L -224.14374 -19.632074 L -225.89397 -19.500615 L -227.53481 -18.755681 L -228.78186 -17.375363 L -229.5257 -15.732126 L -229.91951 -12.358015 L -229.5257 -9.0934518 L -228.40993 -5.960348 L -226.52843 -3.0682522 L -224.14374 -0.70199194 L -221.40899 1.0507934 L -218.12731 2.1901039 L -214.88937 2.540661 L -205.7444 2.058645 L -196.70882 0.78787562 L -187.82638 -1.3373766 L -179.16272 -4.2075627 L -162.38235 -10.846237 L -155.11888 -13.365866 L -147.48349 -15.118652 L -139.82621 -16.236052 L -132.05955 -16.608519 L -124.42416 -16.236052 L -116.65749 -15.118652 L -109.13149 -13.365866 L -101.88989 -10.846237 L -85.087648 -4.2075627 L -77.452253 -1.5783846 L -69.554322 0.43731854 L -61.547002 1.817637 L -53.517804 2.4311119 L -45.357338 2.4311119 L -37.240628 1.817637 L -29.21143 0.43731854 L -21.444767 -1.5783846 L -13.678103 -4.2075627 L 2.9709969 -10.846237 L 10.365735 -13.365866 L 17.891741 -15.118652 L 25.527137 -16.236052 L 33.2938 -16.608519 L 41.060463 -16.236052 L 48.717737 -15.118652 L 56.221865 -13.365866 L 63.616603 -10.846237 L 80.287581 -4.2075627 L 85.056969 -2.5862362 L 85.056969 2.8035788 L 90.920253 5.0602899 L 95.952175 6.8130753 L 101.20288 8.1933938 L 101.20288 -31.660563 L 127.1501 -8.2170592 L 132.53206 -13.102948 L 85.056969 -55.870911 z M 108.46635 -15.118652 L 108.46635 16.847771 L 101.5748 15.86183 L 94.814523 14.218593 L 88.185512 11.961882 L 71.514534 5.3232077 L 63.244678 2.4311119 L 54.843555 0.30585964 L 46.333043 -1.0744588 L 37.691263 -1.8413024 L 28.918215 -1.8413024 L 20.276435 -1.0744588 L 11.765922 0.30585964 L 3.3647996 2.4311119 L -4.7956662 5.3232077 L -21.576034 11.961882 L -28.336313 14.218593 L -35.227859 15.86183 L -42.228795 16.847771 L -49.382876 17.220238 L -56.515079 16.847771 L -63.537893 15.86183 L -70.429439 14.218593 L -77.189718 11.961882 L -93.970086 5.3232077 L -102.13055 2.4311119 L -110.53167 0.30585964 L -119.17345 -1.0744588 L -127.81523 -1.8413024 L -136.43514 -1.8413024 L -145.09879 -1.0744588 L -153.60931 0.30585964 L -162.1417 2.4311119 L -170.28029 5.3232077 L -187.06065 11.961882 L -194.58666 14.459601 L -202.35332 16.234297 L -210.11999 17.110689 L -218.12731 17.110689 L -226.02524 16.343846 L -233.7919 14.832068 L -241.29603 12.465808 L -243.3088 12.093341 L -245.1903 12.575357 L -246.69988 13.846127 L -247.70626 15.467453 L -247.94692 17.483156 L -247.31246 19.3674 L -244.68711 23.486446 L -241.55856 27.386393 L -237.79556 30.760505 L -233.7919 33.521142 L -229.28505 35.777853 L -224.64693 37.42109 L -219.76815 38.407031 L -214.88937 38.779498 L -205.7444 38.297482 L -196.70882 37.026713 L -187.82638 34.901461 L -179.16272 32.009365 L -162.38235 25.37069 L -155.11888 22.872971 L -147.48349 20.988727 L -139.82621 19.980875 L -132.05955 19.608408 L -124.42416 19.980875 L -116.65749 20.988727 L -109.15337 22.872971 L -101.88989 25.37069 L -85.087648 32.009365 L -77.452253 34.638543 L -69.554322 36.654246 L -61.547002 38.034564 L -53.517804 38.669949 L -45.357338 38.669949 L -37.240628 38.034564 L -29.21143 36.654246 L -21.444767 34.638543 L -13.678103 32.009365 L 2.9709969 25.37069 L 10.365735 22.872971 L 17.891741 20.988727 L 25.527137 19.980875 L 33.2938 19.608408 L 41.060463 19.980875 L 48.717737 20.988727 L 56.221865 22.872971 L 63.616603 25.37069 L 80.287581 32.009365 L 89.563821 35.03292 L 98.949451 37.289631 L 108.46635 38.407031 L 108.46635 70.504913 L 155.94144 27.627401 L 108.46635 -15.118652 z " /></g></svg>
