<?xml version="1.0" encoding="UTF-8" standalone="no"?>
<!-- Generator: Adobe Illustrator 24.1.0, SVG Export Plug-In . SVG Version: 6.00 Build 0)  -->

<svg
   xmlns:dc="http://purl.org/dc/elements/1.1/"
   xmlns:cc="http://creativecommons.org/ns#"
   xmlns:rdf="http://www.w3.org/1999/02/22-rdf-syntax-ns#"
   xmlns:svg="http://www.w3.org/2000/svg"
   xmlns="http://www.w3.org/2000/svg"
   xmlns:sodipodi="http://sodipodi.sourceforge.net/DTD/sodipodi-0.dtd"
   xmlns:inkscape="http://www.inkscape.org/namespaces/inkscape"
   version="1.1"
   id="svg8"
   inkscape:export-filename="/media/juhele/data_2TB/_GRAFIKA/GHS hazard symbols/GHS06_toxic_substances.png"
   inkscape:export-xdpi="99.027519"
   inkscape:export-ydpi="99.027519"
   inkscape:version="0.92.5 (2060ec1f9f, 2020-04-08)"
   sodipodi:docname="opstelpl_WTS.svg"
   x="0px"
   y="0px"
   viewBox="0 0 125 125"
   xml:space="preserve"
   width="125"
   height="125"><metadata
   id="metadata916"><rdf:RDF><cc:Work
       rdf:about=""><dc:format>image/svg+xml</dc:format><dc:type
         rdf:resource="http://purl.org/dc/dcmitype/StillImage" /><dc:title /></cc:Work></rdf:RDF></metadata><defs
   id="defs914"><clipPath
     id="clipPath18"><path
       inkscape:connector-curvature="0"
       d="M 0,227.562 V 0 h 566.934 v 227.562 z"
       id="path20" /></clipPath><clipPath
     id="clipPath18-2"><path
       inkscape:connector-curvature="0"
       d="M 0,0 H 566.934 V 246 H 0 Z"
       id="path20-9" /></clipPath><clipPath
     id="clipPath18-2-1"><path
       inkscape:connector-curvature="0"
       d="M 0,0 H 566.934 V 246 H 0 Z"
       id="path20-9-0" /></clipPath><clipPath
     id="clipPath18-0"><path
       inkscape:connector-curvature="0"
       d="M 0,0 H 566.934 V 246 H 0 Z"
       id="path20-1" /></clipPath></defs><sodipodi:namedview
   pagecolor="#ffffff"
   bordercolor="#666666"
   borderopacity="1"
   objecttolerance="10"
   gridtolerance="10"
   guidetolerance="10"
   inkscape:pageopacity="0"
   inkscape:pageshadow="2"
   inkscape:window-width="1920"
   inkscape:window-height="1017"
   id="namedview912"
   showgrid="false"
   inkscape:zoom="6.1005126"
   inkscape:cx="71.331366"
   inkscape:cy="49.383253"
   inkscape:window-x="-8"
   inkscape:window-y="-8"
   inkscape:window-maximized="1"
   inkscape:current-layer="text3036" />
<style
   type="text/css"
   id="style901">
	.st0{fill:#FFEB1D;}
</style>


<g
   id="g944"
   transform="matrix(1.0954926,0,0,1.411122,-43.307848,-18.392236)"><g
   id="g10"
   transform="matrix(1.25,0,0,-1.25,62.755096,68.085992)"><path
     style="fill:#ffffff;fill-opacity:1;stroke:none"
     id="path3001-6"
     transform="matrix(0.8,0,0,-0.8,0,24.65)"
     d="M 1.8959867,2.6096978 64.22655,2.8466961 68.729518,8.5346562 68.966516,23.465552 65.174543,27.257525 2.132985,27.494523 Z"
     inkscape:connector-curvature="0" /><g
     id="g12"
     transform="scale(0.1)"><g
       id="g14"><g
         id="g16"
         clip-path="url(#clipPath18-0)"><path
           style="fill:#ed1c24;fill-opacity:1;fill-rule:nonzero;stroke:none"
           id="path22"
           d="m 448.73,214.977 c 0,-4.278 0,-12.165 0,-12.165 0,0 52.325,-0.019 61.094,-0.019 21.543,-16.305 25.567,-27.145 25.567,-32.164 l 0.039,-94.711 c 0,-7.9805 -10.45,-20.3321 -25.879,-32.1602 -9.219,0 -60.703,0 -60.703,0 0,0 0,-7.957 -0.039,-12.1875 -15.235,0 -32.911,0 -48.223,0 0,4.2891 0,12.1485 0,12.1485 H 133.434 c 0,0 0,-7.9766 0,-12.2266 -15.485,0 -33.852,0 -49.3246,0 0,4.2695 -0.0078,12.207 -0.0078,12.207 0,0 -37.086,-0.039 -52.5352,-0.039 -0.0078,24.1132 -0.0469,134.9178 -0.0586,159.0388 15.461,0.012 52.5664,0.02 52.5664,0.02 0,0 0,7.922 0,12.187 15.4766,0 33.8478,0 49.3208,0 0,-4.277 0,-12.176 0,-12.176 l 267.152,0.028 c 0,0 0,7.961 0,12.207 15.312,0 32.91,0.012 48.183,0.012 z m 15.762,31.496 -95.43,-0.02 c 0,0 0,-7.949 0,-12.207 -25.449,0 -178.707,-0.008 -204.175,-0.019 0,4.277 0,12.168 0,12.168 H 52.582 c 0,0 0,-7.93 0,-12.188 C 37.125,234.199 0,234.188 0,234.188 L 0.078125,12.1289 c 0,0 37.105475,0.0391 52.554675,0.0391 C 52.6328,7.92188 52.6406,0 52.6406,0 H 164.926 c 0,0 0,7.97656 0,12.2266 25.461,0 178.726,0 204.176,0 0,-4.2891 0,-12.148475 0,-12.148475 h 111.113 c 0,0 0.039,7.957035 0.039,12.187475 15,0 40.234,0 40.234,0 l 4.102,2.9375 c 19.316,13.7891 42.305,35.5274 42.344,60.6758 l -0.039,94.7501 c 0,20.543 -13.848,40.41 -42.422,60.734 l -4.063,2.922 c 0,0 -25.156,0.012 -40.195,0.02 0,4.269 0,12.179 0,12.179 l -15.723,-0.011"
           inkscape:connector-curvature="0" /><path
           style="fill:#ed1c24;fill-opacity:1;fill-rule:nonzero;stroke:none"
           id="path24"
           d="m 462.617,62.4219 32.285,1.7656 c 0,0 6.114,33.957 6.075,59.9175 0,25.899 -6.114,58.52 -6.114,58.52 l -32.285,2.691 0.039,-122.8941"
           inkscape:connector-curvature="0" /></g></g></g></g><g
   aria-label="WTS"
   transform="scale(0.97097031,1.0298976)"
   style="font-style:normal;font-weight:normal;font-size:10.5084343px;line-height:0%;font-family:sans-serif;letter-spacing:0px;word-spacing:0px;fill:#ed1c24;fill-opacity:1;stroke:none;stroke-width:0.87570286"
   id="text3036"><path
     d="m 92.014761,44.469299 -3.772193,14.00697 h -3.99796 l -2.511659,-9.124756 -2.445811,9.124756 h -3.99796 l -3.772193,-14.00697 h 3.772193 l 2.154195,9.642138 2.577508,-9.642138 h 3.602867 l 2.455218,9.642138 2.257672,-9.642138 z"
     style="font-weight:bold;font-size:19.26546288px;line-height:1.25;font-family:sans-serif;-inkscape-font-specification:'Sans Bold';letter-spacing:0px;fill:#ed1c24;fill-opacity:1;stroke-width:0.87570286"
     id="path875" /><path
     d="m 105.39146,47.178505 h -4.37423 V 58.476269 H 97.404951 V 47.178505 h -4.374238 v -2.709206 h 12.360747 z"
     style="font-weight:bold;font-size:19.26546288px;line-height:1.25;font-family:sans-serif;-inkscape-font-specification:'Sans Bold';letter-spacing:0px;fill:#ed1c24;fill-opacity:1;stroke-width:0.87570286"
     id="path877" /><path
     d="m 118.77757,54.073809 q 0,2.069533 -1.7591,3.367694 -1.74969,1.288754 -4.75992,1.288754 -1.74029,0 -3.03845,-0.301023 -1.28876,-0.31043 -2.41759,-0.780778 V 54.29017 h 0.39509 q 1.11943,0.893661 2.50225,1.373416 1.39223,0.479756 2.67158,0.479756 0.32924,0 0.86544,-0.05644 0.5362,-0.05644 0.87485,-0.188139 0.41391,-0.169326 0.6773,-0.423314 0.2728,-0.253988 0.2728,-0.752557 0,-0.460941 -0.39509,-0.790185 -0.38569,-0.338651 -1.13824,-0.517383 -0.79019,-0.188139 -1.67444,-0.348058 -0.87485,-0.169325 -1.64622,-0.423313 -1.76851,-0.573825 -2.54929,-1.552149 -0.77137,-0.987731 -0.77137,-2.445811 0,-1.956648 1.7497,-3.188961 1.7591,-1.241719 4.51534,-1.241719 1.38282,0 2.72802,0.272802 1.3546,0.263395 2.34233,0.667894 v 3.226589 h -0.38568 q -0.84663,-0.677301 -2.07894,-1.128836 -1.22291,-0.460941 -2.50225,-0.460941 -0.45154,0 -0.90307,0.06585 -0.44213,0.05644 -0.85604,0.225767 -0.36687,0.141104 -0.63026,0.43272 -0.2634,0.282209 -0.2634,0.649081 0,0.555011 0.42332,0.856034 0.42331,0.291616 1.59918,0.536197 0.77137,0.159918 1.47689,0.310429 0.71493,0.150512 1.53334,0.413907 1.60859,0.52679 2.37055,1.439265 0.77137,0.903069 0.77137,2.351741 z"
     style="font-weight:bold;font-size:19.26546288px;line-height:1.25;font-family:sans-serif;-inkscape-font-specification:'Sans Bold';letter-spacing:0px;fill:#ed1c24;fill-opacity:1;stroke-width:0.87570286"
     id="path879" /></g>
</g></svg>