<?xml version="1.0" encoding="UTF-8" standalone="no"?>
<!-- Generator: Adobe Illustrator 24.1.0, SVG Export Plug-In . SVG Version: 6.00 Build 0)  -->

<svg
   xmlns:dc="http://purl.org/dc/elements/1.1/"
   xmlns:cc="http://creativecommons.org/ns#"
   xmlns:rdf="http://www.w3.org/1999/02/22-rdf-syntax-ns#"
   xmlns:svg="http://www.w3.org/2000/svg"
   xmlns="http://www.w3.org/2000/svg"
   xmlns:sodipodi="http://sodipodi.sourceforge.net/DTD/sodipodi-0.dtd"
   xmlns:inkscape="http://www.inkscape.org/namespaces/inkscape"
   version="1.1"
   id="svg8"
   inkscape:export-filename="/media/juhele/data_2TB/_GRAFIKA/GHS hazard symbols/GHS06_toxic_substances.png"
   inkscape:export-xdpi="99.027519"
   inkscape:export-ydpi="99.027519"
   inkscape:version="0.92.5 (2060ec1f9f, 2020-04-08)"
   sodipodi:docname="opstelpl_SB.svg"
   x="0px"
   y="0px"
   viewBox="0 0 125 125"
   xml:space="preserve"
   width="125"
   height="125"><metadata
   id="metadata916"><rdf:RDF><cc:Work
       rdf:about=""><dc:format>image/svg+xml</dc:format><dc:type
         rdf:resource="http://purl.org/dc/dcmitype/StillImage" /><dc:title /></cc:Work></rdf:RDF></metadata><defs
   id="defs914"><clipPath
     id="clipPath18"><path
       inkscape:connector-curvature="0"
       d="M 0,227.562 V 0 h 566.934 v 227.562 z"
       id="path20" /></clipPath><clipPath
     id="clipPath18-2"><path
       inkscape:connector-curvature="0"
       d="M 0,0 H 566.934 V 246 H 0 Z"
       id="path20-9" /></clipPath><clipPath
     id="clipPath18-2-1"><path
       inkscape:connector-curvature="0"
       d="M 0,0 H 566.934 V 246 H 0 Z"
       id="path20-9-0" /></clipPath><clipPath
     id="clipPath18-0"><path
       inkscape:connector-curvature="0"
       d="M 0,0 H 566.934 V 246 H 0 Z"
       id="path20-1" /></clipPath></defs><sodipodi:namedview
   pagecolor="#ffffff"
   bordercolor="#666666"
   borderopacity="1"
   objecttolerance="10"
   gridtolerance="10"
   guidetolerance="10"
   inkscape:pageopacity="0"
   inkscape:pageshadow="2"
   inkscape:window-width="1920"
   inkscape:window-height="1017"
   id="namedview912"
   showgrid="false"
   inkscape:zoom="6.1005126"
   inkscape:cx="43.382895"
   inkscape:cy="49.383253"
   inkscape:window-x="-8"
   inkscape:window-y="-8"
   inkscape:window-maximized="1"
   inkscape:current-layer="g944" />
<style
   type="text/css"
   id="style901">
	.st0{fill:#FFEB1D;}
</style>


<g
   id="g944"
   transform="matrix(1.0954926,0,0,1.411122,-43.307848,-18.392236)"><g
   id="g10"
   transform="matrix(1.25,0,0,-1.25,62.755096,68.085992)"><path
     style="fill:#ffffff;fill-opacity:1;stroke:none"
     id="path3001-6"
     transform="matrix(0.8,0,0,-0.8,0,24.65)"
     d="M 1.8959867,2.6096978 64.22655,2.8466961 68.729518,8.5346562 68.966516,23.465552 65.174543,27.257525 2.132985,27.494523 Z"
     inkscape:connector-curvature="0" /><g
     id="g12"
     transform="scale(0.1)"><g
       id="g14"><g
         id="g16"
         clip-path="url(#clipPath18-0)"><path
           style="fill:#ed1c24;fill-opacity:1;fill-rule:nonzero;stroke:none"
           id="path22"
           d="m 448.73,214.977 c 0,-4.278 0,-12.165 0,-12.165 0,0 52.325,-0.019 61.094,-0.019 21.543,-16.305 25.567,-27.145 25.567,-32.164 l 0.039,-94.711 c 0,-7.9805 -10.45,-20.3321 -25.879,-32.1602 -9.219,0 -60.703,0 -60.703,0 0,0 0,-7.957 -0.039,-12.1875 -15.235,0 -32.911,0 -48.223,0 0,4.2891 0,12.1485 0,12.1485 H 133.434 c 0,0 0,-7.9766 0,-12.2266 -15.485,0 -33.852,0 -49.3246,0 0,4.2695 -0.0078,12.207 -0.0078,12.207 0,0 -37.086,-0.039 -52.5352,-0.039 -0.0078,24.1132 -0.0469,134.9178 -0.0586,159.0388 15.461,0.012 52.5664,0.02 52.5664,0.02 0,0 0,7.922 0,12.187 15.4766,0 33.8478,0 49.3208,0 0,-4.277 0,-12.176 0,-12.176 l 267.152,0.028 c 0,0 0,7.961 0,12.207 15.312,0 32.91,0.012 48.183,0.012 z m 15.762,31.496 -95.43,-0.02 c 0,0 0,-7.949 0,-12.207 -25.449,0 -178.707,-0.008 -204.175,-0.019 0,4.277 0,12.168 0,12.168 H 52.582 c 0,0 0,-7.93 0,-12.188 C 37.125,234.199 0,234.188 0,234.188 L 0.078125,12.1289 c 0,0 37.105475,0.0391 52.554675,0.0391 C 52.6328,7.92188 52.6406,0 52.6406,0 H 164.926 c 0,0 0,7.97656 0,12.2266 25.461,0 178.726,0 204.176,0 0,-4.2891 0,-12.148475 0,-12.148475 h 111.113 c 0,0 0.039,7.957035 0.039,12.187475 15,0 40.234,0 40.234,0 l 4.102,2.9375 c 19.316,13.7891 42.305,35.5274 42.344,60.6758 l -0.039,94.7501 c 0,20.543 -13.848,40.41 -42.422,60.734 l -4.063,2.922 c 0,0 -25.156,0.012 -40.195,0.02 0,4.269 0,12.179 0,12.179 l -15.723,-0.011"
           inkscape:connector-curvature="0" /><path
           style="fill:#ed1c24;fill-opacity:1;fill-rule:nonzero;stroke:none"
           id="path24"
           d="m 462.617,62.4219 32.285,1.7656 c 0,0 6.114,33.957 6.075,59.9175 0,25.899 -6.114,58.52 -6.114,58.52 l -32.285,2.691 0.039,-122.8941"
           inkscape:connector-curvature="0" /></g></g></g></g><g
   aria-label="SB"
   transform="scale(0.97097031,1.0298976)"
   style="font-style:normal;font-weight:normal;font-size:10.5084343px;line-height:0%;font-family:sans-serif;letter-spacing:0px;word-spacing:0px;fill:#ed1c24;fill-opacity:1;stroke:none;stroke-width:0.87570286"
   id="text3036"><path
     d="m 96.533208,53.735434 q 0,2.069533 -1.759102,3.367694 -1.749696,1.288754 -4.759924,1.288754 -1.740288,0 -3.03845,-0.301023 -1.288754,-0.31043 -2.417589,-0.780778 v -3.358286 h 0.395092 q 1.119429,0.893661 2.502253,1.373416 1.39223,0.479756 2.671577,0.479756 0.329244,0 0.865441,-0.05644 0.536197,-0.05644 0.874848,-0.18814 0.413906,-0.169325 0.677301,-0.423313 0.272802,-0.253988 0.272802,-0.752557 0,-0.460941 -0.395092,-0.790185 -0.385686,-0.338651 -1.138243,-0.517383 -0.790185,-0.188139 -1.67444,-0.348058 -0.874847,-0.169325 -1.646218,-0.423313 -1.76851,-0.573825 -2.549288,-1.552149 -0.771371,-0.987732 -0.771371,-2.445811 0,-1.956649 1.749696,-3.188961 1.759102,-1.241719 4.515343,-1.241719 1.382823,0 2.728019,0.272802 1.354603,0.263395 2.342334,0.667894 v 3.226589 h -0.385685 q -0.846627,-0.677301 -2.078939,-1.128836 -1.222906,-0.460941 -2.502253,-0.460941 -0.451534,0 -0.903068,0.06585 -0.442128,0.05644 -0.856034,0.225767 -0.366872,0.141104 -0.630267,0.43272 -0.263395,0.282209 -0.263395,0.649081 0,0.555011 0.423314,0.856034 0.423313,0.291615 1.599184,0.536197 0.771371,0.159918 1.476893,0.310429 0.714929,0.150512 1.533335,0.413907 1.608591,0.52679 2.370555,1.439265 0.771371,0.903069 0.771371,2.351741 z"
     style="font-weight:bold;font-size:19.26546288px;line-height:1.25;font-family:sans-serif;-inkscape-font-specification:'Sans Bold';letter-spacing:0px;fill:#ed1c24;fill-opacity:1;stroke-width:0.87570286"
     id="path1471" /><path
     d="m 111.00112,53.848318 q 0,1.015952 -0.41391,1.815544 -0.4045,0.799592 -1.11943,1.326382 -0.82781,0.62086 -1.82495,0.884255 -0.98773,0.263395 -2.51166,0.263395 h -6.114523 v -14.00697 h 5.437223 q 1.69326,0 2.47403,0.112883 0.79019,0.112884 1.56156,0.49857 0.79959,0.404499 1.18528,1.091207 0.39509,0.677302 0.39509,1.552149 0,1.015953 -0.5362,1.796731 -0.53619,0.771371 -1.51452,1.204091 v 0.07526 q 1.37342,0.272802 2.17301,1.128836 0.809,0.856033 0.809,2.257671 z m -4.62823,-5.757062 q 0,-0.348058 -0.17873,-0.696116 -0.16932,-0.348057 -0.61145,-0.517383 -0.39509,-0.150511 -0.98773,-0.159918 -0.58324,-0.01881 -1.64622,-0.01881 h -0.33865 v 2.963194 h 0.56441 q 0.85604,0 1.45808,-0.02822 0.60205,-0.02822 0.95011,-0.188139 0.48916,-0.216361 0.63967,-0.555011 0.15051,-0.348058 0.15051,-0.799592 z m 0.88426,5.70062 q 0,-0.667894 -0.2634,-1.025359 -0.25399,-0.366872 -0.87485,-0.545604 -0.42331,-0.12229 -1.16646,-0.131697 -0.74315,-0.0094 -1.55215,-0.0094 h -0.79018 v 3.489983 h 0.26339 q 1.52393,0 2.18242,-0.0094 0.65849,-0.0094 1.2135,-0.244581 0.56441,-0.235174 0.77137,-0.620859 0.21636,-0.395093 0.21636,-0.903069 z"
     style="font-weight:bold;font-size:19.26546288px;line-height:1.25;font-family:sans-serif;-inkscape-font-specification:'Sans Bold';letter-spacing:0px;fill:#ed1c24;fill-opacity:1;stroke-width:0.87570286"
     id="path1473" /></g>
</g></svg>