<?xml version="1.0" encoding="UTF-8"?>
<!-- Created with Inkscape (http://www.inkscape.org/) -->
<svg width="125" height="125" version="1.1" xml:space="preserve" xmlns="http://www.w3.org/2000/svg" xmlns:cc="http://creativecommons.org/ns#" xmlns:dc="http://purl.org/dc/elements/1.1/" xmlns:rdf="http://www.w3.org/1999/02/22-rdf-syntax-ns#"><metadata><rdf:RDF><cc:Work rdf:about=""><dc:format>image/svg+xml</dc:format><dc:type rdf:resource="http://purl.org/dc/dcmitype/StillImage"/></cc:Work></rdf:RDF></metadata><defs><clipPath id="clipPath18"><path d="m0 566.93v-566.93h566.93v566.93z"/></clipPath></defs><g transform="matrix(1.1465 0 0 -1.1465 30 95)"><rect transform="scale(1,-1)" x=".72064" y="-55.729" width="55.009" height="55.249" rx=".056434" color="#0000FF" fill="#fff"/><g transform="scale(.1)"><g clip-path="url(#clipPath18)"><path d="m283.47 131.47q51.218 0 87.071 36.273 35.853 36.273 35.853 88.091t-35.853 88.091q-35.853 36.273-87.071 36.273-51.218 0-87.071-36.273-35.853-36.273-35.853-88.091t35.853-88.091q35.853-36.273 87.071-36.273zm0 55.273q-28.682 0-48.487 20.036-19.804 20.036-19.804 49.055t19.804 49.055q19.804 20.036 48.487 20.036 28.682 0 48.487-20.036 19.804-20.036 19.804-49.055t-19.804-49.055q-19.804-20.036-48.487-20.036zm-218.53-152q-22.536 0-38.584 16.236-16.048 16.236-16.048 39.036v331.64q0 22.8 16.048 39.036 16.048 16.236 38.584 16.236h86.047l50.535 55.273h163.9l50.535-55.273h86.047q22.536 0 38.584-16.236 16.048-16.236 16.048-39.036v-331.64q0-22.8-16.048-39.036-16.048-16.236-38.584-16.236zm0 55.273h437.06v331.64h-110.63l-49.853 55.273h-116.09l-49.853-55.273h-110.63z" stroke-width=".6869"/></g></g></g></svg>
