<?xml version="1.0" encoding="utf-8"?>
<!-- Generator: Adobe Illustrator 25.0.1, SVG Export Plug-In . SVG Version: 6.00 Build 0)  -->
<svg version="1.1"
	 id="svg8" inkscape:export-filename="/media/juhele/data_2TB/_GRAFIKA/GHS hazard symbols/GHS06_toxic_substances.png" inkscape:export-xdpi="99.027519" inkscape:export-ydpi="99.027519" inkscape:version="0.92.5 (2060ec1f9f, 2020-04-08)" sodipodi:docname="Laadpaal.svg" xmlns:cc="http://creativecommons.org/ns#" xmlns:dc="http://purl.org/dc/elements/1.1/" xmlns:inkscape="http://www.inkscape.org/namespaces/inkscape" xmlns:rdf="http://www.w3.org/1999/02/22-rdf-syntax-ns#" xmlns:sodipodi="http://sodipodi.sourceforge.net/DTD/sodipodi-0.dtd" xmlns:svg="http://www.w3.org/2000/svg"
	 xmlns="http://www.w3.org/2000/svg" xmlns:xlink="http://www.w3.org/1999/xlink" x="0px" y="0px" width="125px" height="125px"
	 viewBox="0 0 125 125" style="enable-background:new 0 0 125 125;" xml:space="preserve">
<style type="text/css">
	.st0{fill:#D6061C;}
	.st1{fill:#FEFEFE;}
</style>
<g>
	<path class="st0" d="M62.8,29.5C44.7,29.5,30,44.2,30,62.3c0,18.1,14.7,32.8,32.8,32.8s32.8-14.7,32.8-32.8
		C95.6,44.2,80.9,29.5,62.8,29.5z M62.8,87.7c-14,0-25.4-11.4-25.4-25.4c0-14,11.4-25.4,25.4-25.4c14,0,25.4,11.4,25.4,25.4
		C88.2,76.3,76.8,87.7,62.8,87.7z"/>
	<g>
		<path class="st1" d="M62.8,28.3c-18.8,0-34,15.3-34,34c0,18.8,15.3,34,34,34c18.8,0,34-15.3,34-34C96.8,43.5,81.6,28.3,62.8,28.3z
			 M62.8,95.1C44.7,95.1,30,80.4,30,62.3c0-18.1,14.7-32.8,32.8-32.8c18.1,0,32.8,14.7,32.8,32.8C95.6,80.4,80.9,95.1,62.8,95.1z"/>
		<path class="st1" d="M62.8,36.9c-14,0-25.4,11.4-25.4,25.4c0,14,11.4,25.4,25.4,25.4c14,0,25.4-11.4,25.4-25.4
			C88.2,48.3,76.8,36.9,62.8,36.9z"/>
	</g>
</g>
</svg>
