<?xml version="1.0" encoding="UTF-8" standalone="no"?>
<!-- Generator: Adobe Illustrator 24.1.0, SVG Export Plug-In . SVG Version: 6.00 Build 0)  -->

<svg
   xmlns:dc="http://purl.org/dc/elements/1.1/"
   xmlns:cc="http://creativecommons.org/ns#"
   xmlns:rdf="http://www.w3.org/1999/02/22-rdf-syntax-ns#"
   xmlns:svg="http://www.w3.org/2000/svg"
   xmlns="http://www.w3.org/2000/svg"
   xmlns:sodipodi="http://sodipodi.sourceforge.net/DTD/sodipodi-0.dtd"
   xmlns:inkscape="http://www.inkscape.org/namespaces/inkscape"
   version="1.1"
   id="svg8"
   inkscape:export-filename="C:\Users\User\Desktop\nieuwe Symbolen\Hoogtebeperking.png"
   inkscape:export-xdpi="99.027519"
   inkscape:export-ydpi="99.027519"
   inkscape:version="0.92.5 (2060ec1f9f, 2020-04-08)"
   sodipodi:docname="Hoogtebeperking.svg"
   x="0px"
   y="0px"
   viewBox="0 0 125 125"
   xml:space="preserve"
   width="125"
   height="125"><metadata
   id="metadata845"><rdf:RDF><cc:Work
       rdf:about=""><dc:format>image/svg+xml</dc:format><dc:type
         rdf:resource="http://purl.org/dc/dcmitype/StillImage" /><dc:title /></cc:Work></rdf:RDF></metadata><defs
   id="defs843" /><sodipodi:namedview
   pagecolor="#ffffff"
   bordercolor="#666666"
   borderopacity="1"
   objecttolerance="10"
   gridtolerance="10"
   guidetolerance="10"
   inkscape:pageopacity="0"
   inkscape:pageshadow="2"
   inkscape:window-width="1920"
   inkscape:window-height="1017"
   id="namedview841"
   showgrid="false"
   inkscape:zoom="6.784"
   inkscape:cx="62.5"
   inkscape:cy="55.88273"
   inkscape:window-x="-8"
   inkscape:window-y="-8"
   inkscape:window-maximized="1"
   inkscape:current-layer="g31" />
<style
   type="text/css"
   id="style831">
	.st0{fill:#FFFFFF;stroke:#000000;stroke-width:0.158;stroke-linecap:square;stroke-miterlimit:10;}
	.st1{fill-rule:evenodd;clip-rule:evenodd;}
	.st2{fill:#CC0000;stroke:#CC0000;stroke-width:0.316;stroke-miterlimit:10;}
</style>
<g
   id="layer1"
   transform="translate(-8.7127302,-883.50001)"
   inkscape:groupmode="layer"
   inkscape:label="Laag 1">
	<g
   id="g31"
   transform="matrix(0.00522434,0,0,0.00522434,35.110451,909.57016)">
		<circle
   style="fill:#ffffff;fill-rule:evenodd;stroke-width:191.41174316;fill-opacity:1"
   id="path2142"
   cx="6783.4321"
   cy="6902.563"
   r="5459.6362" /><path
   id="path11"
   inkscape:connector-curvature="0"
   class="st0"
   d="m 13131.2,6973.1 c 0,3435.7 -2785.1,6220.8 -6220.8,6220.8 -3435.7,0 -6220.8,-2785.1 -6220.8,-6220.8 0,-3435.7 2785.1,-6220.8 6220.8,-6220.8 3435.7,0 6220.8,2785.1 6220.8,6220.8 z"
   style="fill:#ffffff;stroke:#000000;stroke-width:0.15800001;stroke-linecap:square;stroke-miterlimit:10" />
		
		
	<path
   sodipodi:type="star"
   style="fill:#000000;fill-opacity:1;fill-rule:evenodd;stroke:none;stroke-width:161.93434143;stroke-linecap:round;stroke-linejoin:round;stroke-miterlimit:4;stroke-dasharray:none;stroke-opacity:1"
   id="path2134"
   sodipodi:sides="3"
   sodipodi:cx="6825.7546"
   sodipodi:cy="3192.2677"
   sodipodi:r1="1975.2638"
   sodipodi:r2="987.6319"
   sodipodi:arg1="1.5565116"
   sodipodi:arg2="2.6037091"
   inkscape:flatsided="false"
   inkscape:rounded="0"
   inkscape:randomized="0"
   d="m 6853.9695,5167.3298 -876.3883,-1469.0791 -876.3885,-1469.0792 1710.4541,-24.4351 1710.4541,-24.435 -834.0656,1493.5142 z"
   inkscape:transform-center-x="0.073702407"
   inkscape:transform-center-y="2.5157708" /><path
   inkscape:transform-center-y="-2.5157729"
   inkscape:transform-center-x="0.073702407"
   d="m 7023.2606,-8980.1575 -876.3884,-1469.0795 -876.3885,-1469.079 1710.4541,-24.435 1710.4541,-24.435 -834.0656,1493.514 z"
   inkscape:randomized="0"
   inkscape:rounded="0"
   inkscape:flatsided="false"
   sodipodi:arg2="2.6037091"
   sodipodi:arg1="1.5565116"
   sodipodi:r2="987.6319"
   sodipodi:r1="1975.2638"
   sodipodi:cy="-10955.22"
   sodipodi:cx="6995.0454"
   sodipodi:sides="3"
   id="path2136"
   style="fill:#000000;fill-opacity:1;fill-rule:evenodd;stroke:none;stroke-width:161.93434143;stroke-linecap:round;stroke-linejoin:round;stroke-miterlimit:4;stroke-dasharray:none;stroke-opacity:1"
   sodipodi:type="star"
   transform="scale(1,-1)" /><path
   style="fill:#ff0000;fill-rule:evenodd;stroke-width:191.41174316"
   d="M 6924.6207,906.73292 A 6038.0835,6038.0474 0 0 0 886.55231,6944.8011 6038.0835,6038.0474 0 0 0 6924.6207,12982.87 6038.0835,6038.0474 0 0 0 12962.689,6944.8011 6038.0835,6038.0474 0 0 0 6924.6207,906.73292 Z m 0,1348.48058 A 4689.5874,4689.5874 0 0 1 11614.208,6944.8011 4689.5874,4689.5874 0 0 1 6924.6207,11634.389 4689.5874,4689.5874 0 0 1 2235.0331,6944.8011 4689.5874,4689.5874 0 0 1 6924.6207,2255.2135 Z"
   id="path2125"
   inkscape:connector-curvature="0" />

</g>
</g>
</svg>