<?xml version="1.0" encoding="UTF-8" standalone="no"?>
<!-- Generator: Adobe Illustrator 24.1.0, SVG Export Plug-In . SVG Version: 6.00 Build 0)  -->

<svg
   version="1.1"
   id="svg2"
   x="0px"
   y="0px"
   viewBox="0 0 125 125"
   xml:space="preserve"
   sodipodi:docname="paaltjes_flex.svg"
   width="125"
   height="125"
   inkscape:version="1.3.2 (091e20e, 2023-11-25, custom)"
   inkscape:export-filename="paaltjes_flex.png"
   inkscape:export-xdpi="96"
   inkscape:export-ydpi="96"
   xmlns:inkscape="http://www.inkscape.org/namespaces/inkscape"
   xmlns:sodipodi="http://sodipodi.sourceforge.net/DTD/sodipodi-0.dtd"
   xmlns="http://www.w3.org/2000/svg"
   xmlns:svg="http://www.w3.org/2000/svg"
   xmlns:rdf="http://www.w3.org/1999/02/22-rdf-syntax-ns#"
   xmlns:cc="http://creativecommons.org/ns#"
   xmlns:dc="http://purl.org/dc/elements/1.1/"><metadata
   id="metadata27691"><rdf:RDF><cc:Work
       rdf:about=""><dc:format>image/svg+xml</dc:format><dc:type
         rdf:resource="http://purl.org/dc/dcmitype/StillImage" /></cc:Work></rdf:RDF></metadata><defs
   id="defs27689"><clipPath
     id="clipPath18"><path
       d="M 0,0 H 368.51 V 270 H 0 Z"
       id="path41"
       inkscape:connector-curvature="0" /></clipPath></defs><sodipodi:namedview
   pagecolor="#ffffff"
   bordercolor="#666666"
   borderopacity="1"
   objecttolerance="10"
   gridtolerance="10"
   guidetolerance="10"
   inkscape:pageopacity="0"
   inkscape:pageshadow="2"
   inkscape:window-width="1920"
   inkscape:window-height="1017"
   id="namedview27687"
   showgrid="false"
   inkscape:zoom="9.5940248"
   inkscape:cx="57.692159"
   inkscape:cy="69.574554"
   inkscape:window-x="1912"
   inkscape:window-y="-8"
   inkscape:window-maximized="1"
   inkscape:current-layer="g54"
   showguides="false"
   inkscape:guide-bbox="true"
   inkscape:showpageshadow="2"
   inkscape:pagecheckerboard="0"
   inkscape:deskcolor="#d1d1d1"><sodipodi:guide
     position="69.133255,64.268868"
     orientation="0,1"
     id="guide4379"
     inkscape:locked="false" /><sodipodi:guide
     position="72.818396,53.213443"
     orientation="0,1"
     id="guide4381"
     inkscape:locked="false" /></sodipodi:namedview>
<style
   type="text/css"
   id="style27656">
	.st0{fill:#FFFFFF;stroke:#000000;stroke-width:2;}
	.st1{fill-rule:evenodd;clip-rule:evenodd;fill:#231F20;}
	.st2{fill:#231F20;}
	.st3{fill:#176FC1;}
	.st4{fill:#FCD205;}
	.st5{font-family:'Arial-BoldMT';}
	.st6{font-size:17.927px;}
</style>




<g
   id="g28259"
   transform="matrix(0.90277778,0,0,0.90277778,30.541667,30.631944)">
<g
   transform="matrix(0,-0.67638979,-0.59844493,0,98.831038,66.202933)"
   id="g54"
   style="stroke:#878787;stroke-opacity:1"><path
     id="rect5049"
     style="fill:#ffffff;fill-opacity:1;fill-rule:evenodd;stroke:#000000;stroke-width:2.30194;stroke-linecap:round;stroke-linejoin:round;stroke-miterlimit:4;stroke-dasharray:none;stroke-opacity:1"
     d="m -110.58795,-74.852364 c -1.81198,0 -3.17638,1.460127 -3.17638,3.272109 v 38.10291 c -2.23248,0.453533 -4.85601,1.964173 -4.85547,3.173196 0.003,1.208891 1.26506,2.295696 3.29387,2.747548 -2.02881,0.451852 -3.29096,1.840405 -3.29387,3.049297 -7.5e-4,1.222233 1.80277,2.267536 4.76015,2.72196 v 0.179118 c 0,1.811982 1.45972,3.272109 3.2717,3.272109 h 7.55564 c 1.81198,0 3.268086,-1.460127 3.268086,-3.272109 v -0.339046 c 2.692233,-0.514258 4.258584,-1.468102 4.257913,-2.562032 -0.0029,-1.208892 -1.401477,-2.597445 -3.430289,-3.049297 2.028812,-0.451852 3.427283,-1.538657 3.430289,-2.747548 5.41e-4,-1.209023 -2.230073,-2.719663 -4.257913,-3.173196 -0.203899,-36.325581 0.163637,0.686808 0,-38.10291 0,-1.811982 -1.456106,-3.272109 -3.268086,-3.272109 z"
     transform="matrix(0,-1,-1,0,0,0)"
     sodipodi:nodetypes="sccccccssssccccccss" /><rect
     style="fill:#000000;fill-opacity:1;fill-rule:evenodd;stroke:none;stroke-width:1.89328;stroke-linecap:round;stroke-linejoin:round;stroke-miterlimit:4;stroke-dasharray:none;stroke-opacity:1"
     id="rect5053"
     width="12.965748"
     height="4.31668"
     x="-113.08697"
     y="-69.150246"
     transform="matrix(0,-1,-1,0,0,0)"
     ry="0" /><rect
     style="fill:#000000;fill-opacity:1;fill-rule:evenodd;stroke:none;stroke-width:1.89328;stroke-linecap:round;stroke-linejoin:round;stroke-miterlimit:4;stroke-dasharray:none;stroke-opacity:1"
     id="rect5053-3"
     width="12.965748"
     height="4.31668"
     x="-113.08697"
     y="-60.050659"
     transform="matrix(0,-1,-1,0,0,0)"
     ry="0" /><rect
     style="fill:#000000;fill-opacity:1;fill-rule:evenodd;stroke:none;stroke-width:1.89328;stroke-linecap:round;stroke-linejoin:round;stroke-miterlimit:4;stroke-dasharray:none;stroke-opacity:1"
     id="rect5053-3-4"
     width="12.965748"
     height="4.31668"
     x="-113.35981"
     y="-50.951073"
     transform="matrix(0,-1,-1,0,0,0)"
     ry="0" /><path
     style="fill:#ffff1c;fill-opacity:1;stroke:#000000;stroke-width:1.24915;stroke-linecap:round;stroke-linejoin:round;stroke-dasharray:none;stroke-opacity:1"
     d="M 32.942874,113.84161 V 100.18892"
     id="path3" /><path
     style="fill:#ffff1c;fill-opacity:1;stroke:#000000;stroke-width:1.46247;stroke-linecap:round;stroke-linejoin:round;stroke-dasharray:none;stroke-opacity:1"
     d="M 27.512516,116.89273 V 98.178768"
     id="path3-8" /><path
     style="fill:#ffff1c;fill-opacity:1;stroke:#000000;stroke-width:1.25147;stroke-linecap:round;stroke-linejoin:round;stroke-dasharray:none;stroke-opacity:1"
     d="M 22.283153,113.82322 V 100.11967"
     id="path3-8-8" /></g></g>
</svg>
