<?xml version="1.0" encoding="utf-8"?>
<svg width="125" height="125" id="Layer_1" xmlns="http://www.w3.org/2000/svg" version="1.1" viewBox="0 0 125 125">
  <defs>
    <style>
      .st0 {
        fill: #e4151c;
      }

      .st1 {
        fill: #fff;
      }
    </style>
  </defs>
  <g transform="matrix(1, 0, 0, 1, 29.450002, 35.450002)">
    <g>
      <polygon class="st1" points="5 40.8 6.3 42 5 40.8 5 40.8"/>
      <polygon class="st1" points="61 38.3 61 16.6 37.7 27.4 61 38.3"/>
      <polygon class="st1" points="33 29.6 6.3 42.1 13.2 49 52.8 49 61 40.8 61 40.5 59.6 42 33 29.6"/>
      <polygon class="st1" points="5 16.6 5 38.3 28.3 27.4 5 16.6"/>
      <polygon class="st1" points="33 25.2 60.3 12.5 52.8 5 13.2 5 5 13.2 5 13.2 5.7 12.5 33 25.2"/>
      <path d="M64,12l-10-10H12L2,12v30l10,10h42l10-10V12ZM61,40.8l-8.2,8.2H13.2l-6.9-6.9h0c0,0-1.3-1.3-1.3-1.3h0V13.2h0S13.2,5,13.2,5h39.5l7.5,7.5h0s.7.7.7.7h0v27.5Z"/>
      <path class="st1" d="M65.4,10.6L55.4.6l-.6-.6H11.2l-.6.6L.6,10.6l-.6.6v31.7l.6.6,10,10,.6.6h43.7l.6-.6,10-10,.6-.6V11.2l-.6-.6ZM54,52H12l-10-10V12L12,2h42l10,10v30l-10,10Z"/>
      <polygon class="st0" points="37.7 27.4 61 16.6 61 13.2 61 13.2 60.3 12.5 60.3 12.5 33 25.2 5.7 12.5 5 13.2 5 16.6 28.3 27.4 5 38.3 5 40.8 6.3 42 6.3 42.1 6.3 42.1 33 29.6 59.6 42 61 40.5 61 38.3 37.7 27.4"/>
    </g>
    <g>
      <path d="M7.8,18.9h13.4v2.8h-4.8v11.7h-3.8v-11.7h-4.8v-2.8Z"/>
      <path d="M23.2,18.9h4.8l3.3,7.8,3.3-7.8h4.8v14.6h-3.6v-10.7l-3.4,7.9h-2.4l-3.4-7.9v10.7h-3.6v-14.6h0Z"/>
      <path d="M49.8,18.6c2.3,0,4.2.7,5.5,2s2,3.2,2,5.6-.7,4.2-2,5.5-3.2,2-5.5,2-4.2-.7-5.5-2c-1.3-1.3-2-3.2-2-5.5s.7-4.2,2-5.6c1.3-1.3,3.2-2,5.5-2ZM49.8,21.4c-1.1,0-2,.4-2.7,1.3s-.9,2-.9,3.6.3,2.7.9,3.6,1.5,1.3,2.7,1.3,2-.4,2.7-1.3.9-2,.9-3.6-.3-2.7-.9-3.6-1.5-1.3-2.7-1.3Z"/>
    </g>
  </g>
</svg>