<?xml version="1.0" encoding="UTF-8"?>
<!-- Created with Inkscape (http://www.inkscape.org/) -->
<svg width="125" height="125" version="1.1" xml:space="preserve" xmlns="http://www.w3.org/2000/svg" xmlns:cc="http://creativecommons.org/ns#" xmlns:dc="http://purl.org/dc/elements/1.1/" xmlns:rdf="http://www.w3.org/1999/02/22-rdf-syntax-ns#"><metadata><rdf:RDF><cc:Work rdf:about=""><dc:format>image/svg+xml</dc:format><dc:type rdf:resource="http://purl.org/dc/dcmitype/StillImage"/></cc:Work></rdf:RDF></metadata><defs><clipPath id="clipPath18"><path d="m0 566.93v-566.93h566.93v566.93z"/></clipPath></defs><g transform="matrix(1.1465 0 0 -1.1465 30 95)"><rect transform="scale(1,-1)" x=".72064" y="-55.729" width="55.009" height="55.249" rx=".056434" color="#000000" fill="#fff"/><g transform="scale(.1)"><g clip-path="url(#clipPath18)"><path d="m557.27 566.93h-557.27v-566.93h566.93v566.93h-9.668" fill="#ff1500"/><g transform="scale(.90096 -1.1099)" fill="#fff" stroke-width="7.8581" aria-label="UGS"><path d="m259.08-243.96q0 16.944-10.314 25.969t-30.389 9.0246-30.389-9.0246q-10.252-9.0246-10.252-25.907v-58.383h23.697v57.033q0 9.5157 3.9905 14.181t12.954 4.6658q8.8404 0 12.892-4.4816 4.1132-4.4816 4.1132-14.366v-57.033h23.697z"/><path d="m362.04-216.09q-6.1392 2.3943-16.269 4.7886-10.13 2.3329-20.198 2.3329-23.329 0-36.528-12.647-13.199-12.708-13.199-35.055 0-21.303 13.322-34.318 13.322-13.076 37.142-13.076 9.0246 0 17.19 1.6576 8.1651 1.5962 18.172 6.4461v21.426h-2.6398q-1.719-1.2892-5.0341-3.6221-3.3152-2.3943-6.3847-4.0518-3.5607-1.9645-8.3493-3.3765-4.7272-1.412-10.068-1.412-6.262 0-11.357 1.8418t-9.1474 5.648q-3.8677 3.6835-6.1392 9.3929-2.2101 5.648-2.2101 13.076 0 15.164 8.0423 23.206 8.0423 8.0423 23.759 8.0423 1.3506 0 2.9468-0.0614 1.6576-0.0614 3.0082-0.18417v-17.926h-18.233v-17.251h42.176z"/><path d="m456.27-239.6q0 13.506-11.48 21.978-11.419 8.4107-31.064 8.4107-11.357 0-19.83-1.9645-8.4107-2.0259-15.778-5.0955v-21.917h2.5784q7.3056 5.8322 16.33 8.9632 9.086 3.131 17.435 3.131 2.1487 0 5.648-0.36835 3.4993-0.36835 5.7094-1.2278 2.7012-1.105 4.4202-2.7626 1.7804-1.6576 1.7804-4.9113 0-3.0082-2.5784-5.1569-2.5171-2.2101-7.4284-3.3765-5.1569-1.2278-10.928-2.2715-5.7094-1.105-10.744-2.7626-11.542-3.7449-16.637-10.13-5.0341-6.4461-5.0341-15.962 0-12.769 11.419-20.812 11.48-8.1037 29.468-8.1037 9.0246 0 17.804 1.7804 8.8404 1.719 15.287 4.3588v21.057h-2.517q-5.5253-4.4202-13.568-7.367-7.9809-3.0082-16.33-3.0082-2.9468 0-5.8936 0.42974-2.8854 0.36835-5.5866 1.4734-2.3943 0.92087-4.1132 2.824-1.719 1.8418-1.719 4.236 0 3.6221 2.7626 5.5866 2.7626 1.9032 10.437 3.4993 5.0341 1.0437 9.6385 2.0259 4.6658 0.98226 10.007 2.7012 10.498 3.4379 15.471 9.3929 5.0341 5.8936 5.0341 15.348z"/></g><g fill="#fff" fill-rule="evenodd"><path transform="matrix(10.544 -.092608 -.073885 -6.5567 -299.94 730.91)" d="m63.078 39.747-14.938 0.22839 7.2712-13.051 3.8334 6.4113z"/><path transform="matrix(-10.544 .10154 .079439 6.5566 866.65 -160.9)" d="m63.078 39.747-14.938 0.22839 7.2712-13.051 3.8334 6.4113z"/><path transform="matrix(.092609 10.544 6.5567 -.073885 -163.57 -299.94)" d="m63.078 39.747-14.938 0.22839 7.2712-13.051 3.8334 6.4113z"/><path transform="matrix(-.10154 -10.544 -6.5566 .079439 725.82 866.64)" d="m63.078 39.747-14.938 0.22839 7.2712-13.051 3.8334 6.4113z"/></g></g></g></g></svg>
