<svg xmlns="http://www.w3.org/2000/svg" viewBox="0 0 198.43 198.43"><defs><style>.cls-1{fill:#fdea14;}.cls-2,.cls-3{fill:#fff;stroke:#000;stroke-miterlimit:10;stroke-width:2.83px;}.cls-3{stroke-linecap:round;}</style></defs><g id="Picto_s" data-name="Picto&apos;s"><rect x="11.34" y="11.34" width="175.75" height="175.75"/><rect class="cls-1" x="22.97" y="22.97" width="152.49" height="152.49"/><path class="cls-2" d="M83.69,71c.5,0,40.74,15.46,40.74,15.46l15.13,21.78L118.11,134.3l-7.81,6.81-16.63-3L71.39,123.49,57.26,101.21S83.36,70.78,83.69,71"/><path class="cls-3" d="M112.77,137.16c1.22,2.66.93,8.35-5.39,8.13s-9.94-4.58-12.49-7.24l1.47-3"/><path class="cls-3" d="M122.54,129.31c2.11,2.21,1.22,5.43-.55,7.31s-6.07,2.46-9.73,0-10.33-7.11-10.33-7.11"/><path class="cls-3" d="M85.3,71.45c-1.11-.78-5.32-1-7.43-1.45s-8.1-5.15-10.76-7.7L53.38,78l-.56,19.83a100.19,100.19,0,0,0,7.54,11.41"/><path class="cls-2" d="M58.72,51.84l-21,44.94a1.7,1.7,0,0,0,.42,2l7.87,6.88a1.71,1.71,0,0,0,2.66-.56l21.5-45.48a1.71,1.71,0,0,0-.51-2.09L61.28,51.2A1.7,1.7,0,0,0,58.72,51.84Z"/><path class="cls-2" d="M63,106.64a43.44,43.44,0,0,0-4.37,6.42c-.55,1.23-1.27,4.49.27,6.41,1.17,1.45,1.79,2.76,3.1,3.25.76.29,1.81.29,3.32-1.13a47.73,47.73,0,0,0,5.87-7.3c1.22-1.91-.19-4-1.1-5.19a33,33,0,0,0-2.78-3A3.1,3.1,0,0,0,63,106.64Z"/><path class="cls-2" d="M76.67,107c-2,2.61-11.18,14.7-11.72,15.93s-1.29,4.11.27,6.41a8.66,8.66,0,0,0,2.65,2.8,2.33,2.33,0,0,0,3-.56c3.41-3.82,11.72-14.73,12.76-16.34a5.61,5.61,0,0,0,.09-5.78,33.81,33.81,0,0,0-2.78-3A3.09,3.09,0,0,0,76.67,107Z"/><path class="cls-2" d="M84.17,115.41c-2,2.61-11,14.34-11.54,15.57a6.78,6.78,0,0,0,.27,6.41,5.68,5.68,0,0,0,3.5,2.89,2.67,2.67,0,0,0,2.42-.76c3.74-3.8,11.29-14.21,12.35-15.87a5.61,5.61,0,0,0,.1-5.78,33.09,33.09,0,0,0-2.78-3A3.1,3.1,0,0,0,84.17,115.41Z"/><path class="cls-2" d="M88.69,127.27c-2,2.61-5.59,7.12-6.13,8.35s-2,3.45.27,6.41c1.11,1.49,1.65,2.11,3,2.51,1.51.45,3.16-.24,4.68-1.66a56.64,56.64,0,0,0,6.38-8c1.22-1.91-.19-4-1.1-5.19a32.06,32.06,0,0,0-2.77-3A3.11,3.11,0,0,0,88.69,127.27Z"/><path class="cls-3" d="M130.41,119.89A7,7,0,0,1,130,128c-1.77,1.88-4.21,3.54-7.87,1.11s-15.41-11.31-15.41-11.31"/><path class="cls-3" d="M138.4,108.69c2.77-.89,8-6.87,10.08-11l-1.4-19.87L132.43,63.76c-2,2.22-4.68,3.92-6.67,3.92s-7.43-2.66-10.2-3.33-5.21-1.11-11.31-.89a86.86,86.86,0,0,0-11.08.89,8.82,8.82,0,0,0-6.43,4.21c-.22.45-6.54,12.2-8.53,14.75s-2.22,12.3,7,7.42A53.63,53.63,0,0,0,94,82.2c2-2.44,3.43-3.11,4.87-3.11s3.7,1.4,4.44,2C105,82.53,115.12,89,121.33,94.17s15.29,13.3,17.07,16.74,1.77,6.48-.12,8.53c-1.65,1.8-4.43,3.27-8.09.72-1.38-1-17.62-13.58-17.62-13.58"/><path class="cls-2" d="M141.94,51.84l21,44.94a1.7,1.7,0,0,1-.43,2l-7.87,6.88a1.71,1.71,0,0,1-2.66-.56l-21.5-45.48a1.71,1.71,0,0,1,.52-2.09l8.41-6.33A1.7,1.7,0,0,1,141.94,51.84Z"/></g></svg>