<?xml version="1.0" encoding="utf-8"?>
<!-- Generator: Adobe Illustrator 25.0.1, SVG Export Plug-In . SVG Version: 6.00 Build 0)  -->
<svg version="1.1"
	 id="svg8" inkscape:export-filename="/media/juhele/data_2TB/_GRAFIKA/GHS hazard symbols/GHS06_toxic_substances.png" inkscape:export-xdpi="99.027519" inkscape:export-ydpi="99.027519" inkscape:version="0.92.5 (2060ec1f9f, 2020-04-08)" sodipodi:docname="Laadpaal.svg" xmlns:cc="http://creativecommons.org/ns#" xmlns:dc="http://purl.org/dc/elements/1.1/" xmlns:inkscape="http://www.inkscape.org/namespaces/inkscape" xmlns:rdf="http://www.w3.org/1999/02/22-rdf-syntax-ns#" xmlns:sodipodi="http://sodipodi.sourceforge.net/DTD/sodipodi-0.dtd" xmlns:svg="http://www.w3.org/2000/svg"
	 xmlns="http://www.w3.org/2000/svg" xmlns:xlink="http://www.w3.org/1999/xlink" x="0px" y="0px" width="125px" height="125px"
	 viewBox="0 0 125 125" style="enable-background:new 0 0 125 125;" xml:space="preserve">
<style type="text/css">
	.st0{fill:#FFFF21;}
	.st1{fill:#191817;}
	.st2{fill:#FCFCFC;}
</style>
<g>
	<path class="st0" d="M89.9,33H35.1C34,33,33,34,33,35v54.9c0,1.1,0.9,2,2.1,2h54.8c1.2,0,2.1-0.9,2.1-2V35C92,33.9,91.1,33,89.9,33
		z"/>
	<g>
		<path class="st1" d="M90.6,28.5H34.5c-3.3,0-6,2.6-6,5.8v56.4c0,3.2,2.7,5.8,6,5.8h56.1c3.3,0,6-2.6,6-5.8V34.3
			C96.5,31.1,93.9,28.5,90.6,28.5z M92,35v54.9c0,1.1-0.9,2-2.1,2H35.1c-1.1,0-2.1-0.9-2.1-2V35c0-1.1,1-2,2.1-2h54.8
			C91.1,33,92,33.9,92,35z"/>
	</g>
</g>
<path class="st2" d="M49.4,48.5l-3.7-2L36.4,62l4.2,3l2.1-2l3,3l-0.5,2.2l0.7,1.9l1.2,0.7l1.1,1l0.3,1.5l1,0.6l1.6,0.6l0.9,1.1
	l0.9,0.7l1.5,0.7H55l1.4,1.5l0.9,0.2l2,0.1l1-1.6l4.9,1l2.1-0.6l1.1-1l0.7-0.5l2.2-0.3l0.6-1l0.5-1.1l1.3-0.9l1.1-0.3l0.6-0.9
	l0.5-0.8l1.2-0.5l0.7-0.3c0,0,0.5,0.3,0.7-0.4s0,0.2,0.2-0.7s0.2-0.9,0.2-0.9l0.1-0.9l3.7-3.7l1.8,1.8l4.2-2.2l-9.1-15.9l-3.7,1.7
	l-0.4,2l0.5,0.9l-1.9,0.4l-3.5-0.1l-1.2-0.2l-3.7-0.4L62.3,51l-4.2,0.4l-1.3,1l-0.7,1l-2-0.2l-2.4-0.7l-1.3-0.6l-0.8-0.5l0.6-1.2
	L49.4,48.5z"/>
<path class="st1" d="M87.1,57.6c-0.3-0.2-1.6-2.6-1.7-2.8c-0.1-0.1-0.9-1.5-1.1-1.9c-0.2-0.4-1-1.7-1-2c-0.1-0.1-0.1-0.1-0.3-0.3
	c-0.3-0.5-1.2-2-1.3-2.4c-0.4-0.3-0.9-1.7-1.6-2.2c-1.2-0.9-2,0.3-2.7,0.4c-0.1,0.1,0,0-0.1,0.1l-2.7,1.7c-0.1,0.3,0,0.1-0.1,0.1
	C74.2,49,74,49,74.1,50c0.1,0.1,0.5,0.8,0.5,0.9l0.1,0.2c-0.1,0.1,0.1,0-0.1,0.1c-0.8,0.4-2.3,0.1-3.1,0c-4.6-1-5.4-1.1-10.3-0.7
	c-0.4,0.1-0.8,0.2-1.2,0.1c-0.3,0.1-0.3,0.1-0.7,0.2c-0.3,0.1-0.5,0.1-0.8,0.1c-0.5,0.3-1,0.3-1.5,0.6c-0.7,0.4-0.7,0.7-1.1,1.2
	l-2.7-0.4c-0.7-0.1-0.9-0.3-1.4-0.6c-0.3-0.1-1-0.5-1.2-0.8c0.3-0.7,0.6-0.7,0.6-1.7c-0.1-0.4-0.3-0.6-0.4-0.8
	c-0.1-0.1-0.3-0.2-0.4-0.4c-0.3-0.1-1-0.5-1.3-0.7s-1.1-0.6-1.2-0.8c-0.8-0.3-1.5-1.3-2.8-0.5c-0.4,0.3-0.8,1.2-1.2,1.8
	c-0.2,0.3-0.2,0.4-0.4,0.6c0,0.2-0.3,0.4-0.3,0.7c-0.1,0.2-0.3,0.4-0.4,0.6c-0.2,0.3-0.5,1-0.7,1.2c-0.1,0-2.1,3.8-2.4,4.1
	c0,0.2-1.2,2.4-1.4,2.4l-1.4,2.1c-0.1,0.3-0.3,0.5-0.4,0.7c-0.1,0.6-0.9,1.1-0.9,2c0,0.4,0.2,0.8,0.4,1.1c0.3,0.3,0.7,0.4,0.8,0.6
	c0.1,0.1,0.1,0.1,0.1,0.1s0.1,0.1,0.1,0v0.1c0.3,0,2.5,1.3,2.5,1.5C40.2,65.8,40,66,41,66c0.6-0.1,0.9-0.4,1.2-0.8
	c0.2-0.3,0.5-0.9,0.7-1.2c0.3,0.2,2,2.2,2.1,2.4c-0.4,0.7-0.8,0.8-0.7,2.2c0.1,0.9,0.5,1.5,1,1.9c0.7,0.7,0.8,0.6,2,1
	c0.2,1.7-0.1,0.4,0.4,1.8c0.1,0.1,0.2,0.3,0.3,0.4c0.1,0.1,0.2,0.2,0.3,0.3c0.2,0.2,0.6,0.4,0.7,0.6c0.3,0.1,0.6,0.2,0.9,0.3h0.8
	c0,0,0,0,0.1,0l0.1,0.1c0.1,0,0.1,0.1,0.1,0.1c0.1,0.1,0.3,0.6,0.4,0.8c0.1,0.1,0.1,0.1,0.3,0.3c0.1,0.1,0.1,0.1,0.2,0.2
	c0.1,0.2,0,0.1,0.1,0.2c0.1,0.1-0.1,0,0.1,0.1c1.1,0.8,1.2,0.8,2.8,0.6c0.1,0.3,0.3,0.6,0.4,0.8c0.3,0.3,0.5,0.4,0.5,0.6
	c0.8,0.4,1.4,1,2.7,0.7c1.2-0.3,1.5-1.2,2-1.5c0.1,0.1,0.8,0.3,0.9,0.4l2.5,0.6l2,0.1h0.5c0.2-0.1,0.7-0.2,1-0.3
	c0.7-0.3,1-0.7,1.5-1.2c0.8-1,0.1-0.8,1.9-0.8c0.1-0.1,0.5-0.2,0.6-0.3c0.3-0.1,0.5-0.2,0.6-0.3c0.1-0.2,0.1-0.1,0.2-0.2
	c0.6-0.8,0.7-0.8,0.9-2c0.3,0,0.7-0.1,0.9-0.1c0.3-0.1,0.5-0.2,0.7-0.2c0.2-0.3,0.6-0.3,0.9-0.8c0.1-0.2,0.5-0.8,0.6-0.9
	c0.2-0.9,0.1-0.9,0.4-1h0.7c0.2-0.1,1.4-0.3,2.2-1.5c0.8-1.4,0.3-2.1,0.1-2.9c0.2-0.2,0.6-0.4,0.8-0.6c1-0.7,1.5-1.5,2-1.9
	c0,0,0,0.1,0.1,0.1l0.1,0.1c0.5,0.7,0.6,1.7,2.2,1.7l0.8-0.3c0.2-0.2,0.5-0.3,0.7-0.5c0.4-0.2,1.8-1.1,2.1-1.2l0.2-0.2
	c0.3-0.2,0.5-0.2,0.7-0.5c0.2-0.3,0.4-0.7,0.4-1.2c0-0.8-0.7-1.5-1-2.2C88.4,60,87.1,57.7,87.1,57.6z M41.8,62.4
	c-0.4,0.6-0.8,1.3-1,1.9c-0.5-0.1-1.4-0.8-1.8-1c-0.6-0.4-1-0.7-1.7-1c0.1-0.3,0.8-1.5,1.1-1.9c0.3-0.6,0.7-1.2,1-1.9
	c0.7-1.1,6.2-10.9,6.5-11.1l3.3,2c-0.1,0.4-1.8,3.1-2.1,3.8c-0.7,1.2-1.5,2.5-2.2,3.7L41.8,62.4z M47.7,69.8c-1,0.3-2.1-1-1.6-1.9
	c0.1-0.3,0.5-0.8,0.8-1.1c0.3-0.4,0.5-0.8,1-1c0.9-0.2,2,1,1.6,1.9C49.4,67.9,48.2,69.7,47.7,69.8z M50.6,73.2
	c-0.8,0.3-1.8-0.7-1.7-1.5c0.1-0.4,2.3-3.3,2.7-3.8c0.5-0.6,1.1-1.6,1.6-1.7c0.8-0.3,1.8,0.7,1.7,1.5c0,0.5-0.4,0.8-0.7,1l-2.1,2.8
	C51.8,71.8,51,73.1,50.6,73.2z M54.1,75.6c-0.8,0.1-1.5-0.6-1.6-1.3c-0.1-0.4,0.1-0.8,0.4-1c0.2-0.3,0.4-0.5,0.6-0.8
	c0.4-0.5,0.8-1.1,1.2-1.6c0.5-0.6,0.8-1.3,1.4-1.5c0.8-0.2,1.6,0.5,1.6,1.2c0.1,0.7-0.6,1.4-1,1.9C56.3,73,54.7,75.5,54.1,75.6z
	 M60.1,75.3c-0.3,0.4-0.6,0.8-0.9,1.2c-0.3,0.3-0.7,1-1,1.2c-1,0.4-2.4-1-1.5-2.2c0.4-0.5,1.5-2.2,2-2.4
	C59.5,72.7,61.1,73.9,60.1,75.3z M76,69.2c-0.3-0.1-6.7-3.8-7.4-4.3c-0.4-0.3-1.1-0.8-1.7-0.3c-0.2,0.2-0.3,0.5-0.2,0.9
	c0.1,0.3,0.3,0.4,0.6,0.6c0.5,0.3,0.9,0.5,1.4,0.8c1,0.6,1.9,1.1,2.9,1.7c0.5,0.3,1,0.5,1.5,0.8c0.3,0.3,1.2,0.6,1.4,0.9
	c0.1,1.2-0.5,1.7-1.8,1.7c-0.6,0-1.8-0.8-2.4-1.2c-1.5-0.8-2.9-1.7-4.4-2.5c-1.4-0.8-2,0.6-1.4,1.2c0.4,0.4,5.6,3.1,6.6,3.8
	c0.1,0.8-0.3,1.5-1.4,1.5c-0.9,0-1.5-0.3-2.2-0.6c-1.3-0.6-2.6-1.2-3.9-1.9c-0.4-0.2-0.7-0.4-1.2-0.3c-0.3,0.1-0.6,0.4-0.5,0.9
	c0.1,0.6,1,0.9,1.6,1.2c0.6,0.3,3.5,1.5,3.8,1.8c-0.7,0.8-1.4,1.3-2.9,1.1c-0.7-0.1-2.7-0.5-3.1-0.8c0.1-0.3,1.2-1.4,0.4-3.3
	c-0.7-1.5-1.9-1.6-2.4-1.9c-0.1-1.2-0.1-1.7-0.7-2.5c-0.5-0.6-1.2-1-2.2-1.2c-0.1-0.9-0.1-1.4-0.7-2c-0.8-1.2-2.5-1.7-3.8-1
	c-0.8,0.5-0.9,1-1.3,1.3c-0.3-0.3-0.7-1.2-2-1.5c-1.4-0.4-2,0.2-2.7,0.7c-0.3-0.1-0.9-1-1.1-1.3c-0.3-0.3-1-1-1.2-1.3
	c0.1-0.3,4.5-7.9,5-8.8c0.3-0.4,0.6-0.8,0.7-1.2c0.5,0.1,1.6,1,2.3,1.2c0.7,0.3,2.5,0.4,2.8,0.6c-0.1,0.3-0.5,0.8-0.8,1.2
	c-0.8,1.1-1.9,2.6-1.9,3.9c0,2.9,4.1,2.1,6.1,0.6c0.5-0.3,0.9-0.7,1.2-1.1c0.6-0.6,0.7-0.8,1.1-1.2c0.2-0.3,1.6-0.6,1.7-0.6
	s1.2,0.6,1.5,0.8c4.4,2.3,7.5,4.3,11.4,7.2c0.5,0.4,2.2,1.7,2.5,2C78.6,68.2,77.4,69.6,76,69.2z M78.2,65.2l-2.5-1.9
	c-0.8-0.6-1.6-1.2-2.5-1.8c-2.9-2-5-3.4-8.2-5.1c-3.1-1.6-2.3-1.5-4.6-0.8c-1,0.3-0.8,0.2-1.3,0.9c-1,1.4-2.8,2.9-4.7,2.9
	c-0.5,0-0.7,0.1-0.6-0.4c0.1-1,2.7-4.4,3.4-5.3c0.8-1.2,0.9-1.2,2.8-1.6c2.4-0.4,5.7-0.6,8.2-0.2c1.2,0.3,2.4,0.6,3.6,0.8
	c2.2,0.4,2.5-0.1,3.9-0.3c0.2,0.3,1.2,2,1.5,2.5c0.5,0.8,4.2,7.3,4.2,7.6C80.5,63.3,79.3,64.9,78.2,65.2z M84.3,64.3l-8.5-14.9
	c0.1-0.1,3.1-1.9,3.3-2c0.4,0.5,0.7,1.2,1.1,1.9l5.4,9.3c0.3,0.6,0.7,1.2,1,1.9c0.2,0.4,0.9,1.5,1,1.9
	C87.5,62.5,84.6,64.2,84.3,64.3z"/>
</svg>
