<?xml version="1.0" encoding="utf-8"?>
<!-- Generator: Adobe Illustrator 25.0.1, SVG Export Plug-In . SVG Version: 6.00 Build 0)  -->
<svg version="1.1"
	 id="svg8" inkscape:export-filename="/media/juhele/data_2TB/_GRAFIKA/GHS hazard symbols/GHS06_toxic_substances.png" inkscape:export-xdpi="99.027519" inkscape:export-ydpi="99.027519" inkscape:version="0.92.5 (2060ec1f9f, 2020-04-08)" sodipodi:docname="Laadpaal.svg" xmlns:cc="http://creativecommons.org/ns#" xmlns:dc="http://purl.org/dc/elements/1.1/" xmlns:inkscape="http://www.inkscape.org/namespaces/inkscape" xmlns:rdf="http://www.w3.org/1999/02/22-rdf-syntax-ns#" xmlns:sodipodi="http://sodipodi.sourceforge.net/DTD/sodipodi-0.dtd" xmlns:svg="http://www.w3.org/2000/svg"
	 xmlns="http://www.w3.org/2000/svg" xmlns:xlink="http://www.w3.org/1999/xlink" x="0px" y="0px" width="125px" height="125px"
	 viewBox="0 0 125 125" style="enable-background:new 0 0 125 125;" xml:space="preserve">
<style type="text/css">
	.st0{fill:#D0F614;}
	.st1{fill:#47610E;}
</style>
<g>
	<path class="st0" d="M62.5,45.7c-17,0-31.4,7.7-31.4,16.8s14.4,16.7,31.4,16.7s31.4-7.7,31.4-16.8C94,53.4,79.6,45.7,62.5,45.7z"/>
	<path class="st1" d="M62.5,42.9c-19.1,0-34,8.6-34,19.6s14.9,19.6,34,19.6s34-8.6,34-19.6S81.6,42.9,62.5,42.9z M62.5,79.2
		c-17,0-31.4-7.7-31.4-16.8c0-9,14.4-16.7,31.4-16.7s31.4,7.7,31.4,16.8C94,71.6,79.6,79.2,62.5,79.2z"/>
</g>
</svg>
