<?xml version="1.0" encoding="utf-8"?>
<!-- Generator: Adobe Illustrator 25.0.1, SVG Export Plug-In . SVG Version: 6.00 Build 0)  -->
<svg version="1.1"
	 id="svg8" inkscape:export-filename="/media/juhele/data_2TB/_GRAFIKA/GHS hazard symbols/GHS06_toxic_substances.png" inkscape:export-xdpi="99.027519" inkscape:export-ydpi="99.027519" inkscape:version="0.92.5 (2060ec1f9f, 2020-04-08)" sodipodi:docname="Laadpaal.svg" xmlns:cc="http://creativecommons.org/ns#" xmlns:dc="http://purl.org/dc/elements/1.1/" xmlns:inkscape="http://www.inkscape.org/namespaces/inkscape" xmlns:rdf="http://www.w3.org/1999/02/22-rdf-syntax-ns#" xmlns:sodipodi="http://sodipodi.sourceforge.net/DTD/sodipodi-0.dtd" xmlns:svg="http://www.w3.org/2000/svg"
	 xmlns="http://www.w3.org/2000/svg" xmlns:xlink="http://www.w3.org/1999/xlink" x="0px" y="0px" width="125px" height="125px"
	 viewBox="0 0 125 125" style="enable-background:new 0 0 125 125;" xml:space="preserve">
<style type="text/css">
	.st0{fill:#FEFEFE;}
	.st1{fill:#D6061C;}
	.st2{fill-rule:evenodd;clip-rule:evenodd;fill:#D6061C;}
	.st3{fill:#2B2A29;}
</style>
<g>
	<g>
		<g>
			<path class="st0" d="M62.5,28.5c-18.7,0-34,15.3-34,34s15.3,34,34,34c18.8,0,34-15.3,34-34S81.3,28.5,62.5,28.5z M92.4,62.5
				C92.4,79,79,92.4,62.5,92.4S32.6,79,32.6,62.5S46,32.6,62.5,32.6S92.4,46,92.4,62.5z"/>
			<path class="st0" d="M62.5,39C49.6,39,39,49.5,39,62.5S49.6,86,62.5,86C75.5,86,86,75.5,86,62.5C86,49.6,75.5,39,62.5,39z
				 M73.8,76.7H68V64.3H56.8v12.4H51V48.3h5.8v11.2H68V48.3h5.8V76.7z"/>
		</g>
		<g>
			<path class="st1" d="M62.5,32.6C46,32.6,32.6,46,32.6,62.5S46,92.4,62.5,92.4S92.4,79,92.4,62.5S79,32.6,62.5,32.6z M62.5,86
				C49.6,86,39,75.5,39,62.5C39,49.6,49.5,39,62.5,39S86,49.6,86,62.5C86,75.5,75.5,86,62.5,86z"/>
		</g>
	</g>
	
		<rect id="rect13" x="59.2" y="36.6" transform="matrix(0.7071 -0.7071 0.7071 0.7071 -26.8845 62.9126)" class="st2" width="6.7" height="54.7"/>
	<polygon class="st3" points="68.1,59.5 56.8,59.5 56.8,48.3 51.2,48.3 51.2,76.7 56.8,76.7 56.8,64.3 68.1,64.3 68.1,76.7 
		73.8,76.7 73.8,48.3 68.1,48.3 	"/>
</g>
</svg>
