<?xml version="1.0" encoding="utf-8"?>
<!-- Generator: Adobe Illustrator 25.0.1, SVG Export Plug-In . SVG Version: 6.00 Build 0)  -->
<svg version="1.1"
	 id="svg8" inkscape:export-filename="/media/juhele/data_2TB/_GRAFIKA/GHS hazard symbols/GHS06_toxic_substances.png" inkscape:export-xdpi="99.027519" inkscape:export-ydpi="99.027519" inkscape:version="0.92.5 (2060ec1f9f, 2020-04-08)" sodipodi:docname="Laadpaal.svg" xmlns:cc="http://creativecommons.org/ns#" xmlns:dc="http://purl.org/dc/elements/1.1/" xmlns:inkscape="http://www.inkscape.org/namespaces/inkscape" xmlns:rdf="http://www.w3.org/1999/02/22-rdf-syntax-ns#" xmlns:sodipodi="http://sodipodi.sourceforge.net/DTD/sodipodi-0.dtd" xmlns:svg="http://www.w3.org/2000/svg"
	 xmlns="http://www.w3.org/2000/svg" xmlns:xlink="http://www.w3.org/1999/xlink" x="0px" y="0px" width="125px" height="125px"
	 viewBox="0 0 125 125" style="enable-background:new 0 0 125 125;" xml:space="preserve">
<style type="text/css">
	.st0{fill:#FEFEFE;}
	.st1{fill:#1D1D1B;}
</style>
<g>
	<path class="st0" d="M90.2,32.8H35.4c-1.1,0-2.1,0.9-2.1,2.1v54.8c0,1.1,0.9,2,2.1,2h54.8c1.1,0,2.1-0.9,2.1-2V34.9
		C92.3,33.8,91.3,32.8,90.2,32.8z"/>
	<path class="st0" d="M90.2,91.7H35.4c-1.1,0-2.1-0.9-2.1-2v0.1c0,1.1,1,2,2.1,2L90.2,91.7c1.1,0.1,2.1-0.9,2.1-2v-0.1
		C92.3,90.8,91.3,91.7,90.2,91.7z"/>
	<path class="st1" d="M90.8,28.3h-56c-3.3,0-6,2.7-6,5.9v56.3c0,3.2,2.7,5.8,6,5.8h56c3.3,0,6-2.6,6-5.9V34.2
		C96.8,30.9,94.1,28.3,90.8,28.3z M92.3,34.9v54.8v0.1c0,1.1-1,2-2.1,2H35.4c-1.1,0-2.1-0.9-2.1-2v-0.1V34.9c0-1.1,0.9-2.1,2.1-2.1
		h54.8C91.3,32.8,92.3,33.8,92.3,34.9z"/>
</g>
<path class="st1" d="M82.4,44.4v-1.2H43.5v1.2h2.8v10.9h-2.8v1.2h2.8v13.2h-2.8v1.2h2.8v11.3h-2.8v1.2h38.8v-1.2h-2.7V70.9h2.7v-1.2
	h-2.7V56.5h2.7v-1.2h-2.7V44.4H82.4z M63.6,56.5h4.3v13.2h-4.3V56.5z M62.3,69.7h-4.2V56.5h4.2V69.7z M63.6,55.3V44.4h4.3v10.9H63.6
	z M62.3,55.3h-4.2V44.4h4.2V55.3z M56.9,55.3h-4.1V44.4h4.1V55.3z M56.9,56.5v13.2h-4.1V56.5H56.9z M56.9,70.9v11.3h-4.1V70.9H56.9z
	 M58.1,70.9h4.2v11.3h-4.2V70.9z M63.6,70.9h4.3v11.3h-4.3V70.9z M69.1,70.9h4v11.3h-4V70.9z M69.1,69.7V56.5h4v13.2H69.1z
	 M69.1,55.3V44.4h4v10.9H69.1z M47.5,44.4h4v10.9h-4V44.4z M47.5,56.5h4v13.2h-4V56.5z M47.5,70.9h4v11.3h-4V70.9z M78.4,82.2h-4.1
	V70.9h4.1V82.2z M78.4,69.7h-4.1V56.5h4.1V69.7z M78.4,55.3h-4.1V44.4h4.1V55.3z"/>
</svg>
