<?xml version="1.0" encoding="utf-8"?>
<!-- Generator: Adobe Illustrator 25.0.1, SVG Export Plug-In . SVG Version: 6.00 Build 0)  -->
<svg version="1.1"
	 id="svg8" inkscape:export-filename="/media/juhele/data_2TB/_GRAFIKA/GHS hazard symbols/GHS06_toxic_substances.png" inkscape:export-xdpi="99.027519" inkscape:export-ydpi="99.027519" inkscape:version="0.92.5 (2060ec1f9f, 2020-04-08)" sodipodi:docname="Laadpaal.svg" xmlns:cc="http://creativecommons.org/ns#" xmlns:dc="http://purl.org/dc/elements/1.1/" xmlns:inkscape="http://www.inkscape.org/namespaces/inkscape" xmlns:rdf="http://www.w3.org/1999/02/22-rdf-syntax-ns#" xmlns:sodipodi="http://sodipodi.sourceforge.net/DTD/sodipodi-0.dtd" xmlns:svg="http://www.w3.org/2000/svg"
	 xmlns="http://www.w3.org/2000/svg" xmlns:xlink="http://www.w3.org/1999/xlink" x="0px" y="0px" width="125px" height="125px"
	 viewBox="0 0 125 125" style="enable-background:new 0 0 125 125;" xml:space="preserve">
<style type="text/css">
	.st0{fill-rule:evenodd;clip-rule:evenodd;fill:#FEFEFE;}
	.st1{fill:#FEFEFE;}
	.st2{fill-rule:evenodd;clip-rule:evenodd;fill:#945231;}
	.st3{fill:#945231;}
	.st4{fill:#2B2A29;}
</style>
<g id="Laag_x0020_1" transform="matrix(0.0533409,0,0,0.05361931,0.08791322,0.02064489)">
	<g id="_851376640">
		<g id="rect7">
			<path class="st0" d="M650.8,612.8h1031c27.6,0,50,21.8,50,48.7v1027.6c0,26.9-22.4,48.7-50,48.7h-1031c-27.6,0-50-21.8-50-48.7
				V661.5C600.8,634.6,623.2,612.8,650.8,612.8z"/>
			<path class="st1" d="M1681.8,1749h-1031c-33.7,0-61.2-26.9-61.2-59.9V661.5c0-33,27.4-59.9,61.2-59.9h1031
				c33.7,0,61.2,26.9,61.2,59.9v1027.6C1742.9,1722.1,1715.5,1749,1681.8,1749z M650.8,623.9c-21.4,0-38.8,16.9-38.8,37.6v1027.6
				c0,20.8,17.4,37.6,38.8,37.6h1031c21.4,0,38.8-16.9,38.8-37.6V661.5c0-20.8-17.4-37.6-38.8-37.6H650.8z"/>
		</g>
		<g id="rect9">
			<rect x="574.8" y="593.3" class="st2" width="1174" height="1171.9"/>
			<path class="st3" d="M1759.9,1776.3H563.6V582.2h1196.3V1776.3z M585.9,1754.1h1151.7V604.4H585.9V1754.1z"/>
		</g>
		<g id="path11">
			<path inkscape:connector-curvature="0" class="st2" d="M638.8,1801.3h1055c56,0,101-43.9,101-98.5V648.8c0-53.6-45-98.5-101-98.5
				h-1055c-55,0-101,44.8-101,98.5v1053.9C537.8,1757.4,583.8,1801.3,638.8,1801.3z"/>
			<path class="st3" d="M1693.8,1812.4h-1055c-61.8,0-112.2-49.2-112.2-109.6V648.8c0-59.4,51.4-109.6,112.2-109.6h1055
				c61.8,0,112.2,49.2,112.2,109.6v1053.9C1805.9,1763.2,1755.6,1812.4,1693.8,1812.4z M638.8,561.5c-48.7,0-89.8,40-89.8,87.4
				v1053.9c0,48.2,40.3,87.3,89.8,87.3h1055c49.5,0,89.8-39.2,89.8-87.3V648.8c0-48.2-40.3-87.4-89.8-87.4H638.8z"/>
		</g>
		<g id="path13">
			<path inkscape:connector-curvature="0" class="st0" d="M650.8,612.8h1031c27,0,50,22.4,50,49.7v1027.6c0,26.3-23,48.7-50,48.7
				h-1031c-27,0-50-22.4-50-48.7V662.5C600.8,635.2,623.8,612.8,650.8,612.8z"/>
			<path class="st3" d="M1681.8,1750h-1031c-33.2,0-61.2-27.4-61.2-59.8V662.5c0-33,28-60.8,61.2-60.8h1031
				c33.2,0,61.2,27.9,61.2,60.8v1027.6C1742.9,1722.5,1714.9,1750,1681.8,1750z M650.8,623.9c-21.1,0-38.8,17.7-38.8,38.6v1027.6
				c0,20.1,18.1,37.6,38.8,37.6h1031c20.7,0,38.8-17.6,38.8-37.6V662.5c0-20.9-17.8-38.6-38.8-38.6H650.8z"/>
		</g>
		<g>
			<g>
				<g>
					<polygon class="st1" points="1231.8,1003.2 1253.8,1016.6 1275.7,1029.9 1298.3,1043.6 1327.2,1059.2 1346.8,1054.2 
						1368.8,1048.5 1390.8,1042.9 1403.4,1039.7 1471.8,1081.7 1471.8,934.2 1346.3,858.5 956.7,957.4 956.7,1000.3 1147.3,952 
											"/>
				</g>
				<g>
					<polygon class="st1" points="956.7,1153.3 978.6,1148.2 1024.8,1136.4 1054.1,1128.9 1114.6,1113.5 1139.7,1107.1 
						1156.8,1102.7 1178.7,1097.1 1231.8,1083.5 1253.8,1077.9 1264.8,1075.1 1264.8,1074.5 1253.8,1067.8 1231.8,1054.5 
						1178.7,1022.3 1140.2,998.9 1090.5,1011.5 1040.8,1024.2 1018.8,1029.7 956.7,1045.5 934.8,1051.1 912.8,1056.6 750.7,1097.7 
						750.7,1352.3 961.8,1352.3 961.8,1256.7 961.8,1234.8 961.8,1212.9 961.8,1197 956.7,1198.2 934.8,1203.2 933.7,1203.5 
						923.8,1160.9 934.8,1158.3 					"/>
				</g>
				<g>
					<path class="st1" d="M1515.7,1160.1l-22-13.5l-22-13.5l-75.6-46.4l-5.4,1.4l-22,5.6l-17.5,4.5l-4.5,1.2l-25.4,6.5l-12.6,3.2
						l-22,5.6l-11,2.8l-11,2.8l-11,2.8l-22,5.6l-48,12.3l-22,5.6l-41.6,10.6l-51.4,13.1l-22,5.6l-22,5.6l-19,4.9v26.5v21.9v21.9
						v95.7v21.9v21.9v45h275v-45v-21.9v-117.6v-21.9v-21.9v-10.7h6h22h38h22h22h49v10.7v21.9v21.9v184.4h81v-277.9L1515.7,1160.1z
						 M1068.8,1357.1v-4.8v-95.7v-21.9v-17h71h22h22h44v17v21.9v95.7v4.8h-44h-22H1068.8z"/>
				</g>
			</g>
			<g>
				<g>
					<path class="st4" d="M1554.3,1132.4l-38.6-23.7V959.4l31.2,17.6l21.7-38l-63.3-35.7l-152-91.6L929.1,919.2l-54.7,13.6
						l10.6,42.4l27.7-7v43.3l-189.4,48l-55.5,12.6l9.8,42.6l29.1-6.6v287.9h255v88.7h319h44h71h44h125v-297.1l32.5,17.6l21-38.4
						L1554.3,1132.4z M1439.7,1256.7v-21.9v-21.9v-10.7h-49h-22h-22h-38h-22h-6v10.7v21.9v21.9v117.6v21.9v45h-275v-45v-21.9v-21.9
						v-95.7v-21.9v-21.9v-26.5l19-4.9l22-5.6l22-5.6l51.4-13.1l41.6-10.6l22-5.6l48-12.3l22-5.6l11-2.8l11-2.8l11-2.8l22-5.6
						l12.6-3.2l25.4-6.5l4.5-1.2l17.5-4.5l22-5.6l5.4-1.4l75.6,46.4l22,13.5l22,13.5l5,3.1v277.9h-81V1256.7z M956.7,957.4
						l389.5-98.8l125.5,75.6v147.5l-68.4-42l-12.6,3.2l-22,5.6l-22,5.6l-19.6,5l-28.9-15.6l-22.6-13.7l-22-13.3l-22-13.3l-84.5-51.3
						l-190.6,48.4V957.4z M750.7,1097.7l162-41.1l22-5.6l22-5.6l62-15.7l22-5.6l49.8-12.6l49.7-12.6l38.5,23.4l53,32.2l22,13.3
						l11,6.7v0.6l-11,2.8l-22,5.6l-53,13.5l-22,5.6l-17.1,4.4l-25.1,6.4l-60.5,15.5l-29.3,7.5l-46.1,11.8l-21.9,5.1l-22,5.1l-11,2.5
						l9.9,42.6l1-0.2l22-5.1l5-1.2v15.9v21.9v21.9v95.7h-211V1097.7z"/>
				</g>
				<g>
					<polygon class="st4" points="1161.8,1217.8 1139.8,1217.8 1068.8,1217.8 1068.8,1234.8 1068.8,1256.7 1068.8,1352.3 
						1068.8,1357.1 1161.8,1357.1 1183.7,1357.1 1227.8,1357.1 1227.8,1352.3 1227.8,1256.7 1227.8,1234.8 1227.8,1217.8 
						1183.7,1217.8 					"/>
				</g>
			</g>
		</g>
	</g>
</g>
</svg>
