<?xml version="1.0" encoding="utf-8"?>
<!-- Generator: Adobe Illustrator 25.0.1, SVG Export Plug-In . SVG Version: 6.00 Build 0)  -->
<svg version="1.1"
	 id="svg8" inkscape:export-filename="/media/juhele/data_2TB/_GRAFIKA/GHS hazard symbols/GHS06_toxic_substances.png" inkscape:export-xdpi="99.027519" inkscape:export-ydpi="99.027519" inkscape:version="0.92.5 (2060ec1f9f, 2020-04-08)" sodipodi:docname="Laadpaal.svg" xmlns:cc="http://creativecommons.org/ns#" xmlns:dc="http://purl.org/dc/elements/1.1/" xmlns:inkscape="http://www.inkscape.org/namespaces/inkscape" xmlns:rdf="http://www.w3.org/1999/02/22-rdf-syntax-ns#" xmlns:sodipodi="http://sodipodi.sourceforge.net/DTD/sodipodi-0.dtd" xmlns:svg="http://www.w3.org/2000/svg"
	 xmlns="http://www.w3.org/2000/svg" xmlns:xlink="http://www.w3.org/1999/xlink" x="0px" y="0px" width="125px" height="125px"
	 viewBox="0 0 125 125" style="enable-background:new 0 0 125 125;" xml:space="preserve">
<style type="text/css">
	.st0{fill:#3334E1;}
	.st1{fill:#FEFEFE;}
</style>
<g>
	<g>
		<path class="st0" d="M90.9,28.3H34.8c-3.3,0-6,2.6-6,5.8v56.4c0,3.2,2.7,5.8,6,5.8h56.1c3.3,0,6-2.6,6-5.8V34.1
			C96.8,30.9,94.2,28.3,90.9,28.3z M90.2,93H35.4c-1.8,0-3.3-1.5-3.3-3.2v-55c0-1.5,1-2.7,2.5-3.1c0.3-0.1,0.6-0.1,0.8-0.1h54.8
			c0.3,0,0.6,0,0.8,0.1c1,0.3,1.8,0.9,2.2,1.8c0.2,0.4,0.3,0.8,0.3,1.3v55c0,0.4-0.1,0.9-0.3,1.3C92.7,92.2,91.6,93,90.2,93z"/>
		<path class="st0" d="M88.9,34.3H36.8c-1.1,0-1.9,0.9-1.9,2v52.2c0,1,0.9,1.9,1.9,1.9h52.1c1,0,1.9-0.9,1.9-1.9V36.3
			C90.8,35.2,89.9,34.3,88.9,34.3z M58.8,81.1c-1.7,0.4-8.6,2.1-9.9,2c-0.4-0.7-0.6-0.8,0-1.6c0.5-0.8,2.8-3.6,3-4.3
			c-4.8-2.2-3.8-6.9-3.8-11.8c0-6.6-1.4-14.2,6.2-17.2l8.5-3.3c1.4-0.6,1.5-0.8,2.4-1.5c1.6-1.4,1.5-3.9,1.4-6.4H71
			c-0.1,3.7,0.1,7.6-3.7,10.4c-2.3,1.6-7.1,3.2-9.7,4.3c-2.1,0.8-3.2,1.2-4.2,2.7c-1.1,1.8-0.8,3.8-0.8,6.1s0,4.6,0,6.9
			c0,1.9-0.5,5.1,1.1,5.8c0.3-0.5,0.7-4,0.8-5c0.1-0.5,0.1-0.9,0.5-1.1c0.5-0.2,0.8,0,1.1,0.3l7,10.5C64.6,80.2,63.7,79.9,58.8,81.1
			z M71,63.5v24.2h-4.4V63.5c-3.3,0.6-8.7,3-5.6-1.2l4.6-6.5c3.2-4.7,2.9-5.1,5.1-1.9l6.1,8.6C79.8,66.7,73.3,63.8,71,63.5z"/>
	</g>
	<g>
		<path class="st1" d="M93.2,33.6C92.8,32.7,92,32,91,31.8c-0.3-0.1-0.5-0.1-0.8-0.1H35.4c-0.3,0-0.6,0-0.8,0.1
			c-1.4,0.4-2.5,1.6-2.5,3.1v55c0,1.7,1.5,3.2,3.3,3.2h54.8c1.3,0,2.5-0.8,3-1.9c0.2-0.4,0.3-0.8,0.3-1.3v-55
			C93.5,34.4,93.4,34,93.2,33.6z M34.9,36.3c0-1.1,0.8-2,1.9-2h52.1c1,0,1.9,0.9,1.9,2v52.2c0,1-0.9,1.9-1.9,1.9H36.8
			c-1,0-1.9-0.9-1.9-1.9V36.3z"/>
		<path class="st1" d="M51.9,77.2c-0.3,0.7-2.5,3.5-3,4.3c-0.5,0.8-0.4,0.9,0,1.6c1.3,0.1,8.2-1.6,9.9-2c4.9-1.2,5.8-0.8,4.3-3.1
			l-7-10.5c-0.3-0.3-0.6-0.5-1.1-0.3c-0.4,0.2-0.4,0.5-0.5,1.1c-0.1,1-0.5,4.5-0.8,5c-1.6-0.7-1-3.9-1.1-5.8c0-2.3,0-4.6,0-6.9
			c0-2.3-0.3-4.3,0.8-6.1c1-1.6,2.1-1.9,4.2-2.7c2.7-1.1,7.4-2.6,9.7-4.3c3.8-2.7,3.6-6.6,3.7-10.4h-4.4c0.1,2.5,0.2,4.9-1.4,6.4
			c-0.8,0.8-0.9,1-2.4,1.5l-8.5,3.3c-7.6,3-6.2,10.5-6.2,17.2C48.1,70.3,47.1,75,51.9,77.2z"/>
		<path class="st1" d="M65.5,55.9l-4.6,6.4c-3.1,4.2,2.3,1.8,5.6,1.2v24.2h4.4V63.5c2.3,0.2,8.8,3.2,5.7-1l-6.1-8.6
			C68.4,50.8,68.8,51.2,65.5,55.9z"/>
	</g>
</g>
</svg>
