<svg xmlns="http://www.w3.org/2000/svg" viewBox="0 0 198.43 198.43"><defs><style>.cls-1{fill:#0056a4;}.cls-2{fill:none;stroke:#fff;stroke-miterlimit:10;stroke-width:2.83px;}.cls-3{fill:#fff;}</style></defs><g id="Picto_s" data-name="Picto&apos;s"><rect class="cls-1" x="11.34" y="11.34" width="175.75" height="175.75"/><rect class="cls-2" x="22.97" y="22.97" width="152.49" height="152.49" rx="8.82"/><path class="cls-3" d="M94,108.9l13.6-4.12v62h12.56v-62l13.28,4.09a2.56,2.56,0,0,0,2.88-3.88l-20-29.62a3,3,0,0,0-4.88,0L91.18,105A2.56,2.56,0,0,0,94,108.9Z"/><path class="cls-3" d="M105.79,31.93V44.82a7.56,7.56,0,0,1-4.23,6.76L74.94,64.46A27.32,27.32,0,0,0,59.61,88.91V125.7a14.5,14.5,0,0,0,8.06,12.93l3,1.47v0l-9,10.51a2.55,2.55,0,0,0,2.4,4.16l35-6.49a2.93,2.93,0,0,0,1.95-4.45L82,113.53a2.55,2.55,0,0,0-4.69,1.06l-1.65,14.06h0l-2.47-1.22a1.94,1.94,0,0,1-1.09-1.74V88.91a14.77,14.77,0,0,1,8.29-13.22L107,62.8a20.08,20.08,0,0,0,11.27-18V31.93Z"/></g></svg>