<?xml version="1.0" encoding="utf-8"?>
<!-- Generator: Adobe Illustrator 25.0.1, SVG Export Plug-In . SVG Version: 6.00 Build 0)  -->
<svg version="1.1"
	 id="svg8" inkscape:export-filename="/media/juhele/data_2TB/_GRAFIKA/GHS hazard symbols/GHS06_toxic_substances.png" inkscape:export-xdpi="99.027519" inkscape:export-ydpi="99.027519" inkscape:version="0.92.5 (2060ec1f9f, 2020-04-08)" sodipodi:docname="Laadpaal.svg" xmlns:cc="http://creativecommons.org/ns#" xmlns:dc="http://purl.org/dc/elements/1.1/" xmlns:inkscape="http://www.inkscape.org/namespaces/inkscape" xmlns:rdf="http://www.w3.org/1999/02/22-rdf-syntax-ns#" xmlns:sodipodi="http://sodipodi.sourceforge.net/DTD/sodipodi-0.dtd" xmlns:svg="http://www.w3.org/2000/svg"
	 xmlns="http://www.w3.org/2000/svg" xmlns:xlink="http://www.w3.org/1999/xlink" x="0px" y="0px" width="125px" height="125px"
	 viewBox="0 0 125 125" style="enable-background:new 0 0 125 125;" xml:space="preserve">
<style type="text/css">
	.st0{fill:#FEFEFE;}
	.st1{fill:#1D1D1B;}
	.st2{fill:#FFFF21;}
</style>
<g>
	<path class="st0" d="M89.9,33.2H35.1c-1.1,0-2.1,0.9-2.1,2.1v54.8c0,1.1,0.9,2,2.1,2h54.8c1.1,0,2.1-0.9,2.1-2V35.3
		C92,34.2,91,33.2,89.9,33.2z"/>
	<path class="st0" d="M89.9,92.1H35.1c-1.1,0-2.1-0.9-2.1-2v0.1c0,1.1,1,2,2.1,2L89.9,92.1c1.1,0.1,2.1-0.9,2.1-2V90
		C92,91.2,91,92.1,89.9,92.1z"/>
	<path class="st1" d="M90.5,28.7h-56c-3.3,0-6,2.7-6,5.9v56.3c0,3.2,2.7,5.8,6,5.8h56c3.3,0,6-2.6,6-5.9V34.6
		C96.5,31.3,93.8,28.7,90.5,28.7z M92,35.3v54.8v0.1c0,1.1-1,2-2.1,2H35.1c-1.1,0-2.1-0.9-2.1-2v-0.1V35.3c0-1.1,0.9-2.1,2.1-2.1
		h54.8C91,33.2,92,34.2,92,35.3z"/>
</g>
<g>
	<path class="st2" d="M75.1,51.2L62.3,43l-12.9,8.2v4.9h-4.2v23.4h17.1h17V56.1h-4.2C75.1,56.1,75.1,51.2,75.1,51.2z M60.7,76h-3.9
		l-5.7-17.4h3.8l3.9,13.3l3.9-13.3h3.8L60.7,76z M73.4,76h-2.7V58.6h2.7V76z"/>
	<g>
		<path class="st1" d="M83.3,51.2l-21-13.1L41.2,51.2h-4v4.9h3.9v28.1h21.1h21V56.1h4v-4.9H83.3z M79.3,56.1v23.4h-17H45.2V56.1h4.2
			v-4.9L62.3,43l12.8,8.2v4.9H79.3z"/>
		<rect x="70.7" y="58.6" class="st1" width="2.7" height="17.4"/>
		<polygon class="st1" points="58.7,71.9 54.8,58.6 51,58.6 56.7,76 60.7,76 66.4,58.6 62.6,58.6 		"/>
	</g>
</g>
</svg>
