<svg xmlns="http://www.w3.org/2000/svg" viewBox="0 0 198.43 198.43"><defs><style>.cls-1{fill:#fff;}.cls-2{fill:#fdea18;}</style></defs><g id="Picto_s" data-name="Picto&apos;s"><rect x="11.34" y="11.34" width="175.75" height="175.75"/><rect class="cls-1" x="22.97" y="22.97" width="152.49" height="152.49"/><polygon points="165.83 74.66 99.21 40.76 32.6 74.66 32.6 84.31 44.68 84.31 44.68 150.41 153.74 150.41 153.74 84.31 165.83 84.31 165.83 74.66"/><polygon class="cls-2" points="142.41 139.07 56.02 139.07 56.02 84.31 64.4 84.31 64.4 74.94 99.21 57.22 133.57 74.7 133.57 84.31 142.41 84.31 142.41 139.07"/><path d="M99.74,86.81h8.61L94.84,125.17H87L73.61,86.81h8.85l8.6,29.12Z"/><path d="M120.84,125.17h-8.23V86.81h8.23Z"/></g></svg>