<?xml version="1.0" encoding="utf-8"?>
<!-- Generator: Adobe Illustrator 25.0.1, SVG Export Plug-In . SVG Version: 6.00 Build 0)  -->
<svg version="1.1"
	 id="svg8" inkscape:export-filename="/media/juhele/data_2TB/_GRAFIKA/GHS hazard symbols/GHS06_toxic_substances.png" inkscape:export-xdpi="99.027519" inkscape:export-ydpi="99.027519" inkscape:version="0.92.5 (2060ec1f9f, 2020-04-08)" sodipodi:docname="Laadpaal.svg" xmlns:cc="http://creativecommons.org/ns#" xmlns:dc="http://purl.org/dc/elements/1.1/" xmlns:inkscape="http://www.inkscape.org/namespaces/inkscape" xmlns:rdf="http://www.w3.org/1999/02/22-rdf-syntax-ns#" xmlns:sodipodi="http://sodipodi.sourceforge.net/DTD/sodipodi-0.dtd" xmlns:svg="http://www.w3.org/2000/svg"
	 xmlns="http://www.w3.org/2000/svg" xmlns:xlink="http://www.w3.org/1999/xlink" x="0px" y="0px" width="125px" height="125px"
	 viewBox="0 0 125 125" style="enable-background:new 0 0 125 125;" xml:space="preserve">
<style type="text/css">
	.st0{fill:#FEFEFE;}
	.st1{fill:#1D1D1B;}
	.st2{fill:#D01B17;}
</style>
<g>
	<path class="st0" d="M89.9,33.1H35.1C34,33.1,33,34,33,35.2V90c0,1.1,0.9,2,2.1,2h54.8c1.1,0,2.1-0.9,2.1-2V35.2
		C92,34.1,91,33.1,89.9,33.1z"/>
	<path class="st0" d="M89.9,92H35.1C34,92,33,91.1,33,90v0.1c0,1.1,1,2,2.1,2L89.9,92c1.1,0.1,2.1-0.9,2.1-2v-0.1
		C92,91.1,91,92,89.9,92z"/>
	<path class="st1" d="M90.5,28.6h-56c-3.3,0-6,2.7-6,5.9v56.3c0,3.2,2.7,5.8,6,5.8h56c3.3,0,6-2.6,6-5.9V34.5
		C96.5,31.2,93.8,28.6,90.5,28.6z M92,35.2V90v0.1c0,1.1-1,2-2.1,2H35.1c-1.1,0-2.1-0.9-2.1-2V90V35.2c0-1.1,0.9-2.1,2.1-2.1h54.8
		C91,33.1,92,34.1,92,35.2z"/>
</g>
<g>
	<path class="st2" d="M75.1,51.1l-12.8-8.2l-12.9,8.2V56h-4.2v23.4h17.1h17V56h-4.2C75.1,56,75.1,51.1,75.1,51.1z"/>
	<g>
		<path class="st1" d="M83.3,51.1L62.3,38L41.2,51.1h-4V56h3.9v28.1h21.1h21V56h4v-4.9H83.3z M79.3,56v23.4h-17H45.2V56h4.2v-4.9
			l12.9-8.2l12.8,8.2V56H79.3z"/>
	</g>
</g>
</svg>
