<?xml version="1.0" encoding="utf-8"?>
<!-- Generator: Adobe Illustrator 25.0.1, SVG Export Plug-In . SVG Version: 6.00 Build 0)  -->
<svg version="1.1"
	 id="svg8" inkscape:export-filename="/media/juhele/data_2TB/_GRAFIKA/GHS hazard symbols/GHS06_toxic_substances.png" inkscape:export-xdpi="99.027519" inkscape:export-ydpi="99.027519" inkscape:version="0.92.5 (2060ec1f9f, 2020-04-08)" sodipodi:docname="Laadpaal.svg" xmlns:cc="http://creativecommons.org/ns#" xmlns:dc="http://purl.org/dc/elements/1.1/" xmlns:inkscape="http://www.inkscape.org/namespaces/inkscape" xmlns:rdf="http://www.w3.org/1999/02/22-rdf-syntax-ns#" xmlns:sodipodi="http://sodipodi.sourceforge.net/DTD/sodipodi-0.dtd" xmlns:svg="http://www.w3.org/2000/svg"
	 xmlns="http://www.w3.org/2000/svg" xmlns:xlink="http://www.w3.org/1999/xlink" x="0px" y="0px" width="125px" height="125px"
	 viewBox="0 0 125 125" style="enable-background:new 0 0 125 125;" xml:space="preserve">
<style type="text/css">
	.st0{fill:#FEFEFE;}
	.st1{fill:#1D1D1B;}
	.st2{fill:#76B82A;}
</style>
<g>
	<path class="st0" d="M89.9,32.8H35.1c-1.1,0-2.1,0.9-2.1,2.1v54.8c0,1.1,0.9,2,2.1,2h54.8c1.1,0,2.1-0.9,2.1-2V34.9
		C92,33.8,91,32.8,89.9,32.8z"/>
	<path class="st0" d="M89.9,91.7H35.1c-1.1,0-2.1-0.9-2.1-2v0.1c0,1.1,1,2,2.1,2L89.9,91.7c1.1,0.1,2.1-0.9,2.1-2v-0.1
		C92,90.8,91,91.7,89.9,91.7z"/>
	<path class="st1" d="M90.5,28.3h-56c-3.3,0-6,2.7-6,5.9v56.3c0,3.2,2.7,5.8,6,5.8h56c3.3,0,6-2.6,6-5.9V34.2
		C96.5,30.9,93.8,28.3,90.5,28.3z M92,34.9v54.8v0.1c0,1.1-1,2-2.1,2H35.1c-1.1,0-2.1-0.9-2.1-2v-0.1V34.9c0-1.1,0.9-2.1,2.1-2.1
		h54.8C91,32.8,92,33.8,92,34.9z"/>
</g>
<g>
	<path class="st2" d="M75.1,50.8l-12.8-8.2l-12.9,8.2v4.9h-4.2v23.4h17.1h17V55.7h-4.2C75.1,55.7,75.1,50.8,75.1,50.8z"/>
	<g>
		<path class="st1" d="M83.3,50.8l-21-13.1L41.2,50.8h-4v4.9h3.9v28.1h21.1h21V55.7h4v-4.9H83.3z M79.3,55.7v23.4h-17H45.2V55.7h4.2
			v-4.9l12.9-8.2l12.8,8.2v4.9H79.3z"/>
	</g>
</g>
</svg>
