<?xml version="1.0" encoding="UTF-8"?>
<!-- Created with Inkscape (http://www.inkscape.org/) -->
<svg width="125" height="125" version="1.1" xml:space="preserve" xmlns="http://www.w3.org/2000/svg" xmlns:cc="http://creativecommons.org/ns#" xmlns:dc="http://purl.org/dc/elements/1.1/" xmlns:rdf="http://www.w3.org/1999/02/22-rdf-syntax-ns#"><metadata><rdf:RDF><cc:Work rdf:about=""><dc:format>image/svg+xml</dc:format><dc:type rdf:resource="http://purl.org/dc/dcmitype/StillImage"/></cc:Work></rdf:RDF></metadata><g transform="matrix(1.1465 0 0 -1.1465 30 95)"><circle transform="matrix(.87221 0 0 -.8722 -26.166 82.859)" cx="62.5" cy="62.5" r="32" fill="none" stroke="#333" stroke-miterlimit="20.7" stroke-width="4" style="paint-order:markers fill stroke"/><path transform="matrix(.1 0 0 .1 1.457 -1.3521)" d="m259.64 392.6c-37.512 0-63.684 19.882-63.684 37.746 0 17.89 26.172 37.879 63.684 37.879 37.5 0 63.613-19.989 63.613-37.879 0-17.864-26.113-37.746-63.613-37.746zm121.75-164.06v42.5h-93.992v84.914c43.335 9.922 75.554 40.234 75.554 74.387 0 43.445-45.344 77.566-103.31 77.566-57.922 0-103.37-34.121-103.37-77.566 0-34.153 32.265-64.465 75.625-74.387v-269.89h55.5v29.727h93.992v51.414h-38.465v61.34h38.465" fill="#71ec24"/><g fill="#231f20"><path transform="matrix(.1 0 0 .1 1.457 -1.3521)" d="m287.4 355.96v-84.914h93.992v-42.5h-38.465v-61.34h38.465v-51.414h-93.992v-29.727h-55.5v269.89c-43.36 9.922-75.625 40.234-75.625 74.387 0 43.445 45.449 77.566 103.37 77.566 57.964 0 103.31-34.121 103.31-77.566 0-34.153-32.219-64.465-75.554-74.387zm7.949-77.031v70.937c45.254 11.485 75.574 43.399 75.574 80.481 0 47.976-48.914 85.488-111.28 85.488-62.434 0-111.26-37.512-111.26-85.488 0-37.082 30.254-68.996 75.527-80.481v-271.73h71.438v29.804h94.07v67.313h-38.574v45.351h38.574v58.325h-94.07"/><path transform="matrix(.1 0 0 .1 1.457 -1.3521)" d="m259.64 468.23c-37.512 0-63.684-19.989-63.684-37.879 0-17.864 26.172-37.746 63.684-37.746 37.5 0 63.613 19.882 63.613 37.746 0 17.89-26.113 37.879-63.613 37.879zm55.703-37.879c0-13.84-24.297-29.895-55.703-29.895-31.399 0-55.696 16.055-55.696 29.895 0 13.828 24.297 29.968 55.696 29.968 31.406 0 55.703-16.14 55.703-29.968"/><path transform="matrix(.1 0 0 .1 1.457 -1.3521)" d="m287.4 99.656h7.9492v237.52h-7.9492z"/></g></g></svg>
