<?xml version="1.0" encoding="UTF-8" standalone="no"?>
<!-- Generator: Adobe Illustrator 24.1.0, SVG Export Plug-In . SVG Version: 6.00 Build 0)  -->

<svg
   xmlns:dc="http://purl.org/dc/elements/1.1/"
   xmlns:cc="http://creativecommons.org/ns#"
   xmlns:rdf="http://www.w3.org/1999/02/22-rdf-syntax-ns#"
   xmlns:svg="http://www.w3.org/2000/svg"
   xmlns="http://www.w3.org/2000/svg"
   xmlns:sodipodi="http://sodipodi.sourceforge.net/DTD/sodipodi-0.dtd"
   xmlns:inkscape="http://www.inkscape.org/namespaces/inkscape"
   version="1.1"
   id="svg8"
   inkscape:export-filename="C:\Users\User\Desktop\Symbolen COGO\WATER\Lanceerplaats.png"
   inkscape:export-xdpi="417.73685"
   inkscape:export-ydpi="417.73685"
   inkscape:version="0.92.5 (2060ec1f9f, 2020-04-08)"
   sodipodi:docname="Lanceerplaats.svg"
   x="0px"
   y="0px"
   viewBox="0 0 125 125"
   xml:space="preserve"
   width="125"
   height="125"><metadata
   id="metadata839"><rdf:RDF><cc:Work
       rdf:about=""><dc:format>image/svg+xml</dc:format><dc:type
         rdf:resource="http://purl.org/dc/dcmitype/StillImage" /><dc:title /></cc:Work></rdf:RDF></metadata><defs
   id="defs837" /><sodipodi:namedview
   pagecolor="#ffffff"
   bordercolor="#666666"
   borderopacity="1"
   objecttolerance="10"
   gridtolerance="10"
   guidetolerance="10"
   inkscape:pageopacity="0"
   inkscape:pageshadow="2"
   inkscape:window-width="1920"
   inkscape:window-height="1017"
   id="namedview835"
   showgrid="false"
   inkscape:zoom="8.7479048"
   inkscape:cx="65.97203"
   inkscape:cy="63.591318"
   inkscape:window-x="-8"
   inkscape:window-y="-8"
   inkscape:window-maximized="1"
   inkscape:current-layer="g5925" />
<style
   type="text/css"
   id="style828">
	.st0{fill:#FF0000;}
	.st1{fill:#FFFFFF;}
</style>
<g
   id="g837"
   transform="matrix(0.03831759,-0.03831759,0.03831759,0.03831759,15.541801,62.538317)">
	<path
   style="fill:#ff0000"
   id="path819-3"
   inkscape:connector-curvature="0"
   class="st0"
   d="M 613.2,1212 1213,612.3 613.2,12.5 13.5,612.3 Z" />
	<path
   style="fill:#ffffff"
   id="path821-6"
   inkscape:connector-curvature="0"
   class="st1"
   d="M 613.2,1116.9 108.6,612.3 613.3,107.5 1118,612.3 Z" />
	
<g
   id="g5925"
   transform="rotate(-15,4235.0071,74.505443)"><path
     style="fill:#000000;fill-opacity:1;fill-rule:evenodd;stroke:none;stroke-width:0.84600002;stroke-linecap:round;stroke-linejoin:round;stroke-miterlimit:4;stroke-dasharray:none;stroke-opacity:1"
     d="m 81.830078,63.894531 -31.75,8.507813 0.548828,2.046875 31.203125,-8.361328 v -2.185547 z"
     transform="matrix(9.2269214,15.981497,-15.981497,9.2269214,1019.6407,-1918.9792)"
     id="rect5894"
     inkscape:connector-curvature="0" /><rect
     style="fill:#000000;fill-opacity:1;fill-rule:evenodd;stroke:none;stroke-width:11.41472721;stroke-linecap:round;stroke-linejoin:round;stroke-miterlimit:4;stroke-dasharray:none;stroke-opacity:1"
     id="rect5915"
     width="439.08978"
     height="31.748745"
     x="-32.326942"
     y="-637.84454"
     transform="rotate(45)" /><ellipse
     ry="37.576786"
     rx="39.814262"
     transform="rotate(45)"
     cy="-581.57391"
     cx="174.14343"
     id="path5917"
     style="fill:#000000;fill-opacity:1;fill-rule:evenodd;stroke-width:16.11639404" /><path
     sodipodi:nodetypes="ccsccc"
     inkscape:connector-curvature="0"
     id="path5919"
     d="m 445.8833,-594.08673 -42.93976,61.92539 c 0,0 126.07582,169.0568 204.6141,238.38422 199.58736,176.18 297.82748,98.76146 297.82748,98.76146 l 28.21364,-19.77553 C 760.40917,-325.8861 604.02301,-462.47971 445.8833,-594.08673 Z"
     style="fill:#000000;fill-opacity:1;stroke:none;stroke-width:16.93889046px;stroke-linecap:butt;stroke-linejoin:miter;stroke-opacity:1" /></g><path
   style="color:#000000;font-style:normal;font-variant:normal;font-weight:normal;font-stretch:normal;font-size:medium;line-height:normal;font-family:sans-serif;font-variant-ligatures:normal;font-variant-position:normal;font-variant-caps:normal;font-variant-numeric:normal;font-variant-alternates:normal;font-feature-settings:normal;text-indent:0;text-align:start;text-decoration:none;text-decoration-line:none;text-decoration-style:solid;text-decoration-color:#000000;letter-spacing:normal;word-spacing:normal;text-transform:none;writing-mode:lr-tb;direction:ltr;text-orientation:mixed;dominant-baseline:auto;baseline-shift:baseline;text-anchor:start;white-space:normal;shape-padding:0;clip-rule:nonzero;display:inline;overflow:visible;visibility:visible;opacity:1;isolation:auto;mix-blend-mode:normal;color-interpolation:sRGB;color-interpolation-filters:linearRGB;solid-color:#000000;solid-opacity:1;vector-effect:none;fill:#000000;fill-opacity:1;fill-rule:nonzero;stroke:none;stroke-width:0.73709238;stroke-linecap:round;stroke-linejoin:round;stroke-miterlimit:4;stroke-dasharray:none;stroke-dashoffset:0;stroke-opacity:1;color-rendering:auto;image-rendering:auto;shape-rendering:auto;text-rendering:auto;enable-background:accumulate"
   d="m 45.083984,70.222656 c -0.576682,-0.0041 -1.029431,0.214118 -1.333984,0.525391 -0.264956,0.270803 -0.425754,0.589489 -0.568359,0.892578 v 1.476563 c 0.0046,-0.0051 0.01114,-0.0086 0.01563,-0.01367 0.275114,-0.313503 0.431453,-0.683789 0.585937,-1.017578 0.154483,-0.333793 0.304513,-0.630451 0.492188,-0.822266 0.187676,-0.191815 0.394392,-0.305651 0.802734,-0.302734 0.435108,0.0031 0.647602,0.121163 0.828125,0.308593 0.180524,0.187429 0.316828,0.476241 0.458984,0.806641 0.142156,0.330399 0.287818,0.7013 0.564454,1.017578 0.276633,0.316277 0.709943,0.547613 1.269531,0.556641 0.56324,0.0091 1.009821,-0.214852 1.308593,-0.529297 0.298776,-0.314445 0.473048,-0.69354 0.634766,-1.03711 0.16172,-0.343569 0.312714,-0.654103 0.486328,-0.845703 0.173615,-0.1916 0.336362,-0.288943 0.685547,-0.277343 0.777446,0.02583 1.03577,0.333715 1.1875,0.648437 0.151729,0.314722 0.138672,0.630859 0.138672,0.630859 a 0.36858302,0.36858302 0 0 0 0.04883,0.232422 h 0.634766 a 0.36858302,0.36858302 0 0 0 0.05078,-0.1875 c 0,0 0.035,-0.49001 -0.208984,-0.996094 -0.243986,-0.506079 -0.825849,-1.031223 -1.826172,-1.064453 -0.539699,-0.01793 -0.975068,0.207497 -1.257813,0.519532 -0.282744,0.312035 -0.445353,0.685227 -0.605469,1.02539 -0.160112,0.340164 -0.315418,0.647433 -0.501953,0.84375 -0.186534,0.196318 -0.38013,0.306969 -0.763671,0.300781 -0.387198,-0.0062 -0.561523,-0.117951 -0.726563,-0.30664 -0.16504,-0.18869 -0.296635,-0.485789 -0.441406,-0.822266 -0.144768,-0.336475 -0.303452,-0.713771 -0.605469,-1.027344 -0.302017,-0.313569 -0.76011,-0.530917 -1.353516,-0.535156 z m 0.0293,2.542969 c -0.576682,-0.0041 -1.029431,0.214117 -1.333984,0.525391 -0.281926,0.288147 -0.448861,0.631401 -0.597656,0.951172 V 75.6875 c 0.01378,-0.01455 0.03182,-0.02608 0.04492,-0.04102 0.275114,-0.313502 0.431455,-0.683786 0.585938,-1.017578 0.154483,-0.333793 0.304512,-0.63045 0.492188,-0.822265 0.187674,-0.191815 0.394392,-0.305651 0.802734,-0.302735 0.435108,0.0031 0.647602,0.121164 0.828125,0.308594 0.180524,0.187429 0.316828,0.476241 0.458984,0.806641 0.142156,0.330398 0.287817,0.7013 0.564453,1.017578 0.276636,0.316277 0.709943,0.547612 1.269532,0.55664 0.56324,0.0091 1.009818,-0.214852 1.308593,-0.529297 0.298776,-0.314443 0.473048,-0.693539 0.634766,-1.037109 0.16172,-0.343569 0.312714,-0.654103 0.486328,-0.845703 0.173615,-0.1916 0.336362,-0.288944 0.685547,-0.277344 0.106419,0.0035 0.181508,0.02371 0.269531,0.03711 v -0.734375 c -0.08377,-0.0107 -0.153565,-0.03605 -0.24414,-0.03906 -0.539699,-0.01793 -0.975068,0.207496 -1.257813,0.519531 -0.282744,0.312035 -0.445352,0.685228 -0.605469,1.025391 -0.160114,0.340164 -0.315418,0.647433 -0.501953,0.84375 -0.186534,0.196318 -0.380128,0.30697 -0.763672,0.300781 -0.387198,-0.0062 -0.561522,-0.117952 -0.726562,-0.30664 -0.16504,-0.18869 -0.296635,-0.485789 -0.441406,-0.822266 -0.144768,-0.336475 -0.303452,-0.713771 -0.605469,-1.027344 -0.302017,-0.313572 -0.76011,-0.530917 -1.353516,-0.535156 z"
   transform="matrix(13.048837,13.048837,-13.048837,13.048837,613.24989,-1018.8548)"
   id="path5931"
   inkscape:connector-curvature="0" /></g>
</svg>