<?xml version="1.0" encoding="utf-8"?>
<!-- Generator: Adobe Illustrator 25.0.1, SVG Export Plug-In . SVG Version: 6.00 Build 0)  -->
<svg version="1.1"
	 id="svg8" inkscape:export-filename="C:\Users\User\Desktop\Symbolen COGO\WATER\Lanceerplaats.png" inkscape:export-xdpi="417.73685" inkscape:export-ydpi="417.73685" inkscape:version="0.92.5 (2060ec1f9f, 2020-04-08)" sodipodi:docname="Lanceerplaats.svg" xmlns:cc="http://creativecommons.org/ns#" xmlns:dc="http://purl.org/dc/elements/1.1/" xmlns:inkscape="http://www.inkscape.org/namespaces/inkscape" xmlns:rdf="http://www.w3.org/1999/02/22-rdf-syntax-ns#" xmlns:sodipodi="http://sodipodi.sourceforge.net/DTD/sodipodi-0.dtd" xmlns:svg="http://www.w3.org/2000/svg"
	 xmlns="http://www.w3.org/2000/svg" xmlns:xlink="http://www.w3.org/1999/xlink" x="0px" y="0px" width="125px" height="125px"
	 viewBox="0 0 125 125" style="enable-background:new 0 0 125 125;" xml:space="preserve">
<style type="text/css">
	.st0{fill:#FF0000;}
	.st1{fill:#FFFFFF;}
	.st2{fill-rule:evenodd;clip-rule:evenodd;}
</style>
<g id="g837" transform="matrix(0.03831759,-0.03831759,0.03831759,0.03831759,15.541801,62.538317)">
	<path id="path819-3" inkscape:connector-curvature="0" class="st0" d="M601.6,1460l847.8-847.7L601.6-235.5l-847.7,847.8
		L601.6,1460z"/>
	<path id="path821-6" inkscape:connector-curvature="0" class="st1" d="M601.6,1325.6l-713.3-713.3l713.4-713.6l713.4,713.6
		L601.6,1325.6z"/>
	<g id="g5925" transform="rotate(-15,4235.0071,74.505443)">
		<path id="rect5894" inkscape:connector-curvature="0" class="st2" d="M806.9,108.4L200.6-497.9l-39.1,39.1L757.4,137L806.9,108.4
			L806.9,108.4z"/>
		
			<rect id="rect5915" x="240.1" y="-318" transform="matrix(-0.7071 -0.7071 0.7071 -0.7071 1148.7013 -115.3315)" class="st2" width="620.7" height="44.9"/>
		
			<ellipse id="path5917" transform="matrix(-0.7071 -0.7071 0.7071 -0.7071 1038.2277 -106.525)" class="st2" cx="497.1" cy="-268.3" rx="56.3" ry="53.1"/>
		<path id="path5919" inkscape:connector-curvature="0" sodipodi:nodetypes="ccsccc" d="M372-700.8l-60.7,87.5
			c0,0,178.2,239,289.2,337c282.1,249,421,139.6,421,139.6l39.9-28C816.6-321.6,595.5-514.7,372-700.8z"/>
	</g>
	<path id="path5931" inkscape:connector-curvature="0" d="M137.9,433.4c-10.6-10.7-22.9-15-34.3-14.9c-9.9,0.1-18.7,3-26.9,6
		l-27.2,27.2c0.2,0,0.4,0,0.5,0c10.9-0.7,20.6-4.7,29.6-8s17.2-6,24.2-6.1c7-0.1,12.9,1.6,20.4,9.2c8,8.1,9.7,14.2,9.6,21
		c-0.1,6.8-2.9,14.6-6.4,23.3s-7.6,18.2-8.4,29.2c-0.8,11,3,23.2,13.1,33.7c10.2,10.6,22.6,14.7,33.9,14.4s21.5-4.1,30.8-7.4
		c9.3-3.4,17.8-6.3,24.6-6.6c6.7-0.3,11.5,0.9,17.8,7.5c13.9,14.8,12.9,25.3,9.9,33.9S240,610,240,610c-1.7,1.3-2.9,3.1-3.4,5.2
		l11.7,11.7c1.7-0.4,3.2-1.3,4.4-2.5c0,0,9.7-8.4,14.5-22.2c4.8-13.8,3.8-34.3-14-53.3c-9.6-10.3-21.8-14.2-32.8-13.6
		c-11,0.5-20.9,4.4-30.1,7.7c-9.2,3.3-17.8,6.1-24.8,6.3c-7.1,0.2-12.7-1.3-19.6-8.5c-7-7.3-8.2-12.5-7.7-19.1
		c0.4-6.5,3.5-14.4,7-23.3c3.5-8.9,7.6-18.8,7.8-30.1C153.3,456.9,148.8,444.5,137.9,433.4z M91.6,480.9
		c-10.6-10.7-22.9-15-34.3-14.9c-10.5,0.1-19.9,3.4-28.6,6.5L2.1,499.1c0.5,0,1.1,0.1,1.6,0.1c10.9-0.7,20.6-4.7,29.6-8
		s17.2-6,24.2-6.1c7-0.1,12.9,1.6,20.4,9.2c8,8.1,9.7,14.2,9.6,21c-0.1,6.8-2.9,14.6-6.4,23.3c-3.5,8.7-7.6,18.2-8.4,29.2
		c-0.7,10.9,3,23.2,13.1,33.7c10.2,10.6,22.6,14.7,33.9,14.4s21.5-4.1,30.8-7.4c9.3-3.4,17.8-6.3,24.6-6.6
		c6.7-0.3,11.5,0.9,17.8,7.5c1.9,2,2.9,3.8,4.3,5.7l13.5-13.5c-1.3-1.7-2.2-3.5-3.8-5.2c-9.6-10.3-21.8-14.2-32.8-13.6
		c-11,0.5-20.9,4.4-30.1,7.7c-9.2,3.3-17.8,6.1-24.8,6.3s-12.7-1.3-19.6-8.5c-7-7.3-8.2-12.5-7.7-19.1c0.4-6.5,3.5-14.4,7-23.3
		c3.5-8.9,7.6-18.8,7.8-30.1C106.9,504.4,102.5,491.9,91.6,480.9z"/>
</g>
</svg>
