<?xml version="1.0" encoding="UTF-8" standalone="no"?>
<!-- Generator: Adobe Illustrator 25.0.1, SVG Export Plug-In . SVG Version: 6.00 Build 0)  -->

<svg
   version="1.1"
   id="svg8"
   inkscape:export-filename="C:\Users\User\Desktop\Symbolen COGO\WATER\Stroming.png"
   inkscape:export-xdpi="417.73685"
   inkscape:export-ydpi="417.73685"
   inkscape:version="1.2 (dc2aedaf03, 2022-05-15)"
   sodipodi:docname="Steiger.svg"
   x="0px"
   y="0px"
   width="125px"
   height="125px"
   viewBox="0 0 125 125"
   style="enable-background:new 0 0 125 125;"
   xml:space="preserve"
   xmlns:inkscape="http://www.inkscape.org/namespaces/inkscape"
   xmlns:sodipodi="http://sodipodi.sourceforge.net/DTD/sodipodi-0.dtd"
   xmlns="http://www.w3.org/2000/svg"
   xmlns:svg="http://www.w3.org/2000/svg"><defs
   id="defs362"><pattern
     id="EMFhbasepattern"
     patternUnits="userSpaceOnUse"
     width="6"
     height="6"
     x="0"
     y="0" /></defs>
<style
   type="text/css"
   id="style343">
	.st0{fill:#FF0000;}
	.st1{fill:#FFFFFF;}
</style>
<sodipodi:namedview
   bordercolor="#666666"
   borderopacity="1"
   gridtolerance="10"
   guidetolerance="10"
   id="namedview835"
   inkscape:current-layer="g837"
   inkscape:cx="53.322063"
   inkscape:cy="68.038952"
   inkscape:pageopacity="0"
   inkscape:pageshadow="2"
   inkscape:window-height="1001"
   inkscape:window-maximized="1"
   inkscape:window-width="1920"
   inkscape:window-x="-9"
   inkscape:window-y="-9"
   inkscape:zoom="2.3442454"
   objecttolerance="10"
   pagecolor="#ffffff"
   showgrid="false"
   showguides="false"
   inkscape:showpageshadow="2"
   inkscape:pagecheckerboard="0"
   inkscape:deskcolor="#d1d1d1">
	</sodipodi:namedview>
<g
   id="g837">
	<path
   id="path819-3_1_"
   inkscape:connector-curvature="0"
   class="st0"
   d="M95.4,95.4l0-65.7H29.6l0,65.7H95.4z" />
	<path
   id="path821-6_1_"
   inkscape:connector-curvature="0"
   class="st1"
   d="M34.9,90.2h55.3l0-55.3l-55.3,0L34.9,90.2z" />
	
<path
   id="path533"
   style="fill:#2b0000;stroke-width:0.421005"
   d="m 62.127925,43.084609 v 0.0042 c -1.08149,0.01284 -11.51114,0.258547 -12.44765,5.116409 -0.98721,5.121016 3.23063,5.929644 4.12814,8.804602 0.89745,2.874957 0.71826,4.133277 0.71826,4.133277 l -2.87235,-0.0905 c 0,0 -2.2516,0.142808 -2.24363,2.515834 0.008,2.373029 2.06448,2.245989 2.06448,2.245989 h 3.32109 c 0,0 -2.69259,11.409941 -6.10306,11.499812 -3.41041,0.08981 -6.46214,0 -6.46214,0 v 4.672147 h 19.58292 0.34106 20.07602 v -4.672147 c 0,0 -3.05091,0.08981 -6.46134,0 -3.41044,-0.08987 -6.10302,-11.499816 -6.10302,-11.499816 h 3.32025 c 0,0 2.05652,0.12704 2.06447,-2.245989 0.008,-2.373026 -2.24363,-2.515834 -2.24363,-2.515834 l -2.87153,0.0905 c 0,0 -0.18001,-1.258319 0.71747,-4.133277 0.89749,-2.874957 5.11618,-3.683585 4.12895,-8.804601 -0.93642,-4.857497 -11.36459,-5.103607 -12.44766,-5.116471 v -0.0042 c 0,0 -0.0885,0.0016 -0.10355,0.0017 -0.0151,-8.8e-5 -0.10355,-0.0017 -0.10355,-0.0017 z" /></g>
</svg>
