<?xml version="1.0" encoding="utf-8"?>
<!-- Generator: Adobe Illustrator 25.0.1, SVG Export Plug-In . SVG Version: 6.00 Build 0)  -->
<svg version="1.1"
	 id="svg8" inkscape:export-filename="C:\Users\User\Desktop\Symbolen COGO\WATER\Pond_met_kabel.png" inkscape:export-xdpi="417.73685" inkscape:export-ydpi="417.73685" inkscape:version="0.92.5 (2060ec1f9f, 2020-04-08)" sodipodi:docname="Pond_aan_kabel.svg" xmlns:cc="http://creativecommons.org/ns#" xmlns:dc="http://purl.org/dc/elements/1.1/" xmlns:inkscape="http://www.inkscape.org/namespaces/inkscape" xmlns:rdf="http://www.w3.org/1999/02/22-rdf-syntax-ns#" xmlns:sodipodi="http://sodipodi.sourceforge.net/DTD/sodipodi-0.dtd" xmlns:svg="http://www.w3.org/2000/svg"
	 xmlns="http://www.w3.org/2000/svg" xmlns:xlink="http://www.w3.org/1999/xlink" x="0px" y="0px" width="125px" height="125px"
	 viewBox="0 0 125 125" style="enable-background:new 0 0 125 125;" xml:space="preserve">
<style type="text/css">
	.st0{fill:#FF0000;}
	.st1{fill:#FFFFFF;}
	.st2{fill:#010000;}
</style>
<g id="g837">
	<path id="path819-3_1_" inkscape:connector-curvature="0" class="st0" d="M95.4,95.4V29.7H29.6v65.7H95.4z"/>
	<path id="path821-6_1_" inkscape:connector-curvature="0" class="st1" d="M90.1,90.2H34.9V34.9h55.3L90.1,90.2z"/>
	<g>
		<polygon class="st2" points="43.7,58.8 43.5,58.9 43.7,58.9 		"/>
	</g>
</g>
<g>
	<path class="st2" d="M57.4,42.9h-1.9c-6.8,0-12.4,6.6-12.4,14.8v21.6c0,1.8,1.4,3.2,3.2,3.2s3.2-1.4,3.2-3.2v-1.7h14v1.7
		c0,1.8,1.4,3.2,3.2,3.2s3.2-1.4,3.2-3.2V57.7C69.8,49.5,64.2,42.9,57.4,42.9z M49.5,71.3V57.7c0-4.6,2.8-8.4,6-8.4h1.9
		c3.3,0,6,3.9,6,8.4v13.6H49.5z"/>
	<rect x="51" y="58.8" class="st2" width="11" height="6.3"/>
</g>
<path class="st2" d="M78.5,70.3L78.5,70.3l0-14.7c0-0.2-0.2-0.4-0.4-0.4h-0.7c-0.2,0-0.4,0.2-0.4,0.4v14.7h0c-1.2,0-2.1,1-2.1,2.1
	v4.2c0,1.2,1,2.1,2.1,2.1h1.5c1.2,0,2.1-1,2.1-2.1v-4.2C80.7,71.3,79.7,70.3,78.5,70.3z"/>
</svg>
