<?xml version="1.0" encoding="utf-8"?>
<!-- Generator: Adobe Illustrator 25.0.1, SVG Export Plug-In . SVG Version: 6.00 Build 0)  -->
<svg version="1.1"
	 id="svg8" inkscape:export-filename="C:\Users\User\Desktop\Symbolen COGO\WATER\Pond_met_kabel.png" inkscape:export-xdpi="417.73685" inkscape:export-ydpi="417.73685" inkscape:version="0.92.5 (2060ec1f9f, 2020-04-08)" sodipodi:docname="Pond_aan_kabel.svg" xmlns:cc="http://creativecommons.org/ns#" xmlns:dc="http://purl.org/dc/elements/1.1/" xmlns:inkscape="http://www.inkscape.org/namespaces/inkscape" xmlns:rdf="http://www.w3.org/1999/02/22-rdf-syntax-ns#" xmlns:sodipodi="http://sodipodi.sourceforge.net/DTD/sodipodi-0.dtd" xmlns:svg="http://www.w3.org/2000/svg"
	 xmlns="http://www.w3.org/2000/svg" xmlns:xlink="http://www.w3.org/1999/xlink" x="0px" y="0px" width="125px" height="125px"
	 viewBox="0 0 125 125" style="enable-background:new 0 0 125 125;" xml:space="preserve">
<style type="text/css">
	.st0{fill:#FF0000;}
	.st1{fill:#FFFFFF;}
	.st2{fill:#010000;}
</style>
<g id="g837">
	<path id="path819-3_1_" inkscape:connector-curvature="0" class="st0" d="M95.4,95.4V29.7H29.6v65.7H95.4z"/>
	<path id="path821-6_1_" inkscape:connector-curvature="0" class="st1" d="M90.1,90.2H34.9V34.9h55.3L90.1,90.2z"/>
	<g>
		<polygon class="st2" points="43.7,58.8 43.5,58.9 43.7,58.9 		"/>
	</g>
</g>
<g>
	<rect x="62.5" y="69.9" class="st2" width="10.4" height="4.1"/>
	<path class="st2" d="M62.5,80.1v0.5c3.1,0.6,6.5,1,10.4,1v-1.5H62.5z"/>
	<rect x="62.5" y="75" class="st2" width="10.4" height="4.1"/>
	<rect x="62.5" y="64.8" class="st2" width="10.4" height="4.1"/>
	<path class="st2" d="M86.2,58.7H38.6v20.2c6.2-3.7,12.2-0.7,21.6,1.3V59.9h2.3v3.9h10.4v-3.9h2.3v21.7c3.3-0.1,7-0.5,11-1.3V58.7z"
		/>
</g>
</svg>
