<?xml version="1.0" encoding="UTF-8" standalone="no"?>
<!-- Generator: Adobe Illustrator 24.1.0, SVG Export Plug-In . SVG Version: 6.00 Build 0)  -->

<svg
   xmlns:dc="http://purl.org/dc/elements/1.1/"
   xmlns:cc="http://creativecommons.org/ns#"
   xmlns:rdf="http://www.w3.org/1999/02/22-rdf-syntax-ns#"
   xmlns:svg="http://www.w3.org/2000/svg"
   xmlns="http://www.w3.org/2000/svg"
   xmlns:sodipodi="http://sodipodi.sourceforge.net/DTD/sodipodi-0.dtd"
   xmlns:inkscape="http://www.inkscape.org/namespaces/inkscape"
   version="1.1"
   id="svg8"
   inkscape:export-filename="C:\Users\User\Desktop\Symbolen COGO\WATER\Stroming.png"
   inkscape:export-xdpi="417.73685"
   inkscape:export-ydpi="417.73685"
   inkscape:version="0.92.5 (2060ec1f9f, 2020-04-08)"
   sodipodi:docname="Stroming.svg"
   x="0px"
   y="0px"
   viewBox="0 0 125 125"
   xml:space="preserve"
   width="125"
   height="125"><metadata
   id="metadata839"><rdf:RDF><cc:Work
       rdf:about=""><dc:format>image/svg+xml</dc:format><dc:type
         rdf:resource="http://purl.org/dc/dcmitype/StillImage" /><dc:title /></cc:Work></rdf:RDF></metadata><defs
   id="defs837" /><sodipodi:namedview
   pagecolor="#ffffff"
   bordercolor="#666666"
   borderopacity="1"
   objecttolerance="10"
   gridtolerance="10"
   guidetolerance="10"
   inkscape:pageopacity="0"
   inkscape:pageshadow="2"
   inkscape:window-width="1920"
   inkscape:window-height="1017"
   id="namedview835"
   showgrid="false"
   inkscape:zoom="12.371406"
   inkscape:cx="27.127162"
   inkscape:cy="60.740982"
   inkscape:window-x="-8"
   inkscape:window-y="-8"
   inkscape:window-maximized="1"
   inkscape:current-layer="g837"
   showguides="false" />
<style
   type="text/css"
   id="style828">
	.st0{fill:#FF0000;}
	.st1{fill:#FFFFFF;}
</style>
<g
   id="g837"
   transform="matrix(0.03831759,-0.03831759,0.03831759,0.03831759,15.541801,62.538317)">
	<path
   style="fill:#ff0000"
   id="path819-3"
   inkscape:connector-curvature="0"
   class="st0"
   d="M 613.2,1212 1213,612.3 613.2,12.5 13.5,612.3 Z" />
	<path
   style="fill:#ffffff"
   id="path821-6"
   inkscape:connector-curvature="0"
   class="st1"
   d="m 108.65,612.35 504.6,504.6 504.8,-504.7 -504.8,-504.7 z" />
	
<g
   id="g6117"
   transform="matrix(0.93008736,0.01162083,0.01162083,0.93008736,48.774139,8.3481939)"><path
     inkscape:connector-curvature="0"
     id="path6082"
     d="m 910.14098,621.30478 -25.94477,27.42294 c -5.39169,-17.55522 -12.90847,-31.33395 -22.47867,-41.33831 -14.53374,-15.19297 -32.58678,-21.84271 -49.49382,-25.07822 -16.90704,-3.23554 -33.12181,-3.48921 -45.54349,-5.32659 -12.4217,-1.83737 -19.3927,-4.6311 -23.19228,-10.55121 -11.4881,-17.89944 -10.13888,-45.15912 -22.93741,-74.01137 -12.79854,-28.85224 -42.19741,-55.04237 -110.60928,-67.79278 -15.19877,-2.83271 -21.14488,-9.7329 -26.19961,-21.56117 -5.05477,-11.82829 -7.2429,-28.56063 -10.11795,-45.69642 -2.87508,-17.13578 -6.34412,-35.10094 -17.84021,-49.44285 -10.05901,-12.54925 -26.52995,-20.28378 -48.70377,-20.36333 -3.16767,-0.0114 -6.43813,0.14984 -9.8376,0.45874 a 11.74217,11.74217 0 1 0 2.11534,23.37069 c 22.28947,-2.02549 31.4894,2.99664 38.0761,11.21384 6.58666,8.21725 10.25353,22.28015 12.99786,38.63679 2.74435,16.35664 4.65769,34.57371 11.69808,51.04847 7.04038,16.47477 21.19345,31.24179 43.50463,35.40007 64.24532,11.97388 83.58967,32.01499 93.45719,54.25972 9.86752,22.24473 7.79298,50.9545 24.61949,77.17164 9.09732,14.17447 24.73602,18.91809 39.50331,21.10241 14.7673,2.18434 30.35403,2.4218 44.60052,5.14817 14.24649,2.72639 26.69786,7.52584 36.95472,18.24799 8.60174,8.9919 15.90048,23.234 20.36332,45.28864 l -27.42291,29.00313 94.65504,14.27216 z"
     style="color:#000000;font-style:normal;font-variant:normal;font-weight:normal;font-stretch:normal;font-size:medium;line-height:normal;font-family:sans-serif;font-variant-ligatures:normal;font-variant-position:normal;font-variant-caps:normal;font-variant-numeric:normal;font-variant-alternates:normal;font-feature-settings:normal;text-indent:0;text-align:start;text-decoration:none;text-decoration-line:none;text-decoration-style:solid;text-decoration-color:#000000;letter-spacing:normal;word-spacing:normal;text-transform:none;writing-mode:lr-tb;direction:ltr;text-orientation:mixed;dominant-baseline:auto;baseline-shift:baseline;text-anchor:start;white-space:normal;shape-padding:0;clip-rule:nonzero;display:inline;overflow:visible;visibility:visible;opacity:1;isolation:auto;mix-blend-mode:normal;color-interpolation:sRGB;color-interpolation-filters:linearRGB;solid-color:#000000;solid-opacity:1;vector-effect:none;fill:#000000;fill-opacity:1;fill-rule:nonzero;stroke:none;stroke-width:23.48198891;stroke-linecap:round;stroke-linejoin:round;stroke-miterlimit:4;stroke-dasharray:none;stroke-dashoffset:0;stroke-opacity:1;color-rendering:auto;image-rendering:auto;shape-rendering:auto;text-rendering:auto;enable-background:accumulate" /><path
     inkscape:connector-curvature="0"
     id="path6088"
     d="m 867.97674,722.58096 -26.22516,27.75422 c -6.4013,-19.59263 -15.04908,-34.78905 -25.71537,-45.9003 -15.53552,-16.18353 -34.41856,-23.8262 -52.1189,-27.90718 -17.70033,-4.081 -34.60461,-5.01136 -47.68432,-7.46741 -13.07972,-2.45604 -20.9322,-5.80915 -25.46052,-12.61556 -13.06004,-19.6302 -12.73786,-47.97303 -27.16809,-78.29304 -14.43025,-30.32 -45.55994,-58.47736 -117.33759,-74.674 -16.14701,-3.64359 -23.25508,-11.62509 -29.13051,-24.39011 -5.87545,-12.76502 -8.86325,-30.29709 -12.59008,-48.2705 -3.72684,-17.97343 -8.14418,-36.766 -20.43979,-51.83856 -10.7587,-13.18839 -27.83973,-21.80699 -50.89555,-22.80996 -3.2937,-0.14329 -6.70825,-0.12613 -10.24538,0.051 a 12.233853,12.233853 0 1 0 1.22332,24.41558 c 23.11142,-1.15698 33.43141,4.56391 40.95602,13.78795 7.52457,9.22406 11.87992,24.19824 15.44452,41.38927 3.56461,17.19103 6.37644,36.25558 14.32314,53.52061 7.9467,17.26506 22.68592,32.74982 45.95127,37.99965 67.60763,15.2557 89.28055,37.389 100.66975,61.31935 11.38918,23.93034 10.55016,53.7685 28.90113,81.35134 9.77898,14.69852 25.84381,20.1904 41.28734,23.09032 15.44352,2.89991 31.65049,3.82142 46.69036,7.289 15.03989,3.46759 28.53934,9.10123 39.96207,21.00047 9.72954,10.13536 18.13438,25.8257 23.75296,49.7487 l -26.55647,28.08553 94.65503,14.27216 z"
     style="color:#000000;font-style:normal;font-variant:normal;font-weight:normal;font-stretch:normal;font-size:medium;line-height:normal;font-family:sans-serif;font-variant-ligatures:normal;font-variant-position:normal;font-variant-caps:normal;font-variant-numeric:normal;font-variant-alternates:normal;font-feature-settings:normal;text-indent:0;text-align:start;text-decoration:none;text-decoration-line:none;text-decoration-style:solid;text-decoration-color:#000000;letter-spacing:normal;word-spacing:normal;text-transform:none;writing-mode:lr-tb;direction:ltr;text-orientation:mixed;dominant-baseline:auto;baseline-shift:baseline;text-anchor:start;white-space:normal;shape-padding:0;clip-rule:nonzero;display:inline;overflow:visible;visibility:visible;opacity:1;isolation:auto;mix-blend-mode:normal;color-interpolation:sRGB;color-interpolation-filters:linearRGB;solid-color:#000000;solid-opacity:1;vector-effect:none;fill:#000000;fill-opacity:1;fill-rule:nonzero;stroke:none;stroke-width:17.08825874;stroke-linecap:round;stroke-linejoin:miter;stroke-miterlimit:4;stroke-dasharray:none;stroke-dashoffset:0;stroke-opacity:1;paint-order:markers stroke fill;color-rendering:auto;image-rendering:auto;shape-rendering:auto;text-rendering:auto;enable-background:accumulate" /><path
     style="color:#000000;font-style:normal;font-variant:normal;font-weight:normal;font-stretch:normal;font-size:medium;line-height:normal;font-family:sans-serif;font-variant-ligatures:normal;font-variant-position:normal;font-variant-caps:normal;font-variant-numeric:normal;font-variant-alternates:normal;font-feature-settings:normal;text-indent:0;text-align:start;text-decoration:none;text-decoration-line:none;text-decoration-style:solid;text-decoration-color:#000000;letter-spacing:normal;word-spacing:normal;text-transform:none;writing-mode:lr-tb;direction:ltr;text-orientation:mixed;dominant-baseline:auto;baseline-shift:baseline;text-anchor:start;white-space:normal;shape-padding:0;clip-rule:nonzero;display:inline;overflow:visible;visibility:visible;opacity:1;isolation:auto;mix-blend-mode:normal;color-interpolation:sRGB;color-interpolation-filters:linearRGB;solid-color:#000000;solid-opacity:1;vector-effect:none;fill:#000000;fill-opacity:1;fill-rule:nonzero;stroke:none;stroke-width:16.60845757;stroke-linecap:round;stroke-linejoin:miter;stroke-miterlimit:4;stroke-dasharray:none;stroke-dashoffset:0;stroke-opacity:1;paint-order:markers stroke fill;color-rendering:auto;image-rendering:auto;shape-rendering:auto;text-rendering:auto;enable-background:accumulate"
     d="m 767.77799,762.67165 -25.94477,27.42294 c -5.39169,-17.55521 -12.90847,-31.33395 -22.47867,-41.33831 -14.53375,-15.19297 -32.58679,-21.84271 -49.49382,-25.07822 -16.90704,-3.23554 -33.12181,-3.48921 -45.5435,-5.32659 -12.4217,-1.83737 -19.3927,-4.63109 -23.19227,-10.55121 -11.48811,-17.89944 -10.13888,-45.15911 -22.93742,-74.01137 -12.79853,-28.85223 -42.1974,-55.04237 -110.60927,-67.79278 -15.19878,-2.83271 -21.14489,-9.73289 -26.19961,-21.56117 -5.05477,-11.82829 -7.2429,-28.56063 -10.11795,-45.69641 -2.87508,-17.13579 -6.34413,-35.10094 -17.84022,-49.44285 -10.05901,-12.54925 -26.52994,-20.28378 -48.70376,-20.36334 -3.16767,-0.0114 -6.43813,0.14984 -9.8376,0.45874 a 11.74217,11.74217 0 1 0 2.11533,23.37069 c 22.28948,-2.02549 31.4894,2.99664 38.07611,11.21385 6.58666,8.21724 10.25352,22.28014 12.99785,38.63678 2.74435,16.35664 4.65769,34.57372 11.69809,51.04847 7.04038,16.47477 21.19345,31.24179 43.50462,35.40008 64.24533,11.97387 83.58968,32.01498 93.4572,54.25971 9.86751,22.24473 7.79297,50.95451 24.61949,77.17164 9.09732,14.17447 24.73601,18.91809 39.5033,21.10241 14.7673,2.18434 30.35404,2.4218 44.60052,5.14817 14.2465,2.72639 26.69787,7.52584 36.95473,18.24799 8.60174,8.99191 15.90047,23.23401 20.36332,45.28864 l -27.42292,29.00313 94.65504,14.27216 z"
     id="path6102"
     inkscape:connector-curvature="0" /><path
     style="color:#000000;font-style:normal;font-variant:normal;font-weight:normal;font-stretch:normal;font-size:medium;line-height:normal;font-family:sans-serif;font-variant-ligatures:normal;font-variant-position:normal;font-variant-caps:normal;font-variant-numeric:normal;font-variant-alternates:normal;font-feature-settings:normal;text-indent:0;text-align:start;text-decoration:none;text-decoration-line:none;text-decoration-style:solid;text-decoration-color:#000000;letter-spacing:normal;word-spacing:normal;text-transform:none;writing-mode:lr-tb;direction:ltr;text-orientation:mixed;dominant-baseline:auto;baseline-shift:baseline;text-anchor:start;white-space:normal;shape-padding:0;clip-rule:nonzero;display:inline;overflow:visible;visibility:visible;opacity:1;isolation:auto;mix-blend-mode:normal;color-interpolation:sRGB;color-interpolation-filters:linearRGB;solid-color:#000000;solid-opacity:1;vector-effect:none;fill:#000000;fill-opacity:1;fill-rule:nonzero;stroke:none;stroke-width:17.08825874;stroke-linecap:round;stroke-linejoin:miter;stroke-miterlimit:4;stroke-dasharray:none;stroke-dashoffset:0;stroke-opacity:1;paint-order:markers stroke fill;color-rendering:auto;image-rendering:auto;shape-rendering:auto;text-rendering:auto;enable-background:accumulate"
     d="m 374.61512,501.34687 -27.75422,26.22516 c 19.59263,6.4013 34.78905,15.04908 45.9003,25.71537 16.18353,15.53552 23.8262,34.41856 27.90718,52.1189 4.081,17.70033 5.01136,34.60461 7.46741,47.68432 2.45604,13.07972 5.80915,20.9322 12.61556,25.46052 19.6302,13.06004 47.97303,12.73786 78.29304,27.16809 30.32,14.43025 58.47736,45.55994 74.674,117.33759 3.64359,16.14701 11.62509,23.25508 24.39011,29.13051 12.76502,5.87545 30.29709,8.86325 48.2705,12.59008 17.97343,3.72684 36.766,8.14418 51.83856,20.43979 13.18839,10.7587 21.80699,27.83973 22.80996,50.89555 0.14329,3.2937 0.12613,6.70825 -0.051,10.24538 a 12.233853,12.233853 0 1 1 -24.41558,-1.22332 c 1.15698,-23.11142 -4.56391,-33.43141 -13.78795,-40.95602 -9.22406,-7.52457 -24.19824,-11.87992 -41.38927,-15.44452 -17.19103,-3.56461 -36.25558,-6.37644 -53.52061,-14.32314 -17.26506,-7.9467 -32.74982,-22.68592 -37.99965,-45.95127 -15.2557,-67.60763 -37.389,-89.28055 -61.31935,-100.66975 -23.93034,-11.38918 -53.7685,-10.55016 -81.35134,-28.90113 -14.69852,-9.77898 -20.1904,-25.84381 -23.09032,-41.28734 -2.89991,-15.44352 -3.82142,-31.65049 -7.289,-46.69036 -3.46759,-15.03989 -9.10123,-28.53934 -21.00047,-39.96207 -10.13536,-9.72954 -25.8257,-18.13438 -49.7487,-23.75296 l -28.08553,26.55647 -14.27216,-94.65503 z"
     id="path6108"
     inkscape:connector-curvature="0" /><path
     inkscape:connector-curvature="0"
     id="path6110"
     d="m 342.9625,603.65514 -27.42294,25.94477 c 17.55521,5.39169 31.33395,12.90847 41.33831,22.47867 15.19297,14.53375 21.84271,32.58679 25.07822,49.49382 3.23554,16.90704 3.48921,33.12181 5.32659,45.5435 1.83737,12.4217 4.63109,19.3927 10.55121,23.19227 17.89944,11.48811 45.15911,10.13888 74.01137,22.93742 28.85223,12.79853 55.04237,42.1974 67.79278,110.60927 2.83271,15.19878 9.73289,21.14489 21.56117,26.19961 11.82829,5.05477 28.56063,7.2429 45.69641,10.11795 17.13579,2.87508 35.10094,6.34413 49.44285,17.84022 12.54925,10.05901 20.28378,26.52994 20.36334,48.70376 0.0114,3.1677 -0.14984,6.4381 -0.45874,9.8376 a 11.74217,11.74217 0 1 1 -23.37069,-2.1153 c 2.02549,-22.28951 -2.99664,-31.48943 -11.21385,-38.07614 -8.21724,-6.58666 -22.28014,-10.25352 -38.63678,-12.99785 -16.35664,-2.74435 -34.57372,-4.65769 -51.04847,-11.69809 -16.47477,-7.04038 -31.24179,-21.19345 -35.40008,-43.50462 -11.97387,-64.24533 -32.01498,-83.58968 -54.25971,-93.4572 -22.24473,-9.86751 -50.95451,-7.79297 -77.17164,-24.61949 -14.17447,-9.09732 -18.91809,-24.73601 -21.10241,-39.5033 -2.18434,-14.7673 -2.4218,-30.35404 -5.14817,-44.60052 -2.72639,-14.2465 -7.52584,-26.69787 -18.24799,-36.95473 -8.99191,-8.60174 -23.23401,-15.90047 -45.28864,-20.36332 l -29.00313,27.42292 -14.27216,-94.65504 z"
     style="color:#000000;font-style:normal;font-variant:normal;font-weight:normal;font-stretch:normal;font-size:medium;line-height:normal;font-family:sans-serif;font-variant-ligatures:normal;font-variant-position:normal;font-variant-caps:normal;font-variant-numeric:normal;font-variant-alternates:normal;font-feature-settings:normal;text-indent:0;text-align:start;text-decoration:none;text-decoration-line:none;text-decoration-style:solid;text-decoration-color:#000000;letter-spacing:normal;word-spacing:normal;text-transform:none;writing-mode:lr-tb;direction:ltr;text-orientation:mixed;dominant-baseline:auto;baseline-shift:baseline;text-anchor:start;white-space:normal;shape-padding:0;clip-rule:nonzero;display:inline;overflow:visible;visibility:visible;opacity:1;isolation:auto;mix-blend-mode:normal;color-interpolation:sRGB;color-interpolation-filters:linearRGB;solid-color:#000000;solid-opacity:1;vector-effect:none;fill:#000000;fill-opacity:1;fill-rule:nonzero;stroke:none;stroke-width:16.60845757;stroke-linecap:round;stroke-linejoin:miter;stroke-miterlimit:4;stroke-dasharray:none;stroke-dashoffset:0;stroke-opacity:1;paint-order:markers stroke fill;color-rendering:auto;image-rendering:auto;shape-rendering:auto;text-rendering:auto;enable-background:accumulate" /></g></g>
</svg>