<?xml version="1.0" encoding="utf-8"?>
<!-- Generator: Adobe Illustrator 25.0.1, SVG Export Plug-In . SVG Version: 6.00 Build 0)  -->
<svg version="1.1"
	 id="svg8" inkscape:export-filename="C:\Users\User\Desktop\Symbolen COGO\WATER\Stroming.png" inkscape:export-xdpi="417.73685" inkscape:export-ydpi="417.73685" inkscape:version="0.92.5 (2060ec1f9f, 2020-04-08)" sodipodi:docname="Stroming.svg" xmlns:cc="http://creativecommons.org/ns#" xmlns:dc="http://purl.org/dc/elements/1.1/" xmlns:inkscape="http://www.inkscape.org/namespaces/inkscape" xmlns:rdf="http://www.w3.org/1999/02/22-rdf-syntax-ns#" xmlns:sodipodi="http://sodipodi.sourceforge.net/DTD/sodipodi-0.dtd" xmlns:svg="http://www.w3.org/2000/svg"
	 xmlns="http://www.w3.org/2000/svg" xmlns:xlink="http://www.w3.org/1999/xlink" x="0px" y="0px" width="125px" height="125px"
	 viewBox="0 0 125 125" style="enable-background:new 0 0 125 125;" xml:space="preserve">
<style type="text/css">
	.st0{fill:#FF0000;}
	.st1{fill:#FFFFFF;}
</style>
<g id="g837">
	<path id="path819-3_1_" inkscape:connector-curvature="0" class="st0" d="M95.4,95.4V29.7H29.6v65.7H95.4z"/>
	<path id="path821-6_1_" inkscape:connector-curvature="0" class="st1" d="M34.9,90.2h55.3V34.9H34.9L34.9,90.2z"/>
	<g>
		<path d="M40.3,50.9L40.3,50.9c1.1-1.3,1.8-1.5,2.6-1.4s1.7,0.6,2.7,1.3s2,1.5,3.2,2s2.7,0.5,4.1-0.4c3.9-2.6,6-2.6,7.6-2
			s3,2.2,5.3,2.6c1.2,0.3,2.3-0.3,3.1-0.9c0.9-0.6,1.7-1.4,2.6-2s1.8-1,2.8-0.9c0.9,0,2,0.4,3.4,1.3l0.1,2.8l5.6-4l-5.8-3.5l0.1,2.7
			c-1.2-0.6-2.3-0.9-3.3-0.9c-1.5,0-2.8,0.5-3.8,1.2s-1.9,1.5-2.6,2s-1.2,0.7-1.7,0.6c-1.5-0.3-2.9-1.8-5-2.6s-5-0.6-9.2,2.2
			c-0.9,0.6-1.6,0.6-2.5,0.2s-1.8-1.1-2.9-1.8c-1-0.7-2.1-1.4-3.5-1.6c-1.2-0.1-2.4,0.3-3.6,1.4c-0.2,0.2-0.3,0.3-0.5,0.5
			c-0.3,0.3-0.3,0.9,0.1,1.2S40,51.3,40.3,50.9z"/>
		<path d="M40,58.2L40,58.2c1.2-1.3,2-1.5,2.9-1.4s1.9,0.6,2.9,1.3s2.2,1.5,3.5,2s2.9,0.5,4.3-0.4c4.3-2.6,6.5-2.6,8.4-2
			c1.8,0.6,3.3,2.2,5.7,2.6c1.3,0.2,2.4-0.3,3.3-0.9s1.8-1.4,2.8-2s1.9-1,3.1-1c1,0,2.3,0.4,3.8,1.3l0.1,2.7l5.6-4L80.6,53l0.1,2.7
			c-1.3-0.7-2.6-1-3.7-1c-1.6,0-3,0.5-4.1,1.2s-2,1.5-2.8,2s-1.4,0.8-2,0.6c-1.7-0.3-3.1-1.8-5.4-2.6c-2.3-0.8-5.4-0.7-9.9,2.1
			c-1,0.6-1.8,0.6-2.8,0.2s-2-1.1-3.1-1.8s-2.3-1.4-3.7-1.6c-1.2-0.1-2.6,0.3-3.8,1.4c-0.2,0.2-0.4,0.3-0.5,0.5
			c-0.3,0.3-0.3,0.9,0,1.2C39,58.5,39.6,58.5,40,58.2z"/>
		<path d="M70.4,63c-1,0.7-1.9,1.5-2.6,2s-1.2,0.7-1.7,0.6c-1.5-0.3-2.9-1.8-5-2.6s-5-0.6-9.2,2.2c-0.9,0.6-1.6,0.6-2.5,0.2
			s-1.8-1.1-2.9-1.8c-1-0.7-2.1-1.4-3.5-1.6c-1.2-0.1-2.4,0.3-3.6,1.4c-0.2,0.2-0.3,0.3-0.5,0.5c-0.3,0.3-0.3,0.9,0.1,1.2
			c0.4,0.3,0.9,0.3,1.2-0.1c0,0,0,0,0-0.1c1-1.2,1.8-1.4,2.5-1.4c0.8,0.1,1.7,0.6,2.7,1.3c1,0.7,2,1.5,3.2,2s2.7,0.5,4.1-0.4
			c3.9-2.6,6-2.6,7.6-2c1.7,0.6,3,2.2,5.3,2.6c1.2,0.3,2.3-0.3,3.1-0.9s1.7-1.4,2.6-2s1.8-1,2.8-0.9c0.9,0,2,0.4,3.4,1.3l0.1,2.8
			l5.6-4l-5.8-3.5l0.1,2.7c-1.2-0.6-2.3-0.9-3.3-0.9C72.7,61.8,71.4,62.4,70.4,63z"/>
		<path d="M43.5,71.5c1.5-0.9,2.8-1.3,3.8-1.3c1.2,0,2.2,0.4,3.1,1c1,0.6,1.8,1.4,2.8,2s2.1,1.2,3.3,0.9c2.4-0.5,3.9-2,5.7-2.6
			s4.1-0.7,8.4,2c1.5,0.9,3,0.9,4.3,0.4s2.4-1.3,3.5-2s2.1-1.2,2.9-1.3c0.9-0.1,1.7,0.1,2.8,1.4c0,0,0,0,0.1,0.1
			c0.3,0.3,0.9,0.3,1.3,0s0.4-0.9,0-1.2c-0.2-0.2-0.3-0.4-0.5-0.5c-1.2-1.1-2.6-1.5-3.8-1.4c-1.4,0.1-2.6,0.9-3.7,1.6
			s-2.2,1.4-3.1,1.8s-1.7,0.4-2.8-0.2c-4.5-2.8-7.6-2.9-9.9-2.1s-3.8,2.2-5.4,2.6c-0.6,0.1-1.2-0.1-2-0.6s-1.7-1.3-2.8-2
			s-2.5-1.3-4.1-1.2c-1.1,0-2.4,0.4-3.7,1l0.1-2.7L38,70.7l5.6,4L43.5,71.5z"/>
		<path d="M85.3,76.9c-1.1-1.1-2.4-1.6-3.6-1.4c-1.3,0.1-2.4,0.9-3.5,1.6c-1,0.7-2,1.4-2.9,1.8s-1.5,0.4-2.5-0.2
			c-4.2-2.8-7.1-3-9.2-2.2c-2.1,0.8-3.5,2.2-5,2.6c-0.5,0.1-1-0.1-1.7-0.6s-1.6-1.3-2.6-2s-2.3-1.3-3.8-1.2c-1,0-2.1,0.3-3.3,0.9
			l0.1-2.7L41.5,77l5.6,4l0.1-2.8c1.4-0.9,2.5-1.2,3.4-1.3c1.1,0,2,0.4,2.8,0.9s1.7,1.4,2.6,2s1.9,1.2,3.1,0.9
			c2.2-0.5,3.6-2,5.3-2.6c1.7-0.6,3.7-0.7,7.6,2c1.4,0.9,2.9,0.9,4.1,0.4s2.3-1.3,3.2-2c1-0.7,1.9-1.2,2.7-1.3
			c0.8-0.1,1.5,0.1,2.5,1.4c0,0,0,0,0,0.1c0.3,0.3,0.9,0.4,1.2,0.1c0.4-0.3,0.4-0.8,0.1-1.2C85.7,77.3,85.5,77.1,85.3,76.9z"/>
	</g>
</g>
</svg>
