<?xml version="1.0" encoding="utf-8"?>
<!-- Generator: Adobe Illustrator 25.0.1, SVG Export Plug-In . SVG Version: 6.00 Build 0)  -->
<svg version="1.1"
	 id="svg8" inkscape:export-filename="/media/juhele/data_2TB/_GRAFIKA/GHS hazard symbols/GHS06_toxic_substances.png" inkscape:export-xdpi="99.027519" inkscape:export-ydpi="99.027519" inkscape:version="0.92.5 (2060ec1f9f, 2020-04-08)" sodipodi:docname="Laadpaal.svg" xmlns:cc="http://creativecommons.org/ns#" xmlns:dc="http://purl.org/dc/elements/1.1/" xmlns:inkscape="http://www.inkscape.org/namespaces/inkscape" xmlns:rdf="http://www.w3.org/1999/02/22-rdf-syntax-ns#" xmlns:sodipodi="http://sodipodi.sourceforge.net/DTD/sodipodi-0.dtd" xmlns:svg="http://www.w3.org/2000/svg"
	 xmlns="http://www.w3.org/2000/svg" xmlns:xlink="http://www.w3.org/1999/xlink" x="0px" y="0px" width="125px" height="125px"
	 viewBox="0 0 125 125" style="enable-background:new 0 0 125 125;" xml:space="preserve">
<style type="text/css">
	.st0{fill:#FEFEFE;}
	.st1{fill:#0074D4;}
</style>
<g>
	<path class="st0" d="M62.4,32.3c-16.7,0-30.2,13.5-30.2,30.2s13.5,30.2,30.2,30.2s30.2-13.6,30.2-30.2
		C92.6,45.8,79.1,32.3,62.4,32.3z M78.2,84L62.7,72.8L46.9,84l6-18.3L37.1,53.9l19.4-0.3l6.2-18.1l6,18.3l19.4,0.5L72.5,65.7
		L78.2,84z"/>
	<g>
		<path class="st1" d="M62.4,28.5c-18.7,0-34,15.3-34,34c0,18.8,15.3,34,34,34c18.8,0,34-15.3,34-34S81.2,28.5,62.4,28.5z
			 M32.2,62.5c0-16.7,13.5-30.2,30.2-30.2s30.2,13.5,30.2,30.2S79,92.7,62.4,92.7C45.7,92.7,32.2,79.2,32.2,62.5z"/>
		<polygon class="st1" points="88.1,54.3 68.7,53.8 62.7,35.5 56.5,53.6 37.1,53.9 52.9,65.6 46.9,84 62.7,72.8 78.2,84 72.5,65.7 
					"/>
	</g>
</g>
</svg>
