<?xml version="1.0" encoding="utf-8"?>
<!-- Generator: Adobe Illustrator 25.0.1, SVG Export Plug-In . SVG Version: 6.00 Build 0)  -->
<svg version="1.1"
	 id="svg8" inkscape:export-filename="/media/juhele/data_2TB/_GRAFIKA/GHS hazard symbols/GHS06_toxic_substances.png" inkscape:export-xdpi="99.027519" inkscape:export-ydpi="99.027519" inkscape:version="0.92.5 (2060ec1f9f, 2020-04-08)" sodipodi:docname="Laadpaal.svg" xmlns:cc="http://creativecommons.org/ns#" xmlns:dc="http://purl.org/dc/elements/1.1/" xmlns:inkscape="http://www.inkscape.org/namespaces/inkscape" xmlns:rdf="http://www.w3.org/1999/02/22-rdf-syntax-ns#" xmlns:sodipodi="http://sodipodi.sourceforge.net/DTD/sodipodi-0.dtd" xmlns:svg="http://www.w3.org/2000/svg"
	 xmlns="http://www.w3.org/2000/svg" xmlns:xlink="http://www.w3.org/1999/xlink" x="0px" y="0px" width="125px" height="125px"
	 viewBox="0 0 125 125" style="enable-background:new 0 0 125 125;" xml:space="preserve">
<style type="text/css">
	.st0{fill:#D6061C;}
	.st1{fill:#FEFEFE;}
	.st2{fill:#1D1D1B;}
</style>
<g>
	<path class="st0" d="M62.5,29.6c-18.1,0-32.8,14.8-32.8,32.8c0,18.1,14.7,32.8,32.9,32.8c18.1,0,32.9-14.7,32.9-32.8
		C95.4,44.5,80.6,29.6,62.5,29.6z M79.3,85.2L62.8,73.4L46,85.2l6.4-19.5L35.6,53.3L56.2,53l6.6-19.2l6.4,19.4l20.6,0.5L73.2,65.9
		L79.3,85.2z"/>
	<g>
		<polygon class="st1" points="87.9,54.3 68.7,53.8 62.8,35.8 56.6,53.6 37.5,54 53.2,65.5 47.2,83.7 62.8,72.7 78.2,83.7 
			72.5,65.8 		"/>
		<g>
			<path class="st2" d="M62.5,28.4c-18.8,0-34.1,15.2-34.1,34s15.3,34.1,34.1,34.1c18.9,0,34.1-15.2,34.1-34.1
				C96.6,43.8,81.4,28.4,62.5,28.4z M62.5,95.3c-18.1,0-32.9-14.7-32.9-32.8s14.7-32.8,32.9-32.8c18.1,0,32.9,14.7,32.9,32.8
				S80.6,95.3,62.5,95.3z"/>
			<path class="st2" d="M69.6,52.6l-6.8-20.7l-7.1,20.5l-22,0.3l17.9,13.2l-6.9,20.8l18-12.7l17.7,12.7L73.9,66l17.6-13L69.6,52.6z
				 M62.8,72.7l-15.6,11l6-18.1L37.5,54l19.1-0.3l6.1-17.9l5.9,18l19.2,0.5L72.5,65.8l5.7,18L62.8,72.7z"/>
		</g>
	</g>
</g>
</svg>
