<?xml version="1.0" encoding="utf-8"?>
<!-- Generator: Adobe Illustrator 25.0.1, SVG Export Plug-In . SVG Version: 6.00 Build 0)  -->
<svg version="1.1"
	 id="svg8" inkscape:export-filename="C:\Users\User\Desktop\Symbolen COGO\WATER\BlauwAlg_Botulisme.png" inkscape:export-xdpi="200" inkscape:export-ydpi="200" inkscape:version="0.92.5 (2060ec1f9f, 2020-04-08)" sodipodi:docname="BlauwAlg_Botulisme.svg" xmlns:cc="http://creativecommons.org/ns#" xmlns:dc="http://purl.org/dc/elements/1.1/" xmlns:inkscape="http://www.inkscape.org/namespaces/inkscape" xmlns:rdf="http://www.w3.org/1999/02/22-rdf-syntax-ns#" xmlns:sodipodi="http://sodipodi.sourceforge.net/DTD/sodipodi-0.dtd" xmlns:svg="http://www.w3.org/2000/svg"
	 xmlns="http://www.w3.org/2000/svg" xmlns:xlink="http://www.w3.org/1999/xlink" x="0px" y="0px" width="125px" height="125px"
	 viewBox="0 0 125 125" style="enable-background:new 0 0 125 125;" xml:space="preserve">
<style type="text/css">
	.st0{fill:#FFFFFF;}
	.st1{fill:#414D9C;}
</style>
<g>
	<circle class="st0" cx="62.5" cy="62.5" r="16.7"/>
</g>
<sodipodi:namedview  bordercolor="#666666" borderopacity="1" gridtolerance="10" guidetolerance="10" id="namedview835" inkscape:current-layer="g837" inkscape:cx="69.450993" inkscape:cy="53.802153" inkscape:pageopacity="0" inkscape:pageshadow="2" inkscape:window-height="1017" inkscape:window-maximized="1" inkscape:window-width="1920" inkscape:window-x="-8" inkscape:window-y="-8" inkscape:zoom="8.7479048" objecttolerance="10" pagecolor="#ffffff" showgrid="false" showguides="false">
	</sodipodi:namedview>
<path class="st1" d="M111.4,62.5c-0.5-0.8-1.5-1.1-2.3-0.6c-6.3,3.6-10.2,1.4-14.3-1c-3.9-2.3-8.3-4.8-14.2-0.9
	c-0.2-1.3-0.5-2.5-0.9-3.7c0,0,0,0,0,0c5.4-5.1,8.5-3.3,12.8-0.8c2.7,1.5,5.8,3.3,9.7,3.3c2.3,0,4.9-0.6,7.9-2.3
	c0.8-0.5,1.1-1.5,0.6-2.3c-0.5-0.8-1.5-1.1-2.3-0.6c-6.3,3.6-10.2,1.4-14.3-1c-4.3-2.5-9.2-5.3-16,0.5c-3.2-5.4-9.1-9-15.8-9
	c-7,0-13.1,3.9-16.2,9.6c-6.1,3.3-9.9,1.1-13.9-1.2c-4.5-2.6-9.6-5.5-16.8,1.2c-0.7,0.6-0.7,1.7-0.1,2.4c0.6,0.7,1.7,0.7,2.4,0.1
	c5.4-5.1,8.5-3.3,12.8-0.8c2.7,1.5,5.8,3.3,9.7,3.3c1.3,0,2.7-0.2,4.2-0.7c-0.3,1.3-0.5,2.8-0.5,4.2c-5.8,2.9-9.5,0.8-13.4-1.4
	c-4.5-2.6-9.6-5.5-16.8,1.2c-0.7,0.6-0.7,1.7-0.1,2.4c0.6,0.7,1.7,0.7,2.4,0.1c5.4-5.1,8.5-3.3,12.8-0.8c2.7,1.5,5.8,3.3,9.7,3.3
	c1.7,0,3.6-0.4,5.7-1.2c0.3,1.5,0.7,2.9,1.3,4.3c0,0,0,0-0.1,0c-6.3,3.6-10.2,1.3-14.3-1c-4.5-2.6-9.6-5.5-16.8,1.2
	C14,71,14,72.1,14.6,72.7c0.6,0.7,1.7,0.7,2.4,0.1c5.4-5.1,8.5-3.3,12.8-0.8c2.7,1.5,5.8,3.3,9.7,3.3c2.3,0,4.9-0.6,7.9-2.3
	c0,0,0,0,0.1,0c3.3,4.8,8.8,7.9,15.1,7.9c6.2,0,11.7-3.1,15-7.8c0.1-0.1,0.3-0.2,0.4-0.3c5.4-5.1,8.5-3.3,12.8-0.8
	c2.7,1.5,5.8,3.3,9.7,3.3c2.3,0,4.9-0.6,7.9-2.3c0.8-0.5,1.1-1.5,0.6-2.3c-0.5-0.8-1.5-1.1-2.3-0.6c-6.3,3.6-10.2,1.3-14.3-1
	c-3.5-2-7.3-4.2-12.1-2c0.3-1,0.4-2,0.5-3c5.1-4.5,8.2-2.8,12.4-0.4c2.7,1.5,5.8,3.3,9.7,3.3c2.3,0,4.9-0.6,7.9-2.3
	C111.6,64.3,111.8,63.3,111.4,62.5z M74.2,71.9l-9-9l9.4-9.4c1.9,2.5,3,5.6,3,8.9C77.6,66.1,76.3,69.3,74.2,71.9z M72.3,51.1
	l-9.5,9.5l-9.8-9.8c2.6-2.1,5.9-3.3,9.4-3.3C66.3,47.4,69.7,48.8,72.3,51.1z M47.4,62.5c0-3.5,1.2-6.8,3.3-9.4l9.8,9.8l-9.4,9.4
	C48.8,69.7,47.4,66.3,47.4,62.5z M53.6,74.6l9.3-9.3l9,9c-2.6,2-5.8,3.3-9.4,3.3C59.2,77.6,56.1,76.4,53.6,74.6z"/>
</svg>
