<?xml version="1.0" encoding="UTF-8"?>
<!-- Created with Inkscape (http://www.inkscape.org/) -->
<svg width="125" height="125" version="1.1" xml:space="preserve" xmlns="http://www.w3.org/2000/svg" xmlns:cc="http://creativecommons.org/ns#" xmlns:dc="http://purl.org/dc/elements/1.1/" xmlns:rdf="http://www.w3.org/1999/02/22-rdf-syntax-ns#"><metadata><rdf:RDF><cc:Work rdf:about=""><dc:format>image/svg+xml</dc:format><dc:type rdf:resource="http://purl.org/dc/dcmitype/StillImage"/></cc:Work></rdf:RDF></metadata><g transform="matrix(.91561 0 0 .91561 29.922 43.141)" fill="#fff"><ellipse cx="50.842" cy="21.389" rx="8.5688" ry="7.7528" stroke="#fff" stroke-width="3"/><path d="m61.383 21.195a9.8354 9.9539 0 0 1-19.671 0 9.8354 9.9539 0 1 1 19.671 0z" fill-rule="evenodd"/><g transform="matrix(.125 0 0 -.125 .032338 42.293)"><g fill="#fff"><path d="m462.57 169.46c0-30.087-24.793-54.504-55.214-54.504-15.697-0.0543-29.294 5.4617-39.666 15.339-10.915 10.483-16.861 24.345-16.804 39.093-0.0567 29.911 25.281 54.318 56.432 54.318 14.385 0 28.02-5.4977 38.429-15.448 7.1269-6.9032 12.209-15.213 14.666-24.28 1.426-4.6938 2.0818-9.6147 2.1567-14.518zm49.682 102.65c-28.132 27.084-65.454 42.02-104.93 42.02h-0.0374c-66.504-0.0646-122.38-42.02-142.25-99.554l-82.033-0.0647-0.0567 111.67-170.75-0.0655v-90.418s40.623 0.0608 76.759 0c-0.03755-42.901-0.03755-90.131 0.01873-133.01-36.099-0.0721-76.658-0.12616-76.658-0.12616l-0.03751-90.372 170.78 0.03605-0.0192 111.86 81.876 0.072c7.3026-21.432 19.174-41.332 36.313-57.771 28.113-27.038 65.342-41.909 104.75-41.855 83.759 0 150.64 65.035 150.62 144.93 0 38.744-15.755 75.198-44.336 102.65" fill="#fff" stroke="#341ced" stroke-width="23.535"/></g></g></g></svg>
