<?xml version="1.0" encoding="utf-8"?>
<!-- Generator: Adobe Illustrator 25.0.1, SVG Export Plug-In . SVG Version: 6.00 Build 0)  -->
<svg version="1.1"
	 id="svg8" inkscape:export-filename="/media/juhele/data_2TB/_GRAFIKA/GHS hazard symbols/GHS06_toxic_substances.png" inkscape:export-xdpi="99.027519" inkscape:export-ydpi="99.027519" inkscape:version="0.92.5 (2060ec1f9f, 2020-04-08)" sodipodi:docname="Laadpaal.svg" xmlns:cc="http://creativecommons.org/ns#" xmlns:dc="http://purl.org/dc/elements/1.1/" xmlns:inkscape="http://www.inkscape.org/namespaces/inkscape" xmlns:rdf="http://www.w3.org/1999/02/22-rdf-syntax-ns#" xmlns:sodipodi="http://sodipodi.sourceforge.net/DTD/sodipodi-0.dtd" xmlns:svg="http://www.w3.org/2000/svg"
	 xmlns="http://www.w3.org/2000/svg" xmlns:xlink="http://www.w3.org/1999/xlink" x="0px" y="0px" width="125px" height="125px"
	 viewBox="0 0 125 125" style="enable-background:new 0 0 125 125;" xml:space="preserve">
<style type="text/css">
	.st0{fill-rule:evenodd;clip-rule:evenodd;fill:#FEFEFE;}
	.st1{fill:#FEFEFE;}
	.st2{fill-rule:evenodd;clip-rule:evenodd;fill:#3174C1;}
</style>
<g id="Laag_x0020_1" transform="matrix(0.04584043,0,0,0.04584043,0.64239345,0.29243222)">
	<g id="_855722064">
		<g id="ellipse7">
			<path class="st0" d="M1349.3,2085.9c-401.9,0-728.9-326.9-728.9-728.9c0.1-401.8,327.1-728.8,728.9-728.8
				c401.9,0,728.8,327,728.8,728.9C2078.2,1759,1751.2,2085.9,1349.3,2085.9z"/>
			<path class="st1" d="M1349.3,641.4c394.6,0,715.7,321,715.7,715.7s-321,715.7-715.7,715.7s-715.7-321-715.7-715.7
				S954.7,641.4,1349.3,641.4 M1349.3,615c-409.8,0-742,332.2-742,742.1s332.2,742.1,742.1,742.1s742.1-332.2,742.1-742.1
				S1759.2,615,1349.3,615L1349.3,615z"/>
		</g>
		<path id="path9" inkscape:connector-curvature="0" class="st2" d="M1349.3,984.1c92.1,0,108.3-23.7,157.9-43.5
			c29.4,10.9,56.7,24.7,82,40.6c-47.6,26.7-108.3,91-239.9,91s-192.3-64.3-239.9-91c25.3-15.8,52.6-29.7,82-40.6
			C1241,960.3,1257.2,984.1,1349.3,984.1z M1349.3,1313.5c200.4,0,254.1-126.6,379.6-190c-13.2-20.8-26.3-39.6-42.5-57.4
			c-87.1,55.4-162,156.3-337.1,156.3s-250-100.8-337.1-156.2c-16.2,17.8-29.4,36.6-41.5,56.4
			C1095.2,1186.9,1148.9,1313.5,1349.3,1313.5z M917.1,1250.2c163,39.6,178.2,207.8,432.3,207.8s269.3-168.2,432.3-207.8
			c7.1,28.7,11.1,58.4,12.1,89c-135.7,35.7-235.9,217.7-444.5,222.7c-208.5-4.9-308.8-187-444.4-223.6
			C905.9,1308.6,910,1278.9,917.1,1250.2z M1349.3,1802.3c200.4,0,370.5-133.6,426.2-315.6c-227.7,99.9-190.3,214.7-426.2,214.7
			s-198.4-114.8-426.2-214.7C978.8,1668.7,1148.9,1802.3,1349.3,1802.3z M1349.3,725.8c348.2,0,630.7,282,630.7,631.2
			c0,348.3-282.4,630.3-630.7,630.3s-630.7-282-630.7-630.3C718.6,1007.8,1001.1,725.8,1349.3,725.8z"/>
	</g>
</g>
</svg>
