<svg xmlns="http://www.w3.org/2000/svg" xmlns:xlink="http://www.w3.org/1999/xlink" viewBox="0 0 198.43 198.43"><defs><style>.cls-1,.cls-5{fill:none;}.cls-2{fill:#fff;}.cls-3{fill:#2472b7;}.cls-4{clip-path:url(#clip-path);}.cls-5{stroke:#fff;stroke-miterlimit:10;stroke-width:12.76px;}</style><clipPath id="clip-path"><circle class="cls-1" cx="99.08" cy="98.29" r="70.87"/></clipPath></defs><g id="Picto_s" data-name="Picto&apos;s"><circle class="cls-2" cx="99.21" cy="99.21" r="92.64"/><circle class="cls-3" cx="99.21" cy="99.21" r="83.41"/><g class="cls-4"><path class="cls-5" d="M-72.06,69.14c28.52,0,28.52,22.68,57,22.68S13.5,69.14,42,69.14s28.53,22.68,57,22.68,28.52-22.68,57.05-22.68,28.52,22.68,57,22.68,28.52-22.68,57-22.68"/><path class="cls-5" d="M-72.06,36.6c28.52,0,28.52,22.68,57,22.68S13.5,36.6,42,36.6s28.53,22.68,57,22.68S127.59,36.6,156.12,36.6s28.52,22.68,57,22.68,28.52-22.68,57-22.68"/><path class="cls-5" d="M-72.06,101.69c28.52,0,28.52,22.68,57,22.68s28.52-22.68,57-22.68,28.53,22.68,57,22.68,28.52-22.68,57.05-22.68,28.52,22.68,57,22.68,28.52-22.68,57-22.68"/><path class="cls-5" d="M-72.06,134.24c28.52,0,28.52,22.68,57,22.68s28.52-22.68,57-22.68,28.53,22.68,57,22.68,28.52-22.68,57.05-22.68,28.52,22.68,57,22.68,28.52-22.68,57-22.68"/></g></g></svg>