<?xml version="1.0" encoding="utf-8"?>
<!-- Generator: Adobe Illustrator 25.0.1, SVG Export Plug-In . SVG Version: 6.00 Build 0)  -->
<svg version="1.1"
	 id="svg8" inkscape:export-filename="/media/juhele/data_2TB/_GRAFIKA/GHS hazard symbols/GHS06_toxic_substances.png" inkscape:export-xdpi="99.027519" inkscape:export-ydpi="99.027519" inkscape:version="0.92.5 (2060ec1f9f, 2020-04-08)" sodipodi:docname="Laadpaal.svg" xmlns:cc="http://creativecommons.org/ns#" xmlns:dc="http://purl.org/dc/elements/1.1/" xmlns:inkscape="http://www.inkscape.org/namespaces/inkscape" xmlns:rdf="http://www.w3.org/1999/02/22-rdf-syntax-ns#" xmlns:sodipodi="http://sodipodi.sourceforge.net/DTD/sodipodi-0.dtd" xmlns:svg="http://www.w3.org/2000/svg"
	 xmlns="http://www.w3.org/2000/svg" xmlns:xlink="http://www.w3.org/1999/xlink" x="0px" y="0px" width="125px" height="125px"
	 viewBox="0 0 125 125" style="enable-background:new 0 0 125 125;" xml:space="preserve">
<style type="text/css">
	.st0{fill:#1961AC;}
	.st1{fill:#1D1D1B;}
	.st2{fill:#FEFEFE;}
</style>
<g>
	<path class="st0" d="M62.5,29.6c-18.1,0-32.8,14.8-32.8,32.9s14.7,32.9,32.8,32.9c18-0.1,32.7-14.8,32.7-32.9S80.5,29.6,62.5,29.6z
		 M80,86.5L62.7,74L45.2,86.5L51.9,66L34.4,53l21.5-0.3l6.9-20.1l6.7,20.3l21.4,0.6L73.7,66.2L80,86.5z"/>
	<path class="st1" d="M62.5,28.5c-18.8,0-34,15.3-34,34.1s15.2,34,34,34c18.7,0,34-15.3,34-34.1C96.4,43.8,81.2,28.5,62.5,28.5z
		 M29.7,62.5c0-18.1,14.7-32.9,32.8-32.9c18,0,32.7,14.8,32.7,32.9S80.5,95.4,62.5,95.4C44.4,95.4,29.7,80.7,29.7,62.5z"/>
	<polygon class="st2" points="68.6,54 62.7,36.2 56.7,53.8 38,54.2 53.3,65.6 47.5,83.3 62.7,72.6 77.8,83.3 72.3,65.7 87.3,54.5 	
		"/>
	<path class="st1" d="M90.9,53.5l-21.4-0.6l-6.7-20.3l-6.9,20.2L34.4,53l17.5,13l-6.7,20.5l17.5-12.4L80,86.5l-6.4-20.3L90.9,53.5z
		 M62.7,72.6L47.5,83.3l5.8-17.8L38,54.2l18.8-0.3l6-17.6L68.6,54l18.7,0.6l-15,11.1l5.5,17.7L62.7,72.6z"/>
</g>
</svg>
