<?xml version="1.0" encoding="utf-8"?>
<!-- Generator: Adobe Illustrator 25.0.1, SVG Export Plug-In . SVG Version: 6.00 Build 0)  -->
<svg version="1.1"
	 id="svg2" inkscape:version="0.92.5 (2060ec1f9f, 2020-04-08)" sodipodi:docname="156.svg" xmlns:cc="http://creativecommons.org/ns#" xmlns:dc="http://purl.org/dc/elements/1.1/" xmlns:inkscape="http://www.inkscape.org/namespaces/inkscape" xmlns:rdf="http://www.w3.org/1999/02/22-rdf-syntax-ns#" xmlns:sodipodi="http://sodipodi.sourceforge.net/DTD/sodipodi-0.dtd" xmlns:svg="http://www.w3.org/2000/svg"
	 xmlns="http://www.w3.org/2000/svg" xmlns:xlink="http://www.w3.org/1999/xlink" x="0px" y="0px" width="125px" height="125px"
	 viewBox="0 0 125 125" style="enable-background:new 0 0 125 125;" xml:space="preserve">
<style type="text/css">
	.st0{fill:#FFFFFF;}
	.st1{enable-background:new    ;}
	.st2{fill:#231F20;}
	.st3{fill:#FCD205;}
	.st4{fill-rule:evenodd;clip-rule:evenodd;fill:#231F20;}
</style>
<g id="g26381" transform="matrix(0.90410117,0,0,0.90140639,30.494819,30.680354)">
	<g id="rect2995">
		<polygon class="st0" points="70.4,70.3 0.4,70.3 0.4,0.3 70.4,0.3 		"/>
		<path d="M71.5,71.4H-0.7V-0.8h72.2V71.4z M1.5,69.2h67.8V1.4H1.5V69.2z"/>
	</g>
	<g id="text25804" class="st1">
		<path d="M21.6,23V10.2h3.9l2.3,8.8l2.3-8.8H34V23h-2.4V12.9L29,23h-2.5L24,12.9V23H21.6z"/>
		<path d="M36.6,23V10.2h2.6v5.7l5.2-5.7h3.5l-4.8,5l5.1,7.8h-3.4l-3.5-6l-2.1,2.1V23H36.6z"/>
	</g>
	<g id="g25813">
		<g id="g25811">
			<g id="g16" transform="matrix(0.125,0,0,-0.125,0,70.999997)">
				<path id="path22_2_" inkscape:connector-curvature="0" class="st2" d="M190.5,128.9h223.6v203.9H190.5V128.9z"/>
				<path id="path24" inkscape:connector-curvature="0" class="st3" d="M194.7,132.8h215.3V329H194.7
					C194.7,329.1,194.7,132.8,194.7,132.8z"/>
				<path id="path26_2_" inkscape:connector-curvature="0" class="st2" d="M165.2,111c-0.9,2.4-2.9,4.4-5.3,5.8
					c-0.5,0.5-0.9,0.5-1.4,0.5c-1,0-1.4,0-1.9-0.5c-2.3-1.4-3.8-3.3-5.3-5.8c-1.9-2.8-3.3-5.8-3.8-9.1c-1.4-4.4-1.9-9.1-1.9-14
					s0.5-9.6,1.9-14c0.5-3.3,1.9-6.2,3.8-9c1.4-2.4,2.9-4.4,5.3-5.9c0.5-0.5,1-0.5,1.9-0.5c0.5,0,0.9,0,1.4,0.5
					c2.3,1.4,4.4,3.3,5.3,5.9c1.9,2.8,3.3,5.8,4.4,9c1,4.4,1.4,9.1,1.4,14c0,4.7-0.4,9.5-1.4,14C168.7,105.2,167.3,108.2,165.2,111
					 M190.5,267.3v-87.6H189c-2.3,0-4.9,2.4-4.9,4.7v23.7c0,2.4-1.9,4.4-4.2,4.4h-2.3v-21.2c0-1.4-1-2.9-1.9-3.8l-5.8-4.4
					c-1.4-1-1.9-1.9-1.9-3.3l-2.4-51.2c0.5-0.5,1.4-1,1.9-1.4c3.8-2.4,7.2-5.8,9.1-9.6c2.9-3.8,4.4-8.1,5.8-13
					c1.5-5.3,1.9-11,1.9-16.8c0-6.2-0.4-12.1-1.9-17.2c-1.4-4.9-2.8-9.1-5.8-13.1c-1.9-3.7-5.3-7.2-9.1-9.6
					c-2.4-1.9-5.8-2.8-9.1-2.8c-3.3,0-6.7,0.9-9.1,2.8c-3.8,2.4-6.7,5.8-9.1,9.6c-2.4,3.8-4.4,8.2-5.8,13.1
					c-0.9,5.3-1.9,11-1.9,17.2c0,5.8,1,11.5,1.9,16.8c1.4,4.7,3.3,9,5.8,13c2.4,4,5.3,7.2,9.1,9.6c0.5,0.5,1.4,0.9,1.9,1.4
					l-1.9,51.2c0,1.4-0.9,2.3-1.9,3.3l-5.8,4.4c-1.4,0.9-1.9,2.4-1.9,3.8V274h38v-31h1.9c2.8,0,4.7,2.4,4.7,4.7v14.7
					c0,2.4,2.4,4.9,4.9,4.9L190.5,267.3"/>
				<path id="path28_2_" inkscape:connector-curvature="0" class="st4" d="M309.4,238.1l-22.3-71.4l-8.3,4.9l5.6-25.1l20.1,15.6
					l-9.4,1.7l38.1,95.4l-55-26.3l32.7,78.2l-17.7,6.7l-30-101.7L309.4,238.1"/>
			</g>
		</g>
	</g>
</g>
</svg>
