<?xml version="1.0" encoding="UTF-8"?>
<!-- Generator: Adobe Illustrator 25.0.1, SVG Export Plug-In . SVG Version: 6.00 Build 0)  -->
<svg width="125px" height="125px" enable-background="new 0 0 125 125" version="1.1" viewBox="0 0 125 125" xml:space="preserve" xmlns="http://www.w3.org/2000/svg">
<style type="text/css">
	.st0{fill:#FFFFFF;}
	.st1{enable-background:new    ;}
	.st2{fill:#231F20;}
	.st3{fill:#FCD205;}
	.st4{fill-rule:evenodd;clip-rule:evenodd;fill:#231F20;}
</style>
<g transform="matrix(.9041 0 0 .90141 30.495 30.68)">
	
		<polygon class="st0" points="70.4 70.3 0.4 70.3 0.4 0.3 70.4 0.3"/>
		<path d="M71.5,71.4H-0.7V-0.8h72.2V71.4z M1.5,69.2h67.8V1.4H1.5V69.2z"/>
	
	<g class="st1">
		<path d="M21.6,23V10.2h3.9l2.3,8.8l2.3-8.8H34V23h-2.4V12.9L29,23h-2.5L24,12.9V23H21.6z"/>
		<path d="M36.6,23V10.2h2.6v5.7l5.2-5.7h3.5l-4.8,5l5.1,7.8h-3.4l-3.5-6l-2.1,2.1V23H36.6z"/>
	</g>
	
</g>
</svg>
