<?xml version="1.0" encoding="UTF-8"?>
<!-- Generator: Adobe Illustrator 24.1.0, SVG Export Plug-In . SVG Version: 6.00 Build 0)  -->
<svg width="125" height="125" version="1.1" viewBox="0 0 125 125" xml:space="preserve" xmlns="http://www.w3.org/2000/svg" xmlns:cc="http://creativecommons.org/ns#" xmlns:dc="http://purl.org/dc/elements/1.1/" xmlns:rdf="http://www.w3.org/1999/02/22-rdf-syntax-ns#" xmlns:xlink="http://www.w3.org/1999/xlink"><metadata><rdf:RDF><cc:Work rdf:about=""><dc:format>image/svg+xml</dc:format><dc:type rdf:resource="http://purl.org/dc/dcmitype/StillImage"/></cc:Work></rdf:RDF></metadata>
<style type="text/css">
	.st0{fill:#FFFFFF;}
	.st1{clip-path:url(#SVGID_2_);}
	.st2{fill:#231F20;}
	.st3{fill:#E30613;}
</style>


<g transform="matrix(.94374 0 0 .94374 29.174 28.714)"><g transform="matrix(1.25 0 0 -1.25 0 70.862)">
	<path class="st0" d="m0.8 55.7h54.9s0.1 0 0.1-0.1v-55.1s0-0.1-0.1-0.1h-54.9s-0.1 0-0.1 0.1l0.1 55.2c-0.1 0-0.1 0 0 0z" fill="#fff"/>
	<g transform="scale(.1)">
		
			
				<defs>
					<rect id="SVGID_1_" x="248" y="248" width="70.9" height="70.9"/>
				</defs>
				<clipPath id="SVGID_2_">
					<use width="100%" height="100%" xlink:href="#SVGID_1_"/>
				</clipPath>
				<g class="st1" clip-path="url(#SVGID_2_)">
					<path class="st2" d="m547.6 547.6v-528.3h-528.3v528.3h528.3zm9.7 19.3h-557.3v-566.9h566.9v566.9h-9.6" fill="#231f20"/>
				</g>
			
		
	</g>
</g><g fill="#e30613"><path class="st3" d="m35.312 66.35c-16.9 0-30.6-13.7-30.6-30.6s13.7-30.5 30.6-30.5 30.6 13.7 30.6 30.6-13.8 30.5-30.6 30.5zm0-56.3c-14.2 0-25.8 11.5-25.8 25.7s11.5 25.7 25.7 25.7 25.7-11.5 25.7-25.7-11.5-25.7-25.6-25.7z"/><path d="m52.878 14.528-35.131 42.544" stroke="#e30613" stroke-linecap="round" stroke-linejoin="bevel" stroke-miterlimit="20.7" stroke-width="3.1788" style="paint-order:markers fill stroke"/><path d="m17.747 14.528 35.131 42.544" stroke="#e30613" stroke-linecap="round" stroke-linejoin="bevel" stroke-miterlimit="20.7" stroke-width="3.1788" style="paint-order:markers fill stroke"/></g></g>
</svg>
