<?xml version="1.0" encoding="UTF-8"?>
<!-- Created with Inkscape (http://www.inkscape.org/) -->
<svg width="125" height="125" version="1.1" xml:space="preserve" xmlns="http://www.w3.org/2000/svg" xmlns:cc="http://creativecommons.org/ns#" xmlns:dc="http://purl.org/dc/elements/1.1/" xmlns:rdf="http://www.w3.org/1999/02/22-rdf-syntax-ns#"><metadata><rdf:RDF><cc:Work rdf:about=""><dc:format>image/svg+xml</dc:format><dc:type rdf:resource="http://purl.org/dc/dcmitype/StillImage"/></cc:Work></rdf:RDF></metadata><defs><clipPath id="clipPath18"><path d="m0 566.93v-566.93h566.93v566.93z"/></clipPath></defs><rect x="31.928" y="31.656" width="61.691" height="61.691" rx=".1011" color="#000000" fill="#fff"/><g transform="matrix(.11465 0 0 -.11465 30 95)"><g clip-path="url(#clipPath18)" fill="#ed1c24"><path d="m539.02 27.852h-511.15v511.25h511.15v-511.25m27.911 539.08h-566.93v-566.93h566.93z"/><path transform="matrix(8.7221 0 0 -8.7221 -261.66 829.32)" d="m62.489 50.917c3.1239 0 5.6449-2.481 5.6449-5.5954 0-3.1072-2.521-5.6361-5.6449-5.6361-3.102 0-5.6229 2.529-5.6229 5.6361 0 3.1144 2.521 5.5954 5.6229 5.5954" stroke="#fff" stroke-width="1.6221"/><rect transform="matrix(8.7221 0 0 -8.7221 -261.66 829.32)" x="57.348" y="55.548" width="10.303" height="28.179" rx=".0021068" stroke="#fff" stroke-linecap="round" stroke-linejoin="bevel" stroke-miterlimit="20.7" stroke-width=".73943" style="paint-order:markers fill stroke"/></g></g></svg>
