<?xml version="1.0" encoding="UTF-8"?>
<!-- Created with Inkscape (http://www.inkscape.org/) -->
<svg width="125" height="125" version="1.1" xml:space="preserve" xmlns="http://www.w3.org/2000/svg" xmlns:cc="http://creativecommons.org/ns#" xmlns:dc="http://purl.org/dc/elements/1.1/" xmlns:rdf="http://www.w3.org/1999/02/22-rdf-syntax-ns#"><metadata><rdf:RDF><cc:Work rdf:about=""><dc:format>image/svg+xml</dc:format><dc:type rdf:resource="http://purl.org/dc/dcmitype/StillImage"/></cc:Work></rdf:RDF></metadata><defs><clipPath id="clipPath18"><path d="m0 566.93v-566.93h566.93v566.93z"/></clipPath></defs><rect x="30.826" y="31.105" width="63.068" height="63.344" rx=".064702" color="#000000" fill="#fff"/><g transform="matrix(.11465 0 0 -.11465 30 95)"><g clip-path="url(#clipPath18)"><rect transform="scale(1,-1)" x="9.667" y="-559.52" width="547.58" height="547.58" rx=".018376" fill="#231f81" style="paint-order:markers fill stroke"/><path transform="matrix(8.7222 0 0 -8.7222 -261.67 828.61)" d="m12.5 0v125m20-125v125m20-125v125m20-125v125m20-125v125m20-125v125m-100-112.5h125m-125 20h125m-125 20h125m-125 20h125m-125 20h125m-125 20h125" fill="none" stroke="#dbdbdf" stroke-width="2"/><g fill="#dbdbdf"><rect transform="matrix(-.70711 .70711 .70711 .70711 0 0)" x="95.597" y="373.14" width="55.508" height="55.508" rx="0" ry="0" style="paint-order:markers fill stroke"/><rect transform="matrix(-.70711 .70711 .70711 .70711 0 0)" x="-27.754" y="496.49" width="55.508" height="55.508" rx="0" ry="0" style="paint-order:markers fill stroke"/><rect transform="matrix(-.70711 .70711 .70711 .70711 0 0)" x="-151.1" y="373.14" width="55.508" height="55.508" rx="0" ry="0" style="paint-order:markers fill stroke"/><rect transform="matrix(-.70711 .70711 .70711 .70711 0 0)" x="-27.754" y="249.78" width="55.508" height="55.508" rx="0" ry="0" style="paint-order:markers fill stroke"/><rect transform="matrix(-.70711 .70711 .70711 .70711 0 0)" x="-274.45" y="496.49" width="55.508" height="55.508" rx="0" ry="0" style="paint-order:markers fill stroke"/><rect transform="matrix(-.70711 .70711 .70711 .70711 0 0)" x="-151.1" y="619.84" width="55.508" height="55.508" rx="0" ry="0" style="paint-order:markers fill stroke"/><rect transform="matrix(-.70711 .70711 .70711 .70711 0 0)" x="95.597" y="619.84" width="55.508" height="55.508" rx="0" ry="0" style="paint-order:markers fill stroke"/><rect transform="matrix(-.70711 .70711 .70711 .70711 0 0)" x="218.95" y="496.49" width="55.508" height="55.508" rx="0" ry="0" style="paint-order:markers fill stroke"/><rect transform="matrix(-.70711 .70711 .70711 .70711 0 0)" x="-151.1" y="126.43" width="55.508" height="55.508" rx="0" ry="0" style="paint-order:markers fill stroke"/><rect transform="matrix(-.70711 .70711 .70711 .70711 0 0)" x="-274.45" y="249.78" width="55.508" height="55.508" rx="0" ry="0" style="paint-order:markers fill stroke"/><rect transform="matrix(-.70711 .70711 .70711 .70711 0 0)" x="95.597" y="126.43" width="55.508" height="55.508" rx="0" ry="0" style="paint-order:markers fill stroke"/><rect transform="matrix(-.70711 .70711 .70711 .70711 0 0)" x="218.95" y="249.78" width="55.508" height="55.508" rx="0" ry="0" style="paint-order:markers fill stroke"/><rect transform="matrix(-.70711 .70711 .70711 .70711 0 0)" x="342.3" y="373.14" width="55.508" height="55.508" rx="0" ry="0" style="paint-order:markers fill stroke"/><rect transform="matrix(-.70711 .70711 .70711 .70711 0 0)" x="-27.754" y="3.0838" width="55.508" height="55.508" rx="0" ry="0" style="paint-order:markers fill stroke"/><rect transform="matrix(-.70711 .70711 .70711 .70711 0 0)" x="-27.754" y="743.19" width="55.508" height="55.508" rx="0" ry="0" style="paint-order:markers fill stroke"/><rect transform="matrix(-.70711 .70711 .70711 .70711 0 0)" x="-397.81" y="373.14" width="55.508" height="55.508" rx="0" ry="0" style="paint-order:markers fill stroke"/></g><path d="m547.6 547.61v-528.3h-528.28v528.3h528.28zm9.661 19.317h-557.27v-566.93h566.93v566.93h-9.668" fill="#231f81" stroke-width="1.0031"/></g></g></svg>
