<?xml version="1.0" encoding="utf-8"?>
<!-- Generator: Adobe Illustrator 25.0.1, SVG Export Plug-In . SVG Version: 6.00 Build 0)  -->
<svg version="1.1"
	 id="svg8" inkscape:export-filename="/media/juhele/data_2TB/_GRAFIKA/GHS hazard symbols/GHS06_toxic_substances.png" inkscape:export-xdpi="99.027519" inkscape:export-ydpi="99.027519" inkscape:version="0.92.5 (2060ec1f9f, 2020-04-08)" sodipodi:docname="Laadpaal.svg" xmlns:cc="http://creativecommons.org/ns#" xmlns:dc="http://purl.org/dc/elements/1.1/" xmlns:inkscape="http://www.inkscape.org/namespaces/inkscape" xmlns:rdf="http://www.w3.org/1999/02/22-rdf-syntax-ns#" xmlns:sodipodi="http://sodipodi.sourceforge.net/DTD/sodipodi-0.dtd" xmlns:svg="http://www.w3.org/2000/svg"
	 xmlns="http://www.w3.org/2000/svg" xmlns:xlink="http://www.w3.org/1999/xlink" x="0px" y="0px" width="125px" height="125px"
	 viewBox="0 0 125 125" style="enable-background:new 0 0 125 125;" xml:space="preserve">
<style type="text/css">
	.st0{fill:#FFED00;}
	.st1{fill:#2B2A29;}
</style>
<g>
	<rect x="42.8" y="75.9" class="st0" width="9.2" height="9.5"/>
	<rect x="58" y="39.5" class="st0" width="8.9" height="8.8"/>
	<rect x="71.6" y="75.9" class="st0" width="9.1" height="9.3"/>
	<path class="st0" d="M30,62.2c0,6.9,4.6,12.5,10.2,12.5h1.4h11.6h17.2h11.5h2.9c5.6,0,10.2-5.6,10.2-12.5c0-7-4.3-12.5-9.8-12.5
		h-17H56.8H40.2C34.6,49.6,30,55.2,30,62.2z"/>
	<g>
		<path class="st1" d="M85.2,48.3h-17v-10H56.8v10H40.2c-6.3,0-11.4,6.2-11.4,13.8s5.1,13.8,11.4,13.8h1.4v10.7h11.6V75.9h17.2v10.5
			h11.5V75.9h2.9c6.3,0,11.4-6.2,11.4-13.8C96.2,54.5,91.4,48.3,85.2,48.3z M81.9,74.7H70.4H53.3H41.6h-1.4
			c-5.6,0-10.2-5.6-10.2-12.5s4.6-12.5,10.2-12.5h16.6h11.4h17c5.5,0,9.8,5.5,9.8,12.5c0,6.9-4.6,12.5-10.2,12.5H81.9z M80.7,85.2
			h-9.1v-9.3h9.1C80.7,75.8,80.7,85.2,80.7,85.2z M52,85.3h-9.2v-9.5H52V85.3z M58,39.5h8.9v8.8H58V39.5z"/>
	</g>
</g>
<g>
	<path d="M53.9,68.6c-1,0.4-3,0.8-4.9,0.8c-2.7,0-4.7-0.7-6-2c-1.4-1.3-2.1-3.2-2.1-5.4c0-4.9,3.6-7.7,8.4-7.7
		c1.9,0,3.4,0.4,4.1,0.7l-0.7,2.7c-0.8-0.4-1.8-0.6-3.4-0.6c-2.8,0-4.9,1.6-4.9,4.8c0,3,1.9,4.8,4.7,4.8c0.8,0,1.4-0.1,1.6-0.2v-3.1
		h-2.3v-2.6h5.5V68.6z"/>
	<path d="M61.3,65.5l-1.1,3.8h-3.5l4.5-14.8h4.4l4.6,14.8h-3.6l-1.1-3.8H61.3z M65.1,63l-0.9-3.1c-0.3-0.9-0.5-2-0.7-2.9h0
		c-0.2,0.9-0.4,2-0.7,2.9L61.8,63H65.1z"/>
	<path d="M73.7,65.9c0.9,0.5,2.3,0.9,3.7,0.9c1.5,0,2.3-0.6,2.3-1.6c0-0.9-0.7-1.4-2.5-2.1c-2.5-0.9-4.1-2.2-4.1-4.4
		c0-2.5,2.1-4.5,5.6-4.5c1.7,0,2.9,0.4,3.8,0.7l-0.7,2.7c-0.6-0.3-1.6-0.7-3.1-0.7s-2.2,0.7-2.2,1.4c0,0.9,0.8,1.4,2.7,2.1
		c2.6,1,3.8,2.3,3.8,4.4c0,2.5-1.9,4.6-6,4.6c-1.7,0-3.4-0.4-4.2-0.9L73.7,65.9z"/>
</g>
</svg>
