<?xml version="1.0" encoding="UTF-8" standalone="no"?>
<!-- Created with Inkscape (http://www.inkscape.org/) -->

<svg
   version="1.1"
   width="125"
   height="125"
   id="svg2"
   xml:space="preserve"
   inkscape:version="1.3.2 (091e20e, 2023-11-25, custom)"
   sodipodi:docname="EOS.svg"
   xmlns:inkscape="http://www.inkscape.org/namespaces/inkscape"
   xmlns:sodipodi="http://sodipodi.sourceforge.net/DTD/sodipodi-0.dtd"
   xmlns="http://www.w3.org/2000/svg"
   xmlns:svg="http://www.w3.org/2000/svg"
   xmlns:rdf="http://www.w3.org/1999/02/22-rdf-syntax-ns#"
   xmlns:cc="http://creativecommons.org/ns#"
   xmlns:dc="http://purl.org/dc/elements/1.1/"><sodipodi:namedview
     pagecolor="#ffffff"
     bordercolor="#666666"
     borderopacity="1"
     objecttolerance="10"
     gridtolerance="10"
     guidetolerance="10"
     inkscape:pageopacity="0"
     inkscape:pageshadow="2"
     inkscape:window-width="1920"
     inkscape:window-height="1017"
     id="namedview18"
     showgrid="false"
     inkscape:zoom="3.3303932"
     inkscape:cx="41.736813"
     inkscape:cy="88.127732"
     inkscape:window-x="3832"
     inkscape:window-y="131"
     inkscape:window-maximized="1"
     inkscape:current-layer="g6"
     borderlayer="false"
     inkscape:showpageshadow="2"
     inkscape:pagecheckerboard="0"
     inkscape:deskcolor="#d1d1d1" /><metadata
     id="metadata8"><rdf:RDF><cc:Work
         rdf:about=""><dc:format>image/svg+xml</dc:format><dc:type
           rdf:resource="http://purl.org/dc/dcmitype/StillImage" /></cc:Work></rdf:RDF></metadata><defs
     id="defs6"><clipPath
       id="clipPath18"><path
         d="M 0,566.93 V 0 h 566.934 v 566.93 z"
         id="path20"
         inkscape:connector-curvature="0" /></clipPath></defs><g
     id="rect2995"
     style="fill:#2a4797;fill-opacity:1"><path
       style="color:#000000;fill:#2a4797;-inkscape-stroke:none;fill-opacity:1"
       d="m 30.906527,30.902927 h 63.186946 c 0.002,0 0.0036,0.0016 0.0036,0.0036 v 63.186946 c 0,0.002 -0.0016,0.0036 -0.0036,0.0036 H 30.906527 c -0.002,0 -0.0036,-0.0016 -0.0036,-0.0036 V 30.906527 c 0,-0.002 0.0016,-0.0036 0.0036,-0.0036 z"
       id="path1" /><path
       style="color:#000000;fill:#2a4797;-inkscape-stroke:none;fill-opacity:1"
       d="m 30.90625,30 c -4.99e-4,0 -0.351132,0.07013 -0.351563,0.07031 -4.3e-4,1.82e-4 -0.288737,0.194988 -0.289062,0.195313 -3.25e-4,3.25e-4 -0.195131,0.288632 -0.195313,0.289062 C 30.070131,30.555118 30,30.905751 30,30.90625 v 63.1875 c 0,4.99e-4 0.07013,0.351132 0.07031,0.351562 1.82e-4,4.31e-4 0.194988,0.288738 0.195313,0.289063 3.25e-4,3.25e-4 0.288632,0.195131 0.289062,0.195312 C 30.555118,94.929869 30.905751,95 30.90625,95 h 63.1875 c 4.99e-4,0 0.351132,-0.07013 0.351562,-0.07031 4.31e-4,-1.81e-4 0.288738,-0.194987 0.289063,-0.195312 3.25e-4,-3.25e-4 0.195131,-0.288632 0.195312,-0.289063 C 94.929869,94.444882 95,94.094249 95,94.09375 v -63.1875 c 0,-4.99e-4 -0.07013,-0.351132 -0.07031,-0.351563 C 94.929506,30.554257 94.7347,30.26595 94.734375,30.265625 94.73405,30.2653 94.445743,30.070494 94.445312,30.070312 94.444882,30.070131 94.094249,30 94.09375,30 Z m 0.900391,1.806641 H 93.193359 V 93.193359 H 31.806641 Z"
       id="path4" /></g><rect
     style="fill:#ffffff;fill-opacity:1;stroke:none;stroke-width:6.24756;stroke-linecap:round;stroke-linejoin:round;paint-order:stroke markers fill"
     id="rect4"
     width="61.40416"
     height="61.40416"
     x="31.828074"
     y="31.828074" /><circle
     class="cls-2"
     cx="62.479137"
     cy="52.25005"
     r="15.911697"
     id="circle2"
     style="fill:#2a4797;stroke-width:0.374217" /><path
     class="cls-1"
     d="m 62.475394,40.581971 c 1.582937,0 2.866501,1.279821 2.866501,2.866501 0,1.586679 -1.279822,2.8665 -2.866501,2.8665 -1.586679,0 -2.8665,-1.279821 -2.8665,-2.8665 0,-1.58668 1.283563,-2.866501 2.8665,-2.866501 z m -2.282722,10.481812 c 0,-1.219947 0.50145,-2.282722 2.282722,-2.282722 1.781272,0 2.282722,1.062775 2.282722,2.282722 v 10.571624 c 0,1.219947 -0.50145,2.282722 -2.282722,2.282722 -1.781272,0 -2.282722,-1.062775 -2.282722,-2.282722 z"
     id="path2"
     style="fill:#ffffff;stroke-width:0.374217" /><g
     id="g6"><g
       id="g5"
       transform="matrix(0.37421678,0,0,0.37421678,25.631808,27.943568)"><path
         class="cls-2"
         d="m 88.17,128.47 v -5.04 h -5.04 v -5.02 h -7.19 v -5.06 h -8.38 v 5.06 H 43.59 v -5.06 h -8.38 v 5.06 h -7.2 v 36.1 h 5.04 v 5.02 h 5.04 v 5.04 h 55.12 v -36.1 z m -58.49,24.38 v -32.77 h 51.78 v 32.77 z m 5.04,5.02 v -3.35 h 48.41 v -29.41 h 3.37 v 32.77 H 34.72 Z m 56.82,5.04 H 39.76 v -3.37 h 48.41 v -29.4 h 3.37 z"
         id="path3"
         style="fill:#2a4797" /><g
         id="g4"><rect
           class="cls-2"
           x="34.82"
           y="127.81"
           width="9.1800003"
           height="1.89"
           id="rect3"
           style="fill:#2a4797" /><polygon
           class="cls-2"
           points="70.81,127.81 67.17,127.81 67.17,129.7 70.81,129.7 70.81,133.34 72.7,133.34 72.7,129.7 76.34,129.7 76.34,127.81 72.7,127.81 72.7,124.17 70.81,124.17 "
           id="polygon3"
           style="fill:#2a4797" /></g></g><g
       id="g7"
       transform="matrix(0.37421678,0,0,0.37421678,25.631808,27.943568)"><path
         class="cls-3"
         d="m 101.12,129.03 h 19.07 v 4.99 h -12.83 v 4.19 h 11.73 v 4.83 h -11.73 v 4.56 h 13.17 v 5.36 h -19.4 v -23.92 z"
         id="path5"
         style="fill:#1d1d1b" /><path
         class="cls-3"
         d="m 134.96,128.53 c 7.54,0 11.79,5.53 11.79,12.46 0,6.93 -4.26,12.47 -11.79,12.47 -7.53,0 -11.79,-5.53 -11.79,-12.47 0,-6.94 4.25,-12.46 11.79,-12.46 z m 0,19.57 c 4.02,0 5.56,-3.55 5.56,-7.1 0,-3.55 -1.54,-7.1 -5.56,-7.1 -4.02,0 -5.56,3.55 -5.56,7.1 0,3.55 1.54,7.1 5.56,7.1 z"
         id="path6"
         style="fill:#1d1d1b" /><path
         class="cls-3"
         d="m 155,144.91 c 0.13,2.81 1.88,3.72 4.52,3.72 1.88,0 3.82,-0.67 3.82,-2.45 0,-2.11 -3.42,-2.51 -6.87,-3.48 -3.42,-0.97 -7,-2.51 -7,-6.9 0,-5.23 5.26,-7.27 9.75,-7.27 4.76,0 9.55,2.31 9.58,7.71 h -6.23 c 0.1,-2.18 -1.94,-2.88 -3.85,-2.88 -1.34,0 -3.02,0.47 -3.02,2.04 0,1.84 3.45,2.18 6.94,3.15 3.45,0.97 6.94,2.58 6.94,6.9 0,6.07 -5.16,8.01 -10.42,8.01 -5.26,0 -10.35,-2.41 -10.39,-8.54 H 155 Z"
         id="path7"
         style="fill:#1d1d1b" /></g></g></svg>
