<?xml version="1.0" encoding="utf-8"?>
<svg width="125" height="125" id="Layer_1" xmlns="http://www.w3.org/2000/svg" version="1.1" viewBox="0 0 125 125">
  <defs>
    <style>
      .st0 {
        fill: #fff;
      }

      .st1 {
        isolation: isolate;
      }

      .st2 {
        fill: none;
        stroke-width: 6px;
      }

      .st2, .st3 {
        stroke: #000;
        stroke-miterlimit: 10;
      }

      .st3 {
        fill: #e4151c;
        fill-rule: evenodd;
      }
    </style>
  </defs>
  <g transform="matrix(1, 0, 0, 1, 29.500005, 29.500005)">
    <g>
      <g transform="matrix(0.984849, 0, 0, 0.984849, 0.499982, 0.499982)">
        <rect class="st0" x="3.5" y="3.5" width="59" height="59"/>
        <path d="M61,5v56H5V5h56M64,2H2v62h62V2h0Z"/>
        <path class="st0" d="M64,2v62H2V2h62M66,0H0v66h66V0h0Z"/>
      </g>
      <g class="st1">
        <path d="M22.9,12.9v1.9c-.7-.4-1.5-.6-2.1-.8s-1.3-.3-1.9-.3c-1.1,0-1.9.2-2.5.6s-.9,1-.9,1.8.2,1.1.6,1.5,1.1.6,2.2.8l1.2.2c1.5.3,2.6.8,3.3,1.5s1,1.7,1,2.8-.5,2.5-1.4,3.2-2.3,1.1-4.2,1.1-1.4,0-2.2-.2-1.6-.4-2.4-.7v-2c.8.4,1.6.8,2.4,1s1.5.3,2.3.3c1.1,0,2-.2,2.6-.7s.9-1.1.9-1.9-.2-1.3-.7-1.7-1.2-.7-2.2-.9l-1.2-.2c-1.5-.3-2.5-.8-3.2-1.4s-1-1.5-1-2.6.5-2.3,1.4-3,2.2-1.1,3.8-1.1,1.4,0,2.1.2,1.4.3,2.2.6Z"/>
        <path d="M30.6,27l-5.6-14.6h2.1l4.6,12.3,4.6-12.3h2.1l-5.6,14.6h-2.2Z"/>
        <path d="M40.5,12.4h2.9l3.7,9.9,3.7-9.9h2.9v14.6h-1.9v-12.8l-3.8,10h-2l-3.8-10v12.8h-1.9v-14.6h0Z"/>
      </g>
      <path class="st3" d="M 49.3 28.4 L 34.3 37.6 C 33.5 38.1 32.5 38.1 31.8 37.6 L 16.8 28.4 C 15.2 27.4 13.1 28.6 13.1 30.5 L 13.1 48.6 C 13.1 50.5 15.2 51.7 16.8 50.7 L 31.8 41.5 C 32.6 41 33.6 41 34.3 41.5 L 49.3 50.7 C 50.9 51.7 53 50.5 53 48.6 L 53 30.5 C 53 28.6 50.9 27.4 49.3 28.4 Z"/>
      <line class="st2" x1="59" y1="39.5" x2="53" y2="39.5"/>
      <line class="st2" x1="13" y1="39.5" x2="7" y2="39.5"/>
    </g>
  </g>
</svg>