<?xml version="1.0" encoding="UTF-8"?>
<svg width="512" height="512" clip-rule="evenodd" version="1.1" xml:space="preserve" xmlns="http://www.w3.org/2000/svg">

 <g>
  <title>Layer 1</title>
  <g>
   <path d="m448 255c0-106-86-192-192-192s-192 86-192 192 86 192 192 192 192-86 192-192z" fill="#ff0" stroke="#000" stroke-width="16px"/>
   <path d="m250.26 166.05 5.74 121.95 5.73-121.95c4e-3 -0.087 6e-3 -0.173 6e-3 -0.26 0-3.149-2.591-5.74-5.74-5.74h-0.056c-3.128 0.029-5.686 2.611-5.686 5.74 0 0.087 2e-3 0.173 6e-3 0.26z" fill="none" stroke="#000" stroke-linecap="round" stroke-linejoin="round" stroke-width="32px"/>
   <path d="m256 367.91c-10.972 0-20-9.028-20-20s9.028-20 20-20 20 9.028 20 20-9.028 20-20 20z"/>
  </g>
 </g>
</svg>
