<?xml version="1.0" encoding="UTF-8" standalone="no"?>
<!DOCTYPE svg PUBLIC "-//W3C//DTD SVG 1.1//EN" "http://www.w3.org/Graphics/SVG/1.1/DTD/svg11.dtd">
<svg width="512" height="512" xmlns="http://www.w3.org/2000/svg" clip-rule="evenodd" xml:space="preserve" version="1.1">

 <g>
  <title>Layer 1</title>
  <g id="svg_4">
   <path id="svg_1" stroke-width="16px" stroke="black" fill-rule="nonzero" fill="rgb(255,255,0)" d="m448,255c0,-106 -86,-192 -192,-192c-106,0 -192,86 -192,192c0,106 86,192 192,192c106,0 192,-86 192,-192z"/>
   <path id="svg_2" stroke-miterlimit="4" stroke-linejoin="round" stroke-linecap="round" stroke-width="32px" stroke="black" fill-rule="nonzero" fill="none" d="m250.26,166.05l5.74,121.95l5.73,-121.95c0.004,-0.087 0.006,-0.173 0.006,-0.26c0,-3.149 -2.591,-5.74 -5.74,-5.74c-0.019,0 -0.037,0 -0.056,0c-3.128,0.029 -5.686,2.611 -5.686,5.74c0,0.087 0.002,0.173 0.006,0.26z"/>
   <path id="svg_3" fill-rule="nonzero" d="m256,367.91c-10.972,0 -20,-9.028 -20,-20c0,-10.972 9.028,-20 20,-20c10.972,0 20,9.028 20,20c0,10.972 -9.028,20 -20,20z"/>
  </g>
 </g>
</svg>
