<svg id="Laag_2" data-name="Laag 2" xmlns="http://www.w3.org/2000/svg" viewBox="0 0 125 125"><defs><style>.cls-1{fill:#c20e1a;}.cls-2{fill:#fff;}</style></defs><g id="Laag_3" data-name="Laag 3"><path class="cls-1" d="M105.67,95H19.33V30h86.34ZM96.92,38.67H28.17V86.33H96.92Z"/><rect class="cls-2" x="28.17" y="38.67" width="68.75" height="47.67"/></g><path d="M47.81,44.93h14a40.81,40.81,0,0,1,6.21.34,9.14,9.14,0,0,1,3.66,1.45,8.84,8.84,0,0,1,2.69,2.93,7.92,7.92,0,0,1,1.08,4.1,8.3,8.3,0,0,1-4.93,7.61,9.21,9.21,0,0,1,4.93,3.18,8.45,8.45,0,0,1,1.72,5.29,10.46,10.46,0,0,1-1.11,4.66,9.35,9.35,0,0,1-3,3.61,10.07,10.07,0,0,1-4.75,1.66q-1.77.19-8.54.24H47.81Zm7.08,5.83v8.11h4.65c2.75,0,4.47,0,5.14-.12a4.7,4.7,0,0,0,2.86-1.25,3.73,3.73,0,0,0,1-2.74,3.85,3.85,0,0,0-.9-2.65A4.14,4.14,0,0,0,65,50.88Q64,50.76,59,50.76Zm0,13.95v9.38h6.56a33,33,0,0,0,4.86-.21,4.44,4.44,0,0,0,2.57-1.4,4.34,4.34,0,0,0,1-3,4.55,4.55,0,0,0-.76-2.68,4.37,4.37,0,0,0-2.22-1.61,24.31,24.31,0,0,0-6.28-.5Z"/></svg>