<?xml version="1.0" encoding="UTF-8"?>
<!-- Generator: Adobe Illustrator 24.1.0, SVG Export Plug-In . SVG Version: 6.00 Build 0)  -->
<svg width="125" height="125" version="1.1" viewBox="0 0 125 125" xml:space="preserve" xmlns="http://www.w3.org/2000/svg" xmlns:cc="http://creativecommons.org/ns#" xmlns:dc="http://purl.org/dc/elements/1.1/" xmlns:rdf="http://www.w3.org/1999/02/22-rdf-syntax-ns#"><metadata><rdf:RDF><cc:Work rdf:about=""><dc:format>image/svg+xml</dc:format><dc:type rdf:resource="http://purl.org/dc/dcmitype/StillImage"/></cc:Work></rdf:RDF></metadata>
<style type="text/css">
	.st0{fill:#FFFFFF;stroke:#000000;stroke-width:2;}
	.st1{fill-rule:evenodd;clip-rule:evenodd;fill:#231F20;}
	.st2{fill:#231F20;}
	.st3{fill:#FCD205;}
	.st4{font-family:'Arial-BoldMT';}
	.st5{font-size:17.927px;}
</style>




<g transform="translate(-.066764 1.9787)"><g transform="translate(.066764 -1.9787)" data-name="Laag 3"><path class="cls-1" d="m105.67 95h-86.34v-65h86.34zm-8.75-56.33h-68.75v47.66h68.75z" fill="#c20e1a"/><rect class="cls-2" x="28.17" y="38.67" width="68.75" height="47.67" fill="#fff"/></g><path d="m47.877 42.951h14a40.81 40.81 0 0 1 6.21 0.34 9.14 9.14 0 0 1 3.66 1.45 8.84 8.84 0 0 1 2.69 2.93 7.92 7.92 0 0 1 1.08 4.1 8.3 8.3 0 0 1-4.93 7.61 9.21 9.21 0 0 1 4.93 3.18 8.45 8.45 0 0 1 1.72 5.29 10.46 10.46 0 0 1-1.11 4.66 9.35 9.35 0 0 1-3 3.61 10.07 10.07 0 0 1-4.75 1.66q-1.77 0.19-8.54 0.24h-11.96zm7.08 5.83v8.11h4.65c2.75 0 4.47 0 5.14-0.12a4.7 4.7 0 0 0 2.86-1.25 3.73 3.73 0 0 0 1-2.74 3.85 3.85 0 0 0-0.9-2.65 4.14 4.14 0 0 0-2.64-1.23q-1-0.12-6-0.12zm0 13.95v9.38h6.56a33 33 0 0 0 4.86-0.21 4.44 4.44 0 0 0 2.57-1.4 4.34 4.34 0 0 0 1-3 4.55 4.55 0 0 0-0.76-2.68 4.37 4.37 0 0 0-2.22-1.61 24.31 24.31 0 0 0-6.28-0.5z"/></g></svg>
