<?xml version="1.0" encoding="UTF-8"?>
<!-- Generator: Adobe Illustrator 24.1.0, SVG Export Plug-In . SVG Version: 6.00 Build 0)  -->
<svg width="125" height="125" version="1.1" viewBox="0 0 125 125" xml:space="preserve" xmlns="http://www.w3.org/2000/svg" xmlns:cc="http://creativecommons.org/ns#" xmlns:dc="http://purl.org/dc/elements/1.1/" xmlns:rdf="http://www.w3.org/1999/02/22-rdf-syntax-ns#"><metadata><rdf:RDF><cc:Work rdf:about=""><dc:format>image/svg+xml</dc:format><dc:type rdf:resource="http://purl.org/dc/dcmitype/StillImage"/></cc:Work></rdf:RDF></metadata>
<style type="text/css">
	.st0{fill:#FFFFFF;stroke:#000000;stroke-width:2;}
	.st1{fill-rule:evenodd;clip-rule:evenodd;fill:#231F20;}
	.st2{fill:#231F20;}
	.st3{fill:#FCD205;}
	.st4{font-family:'Arial-BoldMT';}
	.st5{font-size:17.927px;}
</style>



<polygon class="st0" transform="matrix(.9041 0 0 .90141 30.495 30.68)" points="0.4 0.3 70.4 0.3 70.4 70.3 0.4 70.3" fill="#fff" stroke="#000" stroke-width="2"/>
<g transform="matrix(.95458 0 0 .97733 2.7748 3.3514)"><g transform="matrix(.72776 0 0 .72776 17.402 14.974)"><g data-name="Laag 2"><polygon class="cls-1" points="63 83.11 63 43.89 83.44 43.89 83.44 94.11 18.44 94.56 18.44 43.89 38.78 43.89 38.78 83.11" fill="#fff" stroke="#000" stroke-miterlimit="10" stroke-width="1.5px"/><g fill="none" stroke="#000" stroke-miterlimit="10"><polyline class="cls-2" points="28.44 44 28.44 89 73.44 89 73.44 43.78"/><g stroke-width=".5px"><line class="cls-3" x1="63" x2="83.5" y1="48.5" y2="48.5"/><line class="cls-3" x1="63" x2="83.5" y1="53" y2="53"/><line class="cls-3" x1="63" x2="83.5" y1="57.56" y2="57.56"/><line class="cls-3" x1="63" x2="83.5" y1="61.5" y2="61.5"/><line class="cls-3" x1="63" x2="83.5" y1="65.94" y2="65.94"/><line class="cls-3" x1="63" x2="83.5" y1="70.44" y2="70.44"/><line class="cls-3" x1="63" x2="83.5" y1="74.94" y2="74.94"/><line class="cls-3" x1="18.44" x2="38.94" y1="48.5" y2="48.5"/><line class="cls-3" x1="18.44" x2="38.94" y1="53" y2="53"/><line class="cls-3" x1="18.44" x2="38.94" y1="57.56" y2="57.56"/><line class="cls-3" x1="18.44" x2="38.94" y1="61.5" y2="61.5"/><line class="cls-3" x1="18.44" x2="38.94" y1="65.94" y2="65.94"/><line class="cls-3" x1="18.44" x2="38.94" y1="70.44" y2="70.44"/><line class="cls-3" x1="18.44" x2="38.94" y1="74.94" y2="74.94"/></g></g><polygon points="73.42 61.96 75.5 57.63 71 57.63"/><polygon points="47.67 89.17 52 91.25 52 86.75"/><polygon points="28.28 57.39 26.19 61.72 30.69 61.72"/></g><g data-name="Laag 3"><polygon class="cls-1" points="61.13 42.06 61.13 81.28 40.68 81.28 40.68 31.06 105.68 30.61 105.68 81.28 85.35 81.28 85.35 42.06" fill="#fff" stroke="#000" stroke-miterlimit="10" stroke-width="1.5px"/><g fill="none" stroke="#000" stroke-miterlimit="10"><polyline class="cls-2" points="95.68 81.17 95.68 36.17 50.68 36.17 50.68 81.39"/><g stroke-width=".5px"><line class="cls-3" x1="61.13" x2="40.63" y1="76.67" y2="76.67"/><line class="cls-3" x1="61.13" x2="40.63" y1="72.17" y2="72.17"/><line class="cls-3" x1="61.13" x2="40.63" y1="67.62" y2="67.62"/><line class="cls-3" x1="61.13" x2="40.63" y1="63.67" y2="63.67"/><line class="cls-3" x1="61.13" x2="40.63" y1="59.23" y2="59.23"/><line class="cls-3" x1="61.13" x2="40.63" y1="54.73" y2="54.73"/><line class="cls-3" x1="61.13" x2="40.63" y1="50.23" y2="50.23"/><line class="cls-3" x1="105.68" x2="85.18" y1="76.67" y2="76.67"/><line class="cls-3" x1="105.68" x2="85.18" y1="72.17" y2="72.17"/><line class="cls-3" x1="105.68" x2="85.18" y1="67.62" y2="67.62"/><line class="cls-3" x1="105.68" x2="85.18" y1="63.67" y2="63.67"/><line class="cls-3" x1="105.68" x2="85.18" y1="59.23" y2="59.23"/><line class="cls-3" x1="105.68" x2="85.18" y1="54.73" y2="54.73"/><line class="cls-3" x1="105.68" x2="85.18" y1="50.23" y2="50.23"/></g></g><polygon points="50.71 63.21 48.63 67.55 53.13 67.55"/><polygon points="76.46 36 72.13 33.92 72.13 38.42"/><polygon points="95.85 67.78 97.93 63.45 93.43 63.45"/></g></g></g></svg>
