<svg xmlns="http://www.w3.org/2000/svg" viewBox="0 0 125 125"><defs><style>.cls-1{fill:#fff;stroke-width:1.5px;}.cls-1,.cls-2,.cls-3{stroke:#000;stroke-miterlimit:10;}.cls-2,.cls-3{fill:none;}.cls-3{stroke-width:0.5px;}</style></defs><g id="Laag_2" data-name="Laag 2"><polygon class="cls-1" points="18.44 43.89 38.78 43.89 38.78 83.11 63 83.11 63 43.89 83.44 43.89 83.44 94.11 18.44 94.56 18.44 43.89"/><polyline class="cls-2" points="28.44 44 28.44 89 73.44 89 73.44 43.78"/><line class="cls-3" x1="63" y1="48.5" x2="83.5" y2="48.5"/><line class="cls-3" x1="63" y1="53" x2="83.5" y2="53"/><line class="cls-3" x1="63" y1="57.56" x2="83.5" y2="57.56"/><line class="cls-3" x1="63" y1="61.5" x2="83.5" y2="61.5"/><line class="cls-3" x1="63" y1="65.94" x2="83.5" y2="65.94"/><line class="cls-3" x1="63" y1="70.44" x2="83.5" y2="70.44"/><line class="cls-3" x1="63" y1="74.94" x2="83.5" y2="74.94"/><line class="cls-3" x1="18.44" y1="48.5" x2="38.94" y2="48.5"/><line class="cls-3" x1="18.44" y1="53" x2="38.94" y2="53"/><line class="cls-3" x1="18.44" y1="57.56" x2="38.94" y2="57.56"/><line class="cls-3" x1="18.44" y1="61.5" x2="38.94" y2="61.5"/><line class="cls-3" x1="18.44" y1="65.94" x2="38.94" y2="65.94"/><line class="cls-3" x1="18.44" y1="70.44" x2="38.94" y2="70.44"/><line class="cls-3" x1="18.44" y1="74.94" x2="38.94" y2="74.94"/><polygon points="73.42 61.96 75.5 57.63 71 57.63 73.42 61.96"/><polygon points="47.67 89.17 52 91.25 52 86.75 47.67 89.17"/><polygon points="28.28 57.39 26.19 61.72 30.69 61.72 28.28 57.39"/></g><g id="Laag_3" data-name="Laag 3"><polygon class="cls-1" points="105.68 81.28 85.35 81.28 85.35 42.06 61.13 42.06 61.13 81.28 40.68 81.28 40.68 31.06 105.68 30.61 105.68 81.28"/><polyline class="cls-2" points="95.68 81.17 95.68 36.17 50.68 36.17 50.68 81.39"/><line class="cls-3" x1="61.13" y1="76.67" x2="40.63" y2="76.67"/><line class="cls-3" x1="61.13" y1="72.17" x2="40.63" y2="72.17"/><line class="cls-3" x1="61.13" y1="67.62" x2="40.63" y2="67.62"/><line class="cls-3" x1="61.13" y1="63.67" x2="40.63" y2="63.67"/><line class="cls-3" x1="61.13" y1="59.23" x2="40.63" y2="59.23"/><line class="cls-3" x1="61.13" y1="54.73" x2="40.63" y2="54.73"/><line class="cls-3" x1="61.13" y1="50.23" x2="40.63" y2="50.23"/><line class="cls-3" x1="105.68" y1="76.67" x2="85.18" y2="76.67"/><line class="cls-3" x1="105.68" y1="72.17" x2="85.18" y2="72.17"/><line class="cls-3" x1="105.68" y1="67.62" x2="85.18" y2="67.62"/><line class="cls-3" x1="105.68" y1="63.67" x2="85.18" y2="63.67"/><line class="cls-3" x1="105.68" y1="59.23" x2="85.18" y2="59.23"/><line class="cls-3" x1="105.68" y1="54.73" x2="85.18" y2="54.73"/><line class="cls-3" x1="105.68" y1="50.23" x2="85.18" y2="50.23"/><polygon points="50.71 63.21 48.63 67.55 53.13 67.55 50.71 63.21"/><polygon points="76.46 36 72.13 33.92 72.13 38.42 76.46 36"/><polygon points="95.85 67.78 97.93 63.45 93.43 63.45 95.85 67.78"/></g></svg>