<?xml version="1.0" encoding="UTF-8"?>
<svg id="Tek" xmlns="http://www.w3.org/2000/svg" viewBox="0 0 198 198">
  <defs>
    <style>
      .cls-1 {
        fill: #ffce58;
      }

      .cls-2 {
        fill: #fff;
      }

      .cls-3 {
        fill: #fa0000;
      }
    </style>
  </defs>
  <path class="cls-3" d="M97.31,5.58c-34.78,0-62.98,28.2-62.98,62.98,0,5.18.64,10.22,1.82,15.04,0,.04.01.08.02.12,0,.03.02.06.03.09.71,2.85,1.62,5.62,2.7,8.3,19.18,49.64,54.79,98.44,54.79,98.44,1.59,2.83,5.66,2.83,7.25,0,0,0,34.9-48.08,53.12-94.64,1.86-3.84,5.21-15.33,5.34-16.83.58-3.42.89-6.93.89-10.52,0-34.78-28.2-62.98-62.98-62.98Z"/>
  <circle class="cls-2" cx="97.31" cy="67.45" r="39.87" transform="translate(-19.19 88.56) rotate(-45)"/>
  <rect class="cls-3" x="57.41" y="82.31" width="79.79" height="25.79"/>
  <g>
    <path d="M124.64,43.2c-.92.18-2.12-.37-2.73.34-.61.71-2.75,2.95-3.77,3.93-.04.04-.07.08-.11.12h-2.41v.69h2.86v-.29c.13-.05.28-.12.45-.21,1.13-.61,2.18-2.18,3.19-2.12,2.02.12,1.96-.07,2.7-.87s1.1-.49,2.73-.44c1.66.05,1.72-.52,2.2-1.21,1.2-1.68-2.02-1.87-2.66-1.87-1.1,0-1.53,1.75-2.45,1.93Z"/>
    <polygon points="105.31 43.73 102.46 43.73 102.01 64.32 105.72 62.08 105.31 43.73"/>
    <polygon points="115.64 49.4 115.26 65.79 118.8 63.63 118.48 49.4 115.64 49.4"/>
    <path d="M105.32,42.35c1.54-1.08,3.68-1.12,4.1-1.11.96.03,3.98,1.29,4.79,1.09.81-.2,2.6-1.71,3.12-1.7.75.01,4.22.53,4.58.38,1.04-.43,2.47-1.85,3.28-2.05.81-.2,1.4.47,2.21.67.81.2,1.69-.37,2.2-.85.51-.48-.3-1.29-.91-1.7-.61-.41-2.07-1.01-3.88-.41-1.8.61-1.77,1.62-3.21,1.72s-3.77-.41-4.58-.1c-.81.3-2.29,2.15-2.97,2.07-1.53-.18-3.68-.44-5-.52-1.11-.07-2.82,1.29-3.94,2.05h-2.66v.69h2.86v-.24Z"/>
    <path d="M65.44,38.78v43.53h15.69v-15.76l14.35-8.58v-19.18h-30.03ZM74.72,57.34h-6.63v-6.63h6.63v6.63ZM74.72,48.08h-6.63v-6.63h6.63v6.63ZM83.77,57.34h-6.63v-6.63h6.63v6.63ZM83.77,48.08h-6.63v-6.63h6.63v6.63ZM92.82,57.34h-6.63v-6.63h6.63v6.63ZM92.82,48.08h-6.63v-6.63h6.63v6.63Z"/>
    <polygon points="126.26 61.12 115.1 67.91 110.95 61.12 99.69 67.91 95.74 61.12 84.38 67.91 84.38 82.31 130.01 82.31 130.01 67.91 126.26 61.12"/>
  </g>
  <g>
    <path class="cls-1" d="M93.28,119.99c-2.29-5.73-7.37-10.25-9.03-15.28-1.59.5-3.09,1.08-4.44,1.77.55,12.92,7.69,21.2,13.48,25.54,1.88-5.17,1.39-8.52,0-12.02Z"/>
    <g>
      <path class="cls-1" d="M105.95,97.46c5.68.8,10.96,2.4,15.11,4.82-.01,9.1-2.58,16.52-6.13,22.37l5.47,6.26c4.93-7.53,8.56-17.33,8.56-29.6-6.4-4.77-15.92-7.53-25.93-8.29.81,1.48,1.84,3.04,2.94,4.44Z"/>
      <path class="cls-1" d="M73.56,102.28c.01,9.1,2.58,16.52,6.13,22.37l-5.47,6.26c-4.93-7.53-8.56-17.33-8.56-29.6,4.86-3.62,11.51-6.08,18.81-7.39-.53,1.59-.83,3.1-.94,4.51-3.71.9-7.12,2.17-9.99,3.85Z"/>
    </g>
    <path class="cls-1" d="M97.3,150.21c-3.98-1.36-10.4-4.97-16.42-11.06l5.4-6.18c4,3.95,8.12,6.52,11.02,7.82,2.9-1.3,7.02-3.88,11.02-7.82l5.4,6.18c-6.02,6.09-12.44,9.7-16.42,11.06Z"/>
    <path class="cls-1" d="M105.55,119.94c4.48-6.06,4.45-11.85,3.73-15.55,2,.55,3.87,1.24,5.52,2.08-.69,16.21-11.76,25.13-17.49,28.11-.78-.41-1.67-.94-2.62-1.57,10.08-12.44.32-24.2-1.4-26.59-1.74-2.4-3.86-6.01-4.59-9.27-1.2-5.33-.29-12.77,8.04-20.55l.56.23c-4.01,7.5-3.56,11.73-1.89,16.41,1.84,5.13,8.5,11.98,9.88,18.14.54,2.39.63,5.26-.21,8.43l.45.14Z"/>
  </g>
</svg>
