<?xml version="1.0" encoding="UTF-8"?>
<svg id="BG" xmlns="http://www.w3.org/2000/svg" viewBox="0 0 198.43 198.43">
  <defs>
    <style>
      .cls-1, .cls-2 {
        fill: #ffec00;
      }

      .cls-1, .cls-2, .cls-3, .cls-4 {
        fill-rule: evenodd;
      }

      .cls-1, .cls-3 {
        stroke: #f8d900;
      }

      .cls-1, .cls-3, .cls-4 {
        stroke-miterlimit: 22.93;
        stroke-width: .18px;
      }

      .cls-3, .cls-4 {
        fill: #1a1a18;
      }

      .cls-4 {
        stroke: #000003;
      }
    </style>
  </defs>
  <path class="cls-1" d="M99.21,191.34c50.74,0,92.13-41.38,92.13-92.13S149.95,7.09,99.21,7.09,7.09,48.47,7.09,99.21s41.38,92.13,92.13,92.13Z"/>
  <path class="cls-3" d="M99.21,188.37c49.11,0,89.16-40.05,89.16-89.16S148.32,10.05,99.21,10.05,10.05,50.1,10.05,99.21s40.05,89.16,89.16,89.16Z"/>
  <path class="cls-1" d="M13.29,89.62l.22.02c0,.36.02.66.09.9.06.23.18.45.36.64.24.27.58.45,1.03.54.34.07.73.11,1.17.15l7.08.54c.53.04.96.05,1.27.02.31-.03.56-.09.76-.2.27-.14.48-.35.62-.6.14-.25.25-.59.31-1.03l.22.02-.46,6.11-.22-.02c0-.37-.02-.67-.09-.91-.07-.23-.19-.44-.35-.63-.19-.22-.44-.38-.75-.47-.31-.09-.79-.17-1.45-.22l-7.08-.54c-.66-.05-1.15-.05-1.47,0-.32.05-.59.17-.81.35-.2.16-.35.35-.45.58-.1.22-.17.52-.22.88l-.22-.02.46-6.11h0ZM15.82,84.74l13.15-6.27.1-.42-9.87-2.28c-.63-.15-1.1-.29-1.39-.44-.29-.14-.52-.33-.67-.57-.28-.44-.35-.96-.21-1.59l-.21-.05-1,4.32.21.05c.1-.35.22-.63.35-.83.13-.2.31-.37.53-.5.25-.15.53-.22.85-.22.32,0,.81.07,1.45.22l6.78,1.56-11.48,5.37-.83,3.61.21.05c.1-.36.22-.64.35-.84.13-.2.31-.37.53-.49.25-.15.53-.22.86-.22.33,0,.81.07,1.44.22l6.93,1.6c.64.15,1.11.29,1.4.44.29.14.52.33.67.57.14.22.23.45.26.69.03.24.01.54-.05.9l.21.05,1-4.32-.21-.05c-.1.35-.22.63-.35.83-.13.2-.31.37-.53.5-.25.15-.53.22-.85.22-.32,0-.81-.07-1.45-.22l-8.17-1.88h0ZM22.84,58.9l3.91,1.64-.09.2c-.2-.01-.35-.02-.45-.03-.65-.05-1.15-.07-1.48-.07-.6,0-1.2.13-1.8.38-.46.19-.84.43-1.14.71-.3.29-.55.65-.75,1.09-.3.66-.41,1.3-.35,1.91.06.54.24,1.1.54,1.68.3.58.7,1.13,1.2,1.63.7.72,1.59,1.32,2.67,1.81.92.41,1.8.67,2.63.78.84.1,1.61.05,2.3-.17,1.29-.39,2.23-1.25,2.84-2.59.3-.67.46-1.32.47-1.96.01-.64-.13-1.2-.42-1.68-.33-.56-.88-1.1-1.63-1.62l.13-.18c.87.53,1.49,1.11,1.86,1.75.35.61.51,1.3.49,2.09-.02.78-.23,1.61-.62,2.47-.36.8-.83,1.52-1.41,2.15-.92,1-2.03,1.6-3.34,1.81-1.3.21-2.66,0-4.05-.64-1.07-.48-1.97-1.12-2.7-1.91-.73-.79-1.21-1.66-1.45-2.6-.18-.72-.23-1.51-.14-2.36.09-.85.3-1.65.63-2.39.32-.71.79-1.39,1.42-2.06l.56-.61c.12-.12.2-.23.25-.33.07-.15.06-.29-.02-.44-.04-.07-.11-.16-.22-.28l.15-.19h0ZM27.75,51.05l-3.31,5.16.18.12c.21-.3.42-.52.61-.67.19-.15.42-.25.67-.29.28-.06.58-.04.88.07.3.11.73.34,1.29.7l5.98,3.83c.56.36.95.65,1.18.88.23.23.37.49.43.77.06.24.06.48.01.72-.05.24-.17.52-.35.84l.18.12,3.31-5.16-.18-.12c-.26.35-.51.61-.76.76-.25.15-.52.23-.83.23-.22,0-.47-.07-.76-.19-.29-.13-.65-.33-1.11-.62l-5.98-3.83c-.37-.24-.69-.47-.96-.68-.35-.29-.57-.62-.65-.96-.06-.25-.06-.5-.01-.73.06-.24.17-.51.35-.83l-.18-.12h0ZM38.94,56.9c.23-.29.38-.55.47-.78.09-.22.12-.46.09-.72-.03-.28-.14-.56-.33-.82-.19-.27-.54-.61-1.03-1.04l-5.37-4.65c-.53-.46-.95-.77-1.26-.92-.3-.15-.62-.2-.94-.15-.41.07-.82.32-1.24.76l-.16-.14,3.46-4c.77-.89,1.27-1.44,1.5-1.67.96-.96,2.01-1.57,3.13-1.85,1.07-.26,2.15-.25,3.26.05,1.11.3,2.12.84,3.03,1.64.67.58,1.21,1.23,1.62,1.97.41.73.64,1.46.7,2.18.09,1.02-.14,1.99-.69,2.93-.41.7-.89,1.36-1.43,1.98l-4.65,5.37-.16-.14h0ZM32.09,45.52l.76-.88c.55-.63,1.05-1.11,1.52-1.42.86-.57,1.84-.84,2.96-.82.8.01,1.61.19,2.41.52.8.33,1.55.79,2.24,1.39.62.54,1.13,1.13,1.54,1.78.4.65.67,1.33.82,2.03.15.72.14,1.38-.03,1.97-.17.59-.51,1.19-1.03,1.79-.61.7-1.23,1.04-1.88,1.02-.3,0-.6-.09-.89-.25-.29-.16-.68-.45-1.16-.86l-7.24-6.27h0ZM49.26,29.16l-8.13,6.39.13.17c.31-.22.58-.36.81-.44.23-.08.47-.1.72-.06.29.04.55.16.81.36.26.2.58.56.99,1.08l4.39,5.58c.41.52.68.92.82,1.22.14.29.19.58.16.87-.03.26-.1.49-.23.7-.13.2-.33.43-.61.67l.13.17,9.03-7.1-2.27-3.08-.18.13c.26.53.44.98.55,1.34.1.37.15.73.14,1.09,0,.53-.15,1.02-.43,1.5-.29.47-.73.95-1.34,1.42-.58.45-1.11.74-1.6.85-.49.11-.96.05-1.42-.18-.27-.13-.54-.34-.82-.63-.28-.29-.7-.78-1.24-1.47l-1.36-1.73.43-.34c.37-.29.71-.5,1.02-.61.3-.12.59-.15.87-.11.29.04.57.15.84.31.27.17.59.43.94.78l.17-.13-3.15-4.08-.18.13c.26.42.43.76.52,1.01.09.25.12.51.09.77-.02.27-.13.53-.31.77-.19.24-.51.54-.97.91l-.46.36-3.58-4.55,1.74-1.36c.53-.42.99-.72,1.38-.9.38-.18.76-.28,1.14-.29.45-.01.87.06,1.24.22.37.16.76.43,1.16.8l.16-.14-2.09-2.4h0ZM55.95,26.83l3.82,7.46c.3.59.56,1.01.77,1.25.21.25.45.42.72.51.25.08.49.11.73.08.24-.03.53-.12.86-.27l.1.19-3.95,2.02-.1-.19c.32-.18.55-.37.72-.54.16-.18.28-.39.36-.64.08-.27.08-.57,0-.88-.08-.32-.27-.77-.57-1.35l-3.24-6.33c-.3-.58-.55-.99-.76-1.24-.21-.25-.45-.42-.72-.51-.24-.09-.48-.12-.72-.09-.24.03-.53.12-.87.27l-.1-.19,3.3-1.69,11.5,5.32-3.17-6.19c-.3-.59-.56-1.01-.77-1.25-.21-.25-.45-.42-.72-.51-.25-.08-.49-.11-.73-.08-.24.03-.53.12-.86.27l-.1-.19,3.95-2.02.1.19c-.57.29-.93.69-1.08,1.18-.08.27-.09.57,0,.88.08.32.27.76.56,1.34l4.62,9.02-.39.2-13.26-6.02h0ZM73.84,17.69l2.68,9.45c.18.64.28,1.12.29,1.44.02.32-.05.61-.18.86-.12.23-.28.41-.48.56-.2.14-.47.27-.82.39l.06.21,5.91-1.68-.06-.21c-.36.08-.66.11-.9.1-.24-.02-.48-.09-.7-.22-.25-.14-.45-.36-.61-.64-.16-.29-.33-.74-.51-1.38l-2.68-9.45c1.37-.39,2.37-.58,2.99-.58.73,0,1.34.17,1.82.51.48.34.93.92,1.34,1.73l.2-.08-1.14-3.37-12.51,3.55.8,3.46.21-.04c-.06-.78-.02-1.43.14-1.94.17-.56.46-.99.87-1.32.41-.33,1.09-.65,2.03-.97.44-.15.85-.28,1.24-.39h0ZM85.31,27.62l-.02-.22c.37-.05.66-.12.88-.23.22-.11.41-.25.57-.45.19-.22.31-.49.35-.81.05-.32.04-.81,0-1.47l-.54-7.08c-.05-.66-.12-1.14-.22-1.45-.1-.31-.25-.56-.47-.75-.19-.17-.4-.29-.64-.36-.24-.06-.54-.09-.9-.09l-.02-.22,6.29-.48c.64-.05,1.05-.07,1.26-.08.73,0,1.35.13,1.85.38.43.22.78.54,1.04.94.26.4.41.86.45,1.38.06.84-.14,1.55-.62,2.13-.17.21-.37.39-.59.54-.23.15-.56.32-.99.52.62.05,1.11.13,1.45.23.35.09.67.24.96.44.43.3.78.69,1.05,1.17.26.48.42,1.01.46,1.58.04.58-.03,1.12-.23,1.62-.2.5-.49.91-.88,1.24-.36.29-.79.51-1.3.65-.51.14-1.24.25-2.19.32l-7.01.53h0ZM88.44,14.5l.43,5.72.78-.06c.36-.03.74-.08,1.13-.16.33-.07.6-.16.81-.24.2-.09.38-.2.55-.34.31-.27.54-.6.68-.99.15-.4.2-.83.17-1.29-.04-.49-.16-.94-.38-1.37-.21-.43-.48-.75-.8-.97-.28-.19-.59-.31-.93-.37-.34-.05-.86-.05-1.54,0l-.89.07h0ZM88.89,20.51l.3,3.95c.04.48.1.86.19,1.15.09.29.22.53.39.73.36.4.94.57,1.73.51,1.03-.08,1.82-.42,2.38-1.03.56-.61.8-1.4.73-2.37-.04-.56-.17-1.06-.4-1.53-.22-.46-.5-.81-.83-1.04-.61-.43-1.53-.6-2.76-.51l-1.72.13h0ZM109.87,14.38l-.08,3.18h-.22c-.04-.55-.14-1.01-.31-1.38-.17-.36-.42-.7-.76-1-.28-.25-.63-.43-1.03-.56-.4-.13-.95-.21-1.62-.26l-2.2-.17-.44,5.78.58.04c.59.04,1.03.04,1.33-.01.3-.06.55-.17.75-.36.19-.17.34-.38.45-.62.1-.25.2-.61.3-1.1l.22.03-.43,5.13-.22-.02c-.02-.5-.08-.9-.16-1.21-.09-.31-.23-.58-.41-.8-.18-.22-.41-.39-.72-.51-.3-.12-.69-.2-1.16-.23l-.55-.04-.17,2.2c-.07.87-.09,1.51-.08,1.92.01.4.08.74.18,1.02.18.48.49.84.93,1.09.43.25,1.02.4,1.75.46.77.06,1.42,0,1.95-.15.53-.16.97-.43,1.33-.81.25-.26.46-.56.63-.9.17-.34.34-.79.5-1.36l.22.03-.41,3.81-11.45-.87.02-.22c.37,0,.67-.02.9-.09.24-.06.45-.18.64-.36.22-.19.37-.44.47-.75.1-.31.17-.79.22-1.45l.54-7.08c.05-.65.05-1.14,0-1.47-.05-.32-.17-.59-.35-.81-.16-.2-.35-.35-.57-.45-.22-.1-.52-.17-.89-.22l.02-.22,10.31.78h0ZM111.28,28l.92-3.87.21.09c.03,1.05.17,1.89.4,2.54.44,1.2,1.18,1.93,2.21,2.17.72.17,1.37.06,1.96-.31.58-.37.96-.93,1.13-1.66.07-.32.1-.66.07-1.01-.03-.36-.1-.67-.22-.95-.13-.29-.33-.58-.61-.88-.28-.3-.71-.7-1.31-1.2-.53-.44-.92-.8-1.19-1.07-.27-.28-.48-.55-.62-.8-.4-.71-.51-1.49-.31-2.34.12-.52.34-.99.66-1.43.32-.43.71-.78,1.17-1.03.81-.46,1.67-.58,2.58-.37.3.07.56.16.8.28.24.12.54.31.93.58.28.2.48.33.59.38.11.06.2.1.29.12.22.05.4-.07.55-.37l.21.05-.8,3.74-.21-.05c-.03-.63-.07-1.13-.12-1.47-.05-.34-.13-.67-.23-.98-.19-.56-.45-1-.76-1.32-.32-.32-.72-.54-1.2-.65-.7-.16-1.31-.05-1.83.33-.21.16-.4.36-.56.6-.16.24-.27.49-.33.76-.24,1.05.24,2.04,1.44,2.99l1.17.94c.91.72,1.52,1.42,1.84,2.11.36.77.45,1.59.25,2.45-.13.57-.37,1.09-.73,1.56-.49.65-1.11,1.1-1.85,1.34-.74.24-1.56.26-2.44.06-.81-.19-1.55-.53-2.22-1.02-.35-.26-.56-.41-.63-.46-.07-.04-.15-.08-.24-.1-.3-.07-.54.03-.73.31l-.21-.05h0ZM130.82,20.45c-.37-.17-.77-.33-1.2-.5-.92-.36-1.65-.55-2.17-.57-.53-.02-1.03.13-1.52.45-.45.29-.9.76-1.36,1.39l-.19-.11,1.62-3.16,11.85,5.36-1.3,3.31-.21-.07c.21-.88.24-1.61.09-2.18-.15-.57-.5-1.09-1.06-1.56-.47-.4-1.36-.9-2.65-1.48l-4.05,8.95c-.27.6-.44,1.06-.5,1.38-.07.32-.05.61.05.88.09.24.22.45.39.62.17.17.42.34.75.51l-.09.2-5.6-2.53.09-.2c.35.14.64.21.88.23.24.02.48-.02.72-.12.26-.11.5-.29.69-.54.2-.26.43-.68.71-1.29l4.05-8.95h0ZM140.03,32.41l.4.26c.24.16.44.31.57.47.14.15.25.33.32.53.15.4.21,1.01.18,1.82-.03.81-.13,1.72-.28,2.71l-.26,1.65c-.01.11-.05.35-.1.73l2.67,1.71.12-.18c-.21-.16-.35-.32-.44-.46-.09-.14-.14-.34-.17-.6-.03-.31-.03-.78.02-1.39.05-.61.15-1.57.3-2.87.07-.56.12-.96.13-1.2,0-.23-.01-.45-.06-.64-.06-.24-.21-.53-.44-.87.45.17.82.27,1.12.33.3.05.59.07.88.04.96-.1,1.71-.57,2.26-1.41.36-.57.54-1.16.52-1.78-.02-.62-.22-1.21-.62-1.77-.35-.49-.94-1.03-1.75-1.6-.2-.14-.63-.42-1.28-.83l-3.91-2.5-.12.18c.3.21.52.42.67.61.15.19.25.42.29.67.06.28.04.58-.07.88-.11.3-.34.73-.7,1.29l-3.83,5.98c-.36.56-.65.95-.88,1.18-.23.23-.49.37-.77.43-.24.06-.48.06-.72.01-.24-.05-.52-.17-.84-.35l-.12.18,5.17,3.32.12-.18c-.31-.22-.53-.43-.68-.62-.15-.2-.25-.42-.3-.67-.06-.28-.03-.57.08-.88.11-.31.34-.73.69-1.29l1.84-2.87h0ZM140.15,32.22l3.35-5.22.33.21c.58.37,1.01.7,1.28.97.27.27.46.57.57.91.14.43.17.89.09,1.37-.08.48-.25.94-.52,1.36-.51.8-1.23,1.29-2.15,1.46-.41.07-.78.05-1.12-.05-.34-.11-.85-.38-1.52-.82l-.31-.2h0ZM156.89,37.02l-.14.16c-.29-.22-.55-.38-.77-.47-.23-.09-.47-.12-.73-.09-.36.03-.71.2-1.05.51-.25.23-.52.51-.81.85l-4.65,5.37c-.35.4-.61.74-.77,1.01-.16.26-.26.51-.29.72-.05.3,0,.59.11.86.12.27.33.55.64.86l-.14.16-4.63-4.01.14-.16c.29.23.55.38.78.47.23.08.47.11.72.09.29-.02.56-.13.82-.32.26-.19.6-.54,1.04-1.04l4.65-5.37c.43-.5.73-.89.88-1.18.15-.29.22-.57.2-.86,0-.26-.07-.49-.19-.7-.12-.21-.31-.45-.57-.7l.14-.16,4.63,4.01h0ZM162.45,42.64l-.16.15c-.25-.23-.47-.4-.65-.51-.19-.1-.4-.17-.62-.19-.31-.04-.62.03-.93.18-.3.16-.7.47-1.19.94l-6.22,5.93c-.63.6-1.16,1.02-1.58,1.25-.43.23-.87.33-1.35.32-.47-.02-.98-.17-1.52-.45-.54-.28-1.02-.64-1.44-1.07-.25-.26-.46-.54-.64-.84-.18-.3-.3-.57-.34-.8-.09-.43,0-.78.27-1.05.17-.16.35-.23.56-.23.21,0,.4.1.56.27.16.17.24.36.24.59,0,.11-.02.22-.07.34-.04.12-.13.32-.27.62-.12.27-.18.5-.16.69.02.19.11.37.27.54.21.22.47.35.77.37.3.03.63-.04.99-.22.49-.24,1.26-.87,2.33-1.89l6.17-5.88c.29-.28.54-.55.74-.82.25-.34.38-.68.39-1.01.03-.54-.16-1.06-.57-1.56l.16-.15,4.27,4.48h0ZM153.92,52.15l-.18.13,4.12,5.79c.48.67,1.01,1.29,1.59,1.86.78.75,1.67,1.2,2.68,1.36.72.11,1.48.06,2.28-.17.81-.22,1.57-.59,2.29-1.11.99-.7,1.76-1.56,2.31-2.56.55-1.01.82-2.06.82-3.16,0-1.16-.35-2.32-1.05-3.48-.16-.28-.59-.89-1.27-1.85l-3.07-4.31-.18.13c.32.51.47.98.44,1.39-.03.33-.15.62-.37.88-.22.26-.61.6-1.19,1.01l-5.79,4.11c-.54.38-.95.63-1.26.76-.3.12-.59.16-.88.12-.26-.04-.48-.12-.68-.26-.2-.13-.41-.35-.64-.64h0ZM166.59,48.18l-7.81,5.55c-.51.37-.88.67-1.11.92-.22.25-.38.52-.45.81-.17.63.01,1.32.55,2.07.46.64.96,1.12,1.49,1.43.54.31,1.18.47,1.91.5.71.03,1.43-.08,2.16-.31.73-.24,1.42-.59,2.1-1.07.74-.53,1.37-1.14,1.88-1.84.51-.71.87-1.44,1.07-2.22.28-1.08.25-2.1-.1-3.07-.19-.52-.53-1.13-1.02-1.81l-.68-.95h0ZM176.49,64.39l-.19.1c-.18-.32-.37-.55-.54-.72-.18-.16-.39-.28-.64-.36-.34-.11-.73-.08-1.16.08-.32.12-.68.28-1.07.48l-6.32,3.24c-.48.24-.84.46-1.09.64-.25.19-.43.37-.54.56-.16.26-.23.54-.22.83,0,.29.1.64.28,1.04l-.19.1-2.79-5.45.19-.1c.19.32.37.56.55.73.18.16.39.28.63.35.28.09.57.09.88.01.31-.08.76-.27,1.35-.57l6.32-3.24c.59-.3,1.01-.56,1.26-.76.25-.21.42-.45.51-.72.09-.24.12-.48.08-.72-.03-.24-.12-.53-.27-.87l.19-.1,2.79,5.45h0ZM177.07,70.45l-8.49,11.83.12.42,9.75-2.77c.63-.18,1.1-.28,1.43-.29.33-.02.61.04.87.18.46.25.77.68.95,1.29l.21-.06-1.21-4.26-.21.06c.08.36.11.65.09.9-.02.24-.09.47-.22.7-.15.25-.36.45-.64.6-.28.16-.74.33-1.38.51l-6.69,1.9,7.46-10.24-1.01-3.56-.21.06c.08.36.11.66.1.91-.02.24-.09.47-.22.69-.15.25-.36.45-.64.61-.29.16-.74.33-1.37.5l-6.84,1.94c-.63.18-1.11.28-1.44.29-.32.02-.61-.04-.87-.18-.23-.12-.41-.28-.56-.48-.14-.2-.27-.47-.39-.81l-.21.06,1.21,4.26.21-.06c-.08-.36-.11-.65-.09-.9.02-.24.09-.47.22-.7.15-.25.36-.45.64-.6.28-.16.74-.33,1.38-.51l8.06-2.29h0ZM183.81,96.66l-4.18.44-.04-.21c1.39-.55,2.41-1.2,3.05-1.94.64-.74.93-1.61.85-2.58-.06-.76-.26-1.4-.61-1.93-.35-.52-.9-1-1.63-1.41-1.5-.85-3.17-1.21-5-1.07-.88.07-1.7.24-2.46.54-.76.29-1.42.67-1.98,1.16-1.09.95-1.58,2.04-1.49,3.27.04.48.17.94.41,1.35.24.41.54.74.92.99.53.34,1.13.48,1.82.43.63-.05,1.07-.25,1.33-.61.26-.37.35-.94.29-1.72l.22-.02.46,6.11-.22.02c-.09-.56-.2-.95-.33-1.16-.12-.22-.32-.37-.58-.46-.29-.1-.86-.12-1.69-.06-.23.02-.59.06-1.07.12l-.22.04c.07-.25.1-.43.09-.55-.01-.14-.1-.32-.26-.52-.42-.53-.76-1.15-1.02-1.87-.26-.72-.42-1.49-.48-2.31-.09-1.13.03-2.16.35-3.09.31-.94.81-1.71,1.48-2.33.51-.46,1.12-.84,1.84-1.12.73-.28,1.5-.46,2.34-.52,1.14-.09,2.22.04,3.24.37,1.02.33,1.87.85,2.57,1.54.56.57,1.02,1.24,1.36,2.01.34.77.55,1.59.61,2.48.04.51.03.99-.04,1.44-.06.45-.18.92-.36,1.43l-.22.58c-.05.14-.06.27-.06.39.02.26.24.43.67.54l.02.26Z"/>
  <path class="cls-1" d="M37.24,140.4c-.18-.29-.35-.51-.52-.66-.17-.14-.37-.25-.6-.32-.17-.06-.35-.07-.51-.06-.17.02-.36.07-.58.16-.29.12-.63.28-1,.48l-5.84,3.2c-.55.3-.93.55-1.16.76-.23.21-.38.44-.45.69-.12.45-.05.94.21,1.48l-.18.1-2.77-5.04.18-.1c.18.3.36.52.54.67.18.15.37.25.6.32.26.07.54.06.83-.02.3-.08.71-.27,1.25-.57l7.08-3.88-11.8,1.17-.09-.16,7.2-9.22-6.94,3.81c-.55.3-.93.55-1.15.75-.23.2-.38.43-.46.69-.07.23-.09.46-.06.68.04.23.13.49.28.8l-.18.1-2-3.65.18-.1c.18.29.36.51.53.66.17.15.37.26.61.32.26.07.54.06.83-.02.3-.08.71-.27,1.25-.57l5.84-3.2c.24-.13.47-.27.68-.4.37-.24.63-.46.75-.65.18-.27.26-.55.25-.84,0-.29-.1-.64-.29-1.03l.18-.1,1.88,3.43-6.58,8.06,10.41-1.09,1.78,3.25-.18.1h0ZM33.3,145.35c-.59.5-1.07,1.08-1.44,1.74-.37.67-.61,1.37-.71,2.11-.14.95-.07,1.87.2,2.79.27.92.71,1.74,1.33,2.47.63.74,1.38,1.32,2.26,1.73.88.42,1.81.63,2.79.65.79.02,1.55-.09,2.28-.34.73-.25,1.38-.63,1.97-1.13,1.17-.99,1.87-2.28,2.1-3.87.14-.97.09-1.92-.16-2.84-.25-.93-.68-1.74-1.28-2.45-.47-.55-1.03-1.02-1.69-1.4-.66-.38-1.37-.65-2.13-.82-1.03-.21-2.01-.21-2.95.02-.94.23-1.79.67-2.56,1.32h0ZM34.61,147.09c-1.33,1.13-2.15,2.45-2.45,3.95-.13.67-.14,1.27-.01,1.79.12.52.39,1.02.79,1.5.41.48.86.83,1.35,1.04.5.21,1.09.3,1.78.28,1.53-.05,2.97-.65,4.32-1.79.74-.63,1.35-1.32,1.84-2.08.49-.76.81-1.51.96-2.27.13-.61.13-1.17,0-1.68-.13-.5-.41-1.01-.83-1.5-.41-.49-.86-.84-1.33-1.05-.47-.21-1.03-.31-1.66-.29-.76.02-1.56.22-2.39.58-.83.36-1.62.87-2.38,1.51h0ZM55.14,158.32l-1.75,2.42-.16-.12c.26-.45.42-.85.48-1.23.06-.37.04-.76-.07-1.18-.09-.34-.26-.67-.51-.97-.25-.31-.62-.66-1.12-1.06l-1.62-1.29-3.39,4.25.43.34c.43.34.78.57,1.04.69.26.12.52.16.77.12.24-.03.47-.11.68-.25.21-.14.48-.37.81-.69l.15.13-3.04,3.75-.16-.13c.25-.4.42-.74.51-1.03.09-.29.13-.57.11-.84-.02-.26-.12-.52-.29-.77-.17-.25-.43-.52-.78-.8l-.4-.32-1.29,1.61c-.51.64-.87,1.13-1.07,1.45-.2.32-.33.62-.4.89-.11.47-.06.91.14,1.33.2.42.58.85,1.12,1.28.56.45,1.09.75,1.59.91.5.16.98.18,1.46.07.33-.07.65-.19.96-.36.31-.17.68-.44,1.11-.79l.15.13-2.32,2.73-8.42-6.72.13-.16c.28.2.53.34.74.41.22.07.44.09.69.06.27-.03.52-.15.76-.34.24-.19.55-.52.94-1.01l4.15-5.2c.38-.48.64-.86.77-1.14.13-.28.18-.55.16-.82-.02-.24-.09-.45-.21-.65-.12-.19-.31-.41-.57-.64l.13-.16,7.58,6.05h0ZM57.2,167.12l.38.23c.23.14.42.28.55.42.13.14.24.3.32.49.15.37.23.94.23,1.7,0,.76-.06,1.61-.17,2.55l-.19,1.56c0,.1-.03.33-.07.69l2.56,1.51.1-.17c-.2-.15-.34-.29-.43-.42-.09-.13-.14-.32-.18-.56-.04-.29-.05-.73-.03-1.3.02-.58.09-1.48.19-2.7.05-.53.08-.9.08-1.12,0-.22-.03-.42-.08-.6-.06-.22-.21-.49-.44-.8.43.14.78.23,1.06.27.28.04.56.04.83,0,.9-.13,1.59-.59,2.07-1.4.32-.54.46-1.11.42-1.68-.04-.58-.25-1.12-.64-1.64-.35-.45-.91-.93-1.69-1.44-.2-.12-.6-.37-1.23-.74l-3.74-2.21-.1.17c.28.19.5.37.65.55.15.18.25.38.3.62.07.26.05.54-.04.83-.09.29-.3.7-.61,1.23l-3.39,5.73c-.32.54-.58.91-.78,1.13-.21.22-.44.36-.71.43-.23.06-.45.07-.68.04-.23-.04-.49-.14-.8-.3l-.1.17,4.96,2.93.1-.17c-.3-.2-.51-.38-.66-.56-.14-.18-.24-.38-.3-.61-.06-.26-.05-.54.04-.83.09-.29.29-.7.61-1.23l1.62-2.75h0ZM57.31,166.95l2.96-5.01.32.19c.56.33.97.62,1.23.87.26.25.45.52.56.83.14.4.19.83.13,1.28-.05.45-.2.89-.44,1.3-.45.77-1.11,1.25-1.96,1.44-.38.08-.73.08-1.05-.01-.32-.09-.81-.33-1.45-.71l-.3-.18h0ZM63.36,177.13c.33.1.61.15.84.15.23,0,.45-.05.67-.16.24-.12.45-.3.61-.56.17-.26.36-.67.57-1.25l2.3-6.24c.23-.62.36-1.09.39-1.41.03-.31-.03-.61-.18-.87-.19-.33-.55-.61-1.08-.84l.07-.19,4.65,1.72c1.03.38,1.69.64,1.96.76,1.16.53,2.04,1.24,2.66,2.13.58.85.93,1.81,1.04,2.88.1,1.07-.04,2.14-.43,3.2-.29.78-.68,1.47-1.19,2.07-.51.6-1.07,1.04-1.68,1.34-.86.41-1.8.54-2.8.37-.75-.13-1.49-.33-2.21-.6l-6.25-2.31.07-.19h0ZM71.07,167.35l-3.11,8.43c-.2.55-.33.99-.37,1.3-.04.31-.02.6.08.87.2.58.71,1.01,1.52,1.31.7.26,1.33.36,1.91.31.58-.05,1.16-.25,1.74-.63.57-.36,1.07-.82,1.51-1.39.44-.57.79-1.21,1.06-1.94.3-.8.46-1.61.48-2.42.02-.82-.09-1.58-.34-2.29-.35-.98-.91-1.75-1.7-2.32-.43-.3-1.01-.59-1.75-.86l-1.03-.38h0ZM87.31,171.69l-.04.2c-.34-.06-.62-.07-.85-.04-.22.03-.44.11-.64.24-.28.18-.49.48-.64.89-.11.3-.2.66-.29,1.06l-1.45,6.5c-.11.49-.17.88-.19,1.17-.01.29.01.54.08.73.1.27.26.49.47.66.21.17.52.31.91.42l-.04.2-5.61-1.25.04-.2c.34.06.63.07.86.04.23-.04.44-.11.63-.24.23-.15.41-.36.54-.63.13-.27.26-.71.39-1.32l1.45-6.5c.14-.61.2-1.06.2-1.36,0-.3-.08-.57-.22-.8-.12-.21-.28-.37-.47-.49-.19-.12-.46-.23-.79-.32l.04-.2,5.61,1.25h0ZM94.27,172.36l-5.78-.49-.02.2c.6.1,1.05.34,1.37.74.2.24.32.56.35.95.03.31.03.66,0,1.03l-.67,7.96c-.12,1.38-.27,2.31-.46,2.78-.14.35-.33.6-.56.77-.23.17-.49.24-.77.22-.22-.02-.4-.09-.53-.21-.13-.12-.23-.32-.31-.59-.09-.29-.15-.49-.2-.6-.04-.11-.1-.2-.16-.28-.14-.16-.32-.25-.53-.26-.22-.02-.41.04-.56.16-.15.13-.23.3-.25.51-.03.36.12.66.46.9.18.14.43.25.74.35.31.1.64.16.97.19.56.05,1.12,0,1.68-.14.55-.15,1-.35,1.34-.63.34-.29.59-.64.75-1.06.16-.42.27-1.04.34-1.86l.67-8.03c.05-.64.14-1.1.25-1.4.11-.3.29-.53.54-.71.17-.12.36-.21.56-.25.2-.04.46-.06.77-.05l.02-.2h0ZM99.79,178.65l3.58-4.02c.35-.4.58-.66.66-.81.09-.14.12-.29.11-.45-.02-.3-.18-.51-.47-.64-.16-.06-.41-.1-.77-.12v-.2s3.87-.24,3.87-.24v.2c-.25.04-.47.1-.64.17-.17.07-.36.19-.56.36-.22.18-.6.56-1.14,1.15l-2.75,2.98,4.48,5.05.55.63c.41.44.82.79,1.25,1.03.26.14.48.25.67.31.19.06.43.09.71.11v.2s-5.94.37-5.94.37v-.2c.44-.06.76-.16.95-.28.19-.13.28-.3.27-.53-.01-.24-.16-.54-.43-.9-.13-.17-.38-.47-.73-.9-.36-.43-.66-.77-.91-1.03l-2.18-2.39-.55.61.18,2.98c.04.61.1,1.07.19,1.36.09.29.23.53.43.71.17.16.37.27.59.34.22.07.5.1.85.1v.2s-5.72.35-5.72.35v-.2c.33-.04.61-.11.82-.2.21-.1.39-.23.54-.41.18-.21.29-.46.34-.76.05-.3.05-.76.01-1.38l-.41-6.64c-.04-.62-.1-1.07-.18-1.36-.09-.29-.23-.53-.43-.71-.17-.17-.37-.28-.59-.34-.22-.06-.5-.1-.84-.09v-.2s5.72-.35,5.72-.35v.2c-.33.04-.6.11-.81.2-.21.09-.39.23-.55.41-.17.21-.29.46-.34.76-.05.3-.06.76-.02,1.37l.2,3.2h0ZM112.82,179.08l3.93-.87.29,1.32-3.93.87-.29-1.32h0ZM124.23,174.01l5.98-2.3-1.04-2.71c-.22-.58-.42-1-.59-1.25-.17-.25-.38-.43-.62-.55-.22-.1-.44-.15-.67-.15-.23,0-.51.06-.84.17l-.07-.19,5.37-2.07.07.19c-.31.14-.55.29-.73.43-.17.15-.3.33-.4.56-.1.25-.14.52-.09.82.04.3.17.74.39,1.32l2.39,6.21c.22.57.42.99.59,1.24.17.25.38.43.62.56.22.1.44.14.67.15.23,0,.51-.06.83-.16l.07.19-5.37,2.07-.07-.19c.32-.14.56-.29.73-.44.17-.15.31-.34.4-.56.1-.24.14-.52.09-.82-.04-.3-.17-.74-.39-1.32l-1.19-3.1-5.98,2.3,1.19,3.1c.22.57.41.98.59,1.24.17.25.38.43.62.55.21.1.43.15.66.15.23,0,.51-.06.84-.16l.07.19-5.36,2.06-.07-.19c.32-.14.56-.29.73-.44.17-.15.3-.34.39-.55.11-.25.14-.52.1-.82-.05-.3-.18-.74-.4-1.32l-2.39-6.21c-.22-.58-.42-.99-.58-1.25-.17-.25-.38-.43-.62-.54-.22-.11-.44-.16-.67-.15-.23,0-.51.06-.83.17l-.07-.19,5.37-2.06.07.19c-.32.14-.56.29-.73.43-.17.15-.31.34-.4.56-.1.24-.14.52-.09.82.04.3.17.74.39,1.32l1.04,2.71h0ZM149.63,168.16l-5.02,3.16-.11-.17c.43-.33.7-.6.8-.83.19-.4.18-.77-.04-1.12-.13-.21-.38-.44-.74-.71l-.33-.24-1.87-1.34-3.37,2.12.26,1.31.1.59c.12.7.28,1.22.49,1.54.12.19.27.34.46.45.18.11.38.17.59.18.29.01.59-.07.92-.24l.11.17-3.43,2.15-.11-.17c.26-.19.46-.4.59-.65.13-.24.21-.56.24-.94.03-.31.02-.68-.03-1.11-.05-.42-.16-1.05-.32-1.86l-1.73-8.97.44-.28,8.38,5.94c.63.45,1.1.76,1.41.93.31.17.59.26.85.29.18.01.36,0,.55-.05.19-.05.45-.16.79-.32l.11.17h0ZM142,166.66l-4.09-2.96.97,4.92,3.13-1.96h0ZM142.75,158.16l.14.15c.28-.26.54-.44.8-.55.25-.11.52-.15.79-.13.43.05,1.23.35,2.4.91l8.92,4.28.28-.27-3.4-9.04c-.27-.71-.46-1.24-.56-1.6-.11-.36-.17-.66-.19-.9-.02-.35,0-.66.1-.92.09-.26.24-.52.46-.77l-.14-.15-2.93,2.74.14.15c.17-.16.32-.27.45-.34.13-.07.28-.11.44-.11.16,0,.34.04.53.14.19.1.36.23.52.39.28.3.6.9.94,1.8l2.46,6.42-6.92-3.48c-.39-.19-.63-.32-.74-.39-.1-.07-.21-.16-.32-.27-.15-.16-.25-.35-.3-.57-.05-.22-.03-.42.04-.61.08-.21.27-.48.57-.82l-.14-.15-4.35,4.07h0ZM159.44,140.41l2.43,1.74-.12.16c-.45-.26-.85-.42-1.23-.48-.37-.06-.77-.04-1.18.07-.34.09-.67.26-.97.51-.31.25-.66.62-1.06,1.12l-1.29,1.62,4.25,3.38.34-.43c.34-.43.57-.78.69-1.04.12-.26.16-.52.12-.77-.03-.24-.11-.47-.25-.68-.14-.21-.37-.48-.69-.81l.13-.15,3.76,3.04-.13.16c-.4-.25-.74-.42-1.03-.51-.29-.09-.57-.13-.84-.1-.27.02-.52.12-.77.29-.25.17-.52.43-.79.78l-.32.4,1.62,1.29c.64.51,1.13.87,1.45,1.07.32.2.62.33.89.4.47.11.91.06,1.33-.14.42-.21.85-.58,1.28-1.12.45-.56.75-1.09.91-1.59.16-.5.18-.98.07-1.46-.07-.33-.19-.65-.36-.96-.17-.31-.44-.68-.79-1.11l.13-.15,2.74,2.32-6.71,8.42-.16-.13c.2-.28.34-.53.41-.75.07-.22.09-.44.06-.69-.03-.27-.15-.52-.34-.76-.19-.24-.52-.55-1.01-.94l-5.21-4.15c-.48-.38-.86-.64-1.14-.77-.28-.13-.55-.18-.82-.16-.24.02-.45.09-.65.21-.19.12-.41.31-.64.57l-.16-.13,6.04-7.59h0ZM163.01,137.86l13.38-2.72.18-.36-8.46-4.31c-.54-.28-.93-.51-1.16-.71-.24-.2-.39-.42-.48-.67-.16-.46-.1-.96.17-1.49l-.18-.09-1.89,3.7.18.09c.17-.3.34-.52.51-.68.16-.15.36-.27.6-.34.26-.08.53-.08.83,0,.3.07.72.25,1.27.53l5.81,2.96-11.66,2.28-1.58,3.09.18.09c.17-.3.35-.53.51-.69.16-.15.36-.26.59-.33.26-.08.53-.08.83,0,.3.07.72.25,1.26.52l5.94,3.03c.55.28.94.52,1.17.71.23.19.39.42.48.67.08.23.1.46.08.68-.03.23-.11.5-.25.81l.18.09,1.89-3.7-.18-.09c-.17.3-.34.52-.51.68-.17.15-.36.27-.6.34-.26.08-.53.08-.83,0-.3-.07-.72-.25-1.27-.53l-7-3.57Z"/>
  <g>
    <path class="cls-2" d="M89.93,70.24c1.46,2.88,4.35,5.83,6.65,8.98,1.17,2.91.93,5.82,0,8.73-5.14-3.64-8.48-8.85-9.23-16.31l2.58-1.39Z"/>
    <g>
      <path class="cls-2" d="M100.05,51.07c-3.67,4.96-3.82,10.09.33,15.44,4.14,4.06,5.65,8.61,4.64,13.62,2.34-2.55,3.48-5.87,3.15-10.14l3.75,1.25c-1.39,7.76-4.57,14.41-12.45,18.17l-1.48-1.05c3.07-4.12,4.43-8.73.25-14.94-8.32-10.13-5.15-16.81,1.81-22.35Z"/>
      <path class="cls-2" d="M104.02,62.69c6.73-.03,12.73,1.39,17.74,4.79.25,6.68-1.89,13.25-5.65,19.74l-4.08-4.15c2.71-4.9,4.35-9.83,4.19-14.73-2.89-1.74-6.37-2.89-10.6-3.3l-1.61-2.36Z"/>
      <path class="cls-2" d="M77.48,67.56c3.47-2.41,7.9-3.86,12.89-4.75l-.45,2.76c-3.07.49-5.57,1.41-7.11,3.05-.22,5.17,1.57,9.84,4.4,14.25l-3.86,4.01c-3.92-5.72-6.14-12.07-5.87-19.31Z"/>
      <path class="cls-2" d="M88.21,92.74l3.79-4.06c2.53,2.43,5.06,4.15,7.59,5.06,2.59-1.06,5.18-2.73,7.78-5.03l3.67,4.03c-3.22,2.65-6.77,5.03-10.94,6.92-.38.15-.74.14-1.07,0-4.22-1.89-7.73-4.26-10.81-6.92Z"/>
    </g>
  </g>
  <path class="cls-2" d="M98.33,30.41c19,0,36.2,7.7,48.65,20.15,12.45,12.45,20.15,29.65,20.15,48.65s-7.7,36.2-20.15,48.65c-12.45,12.45-29.65,20.15-48.65,20.15s-36.2-7.7-48.65-20.15c-12.45-12.45-20.15-29.65-20.15-48.65s7.7-36.2,20.15-48.65c12.45-12.45,29.65-20.15,48.65-20.15h0ZM146.54,51c-12.34-12.34-29.39-19.97-48.22-19.97s-35.88,7.63-48.22,19.97c-12.34,12.34-19.97,29.39-19.97,48.22s7.63,35.88,19.97,48.22c12.34,12.34,29.39,19.97,48.22,19.97s35.88-7.63,48.22-19.97c12.34-12.34,19.97-29.39,19.97-48.22s-7.63-35.88-19.97-48.22Z"/>
  <g>
    <path class="cls-2" d="M37.6,105.17h-.1c-.01-.17-.04-.31-.08-.42-.04-.11-.11-.2-.19-.28-.1-.09-.22-.15-.37-.18-.15-.03-.38-.04-.69-.03l-3.33.08c-.31,0-.54.03-.68.07-.15.04-.27.11-.36.2-.09.08-.15.18-.18.29-.04.11-.06.25-.06.42h-.1s-.07-2.95-.07-2.95c0-.3,0-.5,0-.59.02-.34.09-.63.22-.86.12-.2.27-.35.46-.46.19-.11.41-.17.66-.18.4,0,.72.1.98.34.09.08.18.18.24.29.06.11.14.27.22.47.04-.29.09-.52.14-.68.05-.16.13-.31.23-.44.15-.2.34-.35.57-.46.23-.11.48-.17.75-.18.27,0,.52.04.76.15.23.1.42.25.56.44.13.17.22.38.27.63.05.24.09.59.1,1.03l.08,3.29h0ZM31.53,103.39l2.69-.07v-.37c-.01-.17-.03-.35-.06-.53-.03-.16-.06-.29-.09-.38-.04-.1-.08-.18-.14-.26-.12-.15-.27-.27-.45-.34-.18-.08-.38-.12-.6-.11-.23,0-.45.05-.65.15-.21.09-.36.21-.47.35-.1.13-.16.27-.19.43-.03.16-.04.4-.04.72v.42h.01ZM34.36,103.32l1.86-.05c.22,0,.41-.03.54-.06.14-.03.25-.09.35-.16.2-.16.29-.42.28-.8-.01-.48-.15-.86-.43-1.14-.27-.28-.64-.41-1.09-.4-.26,0-.5.06-.72.15-.22.09-.39.22-.51.37-.22.28-.32.7-.3,1.28l.02.81h0ZM34.48,96.45l1.59.12c.31.02.54.02.68,0,.15-.02.28-.08.38-.16.09-.07.16-.17.21-.27.05-.1.08-.24.11-.42h.1s-.22,2.88-.22,2.88h-.1c0-.18-.01-.32-.04-.43-.03-.11-.09-.21-.17-.3-.09-.1-.21-.18-.35-.22-.14-.04-.37-.08-.68-.1l-3.32-.25c-.31-.02-.54-.02-.69,0-.15.02-.28.08-.38.17-.09.07-.16.16-.21.27-.05.1-.08.24-.1.41h-.1s.16-2.18.16-2.18c.03-.36.05-.6.06-.71.06-.46.15-.82.27-1.08.14-.29.34-.51.59-.65.25-.15.53-.21.85-.18.47.04.83.24,1.08.62.08.11.14.24.18.37.04.13.08.31.11.54.09-.17.18-.3.26-.38.07-.06.15-.12.25-.17.1-.05.27-.12.52-.21.57-.23.99-.4,1.25-.51.26-.12.46-.22.58-.3.1-.07.17-.14.21-.2.04-.07.07-.16.09-.28h.1s-.11,1.49-.11,1.49c-.17.06-.28.1-.33.12l-.74.26c-.44.16-.84.32-1.18.49-.34.17-.58.33-.71.48-.07.08-.12.16-.15.25-.03.09-.05.21-.06.34l-.02.22h0ZM34.38,96.45v-.17c.04-.37.04-.65.01-.81-.03-.16-.1-.32-.23-.47-.28-.34-.64-.53-1.08-.56-.24-.02-.46.01-.68.09-.22.08-.4.19-.54.34-.11.12-.19.26-.25.44-.05.17-.09.42-.12.74v.19s2.89.22,2.89.22h0ZM38.84,86.1l-.52,2.92-.1-.02c.02-.27.01-.46-.03-.58-.08-.2-.23-.33-.43-.36-.12-.02-.29,0-.51.04l-.2.04-1.12.24-.35,1.96.57.34.25.16c.3.19.55.3.73.34.11.02.22.01.32-.02.1-.03.19-.08.27-.16.1-.1.17-.24.22-.42l.1.02-.36,1.99-.1-.02c.02-.16,0-.3-.04-.43-.05-.13-.14-.27-.27-.4-.1-.12-.25-.24-.42-.36-.18-.12-.44-.29-.8-.51l-3.9-2.37.05-.25,5.02-1.1c.38-.08.65-.15.82-.21.17-.06.3-.13.39-.22.07-.06.12-.14.17-.22.04-.09.09-.22.15-.4l.1.02h0ZM35.72,88.42l-2.47.52,2.14,1.3.32-1.82h0ZM34.07,83.09l3.78,1.07c.3.08.52.13.68.14.15,0,.29-.02.4-.08.11-.06.19-.13.26-.22.07-.09.13-.22.18-.38l.1.03-.57,2-.1-.03c.04-.17.05-.31.04-.42,0-.11-.04-.22-.1-.33-.07-.12-.17-.21-.3-.28-.13-.07-.35-.15-.64-.24l-3.21-.91c-.29-.08-.52-.13-.67-.14-.15,0-.29.02-.41.08-.11.05-.19.13-.26.22-.07.09-.13.22-.18.39l-.1-.03.47-1.67,5.5-2.24-3.14-.89c-.3-.09-.52-.13-.67-.14-.15,0-.29.02-.4.08-.11.06-.19.13-.26.22-.07.09-.13.22-.18.38l-.1-.03.57-2,.1.03c-.08.29-.06.54.06.75.07.12.17.21.3.28.13.07.35.15.64.24l4.57,1.3-.06.2-6.3,2.63h0ZM40.77,78.51l.09.04,1.37-3.04c.16-.35.29-.71.38-1.08.12-.49.09-.96-.08-1.41-.12-.32-.33-.61-.61-.89-.28-.27-.61-.5-.99-.67-.52-.23-1.05-.34-1.58-.33-.54.02-1.03.15-1.47.41-.47.27-.85.69-1.16,1.25-.07.13-.22.45-.45.95l-1.02,2.26.09.04c.13-.25.28-.42.46-.51.14-.07.29-.08.44-.06.16.03.39.11.69.24l3.03,1.37c.28.13.48.24.6.33.12.09.21.2.26.33.05.11.06.22.06.34,0,.11-.04.25-.11.41h0ZM36.17,74.32l.23-.5c.16-.36.33-.64.49-.84.31-.37.72-.62,1.22-.76.36-.1.75-.13,1.15-.09.4.04.8.15,1.19.33.35.16.66.36.93.6.27.24.48.51.64.8.16.3.25.6.25.89,0,.29-.07.6-.22.94-.18.4-.42.63-.71.71-.14.04-.28.04-.43,0-.15-.03-.37-.11-.63-.23l-4.09-1.85h0ZM38.39,68.99l1.41-2.46.09.05c-.13.23-.21.4-.22.5,0,.09,0,.18.05.26.05.08.11.15.2.2.11.06.29.11.53.14l.3.04,3.68.49-2.08-2.32c-.27-.3-.48-.49-.64-.59-.12-.07-.25-.11-.39-.14-.14-.02-.26-.02-.37.01-.11.03-.2.08-.28.15-.08.07-.16.17-.23.31l-.09-.05,1.45-2.51.09.05c-.09.15-.15.27-.18.34-.03.08-.05.15-.05.23,0,.11.03.21.09.31.06.1.14.18.24.23.09.05.28.11.55.17l3.66.82-2.02-2.6c-.31-.4-.57-.66-.8-.79-.23-.13-.44-.15-.63-.05-.11.06-.22.19-.33.38l-.09-.05,1.04-1.81.09.05c-.08.18-.12.34-.13.45,0,.12.03.26.11.42.11.23.34.59.71,1.06l2.97,3.85-.09.16-4.97-1,3.36,3.81-.1.18-5.22-.67-.35-.05c-.24-.03-.42-.04-.54-.04-.12,0-.22.03-.32.08-.08.04-.15.09-.21.15-.06.06-.13.16-.22.28l-.09-.05h0ZM47.38,55.58l-3,3.81.08.06c.12-.13.22-.23.32-.29.1-.06.2-.1.32-.11.13-.01.27.01.41.08.14.06.33.19.57.38l2.62,2.06c.24.19.41.34.51.46.1.12.15.24.17.38.02.12,0,.23-.03.34-.04.11-.1.23-.2.37l.08.06,3.33-4.23-1.38-1.15-.07.08c.18.21.31.4.4.55.09.16.15.32.18.48.06.24.05.48-.03.73-.08.25-.23.51-.45.8-.21.27-.42.46-.63.56-.21.1-.43.13-.67.08-.14-.03-.29-.09-.45-.2-.16-.1-.4-.28-.73-.53l-.81-.64.16-.2c.14-.18.27-.31.39-.39.13-.09.25-.14.39-.15.14-.01.28,0,.42.05.14.05.31.13.51.25l.06-.08-1.89-1.51-.07.08c.16.16.28.3.35.4.07.11.11.22.12.34.02.13,0,.25-.06.39-.06.13-.17.3-.34.52l-.17.21-2.13-1.68.64-.81c.2-.25.37-.44.53-.56.15-.12.32-.21.49-.26.2-.06.4-.07.59-.04.19.03.39.11.61.24l.06-.08-1.22-.86h0ZM51.97,50.72l1.13.98-.07.08c-.21-.15-.41-.25-.59-.29-.18-.05-.38-.06-.59-.02-.17.03-.34.1-.51.21-.17.11-.36.28-.58.51l-.71.75,1.97,1.87.19-.2c.19-.2.32-.36.39-.49.07-.13.1-.25.09-.38,0-.12-.03-.24-.09-.35-.06-.11-.16-.26-.31-.44l.07-.07,1.74,1.68-.07.07c-.19-.14-.35-.24-.49-.3-.14-.06-.28-.09-.41-.09-.13,0-.26.03-.4.11-.13.07-.28.19-.43.35l-.18.19.75.71c.3.28.52.48.67.6.15.12.29.19.42.24.23.07.45.07.67-.01.22-.08.45-.25.68-.5.25-.26.42-.51.53-.75.1-.24.13-.48.1-.72-.02-.17-.07-.33-.14-.5-.07-.16-.19-.36-.35-.59l.07-.07,1.26,1.28-3.72,3.9-.07-.07c.11-.13.19-.25.24-.35.05-.1.07-.22.06-.34,0-.13-.05-.27-.13-.39-.08-.13-.24-.3-.46-.51l-2.41-2.3c-.22-.21-.4-.36-.53-.43-.13-.08-.26-.12-.4-.11-.12,0-.23.02-.33.07-.1.05-.22.14-.34.26l-.07-.07,3.35-3.51h0ZM56.88,50.62l.17-.15c.1-.09.2-.16.29-.2.09-.04.18-.07.28-.07.2-.01.48.04.84.16.36.12.75.29,1.18.48l.71.34s.15.07.32.14l1.12-.97-.07-.08c-.1.07-.19.12-.27.14-.08.02-.17.02-.29,0-.14-.03-.35-.09-.62-.19-.27-.1-.69-.27-1.25-.52-.24-.11-.42-.18-.52-.22-.1-.03-.2-.05-.3-.06-.12,0-.27.02-.45.08.13-.18.23-.33.3-.46.06-.13.11-.26.13-.39.08-.45-.03-.85-.34-1.2-.21-.24-.45-.4-.73-.47-.28-.07-.57-.06-.88.05-.27.09-.59.29-.95.57-.09.07-.27.23-.55.47l-1.64,1.42.07.08c.14-.1.26-.18.36-.22.11-.04.22-.06.34-.04.14.01.26.06.39.15.12.09.28.25.49.49l2.18,2.52c.2.23.34.42.41.55.07.13.1.27.09.4,0,.12-.04.23-.09.33-.05.1-.14.21-.27.33l.07.08,2.18-1.89-.07-.08c-.14.11-.26.18-.37.22-.11.04-.22.06-.34.04-.13-.01-.26-.06-.39-.15-.12-.09-.29-.25-.49-.48l-1.05-1.21h0ZM56.81,50.54l-1.9-2.2.14-.12c.24-.21.45-.36.61-.44.16-.08.32-.13.48-.14.21,0,.42.04.63.14.21.1.39.24.54.42.29.34.42.72.37,1.16-.02.19-.08.36-.17.5-.09.14-.28.33-.57.58l-.13.11h0ZM67.51,39.73c-.14.09-.25.18-.32.27-.07.08-.12.19-.15.31-.03.09-.03.17-.02.26.01.08.04.18.09.29.06.15.14.31.25.5l1.66,2.88c.16.27.29.46.39.57.11.11.22.18.35.22.22.06.47.01.74-.12l.05.09-2.49,1.43-.05-.09c.15-.09.26-.19.33-.27.07-.09.12-.19.15-.31.03-.13.03-.27-.02-.41-.04-.15-.14-.35-.3-.62l-2.01-3.5.7,5.89-.08.05-4.68-3.5,1.97,3.43c.15.27.28.46.39.57.1.11.22.18.35.22.12.03.23.04.34.02.11-.02.25-.07.4-.15l.05.09-1.8,1.04-.05-.09c.14-.09.25-.18.33-.27.07-.09.12-.19.15-.31.03-.13.03-.27-.02-.41-.04-.15-.14-.35-.3-.62l-1.66-2.88c-.07-.12-.14-.23-.21-.33-.12-.18-.23-.31-.33-.37-.14-.09-.28-.12-.42-.12-.15,0-.32.06-.51.16l-.05-.09,1.7-.98,4.1,3.21-.65-5.19,1.61-.92.05.09h0ZM71.34,37.85l-2.62,1.18.04.09c.16-.06.3-.1.41-.11.12,0,.23,0,.34.06.13.05.24.13.33.25.09.12.2.32.33.61l1.37,3.03c.13.28.21.5.24.65.03.15.02.29-.03.41-.04.11-.1.21-.18.29-.08.08-.2.16-.35.24l.04.09,2.62-1.18-.04-.09c-.19.07-.35.11-.49.11-.14,0-.27-.04-.39-.12-.09-.06-.17-.15-.25-.27-.08-.12-.17-.3-.28-.53l-1.37-3.03c-.09-.19-.15-.36-.2-.51-.06-.21-.07-.39-.01-.55.04-.12.1-.21.18-.29.08-.08.2-.16.35-.24l-.04-.09h0ZM74.52,42.9c.16-.06.29-.13.37-.2.09-.07.16-.16.21-.27.06-.12.08-.26.06-.41-.01-.15-.07-.37-.17-.67l-1.07-3.15c-.11-.31-.2-.54-.29-.67-.09-.13-.2-.23-.34-.28-.18-.07-.41-.07-.68.01l-.03-.1,2.35-.79c.52-.18.85-.28,1-.32.62-.16,1.18-.16,1.7,0,.49.15.93.41,1.31.79.38.38.66.84.84,1.38.13.39.2.79.19,1.18,0,.39-.09.74-.23,1.05-.21.43-.53.77-.97,1.02-.33.19-.68.34-1.05.46l-3.16,1.07-.03-.1h0ZM74.45,36.67l1.44,4.25c.09.28.18.49.26.62.08.13.18.24.3.31.26.16.59.17,1,.03.35-.12.63-.28.84-.48.21-.2.37-.46.48-.79.11-.32.16-.65.15-1.01,0-.36-.07-.72-.2-1.08-.14-.4-.33-.77-.57-1.09-.25-.32-.53-.58-.85-.78-.44-.27-.91-.4-1.39-.37-.26.02-.58.09-.95.21l-.52.18h0ZM81.62,40.49c.17-.05.3-.1.39-.16.09-.06.17-.14.23-.25.07-.12.1-.25.1-.4,0-.15-.03-.38-.1-.68l-.75-3.24c-.07-.32-.15-.55-.22-.7-.07-.14-.18-.25-.31-.32-.17-.09-.4-.11-.68-.06l-.02-.1,2.42-.56c.54-.12.88-.2,1.03-.22.63-.1,1.19-.04,1.7.16.48.2.88.5,1.22.92.34.42.57.91.7,1.46.09.41.12.8.07,1.19-.05.39-.16.73-.34,1.02-.25.41-.6.72-1.07.92-.35.15-.71.27-1.09.36l-3.25.75-.02-.1h0ZM82.16,34.29l1.01,4.38c.07.29.13.5.2.65.07.14.16.26.27.34.24.19.57.23,1,.13.36-.08.66-.22.89-.39.23-.18.42-.42.56-.74.14-.3.22-.63.25-.99.03-.36,0-.72-.09-1.1-.1-.42-.25-.8-.46-1.14-.21-.35-.47-.63-.77-.86-.42-.31-.86-.48-1.35-.51-.26-.01-.58.03-.97.12l-.53.12h0ZM92.98,32.33l.26,1.47-.1.02c-.07-.25-.16-.45-.27-.6-.11-.15-.26-.28-.44-.39-.15-.09-.33-.14-.53-.16-.2-.02-.45,0-.77.03l-1.03.13.34,2.69.27-.03c.27-.03.48-.08.61-.13.13-.05.24-.13.31-.24.07-.1.12-.21.15-.33.02-.12.04-.3.03-.53h.1s.29,2.39.29,2.39h-.1c-.06-.21-.12-.39-.19-.53-.07-.13-.16-.24-.26-.33-.1-.08-.23-.14-.38-.17-.15-.03-.34-.03-.56,0l-.26.03.13,1.02c.05.41.1.7.15.89.04.18.1.33.18.45.13.2.31.34.53.41.22.07.5.09.85.04.36-.05.65-.13.88-.25.23-.12.41-.29.54-.5.09-.14.16-.3.21-.47.04-.17.08-.4.1-.67h.1s.17,1.78.17,1.78l-5.34.68v-.1c.16-.03.29-.07.39-.12.1-.05.19-.13.26-.22.08-.11.13-.24.14-.39.02-.15,0-.38-.03-.69l-.42-3.3c-.04-.31-.08-.53-.14-.67-.05-.14-.13-.26-.24-.34-.09-.08-.19-.13-.3-.15-.11-.02-.25-.03-.43-.02v-.1s4.8-.61,4.8-.61h0ZM96.01,33.05l.1,3.93c0,.31.03.54.07.68.04.15.11.27.2.36.09.09.18.15.29.18.11.04.25.06.42.06v.1s-2.07.05-2.07.05v-.1c.17-.01.31-.04.41-.08.11-.04.2-.11.28-.2.09-.1.15-.22.18-.37.03-.15.04-.38.03-.69l-.08-3.33c0-.3-.03-.53-.07-.68-.04-.15-.11-.27-.2-.36-.08-.09-.18-.15-.29-.18-.11-.04-.25-.06-.42-.06v-.1s1.73-.04,1.73-.04l3.78,4.58-.08-3.26c0-.31-.03-.54-.07-.69-.04-.15-.11-.27-.2-.36-.09-.09-.18-.15-.29-.18-.11-.04-.25-.06-.42-.06v-.1s2.07-.05,2.07-.05v.1c-.3,0-.53.1-.69.28-.09.1-.15.22-.18.37-.03.15-.04.38-.03.68l.12,4.75h-.2s-4.38-5.23-4.38-5.23h0ZM102.44,36.19l2.01.15-.05.67-2.01-.15.05-.67h0ZM112.8,33.71l-.19,1.48h-.1c0-.27-.02-.49-.08-.67-.06-.18-.16-.35-.31-.5-.12-.13-.27-.23-.46-.31-.18-.08-.43-.14-.74-.2l-1.02-.18-.48,2.67.27.05c.27.05.48.07.62.06.14-.01.27-.05.37-.13.1-.07.18-.16.24-.27.06-.11.12-.28.19-.5l.1.02-.44,2.37-.1-.02c.01-.23,0-.42-.02-.57-.03-.15-.08-.28-.15-.39-.07-.11-.17-.2-.31-.27-.13-.07-.31-.12-.53-.16l-.25-.05-.18,1.02c-.07.4-.11.7-.13.89-.01.19,0,.35.04.49.06.23.19.41.38.55.19.14.46.23.79.29.35.06.66.07.91.02.26-.05.47-.15.66-.32.13-.11.24-.24.34-.39.09-.15.19-.35.3-.61l.1.02-.37,1.76-5.3-.95.02-.1c.17.02.31.02.42,0,.11-.02.22-.06.32-.14.11-.08.19-.19.25-.33.06-.14.12-.36.17-.66l.59-3.28c.05-.3.08-.53.07-.68,0-.15-.05-.28-.12-.4-.07-.1-.15-.18-.25-.24-.1-.06-.23-.11-.4-.15l.02-.1,4.77.85h0ZM115.47,35.25l-1.07,3.78c-.08.3-.13.52-.14.68,0,.15.02.29.08.4.06.11.13.19.22.26.09.07.22.13.38.18l-.03.1-2-.57.03-.1c.17.04.31.05.42.04.11,0,.22-.04.33-.1.12-.07.21-.17.28-.3.07-.13.15-.35.24-.64l.91-3.21c.08-.29.13-.52.14-.67,0-.15-.02-.29-.08-.41-.05-.11-.13-.19-.22-.26-.09-.07-.22-.13-.39-.18l.03-.1,1.67.47,2.24,5.5.89-3.14c.09-.3.13-.52.14-.67,0-.15-.02-.29-.08-.4-.06-.11-.13-.19-.22-.26-.09-.07-.22-.13-.38-.18l.03-.1,2,.57-.03.1c-.29-.08-.54-.06-.75.06-.12.07-.21.17-.28.3-.07.13-.15.35-.24.64l-1.3,4.57-.2-.06-2.63-6.3h0ZM124.28,37.19l2.52,1.29-.05.09c-.24-.12-.41-.19-.51-.2-.09,0-.18.02-.26.06-.08.05-.15.12-.19.21-.06.11-.09.29-.11.53l-.02.3-.31,3.7,2.21-2.19c.28-.28.47-.5.56-.67.06-.12.1-.25.12-.39.02-.14,0-.26-.03-.37-.03-.11-.09-.2-.16-.27-.07-.07-.18-.15-.32-.22l.05-.09,2.58,1.32-.05.09c-.16-.08-.28-.13-.35-.16-.08-.03-.15-.04-.24-.03-.11,0-.2.04-.3.11-.09.06-.17.15-.22.25-.05.1-.1.28-.15.56l-.64,3.69,2.5-2.15c.38-.33.63-.61.75-.83.12-.24.13-.45.02-.63-.07-.11-.2-.21-.39-.31l.05-.09,1.86.95-.05.09c-.19-.07-.34-.11-.46-.11-.12,0-.26.05-.41.13-.23.12-.57.37-1.02.76l-3.7,3.15-.16-.08.76-5.01-3.64,3.54-.18-.09.42-5.24.03-.35c.02-.24.02-.42.01-.54-.01-.12-.04-.22-.1-.31-.04-.08-.1-.14-.16-.2-.07-.06-.16-.13-.29-.21l.05-.09Z"/>
    <path class="cls-2" d="M138.22,45.34l-.8,1.26-.09-.06c.12-.23.18-.44.21-.63.02-.19,0-.38-.07-.58-.05-.17-.15-.33-.28-.47-.13-.15-.33-.31-.59-.5l-.84-.6-1.57,2.21.22.16c.22.16.4.26.54.32.14.05.26.06.39.04.12-.02.23-.07.33-.14.1-.07.23-.2.39-.37l.08.06-1.41,1.96-.08-.06c.11-.21.19-.38.23-.53.04-.15.05-.29.03-.42-.02-.13-.07-.26-.17-.38-.09-.12-.23-.25-.41-.38l-.21-.15-.6.84c-.24.33-.4.59-.49.75-.09.16-.15.32-.17.45-.04.24,0,.46.11.66.11.2.31.41.59.61.29.21.57.35.82.41.25.07.5.06.73,0,.16-.04.32-.11.47-.21.15-.1.33-.24.53-.43l.08.06-1.08,1.43-4.39-3.12.06-.08c.15.09.27.15.38.18.11.03.22.03.34.01.13-.02.26-.09.37-.19.12-.1.26-.28.44-.53l1.93-2.71c.18-.25.3-.45.35-.59.06-.14.08-.28.06-.41-.02-.12-.06-.22-.12-.32-.06-.09-.17-.19-.3-.3l.06-.08,3.95,2.81h0ZM135.87,51.18l.08.07c.14-.07.26-.06.37.03.03.03.06.06.08.09.02.03.07.14.16.33.17.35.4.66.7.91.32.28.66.45,1.03.51.36.06.72.01,1.06-.15.25-.12.46-.28.64-.49.27-.31.42-.67.44-1.07.02-.35-.08-.78-.3-1.28l-.28-.65c-.29-.66-.27-1.17.06-1.55.08-.1.18-.18.3-.24.12-.07.24-.11.36-.13.3-.04.58.04.83.26.18.15.29.33.35.53.06.2.07.44.03.71-.02.15-.06.3-.12.46-.05.15-.15.37-.27.64l.08.07,1.15-1.37-.08-.07c-.13.09-.23.1-.31.03-.03-.03-.06-.06-.09-.11-.03-.05-.08-.14-.16-.29-.1-.2-.18-.34-.26-.45-.07-.1-.16-.2-.27-.29-.33-.29-.71-.42-1.15-.41-.25,0-.48.06-.71.17-.23.11-.42.26-.59.45-.27.31-.39.65-.38,1.04,0,.14.03.29.08.47.05.17.14.41.26.71.14.34.23.6.28.79.05.19.07.35.06.5-.01.14-.05.29-.12.44-.07.15-.15.29-.25.4-.23.27-.51.42-.83.44-.32.03-.62-.07-.88-.3-.38-.33-.52-.79-.44-1.38.05-.32.18-.7.39-1.14l-.07-.08-1.23,1.4h0ZM145.68,51.96c-.13-.14-.28-.28-.43-.43-.34-.32-.62-.53-.84-.63-.23-.1-.47-.13-.74-.07-.25.05-.53.17-.84.37l-.06-.08,1.26-1.09,4.21,4.41-1.15,1.21-.08-.07c.25-.35.39-.66.42-.93.04-.27-.03-.56-.19-.87-.13-.26-.43-.63-.89-1.11l-3.33,3.18c-.22.21-.38.38-.46.51-.08.13-.13.26-.13.39,0,.12.02.23.06.34.05.1.12.22.24.35l-.07.07-1.99-2.09.07-.07c.13.12.24.2.34.26.1.05.21.08.33.08.13,0,.27-.04.4-.11.13-.08.31-.22.53-.44l3.33-3.18h0ZM145.58,60.64l1.91,2.68c.26.36.48.63.66.8.18.17.37.29.58.37.22.08.46.1.71.06.25-.04.48-.14.71-.3.22-.16.39-.35.52-.57.13-.22.2-.46.22-.7,0-.16-.01-.33-.06-.49-.05-.16-.13-.38-.26-.64.18.13.33.22.45.27.11.05.24.09.36.11.35.05.68-.04,1-.27.2-.14.35-.31.45-.51.1-.2.14-.42.12-.64-.02-.26-.12-.54-.29-.83-.05-.08-.16-.24-.33-.49l-1.71-2.41-.08.06c.09.14.15.27.18.38.03.11.03.22.01.34-.02.13-.09.26-.19.37-.1.11-.28.26-.53.44l-2.71,1.93c-.25.18-.45.3-.59.36-.14.06-.28.08-.41.05-.12-.02-.22-.06-.32-.12-.1-.06-.2-.16-.3-.3l-.08.06h0ZM151.6,58.72l.24.34c.19.26.31.47.37.62.06.15.09.3.08.46-.01.18-.07.37-.2.56-.12.19-.27.35-.46.48-.18.13-.36.21-.56.24-.19.04-.38.03-.56-.03-.1-.03-.18-.08-.27-.14-.08-.06-.18-.15-.29-.27-.13-.14-.24-.27-.34-.41l-.21-.3,2.19-1.56h0ZM149.3,60.36l.47.66c.34.47.49.88.47,1.23-.01.19-.09.39-.22.59-.13.2-.3.38-.52.53-.37.26-.75.36-1.13.28-.38-.08-.71-.31-.99-.71-.22-.3-.29-.58-.21-.82.04-.12.1-.23.2-.33.09-.11.23-.22.42-.35l1.51-1.08h0ZM152.99,66.14l-1.38.8c-.27.15-.46.28-.57.39-.11.11-.19.22-.22.35-.03.11-.04.23-.02.34.02.11.07.25.15.4l-.09.05-1.44-2.5.09-.05c.09.15.19.26.27.33.09.07.19.12.3.15.13.03.27.03.41-.01.14-.05.35-.14.62-.3l2.88-1.66c.27-.16.46-.28.57-.38.11-.1.18-.22.22-.35.04-.11.04-.23.02-.34-.02-.11-.07-.25-.15-.4l.09-.05,1.08,1.89c.18.31.3.52.35.62.21.42.34.76.38,1.04.05.32,0,.61-.12.87-.12.26-.33.47-.6.63-.41.23-.82.27-1.24.1-.13-.05-.25-.12-.36-.21-.11-.09-.25-.21-.4-.38.02.19.02.34,0,.46-.02.09-.06.18-.11.28-.06.1-.16.25-.31.47-.34.51-.59.88-.74,1.13-.15.25-.25.44-.31.57-.04.11-.06.21-.06.29,0,.08.03.18.08.29l-.09.05-.74-1.29c.11-.15.17-.24.2-.28l.46-.63c.28-.38.51-.73.7-1.07.19-.33.29-.6.32-.79.01-.1,0-.2-.02-.29-.02-.09-.07-.2-.14-.32l-.11-.19h0ZM153.08,66.09l.09.15c.19.33.34.55.46.67.12.12.27.21.45.26.42.13.82.08,1.21-.15.21-.12.38-.27.51-.45.14-.18.22-.38.26-.59.03-.16.01-.33-.04-.5-.05-.17-.16-.4-.32-.68l-.09-.16-2.52,1.45h0ZM155.17,77.17l-1.22-2.7.09-.04c.13.23.25.39.35.45.18.12.37.14.56.05.11-.05.25-.16.4-.32l.14-.15.79-.83-.82-1.81-.66.04h-.3c-.36.02-.62.07-.79.15-.1.05-.19.11-.25.2-.07.08-.11.18-.13.28-.03.14,0,.3.06.47l-.09.04-.83-1.84.09-.04c.07.14.17.25.28.33.11.08.26.14.45.18.15.04.34.06.55.06.21,0,.53,0,.94-.03l4.56-.25.11.24-3.51,3.75c-.27.28-.45.49-.55.64-.1.14-.17.28-.2.4-.02.09-.02.18-.01.28.01.1.05.23.11.41l-.09.04h0ZM156.42,73.5l1.74-1.83-2.5.14.76,1.68h0ZM155.29,77.64l1.06,3.12c.14.42.28.74.4.96.12.22.27.39.45.52.19.14.42.23.66.26.25.03.5,0,.76-.09.26-.09.48-.22.66-.39.19-.18.32-.38.41-.61.05-.16.08-.32.09-.49,0-.17-.02-.4-.07-.69.14.17.26.3.35.39.09.09.2.15.32.21.32.15.66.16,1.04.03.23-.08.42-.2.57-.36.15-.16.25-.36.3-.58.06-.26.04-.55-.04-.88-.02-.09-.08-.28-.18-.56l-.95-2.8-.1.03c.05.16.07.31.07.42,0,.12-.03.22-.09.33-.06.12-.16.22-.28.3-.13.08-.34.17-.63.27l-3.15,1.07c-.29.1-.52.16-.67.17-.15.02-.29,0-.41-.07-.11-.05-.19-.12-.27-.21-.07-.09-.14-.21-.21-.38l-.1.03h0ZM161.61,77.53l.13.4c.1.3.16.54.18.7.02.16,0,.32-.06.47-.06.17-.18.33-.35.48-.17.15-.36.26-.58.33-.21.07-.41.09-.6.07-.2-.02-.37-.08-.53-.19-.08-.06-.15-.13-.22-.21-.06-.08-.13-.2-.2-.34-.08-.17-.15-.33-.21-.49l-.12-.35,2.55-.86h0ZM158.93,78.44l.26.77c.19.55.22.99.09,1.31-.07.18-.19.34-.38.5-.19.16-.4.27-.65.36-.43.15-.82.13-1.16-.05-.34-.18-.59-.5-.74-.96-.12-.35-.11-.64.03-.85.07-.1.16-.19.28-.26.12-.08.29-.15.5-.22l1.76-.6h0ZM158.67,90.01l-.67-2.89.1-.02c.08.26.17.43.26.52.16.16.34.21.54.16.12-.03.27-.11.45-.23l.17-.12.94-.66-.45-1.94-.66-.09-.3-.05c-.35-.06-.62-.07-.81-.02-.11.03-.2.07-.29.14-.08.07-.14.15-.18.25-.05.13-.07.29-.04.48l-.1.02-.45-1.97.1-.02c.05.15.11.28.21.38.09.1.23.19.4.27.14.07.32.12.53.17.21.04.52.1.93.16l4.52.65.06.25-4.18,2.98c-.32.23-.54.4-.67.52-.13.12-.22.24-.28.35-.04.08-.06.17-.07.27,0,.1,0,.24.02.43l-.1.02h0ZM160.63,86.65l2.07-1.45-2.48-.35.42,1.8h0ZM164.11,91.21l-3.92.3c-.31.02-.54.06-.68.1-.14.05-.26.12-.35.22-.08.09-.14.19-.17.3-.03.11-.04.25-.04.42h-.1s-.16-2.06-.16-2.06h.1c.02.16.06.3.1.4.05.1.12.19.21.27.1.08.23.14.38.16.15.02.38.02.69,0l3.32-.25c.3-.02.53-.06.67-.1.15-.05.26-.12.35-.22.08-.09.14-.19.17-.3.03-.11.04-.25.04-.43h.1s.13,1.72.13,1.72l-4.39,4.01,3.25-.25c.31-.02.54-.06.68-.1.14-.04.26-.12.35-.22.08-.09.14-.19.17-.3.03-.11.04-.25.04-.42h.1s.16,2.06.16,2.06h-.1c-.02-.29-.13-.52-.31-.67-.1-.08-.23-.14-.38-.16-.15-.02-.38-.02-.68,0l-4.73.36-.02-.2,5.01-4.64h0ZM165.19,100.39c0-.19,0-.39,0-.61-.01-.46-.06-.81-.15-1.04-.09-.23-.24-.42-.47-.57-.21-.14-.49-.25-.85-.33v-.1s1.67.12,1.67.12l-.15,6.09-1.67.04v-.1c.41-.07.73-.19.95-.36.22-.17.38-.42.48-.74.09-.28.14-.75.16-1.42l-4.6-.12c-.31,0-.54,0-.69.04-.15.03-.27.09-.37.18-.09.08-.16.18-.2.28-.04.11-.07.24-.08.42h-.1s.07-2.88.07-2.88h.1c0,.18.03.32.06.43.04.11.1.2.18.29.09.09.21.16.36.2.15.04.37.06.69.07l4.6.12Z"/>
  </g>
  <path class="cls-2" d="M58.94,153.27c.14.08.26.13.36.16.1.02.21.02.32,0,.12-.03.23-.09.34-.19.1-.1.23-.27.39-.51l1.69-2.6c.17-.26.28-.46.32-.6.05-.14.05-.28,0-.42-.05-.17-.19-.34-.4-.49l.05-.08,1.94,1.26c.43.28.7.46.81.55.47.36.8.77.99,1.25.18.45.24.92.18,1.42-.06.5-.24.97-.53,1.41-.21.33-.46.6-.75.82-.29.22-.59.37-.9.43-.44.1-.87.06-1.31-.12-.33-.14-.64-.3-.95-.5l-2.61-1.69.05-.08h0ZM63.46,149.61l-2.28,3.52c-.15.23-.25.42-.3.55-.05.14-.07.27-.05.4.03.28.22.53.56.75.29.19.57.3.84.34.27.04.55,0,.86-.11.29-.1.57-.26.83-.48.26-.21.48-.47.68-.77.22-.33.37-.69.47-1.05.09-.37.12-.73.08-1.08-.06-.48-.24-.89-.53-1.23-.16-.18-.4-.37-.71-.57l-.43-.28h0ZM72.01,154.45l-4.01-2.11-.04.08c.14.08.25.17.32.24.07.08.12.17.15.28.04.12.04.25,0,.39-.04.14-.12.33-.25.59l-1.45,2.75c-.13.25-.25.43-.34.54-.09.11-.2.18-.32.22-.11.04-.21.05-.32.03-.1-.01-.23-.05-.38-.12l-.04.08,4.45,2.34.82-1.46-.08-.05c-.16.2-.31.35-.44.46-.13.11-.26.19-.41.25-.21.09-.43.12-.68.09-.24-.03-.51-.12-.81-.28-.28-.15-.49-.31-.62-.49-.13-.18-.19-.37-.18-.6,0-.13.04-.28.1-.44.06-.16.18-.42.36-.76l.45-.85.21.11c.18.1.33.2.43.3.1.1.17.21.2.33.03.12.04.25.03.39-.02.14-.07.31-.14.51l.08.04,1.06-1.99-.08-.05c-.12.18-.23.31-.31.39-.09.08-.18.14-.29.17-.11.04-.23.04-.37.01-.13-.03-.31-.11-.54-.22l-.23-.12,1.18-2.24.85.45c.26.14.47.27.61.39.14.12.25.25.32.4.09.18.13.36.13.53,0,.18-.03.38-.11.6l.09.04.59-1.26h0ZM80.76,157.88c-.15-.04-.28-.07-.38-.06-.1,0-.21.03-.31.08-.08.04-.14.08-.2.14-.05.06-.1.14-.15.24-.07.13-.13.29-.2.48l-1.02,2.93c-.09.27-.15.48-.16.63-.01.14,0,.27.06.38.1.19.28.34.54.44l-.03.09-2.54-.88.03-.09c.16.05.29.07.39.06.11,0,.21-.03.31-.08.11-.06.21-.15.28-.27.08-.12.16-.32.26-.59l1.24-3.56-3.72,4.1-.08-.03-.39-5.44-1.21,3.49c-.1.27-.15.48-.16.62-.02.14,0,.27.06.38.05.1.11.19.19.25.08.07.2.13.35.19l-.03.09-1.83-.64.03-.09c.15.04.28.07.39.06.11,0,.21-.03.31-.08.11-.06.21-.15.28-.27.08-.12.16-.32.26-.59l1.02-2.93c.04-.12.08-.24.11-.35.05-.2.07-.35.06-.46-.02-.15-.08-.27-.18-.37-.09-.1-.24-.19-.42-.27l.03-.09,1.72.6.24,4.85,3.26-3.63,1.63.57-.03.09h0ZM85.98,164.86l.02-.09c-.17-.06-.29-.11-.37-.15-.08-.05-.15-.1-.2-.16-.08-.09-.14-.22-.19-.37-.05-.16-.1-.41-.16-.77l-.82-4.72-.24-.05-2.37,3.54c-.21.32-.38.56-.51.72-.12.16-.24.28-.36.38-.13.12-.26.19-.39.23-.13.04-.26.05-.41.02l-.02.09,1.84.41.02-.09c-.17-.05-.29-.13-.38-.22-.06-.07-.11-.16-.13-.25-.03-.1-.03-.2,0-.3.04-.17.15-.4.34-.67l.16-.23.34-.52,1.81.41.18,1.06.03.19c.03.21.04.36.01.48-.04.19-.16.32-.35.39-.11.04-.29.04-.54,0l-.02.09,2.7.61h0ZM83.94,161.86l-1.68-.38,1.3-1.95.38,2.32h0ZM89.16,162.46l-.17,1.48c-.03.29-.04.5-.02.64.02.14.06.26.14.36.07.09.15.15.24.2.1.05.22.09.39.11v.09s-2.68-.3-2.68-.3v-.09c.17.01.31,0,.41-.02.1-.03.2-.07.28-.14.1-.08.17-.19.22-.32.05-.13.09-.34.12-.63l.35-3.09c.03-.29.04-.5.03-.64-.02-.14-.06-.26-.14-.36-.07-.09-.15-.16-.24-.21-.1-.05-.22-.08-.38-.11v-.09s2.03.23,2.03.23c.34.04.56.06.66.08.43.07.76.17,1,.29.26.14.46.33.58.57.13.24.17.51.14.8-.05.44-.25.77-.61.99-.11.07-.23.12-.35.15-.13.04-.3.07-.5.09.16.09.27.18.34.26.06.07.11.15.15.24.04.09.1.26.18.49.19.54.33.93.43,1.18.1.25.19.43.26.55.06.1.12.16.18.2.06.04.15.07.26.1v.09s-1.39-.16-1.39-.16c-.05-.16-.09-.26-.1-.31l-.22-.7c-.13-.42-.27-.79-.41-1.12-.14-.32-.28-.55-.42-.68-.07-.06-.15-.11-.23-.15-.08-.03-.19-.06-.32-.07l-.21-.02h0ZM89.17,162.36l.16.02c.35.04.6.05.76.03.15-.02.3-.09.45-.19.33-.25.51-.58.56-.99.03-.22,0-.43-.06-.64-.06-.2-.16-.38-.3-.52-.11-.11-.24-.19-.4-.25-.16-.06-.39-.1-.69-.14l-.17-.02-.31,2.7h0ZM95.47,162.87l1.85-1.7c.18-.17.3-.28.34-.34.05-.06.07-.13.07-.21,0-.14-.06-.24-.19-.32-.07-.04-.19-.07-.35-.09v-.09s1.82.07,1.82.07v.09c-.13,0-.23.02-.32.05-.08.03-.18.07-.28.14-.11.07-.31.23-.58.48l-1.42,1.26,1.85,2.55.23.32c.17.23.35.4.53.53.11.08.21.14.3.17.09.03.19.06.33.09v.09s-2.78-.11-2.78-.11v-.09c.22,0,.37-.04.46-.09.1-.05.14-.13.15-.23,0-.11-.05-.26-.16-.44-.05-.09-.15-.24-.3-.45-.15-.21-.27-.39-.37-.52l-.9-1.21-.28.26-.05,1.39c-.01.29,0,.5.02.64.03.14.08.26.17.35.07.08.16.14.26.19.1.04.23.07.39.08v.09s-2.68-.1-2.68-.1v-.09c.17,0,.3-.02.4-.05.1-.03.19-.09.27-.17.09-.09.16-.2.19-.34.04-.14.06-.35.07-.64l.12-3.1c.01-.29,0-.5-.02-.64-.03-.14-.08-.26-.17-.35-.07-.09-.16-.15-.26-.19-.1-.04-.23-.07-.39-.08v-.09s2.68.1,2.68.1v.09c-.16,0-.3.02-.4.05-.1.03-.19.09-.28.17-.09.09-.15.2-.19.34-.04.14-.06.35-.07.64l-.06,1.49h0ZM102.88,159.94v.09c-.15.02-.28.05-.38.1-.1.04-.18.11-.25.2-.1.12-.16.28-.17.48,0,.15,0,.32.01.51l.23,3.1c.02.23.04.42.07.55.03.13.08.24.13.31.08.11.18.18.3.23s.27.07.46.06v.09s-2.67.2-2.67.2v-.09c.15-.02.28-.05.38-.1.1-.05.18-.11.25-.19.08-.1.13-.22.15-.35.02-.14.02-.35,0-.64l-.23-3.1c-.02-.29-.05-.5-.09-.64-.04-.14-.11-.24-.21-.33-.08-.08-.17-.13-.28-.16-.1-.03-.23-.04-.39-.04v-.09s2.67-.2,2.67-.2h0ZM108.39,159.27l.26,1.37-.09.02c-.07-.23-.15-.42-.26-.56-.11-.14-.25-.26-.42-.36-.14-.08-.31-.13-.49-.14-.18-.02-.42,0-.72.04l-.96.13.35,2.51.25-.03c.25-.04.44-.08.57-.13.12-.05.22-.12.29-.22.07-.09.11-.19.14-.31.02-.11.03-.28.03-.5h.09s.29,2.23.29,2.23h-.09c-.06-.2-.12-.37-.18-.49-.07-.12-.15-.23-.25-.3-.1-.08-.21-.13-.35-.15-.14-.02-.31-.02-.52,0l-.24.03.13.96c.05.38.1.66.15.83.04.17.1.31.17.42.12.19.29.31.5.38.21.07.47.08.79.03.33-.05.61-.13.82-.24.21-.12.38-.27.49-.47.08-.13.15-.28.19-.44.04-.16.07-.37.09-.63h.09s.18,1.66.18,1.66l-4.98.69v-.09c.15-.03.27-.07.36-.12.09-.05.17-.12.24-.21.07-.1.12-.22.13-.36.01-.14,0-.36-.04-.64l-.43-3.08c-.04-.28-.08-.49-.14-.63-.05-.13-.13-.24-.22-.32-.09-.07-.18-.12-.29-.14-.1-.02-.24-.03-.4-.01v-.09s4.47-.62,4.47-.62h0ZM109.79,159.06l4.39-1.01.02.09-2.32,6.2,1.31-.3c.77-.18,1.3-.41,1.6-.71.24-.24.41-.55.5-.95.04-.17.05-.35.04-.56l.09-.02.28,1.79-4.86,1.12-.02-.09,2.35-6.21-1.17.27c-.42.1-.75.21-.98.32-.23.12-.43.27-.59.47-.13.16-.22.33-.27.5-.05.17-.06.37-.04.59h-.09s-.25-1.5-.25-1.5h0ZM122.64,161.43l-2.63.87-.03-.09c.23-.1.38-.19.46-.28.13-.16.17-.33.11-.51-.04-.11-.12-.24-.26-.4l-.12-.15-.69-.82-1.76.58-.03.62-.02.28c-.02.33,0,.58.05.75.03.1.08.18.16.25.07.07.15.12.25.15.13.04.28.04.44,0l.03.09-1.79.59-.03-.09c.14-.05.25-.13.34-.23.09-.1.16-.23.21-.4.05-.14.09-.31.11-.51.02-.2.05-.49.07-.88l.22-4.26.23-.08,3.13,3.63c.24.27.41.47.54.58.12.11.24.19.35.23.08.03.17.04.26.04.09,0,.22-.02.39-.06l.03.09h0ZM119.35,159.9l-1.52-1.8-.11,2.34,1.64-.54h0ZM123.45,154.94l1.73,3.93c.12.27.19.47.21.61.03.14.02.27-.03.38-.04.11-.1.2-.17.27-.08.07-.19.15-.33.22l.04.09,2.46-1.08-.04-.09c-.15.06-.28.09-.38.1-.11,0-.21-.01-.32-.05-.12-.05-.22-.13-.3-.24-.09-.11-.19-.3-.3-.57l-1.73-3.93c.57-.25.99-.4,1.26-.43.32-.04.59,0,.82.11.23.12.46.34.68.67l.08-.05-.7-1.39-5.21,2.29.56,1.45.09-.03c-.07-.34-.09-.62-.06-.85.04-.25.14-.46.3-.62.16-.17.43-.35.82-.54.18-.09.35-.17.51-.25h0ZM131.01,150.87l.74,1.18-.08.05c-.15-.19-.3-.33-.45-.42-.15-.09-.32-.15-.52-.18-.16-.02-.33,0-.51.05-.18.05-.4.15-.66.3l-.84.47,1.24,2.21.22-.12c.22-.13.38-.24.48-.33.1-.09.16-.2.19-.31.03-.11.03-.22.01-.34-.02-.11-.07-.27-.16-.47l.08-.04,1.09,1.97-.08.05c-.13-.18-.25-.31-.35-.4-.11-.09-.22-.16-.34-.19-.12-.04-.25-.04-.39-.01-.14.03-.3.1-.48.2l-.21.12.47.84c.19.33.33.57.44.72.1.14.21.25.31.33.18.13.38.19.6.17.22-.01.47-.1.75-.26.29-.16.52-.34.67-.53.16-.19.25-.39.29-.62.03-.15.03-.31.01-.48-.02-.16-.07-.37-.15-.62l.08-.04.78,1.48-4.38,2.46-.05-.08c.14-.09.24-.17.31-.25.07-.08.12-.18.15-.29.03-.12.03-.25-.01-.39-.04-.14-.13-.33-.27-.58l-1.52-2.71c-.14-.25-.26-.43-.36-.53-.1-.11-.2-.18-.32-.21-.11-.03-.21-.04-.32-.02-.1.02-.23.06-.38.13l-.05-.08,3.94-2.22h0ZM133.27,150.28l6.15,1.68.15-.11-2.62-3.57c-.17-.23-.28-.41-.34-.54-.06-.13-.08-.26-.06-.38.03-.22.16-.42.38-.59l-.06-.08-1.56,1.15.06.08c.13-.09.25-.15.35-.18.1-.03.21-.03.32-.02.12.02.24.08.35.17.11.09.25.25.42.49l1.8,2.45-5.34-1.5-1.31.96.06.08c.14-.09.26-.15.36-.18.1-.03.21-.03.32-.01.12.02.24.08.35.17.11.09.25.25.42.48l1.84,2.51c.17.23.28.41.34.54.06.13.08.26.06.38-.02.11-.05.21-.11.3-.06.09-.15.18-.27.28l.06.08,1.56-1.15-.06-.08c-.13.09-.25.15-.35.18-.1.03-.21.03-.32.02-.12-.02-.24-.08-.35-.17-.11-.09-.25-.25-.42-.49l-2.17-2.96Z"/>
  <polygon class="cls-1" points="92.27 150.82 92.9 152.79 94.98 152.79 93.3 154 93.94 155.97 92.27 154.75 90.59 155.97 91.24 154 89.56 152.79 91.63 152.79 92.27 150.82"/>
  <g>
    <polygon class="cls-1" points="67.33 51.23 67.97 53.2 70.04 53.2 68.36 54.41 69.01 56.38 67.33 55.16 65.66 56.38 66.3 54.41 64.62 53.2 66.69 53.2 67.33 51.23"/>
    <polygon class="cls-1" points="79.18 45.38 79.82 47.35 81.89 47.35 80.21 48.56 80.86 50.53 79.18 49.31 77.51 50.53 78.15 48.56 76.48 47.35 78.55 47.35 79.18 45.38"/>
    <polygon class="cls-1" points="92.11 42.45 92.75 44.43 94.82 44.42 93.14 45.64 93.79 47.61 92.11 46.38 90.44 47.61 91.08 45.64 89.41 44.42 91.48 44.43 92.11 42.45"/>
    <polygon class="cls-1" points="105.35 42.45 105.99 44.43 108.06 44.42 106.38 45.64 107.03 47.61 105.35 46.38 103.68 47.61 104.32 45.64 102.64 44.42 104.72 44.43 105.35 42.45"/>
    <polygon class="cls-1" points="118.44 45.53 119.07 47.5 121.14 47.5 119.47 48.72 120.11 50.68 118.44 49.46 116.76 50.68 117.41 48.72 115.73 47.5 117.8 47.5 118.44 45.53"/>
    <polygon class="cls-1" points="130.44 51.38 131.08 53.35 133.15 53.35 131.47 54.56 132.12 56.53 130.44 55.31 128.77 56.53 129.41 54.56 127.73 53.35 129.81 53.35 130.44 51.38"/>
    <polygon class="cls-1" points="140.29 60.62 140.93 62.59 143 62.59 141.32 63.8 141.97 65.77 140.29 64.55 138.62 65.77 139.26 63.8 137.59 62.59 139.66 62.59 140.29 60.62"/>
    <polygon class="cls-1" points="147.1 71.08 147.74 73.06 149.81 73.05 148.13 74.27 148.78 76.24 147.1 75.02 145.43 76.24 146.07 74.27 144.39 73.05 146.47 73.06 147.1 71.08"/>
    <polygon class="cls-1" points="151.57 83.55 152.2 85.52 154.28 85.52 152.6 86.74 153.24 88.7 151.57 87.48 149.89 88.7 150.54 86.74 148.86 85.52 150.93 85.52 151.57 83.55"/>
    <polygon class="cls-1" points="153.26 96.79 153.9 98.76 155.97 98.76 154.29 99.97 154.93 101.94 153.26 100.72 151.59 101.94 152.23 99.97 150.55 98.76 152.62 98.76 153.26 96.79"/>
    <polygon class="cls-1" points="151.72 109.72 152.36 111.69 154.43 111.69 152.75 112.9 153.39 114.87 151.72 113.65 150.05 114.87 150.69 112.9 149.01 111.69 151.08 111.69 151.72 109.72"/>
    <polygon class="cls-1" points="146.95 122.19 147.59 124.16 149.66 124.16 147.98 125.37 148.62 127.34 146.95 126.12 145.28 127.34 145.92 125.37 144.24 124.16 146.31 124.16 146.95 122.19"/>
    <polygon class="cls-1" points="49.78 121.88 50.42 123.85 52.49 123.85 50.81 125.06 51.46 127.03 49.78 125.81 48.11 127.03 48.75 125.06 47.08 123.85 49.15 123.85 49.78 121.88"/>
    <polygon class="cls-1" points="45.01 109.87 45.65 111.85 47.72 111.84 46.04 113.06 46.69 115.03 45.01 113.81 43.34 115.03 43.98 113.06 42.3 111.84 44.38 111.85 45.01 109.87"/>
    <polygon class="cls-1" points="43.32 96.48 43.96 98.45 46.03 98.45 44.35 99.66 44.99 101.63 43.32 100.41 41.64 101.63 42.29 99.66 40.61 98.45 42.68 98.45 43.32 96.48"/>
    <polygon class="cls-1" points="45.01 83.55 45.65 85.52 47.72 85.52 46.04 86.73 46.69 88.7 45.01 87.48 43.34 88.7 43.98 86.73 42.3 85.52 44.38 85.52 45.01 83.55"/>
    <polygon class="cls-1" points="49.78 71.08 50.42 73.06 52.49 73.05 50.81 74.27 51.46 76.24 49.78 75.01 48.11 76.24 48.75 74.27 47.08 73.05 49.15 73.06 49.78 71.08"/>
    <polygon class="cls-1" points="57.33 60.16 57.96 62.13 60.03 62.12 58.36 63.34 59 65.31 57.33 64.09 55.65 65.31 56.3 63.34 54.62 62.12 56.69 62.13 57.33 60.16"/>
  </g>
  <path class="cls-1" d="M49.11,130.83h6.83s0-12.34,0-12.34h.9s0-.72,0-.72c-.02-.23-.2-.41-.59-.51-.45,0-.85-.07-1.17-.25-.41-.65,2.15-.45,2.37.29.35.11.47.31.45.57-.33-.02-.48.04-.47.16v.45s1.18,0,1.18,0v6.5s9.28-3.46,9.28-3.46v9.38s1.05,0,1.05,0v-4.08l2.97-2.11,3.25,2.13v4.05s1.19,0,1.19,0v-7.12h5v7.13h1.46v-9.76h2.66s0,9.76,0,9.76h2.04s-.25-7.1-.25-7.1c1.05-1.97,4.89-1.95,5.93,0v7.13s2.68,0,2.68,0v-2.98h2.37s0,2.95,0,2.95h3.21v-6.49l1.79.86h.6s0-.87,0-.87l1.21.87h.56s0-.87,0-.87l1.77.87h.6s0-.86,0-.86l1.64.86h.73s0-4.14,0-4.14h2.93s0,9.75,0,9.75h3.52v-3.75l1.8.53v-.83s1.94.81,1.94.81h.56s0-9.9,0-9.9h2.33s0,13.15,0,13.15h1.06v-7.12h5.39s0,7.14,0,7.14h1.12v-9.74h3.24s-.01,9.74-.01,9.74h1.44v-7.13c.92-1.46,4.52-1.57,5.69,0v7.13s6.18-.04,6.18-.04c5.88-9.12,9.3-19.99,9.3-31.66,0-16.15-6.55-30.77-17.13-41.36-10.58-10.58-25.21-17.13-41.36-17.13s-30.77,6.55-41.36,17.13-17.13,25.21-17.13,41.36c0,11.65,3.41,22.5,9.27,31.62h0ZM138.33,142.72c-1.25,1.17-2.56,2.27-3.91,3.3-9.98,7.71-22.51,12.3-36.1,12.3-16.32,0-31.1-6.62-41.79-17.31-10.7-10.7-17.31-25.47-17.31-41.79s6.62-31.1,17.31-41.79c10.7-10.7,25.47-17.31,41.79-17.31s31.1,6.62,41.79,17.31c10.7,10.7,17.31,25.47,17.31,41.79s-6.62,31.1-17.31,41.79c-.58.58-1.18,1.15-1.79,1.71Z"/>
  <path class="cls-2" d="M100.72,120.12c.35-.18.72-.28,1.12-.28.39,0,.81.08,1.26.27l.03.02c.34.19.68.29,1.02.29.34,0,.68-.1,1.03-.29h.01c.39-.2.79-.29,1.19-.29.4,0,.81.1,1.22.28h.03c.61.36,1.23.37,1.84.02.35-.23.72-.34,1.09-.34.37,0,.74.12,1.11.33l-.3.53c-.28-.16-.55-.25-.81-.25-.25,0-.5.07-.75.24h-.02c-.82.48-1.63.47-2.45.02-.33-.14-.65-.22-.96-.22-.31,0-.62.07-.91.21-.43.24-.87.36-1.32.36-.44,0-.87-.11-1.3-.35-.36-.16-.7-.23-1-.22-.3,0-.58.08-.84.22l-.28-.55Z"/>
  <path class="cls-2" d="M100.72,118.72c.35-.18.72-.28,1.12-.28.39,0,.81.08,1.26.27l.03.02c.34.19.68.29,1.02.29.34,0,.68-.1,1.03-.29h.01c.39-.2.79-.29,1.19-.29.4,0,.81.1,1.22.28h.03c.61.36,1.23.37,1.84.02.35-.23.72-.34,1.09-.34.37,0,.74.12,1.11.33l-.3.53c-.28-.16-.55-.25-.81-.25-.25,0-.5.07-.75.24h-.02c-.82.48-1.63.47-2.45.02-.33-.14-.65-.22-.96-.22-.31,0-.62.07-.91.21-.43.24-.87.36-1.32.36-.44,0-.87-.11-1.3-.35-.36-.16-.7-.23-1-.22-.3,0-.58.08-.84.22l-.28-.55Z"/>
  <g>
    <polygon class="cls-4" points="140.29 132.96 140.93 134.94 143 134.93 141.32 136.15 141.97 138.12 140.29 136.89 138.62 138.12 139.26 136.15 137.59 134.93 139.66 134.94 140.29 132.96"/>
    <polygon class="cls-4" points="130.44 141.74 131.08 143.71 133.15 143.71 131.47 144.92 132.12 146.89 130.44 145.67 128.77 146.89 129.41 144.92 127.73 143.71 129.81 143.71 130.44 141.74"/>
    <polygon class="cls-4" points="118.28 147.74 118.92 149.71 120.99 149.71 119.31 150.92 119.96 152.89 118.28 151.67 116.61 152.89 117.25 150.92 115.57 149.71 117.65 149.71 118.28 147.74"/>
    <polygon class="cls-4" points="105.51 150.82 106.14 152.79 108.21 152.79 106.54 154 107.18 155.97 105.51 154.75 103.83 155.97 104.48 154 102.8 152.79 104.87 152.79 105.51 150.82"/>
    <polygon class="cls-4" points="92.27 150.82 92.9 152.79 94.98 152.79 93.3 154 93.94 155.97 92.27 154.75 90.59 155.97 91.24 154 89.56 152.79 91.63 152.79 92.27 150.82"/>
    <polygon class="cls-4" points="79.18 147.74 79.82 149.71 81.89 149.71 80.21 150.92 80.86 152.89 79.18 151.67 77.51 152.89 78.15 150.92 76.48 149.71 78.55 149.71 79.18 147.74"/>
    <polygon class="cls-4" points="67.33 141.58 67.97 143.56 70.04 143.55 68.36 144.77 69.01 146.74 67.33 145.51 65.66 146.74 66.3 144.77 64.62 143.55 66.7 143.56 67.33 141.58"/>
    <polygon class="cls-4" points="57.33 132.96 57.96 134.94 60.03 134.93 58.36 136.15 59 138.12 57.33 136.89 55.65 138.12 56.3 136.15 54.62 134.93 56.69 134.94 57.33 132.96"/>
  </g>
</svg>