<?xml version="1.0" encoding="UTF-8" standalone="no"?>
<svg
   width="125"
   height="125"
   version="1.1"
   xml:space="preserve"
   id="svg28301"
   sodipodi:docname="907-2.svg"
   inkscape:version="1.3.2 (091e20e, 2023-11-25, custom)"
   xmlns:inkscape="http://www.inkscape.org/namespaces/inkscape"
   xmlns:sodipodi="http://sodipodi.sourceforge.net/DTD/sodipodi-0.dtd"
   xmlns="http://www.w3.org/2000/svg"
   xmlns:svg="http://www.w3.org/2000/svg"
   xmlns:rdf="http://www.w3.org/1999/02/22-rdf-syntax-ns#"
   xmlns:cc="http://creativecommons.org/ns#"
   xmlns:dc="http://purl.org/dc/elements/1.1/"><metadata
     id="metadata28305"><rdf:RDF><cc:Work
         rdf:about=""><dc:format>image/svg+xml</dc:format><dc:type
           rdf:resource="http://purl.org/dc/dcmitype/StillImage" /></cc:Work></rdf:RDF></metadata><sodipodi:namedview
     pagecolor="#ffffff"
     bordercolor="#666666"
     borderopacity="1"
     objecttolerance="10"
     gridtolerance="10"
     guidetolerance="10"
     inkscape:pageopacity="0"
     inkscape:pageshadow="2"
     inkscape:window-width="1920"
     inkscape:window-height="1017"
     id="namedview28303"
     showgrid="false"
     inkscape:zoom="3.5488722"
     inkscape:cx="35.504237"
     inkscape:cy="33.10911"
     inkscape:window-x="3832"
     inkscape:window-y="131"
     inkscape:window-maximized="1"
     inkscape:current-layer="svg28301"
     inkscape:showpageshadow="2"
     inkscape:pagecheckerboard="0"
     inkscape:deskcolor="#d1d1d1" /><defs
     id="defs28287"><clipPath
       id="clipPath18"><path
         d="M 0,265.97 V 0 h 566.93 v 265.97 z"
         id="path28284"
         inkscape:connector-curvature="0" /></clipPath></defs><path
     class="cls-3"
     d="m 62.980847,7.8686439 c -20.4,0 -36.93,16.5300001 -36.93,36.9300001 0,3.04 0.38,5.99 1.07,8.82 0,0.02 0,0.05 0.01,0.07 0,0.02 0.01,0.03 0.02,0.05 0.42,1.67 0.95,3.29 1.58,4.86 11.25,29.1 32.12,57.719996 32.12,57.719996 0.93,1.66 3.32,1.66 4.25,0 0,0 20.46,-28.189996 31.15,-55.489996 1.09,-2.25 3.05,-8.99 3.13,-9.87 0.34,-2.01 0.52,-4.07 0.52,-6.17 0.01,-20.39 -16.53,-36.9200001 -36.92,-36.9200001 z"
     id="path1"
     style="fill:#fa0000" /><circle
     class="cls-2"
     cx="13.321261"
     cy="75.747414"
     r="23.379999"
     transform="rotate(-45)"
     id="circle1"
     style="fill:#ffffff" /><rect
     class="cls-3"
     x="39.590847"
     y="52.858646"
     width="46.790001"
     height="15.12"
     id="rect1"
     style="fill:#fa0000" /><g
     id="g4"
     transform="translate(26.050847,7.8686439)"><path
       d="m 52.96,22.06 c -0.54,0.11 -1.24,-0.22 -1.6,0.2 -0.36,0.41 -1.61,1.73 -2.21,2.3 -0.03,0.02 -0.04,0.05 -0.06,0.07 h -1.41 v 0.41 h 1.68 v -0.17 c 0.08,-0.03 0.16,-0.07 0.27,-0.12 0.67,-0.36 1.28,-1.28 1.87,-1.24 1.19,0.07 1.15,-0.04 1.58,-0.51 0.43,-0.47 0.65,-0.28 1.6,-0.26 0.97,0.03 1.01,-0.31 1.29,-0.71 0.7,-0.99 -1.18,-1.1 -1.56,-1.1 -0.65,0 -0.9,1.02 -1.44,1.13 z"
       id="path2" /><polygon
       points="41.86,33.13 41.62,22.37 39.95,22.37 39.68,34.44 "
       id="polygon2" /><polygon
       points="49.34,25.69 47.68,25.69 47.46,35.3 49.53,34.04 "
       id="polygon3" /><path
       d="m 41.63,21.56 c 0.9,-0.63 2.16,-0.66 2.41,-0.65 0.56,0.02 2.33,0.76 2.81,0.64 0.48,-0.12 1.53,-1 1.83,-1 0.44,0 2.47,0.31 2.69,0.22 0.61,-0.25 1.45,-1.09 1.92,-1.2 0.48,-0.12 0.82,0.28 1.29,0.4 0.48,0.12 0.99,-0.22 1.29,-0.5 0.3,-0.28 -0.18,-0.76 -0.54,-0.99 -0.36,-0.24 -1.22,-0.59 -2.27,-0.24 -1.06,0.36 -1.04,0.95 -1.88,1.01 -0.84,0.06 -2.21,-0.24 -2.68,-0.06 -0.48,0.18 -1.34,1.26 -1.74,1.21 -0.9,-0.11 -2.16,-0.26 -2.93,-0.31 -0.65,-0.04 -1.65,0.76 -2.31,1.2 h -1.56 v 0.41 h 1.68 v -0.14 z"
       id="path3" /><path
       d="m 18.24,19.47 v 25.52 h 9.2 v -9.24 l 8.41,-5.03 V 19.47 Z m 5.45,10.88 H 19.8 v -3.89 h 3.89 z m 0,-5.43 H 19.8 v -3.89 h 3.89 z m 5.3,5.43 H 25.1 v -3.89 h 3.89 z m 0,-5.43 H 25.1 v -3.89 h 3.89 z m 5.31,5.43 h -3.89 v -3.89 h 3.89 z m 0,-5.43 h -3.89 v -3.89 h 3.89 z"
       id="path4" /><polygon
       points="56.1,44.99 56.1,36.55 53.9,32.57 47.36,36.55 44.93,32.57 38.33,36.55 36.01,32.57 29.35,36.55 29.35,44.99 "
       id="polygon4" /></g><g
     id="g9"
     transform="translate(26.050847,7.8686439)"><path
       class="cls-1"
       d="m 34.57,67.09 c -1.34,-3.36 -4.32,-6.01 -5.3,-8.96 -0.93,0.29 -1.81,0.63 -2.6,1.04 0.32,7.58 4.51,12.43 7.9,14.97 1.1,-3.03 0.82,-4.99 0,-7.05 z"
       id="path5"
       style="fill:#ffce58" /><g
       id="g7"><path
         class="cls-1"
         d="m 42,53.87 c 3.33,0.47 6.43,1.4 8.86,2.82 0,5.34 -1.51,9.68 -3.6,13.11 l 3.21,3.67 c 2.89,-4.42 5.02,-10.16 5.02,-17.35 -3.75,-2.8 -9.34,-4.42 -15.2,-4.86 0.47,0.87 1.08,1.78 1.72,2.6 z"
         id="path6"
         style="fill:#ffce58" /><path
         class="cls-1"
         d="m 23,56.7 c 0,5.34 1.51,9.68 3.6,13.11 l -3.21,3.67 C 20.5,69.06 18.37,63.32 18.37,56.13 c 2.85,-2.12 6.75,-3.57 11.03,-4.33 -0.31,0.93 -0.49,1.82 -0.55,2.65 -2.17,0.53 -4.18,1.28 -5.86,2.26 z"
         id="path7"
         style="fill:#ffce58" /></g><path
       class="cls-1"
       d="M 36.93,84.8 C 34.6,84 30.83,81.89 27.3,78.31 l 3.17,-3.63 c 2.34,2.31 4.76,3.82 6.46,4.59 1.7,-0.76 4.12,-2.27 6.46,-4.59 l 3.17,3.63 C 43.03,81.88 39.27,84 36.93,84.8 Z"
       id="path8"
       style="fill:#ffce58" /><path
       class="cls-1"
       d="m 41.76,67.06 c 2.63,-3.55 2.61,-6.95 2.19,-9.11 1.17,0.32 2.27,0.72 3.24,1.22 -0.4,9.5 -6.89,14.73 -10.26,16.48 -0.46,-0.24 -0.98,-0.55 -1.53,-0.92 5.91,-7.3 0.19,-14.19 -0.82,-15.59 -1.02,-1.41 -2.26,-3.53 -2.69,-5.44 -0.7,-3.12 -0.17,-7.49 4.72,-12.05 l 0.33,0.13 c -2.35,4.4 -2.09,6.88 -1.11,9.62 1.08,3.01 4.99,7.02 5.8,10.64 0.31,1.4 0.37,3.09 -0.12,4.94 l 0.27,0.08 z"
       id="path9"
       style="fill:#ffce58" /></g></svg>
