<?xml version="1.0" encoding="UTF-8"?>
<svg id="Tek" xmlns="http://www.w3.org/2000/svg" viewBox="0 0 73.86 109.7">
  <defs>
    <style>
      .cls-1 {
        fill: #ffce58;
      }

      .cls-2 {
        fill: #fff;
      }

      .cls-3 {
        fill: #fa0000;
      }
    </style>
  </defs>
  <path class="cls-3" d="M36.93,0C16.53,0,0,16.53,0,36.93c0,3.04.38,5.99,1.07,8.82,0,.02,0,.05.01.07,0,.02.01.03.02.05.42,1.67.95,3.29,1.58,4.86,11.25,29.1,32.12,57.72,32.12,57.72.93,1.66,3.32,1.66,4.25,0,0,0,20.46-28.19,31.15-55.49,1.09-2.25,3.05-8.99,3.13-9.87.34-2.01.52-4.07.52-6.17C73.86,16.53,57.32,0,36.93,0Z"/>
  <circle class="cls-2" cx="36.93" cy="36.27" r="23.38" transform="translate(-14.83 36.74) rotate(-45)"/>
  <rect class="cls-3" x="13.54" y="44.99" width="46.79" height="15.12"/>
  <g>
    <path d="M52.96,22.06c-.54.11-1.24-.22-1.6.2-.36.41-1.61,1.73-2.21,2.3-.03.02-.04.05-.06.07h-1.41v.41h1.68v-.17c.08-.03.16-.07.27-.12.67-.36,1.28-1.28,1.87-1.24,1.19.07,1.15-.04,1.58-.51s.65-.28,1.6-.26c.97.03,1.01-.31,1.29-.71.7-.99-1.18-1.1-1.56-1.1-.65,0-.9,1.02-1.44,1.13Z"/>
    <polygon points="41.62 22.37 39.95 22.37 39.68 34.44 41.86 33.13 41.62 22.37"/>
    <polygon points="47.68 25.69 47.46 35.3 49.53 34.04 49.34 25.69 47.68 25.69"/>
    <path d="M41.63,21.56c.9-.63,2.16-.66,2.41-.65.56.02,2.33.76,2.81.64.48-.12,1.53-1,1.83-1,.44,0,2.47.31,2.69.22.61-.25,1.45-1.09,1.92-1.2.48-.12.82.28,1.29.4.48.12.99-.22,1.29-.5.3-.28-.18-.76-.54-.99-.36-.24-1.22-.59-2.27-.24-1.06.36-1.04.95-1.88,1.01s-2.21-.24-2.68-.06c-.48.18-1.34,1.26-1.74,1.21-.9-.11-2.16-.26-2.93-.31-.65-.04-1.65.76-2.31,1.2h-1.56v.41h1.68v-.14Z"/>
    <path d="M18.24,19.47v25.52h9.2v-9.24l8.41-5.03v-11.25h-17.61ZM23.69,30.35h-3.89v-3.89h3.89v3.89ZM23.69,24.92h-3.89v-3.89h3.89v3.89ZM28.99,30.35h-3.89v-3.89h3.89v3.89ZM28.99,24.92h-3.89v-3.89h3.89v3.89ZM34.3,30.35h-3.89v-3.89h3.89v3.89ZM34.3,24.92h-3.89v-3.89h3.89v3.89Z"/>
    <polygon points="53.9 32.57 47.36 36.55 44.93 32.57 38.33 36.55 36.01 32.57 29.35 36.55 29.35 44.99 56.1 44.99 56.1 36.55 53.9 32.57"/>
  </g>
  <g>
    <path class="cls-1" d="M34.57,67.09c-1.34-3.36-4.32-6.01-5.3-8.96-.93.29-1.81.63-2.6,1.04.32,7.58,4.51,12.43,7.9,14.97,1.1-3.03.82-4.99,0-7.05Z"/>
    <g>
      <path class="cls-1" d="M42,53.87c3.33.47,6.43,1.4,8.86,2.82,0,5.34-1.51,9.68-3.6,13.11l3.21,3.67c2.89-4.42,5.02-10.16,5.02-17.35-3.75-2.8-9.34-4.42-15.2-4.86.47.87,1.08,1.78,1.72,2.6Z"/>
      <path class="cls-1" d="M23,56.7c0,5.34,1.51,9.68,3.6,13.11l-3.21,3.67c-2.89-4.42-5.02-10.16-5.02-17.35,2.85-2.12,6.75-3.57,11.03-4.33-.31.93-.49,1.82-.55,2.65-2.17.53-4.18,1.28-5.86,2.26Z"/>
    </g>
    <path class="cls-1" d="M36.93,84.8c-2.33-.8-6.1-2.91-9.63-6.49l3.17-3.63c2.34,2.31,4.76,3.82,6.46,4.59,1.7-.76,4.12-2.27,6.46-4.59l3.17,3.63c-3.53,3.57-7.29,5.69-9.63,6.49Z"/>
    <path class="cls-1" d="M41.76,67.06c2.63-3.55,2.61-6.95,2.19-9.11,1.17.32,2.27.72,3.24,1.22-.4,9.5-6.89,14.73-10.26,16.48-.46-.24-.98-.55-1.53-.92,5.91-7.3.19-14.19-.82-15.59-1.02-1.41-2.26-3.53-2.69-5.44-.7-3.12-.17-7.49,4.72-12.05l.33.13c-2.35,4.4-2.09,6.88-1.11,9.62,1.08,3.01,4.99,7.02,5.8,10.64.31,1.4.37,3.09-.12,4.94l.27.08Z"/>
  </g>
</svg>
