<?xml version="1.0" encoding="utf-8"?>
<!-- Generator: Adobe Illustrator 25.0.1, SVG Export Plug-In . SVG Version: 6.00 Build 0)  -->
<svg version="1.1"
	 id="svg2" inkscape:export-filename="C:\Users\User\Desktop\i-blauw.png" inkscape:export-xdpi="96" inkscape:export-ydpi="96" inkscape:version="0.92.5 (2060ec1f9f, 2020-04-08)" sodipodi:docname="i-blauw.svg" xmlns:cc="http://creativecommons.org/ns#" xmlns:dc="http://purl.org/dc/elements/1.1/" xmlns:inkscape="http://www.inkscape.org/namespaces/inkscape" xmlns:osb="http://www.openswatchbook.org/uri/2009/osb" xmlns:rdf="http://www.w3.org/1999/02/22-rdf-syntax-ns#" xmlns:sodipodi="http://sodipodi.sourceforge.net/DTD/sodipodi-0.dtd" xmlns:svg="http://www.w3.org/2000/svg"
	 xmlns="http://www.w3.org/2000/svg" xmlns:xlink="http://www.w3.org/1999/xlink" x="0px" y="0px" width="125px" height="125px"
	 viewBox="0 0 125 125" style="enable-background:new 0 0 125 125;" xml:space="preserve">
<style type="text/css">
	.st0{fill:#3454A2;}
	.st1{fill:#FFFFFF;}
	.st2{fill-rule:evenodd;clip-rule:evenodd;fill:#FFFFFF;}
</style>
<path class="st0" d="M100.5,102.3l-8.9-41.1l4.8-0.5L96,56.2c0,0-19.3-5.8-33.2-23.3v-5.5l13.3-4.7L62.8,18h-1.7v14.4
	C48.6,50.2,27.6,56.2,27.6,56.2l-0.4,4.5l4.8,0.5l-8.8,41.1H100.5z"/>
<sodipodi:namedview  bordercolor="#666666" borderopacity="1" gridtolerance="10" guidetolerance="10" id="namedview16" inkscape:current-layer="svg2" inkscape:cx="-116.41664" inkscape:cy="38.397833" inkscape:pageopacity="0" inkscape:pageshadow="2" inkscape:window-height="1017" inkscape:window-maximized="1" inkscape:window-width="1920" inkscape:window-x="-8" inkscape:window-y="-8" inkscape:zoom="3.1242196" objecttolerance="10" pagecolor="#ffffff" showgrid="false">
	</sodipodi:namedview>
<g id="g938" transform="matrix(1.04394,0,0,0.92198587,-3.674351,62.301292)">
	<g id="text928" transform="matrix(1.150052,0,0,0.76635726,-0.2826879,2.6958758)">
		<path id="path930" inkscape:connector-curvature="0" sodipodi:nodetypes="cccccccccccccssccccc" class="st1" d="M46.7,2.4L59,0.9
			v23.5v3.1c0,1.8,0.1,3.2,0.3,4.1c0.2,0.8,0.7,1.5,1.3,2.1c0.8,0.7,2.3,1.3,4.4,1.7v0.8H46.3v-0.8c1.7-0.2,2.9-0.5,3.7-0.9
			c0.7-0.4,1.3-1.1,1.8-2c0.3-0.6,0.5-1.6,0.6-2.8c0.1-1.3,0.2-3.1,0.2-5.5v-10c0-2.8-0.1-4.7-0.2-5.8c-0.1-1.1-0.5-2.1-0.9-2.8
			C51,4.8,50.4,4.3,49.7,4c-0.7-0.4-1.7-0.6-3-0.6V2.4z"/>
	</g>
	<ellipse id="path933" class="st2" cx="62.7" cy="-7.1" rx="5.5" ry="4.6"/>
</g>
</svg>
