<?xml version="1.0" encoding="utf-8"?>
<!-- Generator: Adobe Illustrator 25.0.1, SVG Export Plug-In . SVG Version: 6.00 Build 0)  -->
<svg version="1.1"
	 id="svg2" inkscape:export-filename="C:\Users\User\Desktop\i-blauw.png" inkscape:export-xdpi="96" inkscape:export-ydpi="96" inkscape:version="0.92.5 (2060ec1f9f, 2020-04-08)" sodipodi:docname="i-blauw.svg" xmlns:cc="http://creativecommons.org/ns#" xmlns:dc="http://purl.org/dc/elements/1.1/" xmlns:inkscape="http://www.inkscape.org/namespaces/inkscape" xmlns:osb="http://www.openswatchbook.org/uri/2009/osb" xmlns:rdf="http://www.w3.org/1999/02/22-rdf-syntax-ns#" xmlns:sodipodi="http://sodipodi.sourceforge.net/DTD/sodipodi-0.dtd" xmlns:svg="http://www.w3.org/2000/svg"
	 xmlns="http://www.w3.org/2000/svg" xmlns:xlink="http://www.w3.org/1999/xlink" x="0px" y="0px" width="125px" height="125px"
	 viewBox="0 0 125 125" style="enable-background:new 0 0 125 125;" xml:space="preserve">
<style type="text/css">
	.st0{fill:#FFE500;}
	.st1{fill:#FFFFFF;}
	.st2{fill-rule:evenodd;clip-rule:evenodd;fill:#FFFFFF;}
</style>
<g id="g837">
	<path id="path819-3_2_" inkscape:connector-curvature="0" class="st0" d="M95.4,95.4l0-65.7H29.6l0,65.7H95.4z"/>
</g>
<sodipodi:namedview  bordercolor="#666666" borderopacity="1" gridtolerance="10" guidetolerance="10" id="namedview16" inkscape:current-layer="svg2" inkscape:cx="-116.41664" inkscape:cy="38.397833" inkscape:pageopacity="0" inkscape:pageshadow="2" inkscape:window-height="1017" inkscape:window-maximized="1" inkscape:window-width="1920" inkscape:window-x="-8" inkscape:window-y="-8" inkscape:zoom="3.1242196" objecttolerance="10" pagecolor="#ffffff" showgrid="false">
	</sodipodi:namedview>
<g id="g938" transform="matrix(1.04394,0,0,0.92198587,-3.674351,62.301292)">
	<g id="text928" transform="matrix(1.150052,0,0,0.76635726,-0.2826879,2.6958758)">
		<path id="path930" inkscape:connector-curvature="0" sodipodi:nodetypes="cccccccccccccssccccc" class="st1" d="M47.5-17.4
			l12.3-1.5V4.6l0,3.1c0,1.8,0.1,3.2,0.3,4.1c0.2,0.8,0.7,1.5,1.3,2.1c0.8,0.7,2.3,1.3,4.4,1.7v0.8H47.1v-0.8
			c1.7-0.2,2.9-0.5,3.7-0.9c0.7-0.4,1.3-1.1,1.8-2c0.3-0.6,0.5-1.6,0.6-2.8c0.1-1.3,0.2-3.1,0.2-5.5v-10c0-2.8-0.1-4.7-0.2-5.8
			c-0.1-1.1-0.5-2.1-0.9-2.8c-0.5-0.8-1.1-1.3-1.8-1.6c-0.7-0.4-1.7-0.6-3-0.6L47.5-17.4z"/>
	</g>
	<ellipse id="path933" class="st2" cx="63.7" cy="-22.3" rx="5.5" ry="4.6"/>
</g>
<path class="st1" d="M87.7,89.3c0.2,0,0.5-0.2,0.7-0.4c0.4-0.6,0.4-1.5,0-2c-0.2-0.3-0.4-0.4-0.7-0.4c-3.7,0.1-5.8-1.2-7.8-2.6
	c-2-1.4-3.8-3-6.6-3c-2.7,0-4.8,1.3-6.7,2.5c-1.9,1.2-3.7,2.3-6,2.3c-2.3,0-4-1.2-5.9-2.4c-1.9-1.3-4-2.6-6.7-2.6s-4.3,1.3-5.7,2.6
	c-1.4,1.2-2.6,2.4-5.1,2.7c-0.5,0.1-0.9,0.8-0.9,1.5s0.5,1.4,1,1.3l0,0c2.8-0.3,4.5-1.8,5.8-3c1.4-1.2,2.5-2.2,4.8-2.2
	c2.3,0,4.1,1.1,6,2.4c1.9,1.3,4,2.6,6.7,2.6c2.7,0,4.8-1.3,6.7-2.5c1.9-1.2,3.7-2.3,6-2.3c2.3,0,3.8,1.3,5.8,2.7
	C81.2,87.9,83.7,89.4,87.7,89.3z"/>
</svg>
