<?xml version="1.0" encoding="utf-8"?>
<!-- Generator: Adobe Illustrator 25.0.1, SVG Export Plug-In . SVG Version: 6.00 Build 0)  -->
<svg version="1.1"
	 id="svg2" inkscape:export-filename="C:\Users\User\Desktop\i-blauw.png" inkscape:export-xdpi="96" inkscape:export-ydpi="96" inkscape:version="0.92.5 (2060ec1f9f, 2020-04-08)" sodipodi:docname="i-blauw.svg" xmlns:cc="http://creativecommons.org/ns#" xmlns:dc="http://purl.org/dc/elements/1.1/" xmlns:inkscape="http://www.inkscape.org/namespaces/inkscape" xmlns:osb="http://www.openswatchbook.org/uri/2009/osb" xmlns:rdf="http://www.w3.org/1999/02/22-rdf-syntax-ns#" xmlns:sodipodi="http://sodipodi.sourceforge.net/DTD/sodipodi-0.dtd" xmlns:svg="http://www.w3.org/2000/svg"
	 xmlns="http://www.w3.org/2000/svg" xmlns:xlink="http://www.w3.org/1999/xlink" x="0px" y="0px" width="125px" height="125px"
	 viewBox="0 0 125 125" style="enable-background:new 0 0 125 125;" xml:space="preserve">
<style type="text/css">
	.st0{fill:#62B22F;}
	.st1{fill:#FFFFFF;}
	.st2{fill-rule:evenodd;clip-rule:evenodd;fill:#FFFFFF;}
</style>
<g>
	<path class="st0" d="M92.8,102.6L83,92.2c5.6-0.2,10.1-4.9,10.1-10.7V39.3c0-5.9-4.7-10.7-10.4-10.7H41.5
		c-5.8,0-10.4,4.8-10.4,10.7v42.2c0,5.9,4.7,10.7,10.4,10.7h0.9l-9.9,10.4c-1.6,1.7-1.6,4.5,0.2,6.1c0.8,0.8,1.9,1.2,3,1.2
		c1.1,0,2.3-0.5,3.1-1.3l5.1-5.4h37.6l5.1,5.4c0.8,0.9,2,1.4,3.1,1.4c1.1,0,2.1-0.4,3-1.2C94.4,107.1,94.5,104.4,92.8,102.6z
		 M49.3,97.4l4.2-4.5c0.2-0.2,0.4-0.5,0.6-0.8h17.2c0.2,0.3,0.3,0.5,0.6,0.8l4.2,4.5H49.3z"/>
	<path class="st0" d="M41.8,21.8h40.5c1.6,0,2.9-1.3,2.9-2.9S83.9,16,82.3,16H41.8c-1.6,0-2.9,1.3-2.9,2.9S40.2,21.8,41.8,21.8z"/>
</g>
<g id="g938" transform="matrix(1.04394,0,0,0.92198587,-3.674351,62.301292)">
	<g id="text928" transform="matrix(1.150052,0,0,0.76635726,-0.2826879,2.6958758)">
		<path id="path930" inkscape:connector-curvature="0" sodipodi:nodetypes="cccccccccccccssccccc" class="st1" d="M47.9-14l11.6-1.4
			V6.7v2.9c0,1.7,0.1,3,0.3,3.9c0.2,0.8,0.7,1.4,1.2,2c0.8,0.7,2.2,1.2,4.2,1.6v0.8H47.5v-0.8c1.6-0.2,2.7-0.5,3.5-0.8
			c0.7-0.4,1.2-1,1.7-1.9c0.3-0.6,0.5-1.5,0.6-2.6c0.1-1.2,0.2-2.9,0.2-5.2v-9.4c0-2.6-0.1-4.4-0.2-5.5s-0.5-2-0.8-2.6
			c-0.5-0.8-1-1.2-1.7-1.5C50.1-12.8,49.2-13,48-13L47.9-14z"/>
	</g>
	<ellipse id="path933" class="st2" cx="63.7" cy="-19.1" rx="5.2" ry="4.3"/>
</g>
<circle class="st1" cx="41.5" cy="81.6" r="5"/>
<circle class="st1" cx="82.7" cy="81.6" r="5"/>
</svg>
