<?xml version="1.0" encoding="UTF-8"?>
<!-- Created with Inkscape (http://www.inkscape.org/) -->
<svg width="200" height="20" version="1.1" xml:space="preserve" xmlns="http://www.w3.org/2000/svg" xmlns:cc="http://creativecommons.org/ns#" xmlns:dc="http://purl.org/dc/elements/1.1/" xmlns:rdf="http://www.w3.org/1999/02/22-rdf-syntax-ns#"><metadata><rdf:RDF><cc:Work rdf:about=""><dc:format>image/svg+xml</dc:format><dc:type rdf:resource="http://purl.org/dc/dcmitype/StillImage"/></cc:Work></rdf:RDF></metadata><g transform="matrix(.24353 0 0 .24353 -5.2085 -5.2329)">
	<path id="path819-3_2_" class="st0" d="m95.4 95.4v-65.7h-65.8v65.7z" fill="#0052a1"/>
<g transform="matrix(1.0439 0 0 .92199 -3.6744 62.301)">
	<g transform="matrix(1.1501 0 0 .76636 -.28269 2.6959)">
		<path class="st1" d="m47.5-17.4 12.3-1.5v26.6c0 1.8 0.1 3.2 0.3 4.1 0.2 0.8 0.7 1.5 1.3 2.1 0.8 0.7 2.3 1.3 4.4 1.7v0.8h-18.7v-0.8c1.7-0.2 2.9-0.5 3.7-0.9 0.7-0.4 1.3-1.1 1.8-2 0.3-0.6 0.5-1.6 0.6-2.8 0.1-1.3 0.2-3.1 0.2-5.5v-10c0-2.8-0.1-4.7-0.2-5.8s-0.5-2.1-0.9-2.8c-0.5-0.8-1.1-1.3-1.8-1.6-0.7-0.4-1.7-0.6-3-0.6z" fill="#fff"/>
	</g>
	<ellipse class="st2" cx="63.7" cy="-22.3" rx="5.5" ry="4.6" clip-rule="evenodd" fill="#fff" fill-rule="evenodd"/>
</g><path class="st1" d="m87.7 89.3c0.2 0 0.5-0.2 0.7-0.4 0.4-0.6 0.4-1.5 0-2-0.2-0.3-0.4-0.4-0.7-0.4-3.7 0.1-5.8-1.2-7.8-2.6s-3.8-3-6.6-3c-2.7 0-4.8 1.3-6.7 2.5s-3.7 2.3-6 2.3-4-1.2-5.9-2.4c-1.9-1.3-4-2.6-6.7-2.6s-4.3 1.3-5.7 2.6c-1.4 1.2-2.6 2.4-5.1 2.7-0.5 0.1-0.9 0.8-0.9 1.5s0.5 1.4 1 1.3c2.8-0.3 4.5-1.8 5.8-3 1.4-1.2 2.5-2.2 4.8-2.2s4.1 1.1 6 2.4 4 2.6 6.7 2.6 4.8-1.3 6.7-2.5 3.7-2.3 6-2.3 3.8 1.3 5.8 2.7c2.1 1.4 4.6 2.9 8.6 2.8z" fill="#fff"/></g><text x="24.11615" y="13.450435" fill="none" font-size="13.333px" stroke-miterlimit="20.7" stroke-opacity=".13333" stroke-width=".4923" style="paint-order:markers fill stroke" xml:space="preserve"><tspan x="24.11615" y="13.450435" fill="#000000" font-family="Arial" font-size="13.333px" stroke-width=".24237">Repressief object</tspan></text></svg>
