<?xml version="1.0" encoding="UTF-8"?>
<!-- Created with Inkscape (http://www.inkscape.org/) -->
<svg width="300" height="40" version="1.1" xml:space="preserve" xmlns="http://www.w3.org/2000/svg" xmlns:cc="http://creativecommons.org/ns#" xmlns:dc="http://purl.org/dc/elements/1.1/" xmlns:rdf="http://www.w3.org/1999/02/22-rdf-syntax-ns#"><metadata><rdf:RDF><cc:Work rdf:about=""><dc:format>image/svg+xml</dc:format><dc:type rdf:resource="http://purl.org/dc/dcmitype/StillImage"/></cc:Work></rdf:RDF></metadata><defs><linearGradient id="linearGradient890" x1="1.3898" x2="69.849" y1="35.647" y2="35.647" gradientTransform="matrix(.91277 0 0 .91277 .5923 59.904)" gradientUnits="userSpaceOnUse"><stop stop-color="#fff" offset="0"/></linearGradient></defs><g transform="matrix(.49231 0 0 .49231 1.7019 -25.51)"><circle cx="33.105" cy="92.442" r="31.244" fill="#1c2b9d" fill-rule="evenodd" stroke="url(#linearGradient890)" stroke-width="2.5123"/><g transform="matrix(1.0439 0 0 .92199 -3.6744 62.301)" fill="#fff"><g transform="matrix(1.1501 0 0 .76636 -.28269 2.6959)" aria-label="i"><path d="m23.061 29.218 12.324-1.5459v24.82l0.04294 3.2635c0 1.9467 0.11451 3.378 0.34353 4.2941 0.22902 0.88745 0.67274 1.6318 1.3312 2.2329 0.80157 0.77294 2.2759 1.3598 4.4229 1.7606v0.85882h-18.937v-0.85882c1.7176-0.22902 2.9486-0.54392 3.6929-0.9447 0.74431-0.42941 1.3455-1.1451 1.8035-2.1471 0.3149-0.65843 0.52961-1.6461 0.64412-2.9629 0.14314-1.3455 0.2147-3.2778 0.2147-5.797v-10.606c0-2.9486-0.07157-5.0098-0.2147-6.1835-0.14314-1.2024-0.45804-2.1757-0.9447-2.92-0.48666-0.80157-1.0735-1.3741-1.7606-1.7176-0.68706-0.37216-1.6747-0.60118-2.9629-0.68706z" fill="#fff" stroke-width="2.1986"/></g><circle cx="35.5" cy="12.77" r="5.25" fill-rule="evenodd" stroke-width=".87198"/></g></g><text x="46.232384" y="25.513918" fill="none" font-size="21.005px" stroke-miterlimit="20.7" stroke-opacity=".13333" stroke-width=".98462" style="paint-order:markers fill stroke" xml:space="preserve"><tspan x="46.232384" y="25.513918" fill="#000000" font-family="Arial" font-size="21.005px" stroke-width=".48474">Repressief object</tspan></text></svg>
