<?xml version="1.0" encoding="utf-8"?>
<!-- Generator: Adobe Illustrator 25.0.1, SVG Export Plug-In . SVG Version: 6.00 Build 0)  -->
<svg version="1.1"
	 id="svg2" inkscape:export-filename="C:\Users\User\Desktop\i-blauw.png" inkscape:export-xdpi="96" inkscape:export-ydpi="96" inkscape:version="0.92.5 (2060ec1f9f, 2020-04-08)" sodipodi:docname="i-blauw.svg" xmlns:cc="http://creativecommons.org/ns#" xmlns:dc="http://purl.org/dc/elements/1.1/" xmlns:inkscape="http://www.inkscape.org/namespaces/inkscape" xmlns:osb="http://www.openswatchbook.org/uri/2009/osb" xmlns:rdf="http://www.w3.org/1999/02/22-rdf-syntax-ns#" xmlns:sodipodi="http://sodipodi.sourceforge.net/DTD/sodipodi-0.dtd" xmlns:svg="http://www.w3.org/2000/svg"
	 xmlns="http://www.w3.org/2000/svg" xmlns:xlink="http://www.w3.org/1999/xlink" x="0px" y="0px" width="125px" height="125px"
	 viewBox="0 0 125 125" style="enable-background:new 0 0 125 125;" xml:space="preserve">
<style type="text/css">
	.st0{fill:#1D1D1B;}
	.st1{fill:#FFFFFF;}
	.st2{fill-rule:evenodd;clip-rule:evenodd;fill:#FFFFFF;}
</style>
<path class="st0" d="M91.7,47.8c0-0.3,0-0.4,0-0.7c0-8-6.4-14.4-14.4-14.4c-0.1,0-0.2,0-0.3,0c-3-6.4-9.6-10.8-17.2-10.8
	c-9.4,0-17.2,6.8-18.7,15.9c-0.7-0.1-1.4-0.1-2.1-0.1c-10.5,0-19,8.5-19,19c0,10.4,8.3,18.8,18.6,19c3.2,5.7,9.5,9.7,16.6,9.7
	c0.6,0,1.2,0,1.7-0.1v11.6c-0.3,1.2-0.8,2.3-2,2.6c-2.9,0.6-2.5,1.5-1.3,1.6c0.4,0.1,1.9,0.1,3.4,0.1l0,0h9.5l0,0c1.5,0,3,0,3.4-0.1
	c1.2-0.1,1.5-1-1.3-1.6c-1.3-0.3-1.8-1.5-2.1-2.8v-15c1.7-1.3,3.1-2.7,4.3-4.4c1.6,0.6,3.3,1,5.1,1c3.1,0,6.1-1,8.4-2.8
	c1.6,0.6,3.4,1,5.3,1c8,0,14.4-6.4,14.4-14.4C104,54.8,98.6,48.9,91.7,47.8z"/>
<g id="g938" transform="matrix(1.04394,0,0,0.92198587,-3.674351,62.301292)">
	<g id="text928" transform="matrix(1.150052,0,0,0.76635726,-0.2826879,2.6958758)">
		<path id="path930" inkscape:connector-curvature="0" sodipodi:nodetypes="cccccccccccccssccccc" class="st1" d="M45.8-23.2
			l12.3-1.5v23.5v3.1c0,1.8,0.1,3.2,0.3,4.1c0.2,0.8,0.7,1.5,1.3,2.1c0.8,0.7,2.3,1.3,4.4,1.7v0.8H45.4V9.8c1.7-0.2,2.9-0.5,3.7-0.9
			c0.7-0.4,1.3-1.1,1.8-2c0.3-0.6,0.5-1.6,0.6-2.8c0.1-1.3,0.2-3.1,0.2-5.5v-10c0-2.8-0.1-4.7-0.2-5.8c-0.1-1.1-0.5-2.1-0.9-2.8
			c-0.5-0.8-1.1-1.3-1.8-1.6c-0.7-0.4-1.7-0.6-3-0.6V-23.2z"/>
	</g>
	<ellipse id="path933" class="st2" cx="61.8" cy="-26.7" rx="5.5" ry="4.6"/>
</g>
</svg>
