<?xml version="1.0" encoding="UTF-8"?>
<svg width="125" height="125" version="1.0" viewBox="0 0 93.75 93.75" xmlns="http://www.w3.org/2000/svg">
 <title>Globally Harmonized System of Classification and Labelling of Chemicals (GHS) pictogram for hazardous substances; inofficial pictogram “Unknown”</title>
 <g transform="matrix(.086024 0 0 .086031 21.984 21.954)">
  <path d="m32.309 289.67 257.02 257.02 257.06-257.06c-85.716-85.618-171.26-171.41-257.02-256.98z" fill="#fff"/>
  <path d="m147.66 148.01-141.66 141.66 141.67 141.67 141.66 141.66 283.38-283.38-141.64-141.64c-77.897-77.898-141.66-141.64-141.69-141.64s-63.799 63.753-141.72 141.67zm260.96 22.413 119.2 119.2-119.25 119.25-119.25 119.24-119.19-119.25-119.19-119.26 119.19-119.19c65.557-65.558 119.21-119.19 119.24-119.19s53.688 53.641 119.25 119.2z" fill="#f00"/>
  <path d="m292.62 142.44c-30.438 0-75.094 20.972-75.094 57.656 0 15.372 8.449 25.156 20.625 25.156 21.644 0 26.06-34.594 54.469-34.594 14.204 0 28.062 11.19 28.062 26.562 0 20.264-13.534 25.844-27.062 29.688-13.867 3.843-27.406 5.9532-27.406 18.531v34.938c0 13.973 9.155 24.094 24.375 24.094 14.205 0 24.344-10.12 24.344-24.094v-12.594c34.834-9.083 58.5-31.784 58.5-70.562 0-46.816-37.184-74.781-80.812-74.781zm-1.3438 201.5c-0.49661-1e-3 -0.9815 0.0122-1.4375 0.0312-7.502 0.321-14.59 3.5098-20.156 9.0938-1.682 1.682-2.7395 2.9848-4.0625 4.9688-3.071 4.62-4.7405 9.107-5.5625 15.125-0.16 1.21-0.17 6.6902 0 8.0312 0.813 6.615 3.234 12.463 7.25 17.5 0.974 1.229 2.9562 3.2815 4.1562 4.3125 3.628 3.108 8.0122 5.4352 12.406 6.5312 2.873 0.718 4.3598 0.875 7.4688 0.875 3.063 0 4.6318-0.16475 7.3438-0.84375 7.39-1.843 14.026-6.5948 18.438-13.219 3.251-4.895 5.124-10.334 5.625-16.344 0.132-1.616 0.0428-5.708-0.15625-7.125-0.558-4.11-1.5458-7.4572-3.2188-10.906-4.715-9.686-13.711-16.373-23.906-17.781-1.1122-0.1485-2.6977-0.24606-4.1875-0.25z"/>
 </g>
</svg>
