<?xml version="1.0" encoding="UTF-8"?>
<svg width="125" height="125" version="1.0" viewBox="0 0 93.75 93.75" xmlns="http://www.w3.org/2000/svg">
 <title>Globally Harmonized System of Classification and Labelling of Chemicals (GHS) pictogram for explosive substances</title>
 <g transform="matrix(.086024 0 0 .086031 21.855 21.855)">
  <path d="m26.801 290.83 264.03 264.03 264.07-264.07c-88.052-87.952-175.93-176.08-264.03-263.98z" fill="#fff"/>
  <path d="m149.16 149.17-141.66 141.66 283.33 283.33 283.38-283.38-141.64-141.64c-77.898-77.898-141.66-141.64-141.69-141.64-0.0284 0-63.8 63.752-141.72 141.67zm260.96 22.413 119.2 119.2-238.5 238.5-238.38-238.51 119.2-119.2c65.557-65.557 119.21-119.19 119.24-119.19 0.0283 0 53.689 53.642 119.25 119.2z" fill="#f00"/>
  <path d="m316.3 138.41c-0.07 9e-3 -0.1183 0.0833-0.175 0.225-0.0473 0.14174-9.0703 25.861-20.05 57.175s-19.987 56.978-20.025 57.025c-0.11339 0.11338-0.90944-0.17382-0.9-0.325 9e-3 -0.10394 23.464-73.082 23.7-73.725 0.0283-0.0756-0.6732-0.54959-2.1-1.4-2.126-1.2662-2.375-1.4012-2.375-1.25 0 0.13229-19.537 76.287-19.575 76.325-0.0189 0.0283-0.55137-0.0955-1.175-0.275-1.493-0.42521-4.0309-0.94213-5.675-1.15-1.8426-0.22678-6.037-0.23623-7.7 0-7.7671 1.0866-14.06 4.2995-19.55 9.95-3.8552 3.9686-6.9248 9.1153-8.55 14.35-0.19843 0.62364-0.3872 1.1622-0.425 1.2s-3.0216-2.1442-6.65-4.875c-3.6284-2.7308-6.6311-4.9534-6.65-4.925-0.0189 0.0189 0.34645 0.76789 0.8 1.675l0.825 1.65 5.7 3.825c5.5088 3.6946 5.6722 3.8293 5.625 4.075-0.0473 0.23622 0.13757 0.46473 1.725 2.175 0.97325 1.0583 2.0443 2.2004 2.375 2.55l0.625 0.625 3.35-0.2 3.15 2.1c1.7292 1.1433 3.0356 1.9823 2.875 1.85-0.15119-0.13228-1.4049-1.0951-2.775-2.125-1.3607-1.0205-2.4161-1.8656-2.35-1.875 0.0662-9e-3 2.2515-0.13327 4.85-0.275l4.725-0.25 6.8 3.425c3.7607 1.8709 6.8716 3.4 6.9 3.4 0.0283 0 1.7368-2.0366 3.825-4.55 2.0882-2.504 3.8589-4.6244 3.925-4.7 0.10394-0.12284-0.16986-0.83772-1.625-4.4-0.95435-2.3339-1.7189-4.2561-1.7-4.275 0.0189-9e-3 2.3992 0.23818 5.3 0.55 2.9008 0.31182 5.2872 0.55335 5.325 0.525 0.0283-0.0378 0.40925-1.4803 0.825-3.2l0.775-3.15 2.35-0.025c1.2945-9e-3 2.712 0.0122 3.175 0.05l0.85 0.075-8.05 8.8c-4.441 4.8284-8.1461 8.8927-8.25 9.025-0.35906 0.4252 2.8414-2.7814 10.325-10.35l7.375-7.475 2.75-0.05 2.725-0.05-0.475-0.7c-0.27402-0.38741-0.79094-1.0654-1.15-1.5s-0.63445-0.8122-0.625-0.85c0.0189-0.0378 1.0466-1.1088 2.275-2.375l2.225-2.275 0.25 0.525c0.13228 0.30237 0.225 0.57775 0.225 0.625 0 0.15118 0.12375 0.10417 3.875-1.625 1.937-0.88821 3.5622-1.5722 3.6-1.525 0.0378 0.0378 0.3937 1.2482 0.8 2.675 0.39686 1.4268 0.7622 2.6372 0.8 2.675 0.0662 0.0756 11.494-9.1532 11.825-9.55 0.0756-0.10394 1.4964-2.6885 3.15-5.75 1.6536-3.0709 3.1177-5.7482 3.25-5.975 0.13229-0.22678 0.19114-0.4189 0.125-0.4-0.0567 0.0189-2.4092 1.9661-5.225 4.3l-5.125 4.225-3.675 0.1c-2.0315 0.0473-3.8394 0.0689-4 0.05-0.27402-0.0283 1.757-2.0952 34.375-35.025 19.059-19.238 34.675-35.012 34.675-35.05 0-0.0378-0.90392-0.96336-2-2.05-1.8709-1.8709-1.9988-1.9606-2.15-1.8-0.085 0.085-15.94 17.345-35.225 38.35l-35.05 38.2-2.775 1.95c-1.5213 1.0677-2.8183 1.9933-2.875 2.05-0.0662 0.0662 8e-3 0.30865 0.225 0.8 0.26457 0.62363 0.28839 0.73327 0.175 0.875-0.10394 0.13229-3.7508 4.1535-4.45 4.9-0.17008 0.17954-0.17794 0.16872-1-0.625-1.5969-1.578-3.1074-2.7933-4.95-4.05l-0.9-0.625 17.375-29.85c13.701-23.537 17.344-29.865 17.25-29.95-0.0567-0.0662-0.95451-0.62637-1.975-1.25l-1.875-1.15-0.325 0.575c-0.17008 0.32126-7.212 14.232-15.65 30.9-8.7025 17.216-15.374 30.3-15.45 30.3-0.0945 0-0.0823-0.11259 0.05-0.5 0.10394-0.26457 9.3218-25.972 20.5-57.125 11.188-31.153 20.319-56.668 20.3-56.725-0.0378-0.085-6.8319-3.2604-7.55-3.525-0.0283-9e-3 -0.0517-3e-3 -0.075 0zm-34.475 43.625-0.975 2.425-0.95 2.45-1.85-0.725c-1.0299-0.40631-1.8966-0.71279-1.925-0.675-0.0283 0.0378-0.46475 2.0838-0.975 4.55-0.50079 2.4662-0.92166 4.565-0.95 4.65-0.0283 0.11339 0.38816 0.34132 1.9 1.05 1.0866 0.51024 2.0028 0.9622 2.05 1 0.0378 0.0378 0.50195 1.7063 1.05 3.7 0.53859 1.9843 1.0061 3.6311 1.025 3.65 0.0189 0.0189 0.78955-1.0799 1.725-2.45 1.7764-2.5985 1.7717-2.5898 7.375-8.675l0.3-0.325-3.25-10.5-0.7-0.05c-0.38741-0.0378-1.4057-0.0655-2.275-0.075zm128.85 23.325c-0.0378 0-0.0967 0.11161-0.125 0.225-0.29292 0.97324-3.2872 10.237-3.325 10.275-0.0189 0.0283-2.0433 0.13662-4.5 0.25l-4.475 0.2-1.275 0.95c-0.69922 0.53859-1.2811 0.99056-1.3 1-0.0283 0.0283-1.2189 7.6467-1.2 7.675 0.0378 0.0283 6.9716 4 7 4 0.0189 0 1.2787-1.3403 2.8-2.975 1.5307-1.6347 2.7966-2.9844 2.825-2.975 0.0283 0 2.5324 1.7057 5.575 3.775l5.525 3.75 0.025-1.375c9e-3 -0.75592 6e-3 -3.8391-0.05-6.825l-0.1-5.425-3.675-6.275c-2.0221-3.4394-3.6872-6.25-3.725-6.25zm-94.025 3.825-0.175 0.225c-0.0945 0.12284-0.66082 0.94014-1.275 1.8l-1.1 1.55-0.7 3.5c-0.37796 1.9276-0.7 3.5961-0.7 3.7 9e-3 0.13229 0.80253 0.8793 2.475 2.325 1.3607 1.1717 2.4933 2.125 2.55 2.125 0.0473 0 0.90175-0.96887 1.875-2.15l1.775-2.175 0.4-1.95c0.21733-1.0677 0.4433-2.1882 0.5-2.5l0.1-0.575-1.075-2.9c-0.58584-1.5874-1.0966-2.9122-1.125-2.95-0.0378-0.0378-0.43699 0.35866-0.9 0.85l-0.825 0.9-0.9-0.9zm57.775 5.175c-0.0473 0-20.879 14.666-46.325 32.6-25.446 17.944-46.269 32.631-46.25 32.65 9e-3 0.0189 20.876-12.892 46.35-28.7l46.3-28.75v-3.925c0-2.1449-0.0372-3.8844-0.075-3.875zm-9.15 25.5-1.875 2.1-1.9 2.075-0.9 2.425c-0.50079 1.3323-0.90945 2.4311-0.9 2.45 0.0378 0.0378 16.512 2.0128 16.55 1.975 0.0189-9e-3 -2.4513-2.5108-5.475-5.525zm75.975 1.45c-0.0473-9e-3 -36.743 9.4777-81.55 21.1s-81.469 21.156-81.45 21.175c0.0283 0.0283 165.23-37.393 165.3-37.45 0.0567-0.0378-2.2244-4.8061-2.3-4.825zm-96 11.2c-0.0473 9e-3 -12.258 5.7605-27.15 12.8-14.892 7.0395-27.149 12.843-27.225 12.9-0.10394 0.0756-0.0701 0.0817 0.1 0.025 0.33072-0.11339 54.741-21.106 54.75-21.125 9e-3 0-0.0616-1.0338-0.175-2.3-0.11338-1.389-0.23386-2.3-0.3-2.3zm118.05 5.675c-0.12283 9e-3 -40.384 6.841-89.5 15.175-49.106 8.3246-89.418 15.15-89.55 15.15-0.16063 9e-3 -0.57243-0.27361-1.3-0.85l-1.1-0.875-0.1 7.25-2.825 1.925c-1.5591 1.0488-2.8839 1.8906-2.95 1.9-0.0662 0-1.261-0.7984-2.65-1.8-3.6851-2.6646-3.74-2.6558-0.225 0.075 1.3229 1.03 2.4622 1.8872 2.5 1.925 0.0945 0.085-4.4427 3.1472-4.575 3.1-0.0662-0.0189-11.216-9.5188-13.975-11.9l-0.625-0.55-5.175 4.475c-2.8441 2.4662-5.2122 4.5-5.25 4.5-0.0473 0-2.9755-0.76455-6.5-1.7l-6.4-1.7 1.8 0.05c0.99214 0.0283 2.4901 0.0466 3.35 0.075 1.4835 0.0378-2.7448-0.27873-7.8-0.6-0.93545-0.0662-6.0058-0.40984-11.25-0.75l-9.55-0.625-0.025-0.275c-0.0567-0.32126-0.0185-0.30847-0.85-0.025-0.59529 0.19843-0.68245 0.18839-2.525 0.075-1.0394-0.0567-2.1165-0.12166-2.4-0.15l-0.525-0.075-0.45-0.825-0.45-0.8-3.225-0.175c-1.7764-0.0945-3.4604-0.15-3.725-0.15h-0.475l-0.425 0.675-0.4 0.7-0.47504-0.05c-0.26458-9e-3 -10.154-0.64073-21.975-1.425-11.821-0.77482-21.652-1.4094-21.85-1.4l-0.35 0.025 1.1 1.175c0.95435 1.0394 1.1321 1.1966 1.425 1.225 0.18898 0.0189 9.5401 0.39645 20.775 0.85s20.472 0.84665 20.5 0.875c0.0283 0.0283-0.42361 0.82065-1 1.775-0.56694 0.9449-1.0222 1.7778-0.975 1.825 0.0378 0.0378 1.4092 1.0128 3.025 2.175l2.925 2.125 3.225 0.525c1.767 0.30236 3.2838 0.52835 3.35 0.5 0.0662-0.0189 0.55196-0.7618 1.1-1.65l1-1.625h4.1v-0.35c0-0.19843-0.071-1.3222-0.175-2.475-0.10394-1.1622-0.17835-2.1217-0.15-2.15 0.0567-0.0567 20.405 0.72441 20.925 0.8 0.24568 0.0378 0.3 0.0671 0.3 0.275 0 0.34962 0.49704 2.546 0.875 3.85 0.32126 1.0961 0.32343 1.1028 0.125 1.15-0.10393 0.0189-25.143 2.8883-55.625 6.375-30.482 3.4961-55.416 6.375-55.425 6.375-0.0283 0.0189-0.22835 2.4467-0.2 2.475 0.0189 9e-3 25.048-3.3708 55.625-7.5 30.577-4.1292 55.665-7.5 55.75-7.5 0.10394 0 0.23327 0.20314 0.375 0.6 0.12284 0.33071 0.40157 1.0053 0.6 1.525 0.19843 0.51024 0.3439 0.94056 0.325 0.95-0.0189 9e-3 -18.733 4.1542-41.6 9.2s-41.646 9.2278-41.75 9.275c-0.16064 0.0662-0.25767 0.31002-0.475 1.425-0.15118 0.73702-0.22835 1.3716-0.2 1.4 0.0473 0.0378 83.822-20.599 84.2-20.75 0.0567-0.0189 0.23937 0.24428 0.4 0.575 0.20788 0.41575 0.2506 0.62165 0.175 0.65-0.0662 0.0189-6.3774 1.7246-14.05 3.775l-13.975 3.7-0.175 1.425c-0.10394 0.78426-0.18445 1.4406-0.175 1.45 9e-3 9e-3 6.5284-2.1232 14.475-4.75 14.495-4.7812 14.591-4.8124 14.6-4.425 0 0.0567-10.181 5.5973-22.625 12.325l-22.65 12.225 0.075 0.9c0.0378 0.49135 0.0622 1.0516 0.1 1.25l0.075 0.35 22.475-13.225c12.369-7.2757 22.565-13.287 22.65-13.325 0.12284-0.0756 0.30137 0.1545 0.925 1.175 0.70868 1.1717 1.6673 2.5372 2.65 3.775 0.37796 0.49135 0.40119 0.56162 0.25 0.675-0.085 0.0567-11.999 9.5689-26.475 21.125l-26.3 21.025 1.85 1.825c1.0299 1.0016 1.9494 1.8528 2.025 1.9 0.11339 0.0662 3.6303-3.1413 15.725-14.225 8.5797-7.871 15.606-14.284 15.625-14.275 0.0189 0.0189-0.11437 0.30373-0.275 0.625-0.16063 0.31182-0.275 0.60276-0.275 0.65 0 0.0662 2.5953 3.0014 3.2 3.625 0.16063 0.16063 0.24525 0.13761 2.05-0.675l1.875-0.85 0.95 0.95 0.95 0.925 1.875-1.125 1.9-1.15 0.725-2.425c0.40631-1.3418 0.71555-2.4994 0.725-2.575 0-0.085-0.71395-0.59192-1.725-1.225l-1.7-1.075-2.75-0.05-2.725-0.05 6.725-6.175c3.6946-3.3827 6.7311-6.15 6.75-6.15 9e-3 0 0.7679 0.72734 1.675 1.625 0.9071 0.89765 2.0803 1.9842 2.6 2.4 6.3025 5.0458 13.465 7.4923 21.175 7.275 6.0568-0.17008 11.444-1.88 16.575-5.225 2.1166-1.3796 3.4474-2.4602 5.375-4.35l1.2-1.15 17.975 14.475c9.9026 7.975 18.006 14.484 18.025 14.475 9e-3 -0.0189-0.46082-1.1394-1.075-2.5l-1.1-2.475-16.7-12.25-16.7-12.225 0.325-0.4c0.17954-0.20787 0.66259-0.81475 1.05-1.325 0.39686-0.50079 0.7622-0.90945 0.8-0.9 0.0473 0.0189 10.126 7.8843 22.4 17.475 12.274 9.5907 22.467 17.549 22.675 17.7l0.375 0.275 1.075-1.075c0.59529-0.59529 1.0844-1.1122 1.075-1.15-0.0189-0.0283-10.534-7.6616-23.375-16.95-12.832-9.2884-23.415-16.94-23.5-17.025-0.15118-0.14174-0.12304-0.21514 0.425-1.075 0.36851-0.57639 0.62441-0.90335 0.7-0.875 0.0662 0.0283 9.6061 5.8444 21.2 12.95 11.584 7.0962 21.097 12.869 21.125 12.85 0.0189-0.0283-0.48246-1.1055-1.125-2.4l-1.175-2.35-39.7-21.8 0.675-1.325c0.37796-0.72757 0.84547-1.6531 1.025-2.05l0.325-0.725 12.3 3.175c6.7655 1.7481 12.312 3.2122 12.35 3.25 0.0756 0.0756-0.86771 1.4-1 1.4-0.0473 0-1.7191-0.31594-3.675-0.675-1.9654-0.36851-3.6244-0.65-3.7-0.65-0.10394 0-0.51967 0.66218-1.2 1.9l-1.05 1.925 2.475 1.825c1.3606 1.011 3.0785 2.277 3.825 2.825l1.35 1 10.05 1.725c5.5182 0.9449 10.056 1.6939 10.075 1.675 0.0283-0.0283 0.20551-2.587 0.3-4.25l0.025-0.575-1.65-1.9-1.65-1.875-2.05-0.875c-1.1339-0.4819-2.0344-0.89056-2.025-0.9 9e-3 -9e-3 6.4323 1.6279 14.275 3.65 7.8427 2.0221 14.324 3.675 14.4 3.675 0.0662 0 0.1-0.0278 0.1-0.075 0-0.0378 0.28483-1.9694 0.625-4.275 0.34016-2.3056 0.60945-4.1811 0.6-4.2-0.0189-9e-3 -14.459-2.0588-32.1-4.525-17.632-2.4662-32.081-4.5061-32.1-4.525-0.0189-0.0189 0.16988-0.67518 0.425-1.45 0.26457-0.77481 0.475-1.465 0.475-1.55 0-0.10394-0.68914-0.38247-2.475-1.025l-2.475-0.875-0.5-0.875c-0.27402-0.463-0.47835-0.87166-0.45-0.9 0.0189-0.0283 13.892 0.62183 30.825 1.425l30.775 1.45 0.25 0.25 0.25 0.275 5.575 0.375 5.55 0.375 0.65-0.7 39.35 1.875c21.648 1.0205 39.366 1.8344 39.375 1.825 0.0189-0.0189-0.72735-0.58523-1.625-1.275l-1.625-1.275-37.075-1.15c-20.391-0.65198-37.124-1.1906-37.2-1.2-0.0756-0.0189 1.0403-1.3635 2.675-3.225 1.5496-1.7575 2.7939-3.2156 2.775-3.225-9e-3 -0.0189-4.4668-2-9.9-4.4-5.4332-2.4-9.8872-4.3967-9.925-4.425-0.0378-0.0189-1.2698 1.111-2.725 2.5l-2.65 2.525-3.75 1.25c-2.0504 0.68978-3.7561 1.2716-3.775 1.3-0.0283 0.0189 0.3431 1.548 0.825 3.4 0.4819 1.852 0.82835 3.4122 0.8 3.45-0.0378 0.0283-11.172-0.31535-24.75-0.75-13.569-0.42521-24.712-0.75945-24.75-0.75-0.0378 0-0.25433-0.3437-0.5-0.75-0.42521-0.69923-0.52377-0.80292-3.075-2.825l-2.65-2.075 0.5-0.075c0.27402-0.0378 40.619-5.5134 89.65-12.175l89.15-12.1 0.05-3.05v-3.05zm-251.5 14.7c-3e-3 0.0202 0.0108 0.0551 0.025 0.1 0.0378 0.10394 0.20491 0.56535 0.375 1l0.32504 0.775 14.775 7.125c8.1167 3.9119 14.781 7.0844 14.8 7.075 9e-3 -0.0189-6.5806-3.5446-14.65-7.825-8.06-4.2804-14.892-7.8988-15.175-8.05-0.34725-0.19842-0.46658-0.26068-0.475-0.2zm-12.975 8.65c-0.0283 0-0.65963 0.53857-1.425 1.2s-1.3628 1.2216-1.325 1.25c0.0945 0.0756 44.043 6.9317 44.1 6.875 0.0378-0.0283-41.189-9.3344-41.35-9.325zm41.65 9.35c-0.10393-9e-3 -0.1628 0.0217-0.125 0.05 0.0283 0.0283 0.10886 0.0283 0.175 0 0.0756-0.0283 0.0539-0.05-0.05-0.05zm-36.55 2.15 0.65 0.05c0.34962 0.0378 0.77381 0.0655 0.925 0.075 0.23622 0 0.20689 0.0454-0.275 0.225-0.9827 0.37796-0.93602 0.37796-1.125 0zm145.3 1.25c0.0567 0 0.50865 0.42085 1 0.95l0.875 0.975-1.6-0.075c-0.88821-0.0378-2.6277-0.0872-3.875-0.125-1.2473-0.0283-2.2006-0.0966-2.125-0.125 0.24567-0.085 5.6305-1.5906 5.725-1.6zm-109.05 0.2c-0.0225 9e-3 -0.0189 0.0358 0 0.05 0.0283 0.0283 0.10886 0.0283 0.175 0 0.0756-0.0283 0.029-0.05-0.075-0.05-0.052-5e-3 -0.0775-9e-3 -0.1 0zm-72.025 2.85c-0.0378-9e-3 -1.3626 0.95943-2.95 2.15l-2.875 2.125-0.025 1.15c-0.0283 1.1244-0.0329 1.1622 0.175 1.2 0.34961 0.0756 15.768 1.4784 15.9 1.45 0.0945-0.0283-10.036-8.0278-10.225-8.075zm19.175 18.425c0 0.085 5.7805 5.65 5.875 5.65 0.0567 0 1.0195-0.3809 2.125-0.825l2-0.8v-3.5h-0.25c-0.33072 0-8.4285-0.4433-9.175-0.5-0.33072-0.0283-0.575-0.0439-0.575-0.025zm-21.225 14.7c-0.0283 0-0.0811 0.0683-0.1 0.125-0.0283 0.0662-0.47696 1.5797-1.025 3.375l-1 3.275 0.3 0.425c1.6347 2.2772 5.6933 7.8061 5.75 7.825 0.0378 9e-3 0.22657-0.44251 0.425-1 0.19843-0.56694 0.61318-1.7307 0.925-2.6l0.55-1.575 0.35-0.05c0.19843-0.0283 1.0063-0.0872 1.8-0.125l1.425-0.05 1.125-1.225 1.125-1.2 0.6-1.825c0.32127-0.99214 0.5439-1.8061 0.525-1.825-0.0567-0.0567-5.3211-2.025-5.425-2.025-0.0567 0-0.44034 0.4364-0.875 0.975-0.43465 0.54804-0.85886 0.9689-0.925 0.95-0.0567-0.0189-1.3165-0.78955-2.8-1.725-1.4835-0.9449-2.7217-1.725-2.75-1.725z"/>
 </g>
</svg>
