<?xml version="1.0" encoding="UTF-8"?>
<svg width="125" height="125" version="1.0" viewBox="0 0 93.75 93.75" xmlns="http://www.w3.org/2000/svg">
 <title>Globally Harmonized System of Classification and Labelling of Chemicals (GHS) pictogram for flammable substances</title>
 <g transform="matrix(.086024 0 0 .086031 21.984 21.954)">
  <path d="m25.301 289.67 264.03 264.03 264.07-264.07c-88.052-87.952-175.93-176.08-264.03-263.98z" fill="#fff"/>
  <path d="m147.66 148.01-141.66 141.66 283.33 283.33 283.38-283.38-141.64-141.64c-77.898-77.898-141.66-141.64-141.69-141.64-0.0284 0-63.8 63.752-141.72 141.67zm260.96 22.413 119.2 119.2-238.5 238.5-238.38-238.51 119.2-119.2c65.557-65.557 119.21-119.19 119.24-119.19 0.0283 0 53.689 53.642 119.25 119.2z" fill="#f00"/>
  <path transform="scale(.8)" d="m361.91 151.72c-21.977 41.974 4.8009 65.668-24.719 127.5-15.662-12.514-6.5822-59.279-37.688-60.062 4.787 14.361 1.2041 19.939 0.40625 25.125-3.0941 20.112-10.274 38.085 3.6875 64.812-21.448-10.42-21.804-29.54-39.938-41.531 3.5902 20.345-5.0555 61.599 19.031 101.12-21.463-2.1111-28.582-10.362-51.812-32.625 24.245 125.6 42.282 129.12 131.19 136.25-6.6986-0.78528-51.494-7.9392-67.719-59.562-0.92088-12.783-1.4264 11.233 41.656 12.031-27.279-43.203-19.848-35.025-16.656-60.156 11.293 17.199 1.3994 18.704 33.312 31.469-10.118-32.147 15.616-54.144 10.031-90.844 7.0516 16.118 32.134 13.579 30.938 90.969 20.768-23.17 23.246-7.1331 33.219-33.062 0.57762 14.436 6.9134 32.41-21.312 62 7.1804 1.9946 19.203 3.5392 38.75-9.625-19.032 21.57-1.8312 22.079-49.969 57.375 60.635 0.79782 100.46-37.372 99.031-121.25-1.5956 7.1804-3.3828 21.518-36.094 25.906 20.49-20.36 31.168-60.898 14.812-94.406-5.7585 5.3557-14.709 30.257-36.25 37.438 10.926-17.926 8.4688-41.125 8.4688-41.125s2.7875-31.332-15.719-55.531c-5.1859 37.897-4.7527 56.954-28.688 62.938 3.8518-22.366 4.5612-32.782-7.4062-58.312-12.499-26.665-26.972-52.909-30.562-76.844zm-100.12 342.25v21.969h213.44l-0.0312-10.969-0.0312-10.938-106.66-0.03125z"/>
 </g>
</svg>
