<?xml version="1.0" encoding="UTF-8"?>
<svg width="125" height="125" version="1.0" viewBox="0 0 93.75 93.75" xmlns="http://www.w3.org/2000/svg">
 <title>Globally Harmonized System of Classification and Labelling of Chemicals (GHS) pictogram for oxidizing substances</title>
 <g transform="matrix(.086024 0 0 .086031 21.984 21.954)">
  <path d="m25.301 289.67 264.03 264.03 264.07-264.07c-88.052-87.952-175.93-176.08-264.03-263.98z" fill="#fff"/>
  <path d="m147.66 148.01-141.66 141.66 283.33 283.33 283.38-283.38-141.64-141.64c-77.898-77.898-141.66-141.64-141.69-141.64-0.0284 0-63.8 63.752-141.72 141.67zm260.96 22.413 119.2 119.2-238.5 238.5-238.38-238.51 119.2-119.2c65.557-65.557 119.21-119.19 119.24-119.19 0.0283 0 53.689 53.642 119.25 119.2z" fill="#f00"/>
  <path transform="scale(.8)" d="m358.69 105.69c-11.042 11.951-0.0346 61.123-22.844 107.22-11.825-12.613-16.567-36.269-29.969-48.094 7.0705 18.132-12.626 16.558-5.5312 79.625-10.707-2.6768-11.037-7.0885-34.688-35.469 4.4035 27.522 1.6066 44.942 7.125 75.688 0 0-5.7004-1.2011-33.125-21.312 8.9008 29.982-6.6487 93.112 28.781 137.75l-0.125-0.09375c2.7266 40.394 31.2 73.762 69.125 83.844h-68.531v29.031h191.12v-29.031h-74.531c34.312-9.123 60.866-37.316 67.625-72.531v-0.0312c9.393-15.013 51.404-63.612 19.094-141.81 0 0-9.4793 17.378-26.812 22.062 0 0 22.208-37.018 3.9375-67 0 0-5.3549 21.907-23.625 22.844 0 0 8.8929-46.724-15-76.469-8.6718 19.709 5.1925 27.876-23.656 44.156-3.9469-60.723-16.55-70.958-28.375-110.38zm-6.3125 132.44c11.015 6.7786 18.939 18.437 21.344 40.312 1.0577 9.6219 4.6544 15.136 7.2812 24.906-6.2992-1.3426-12.833-2.0625-19.531-2.0625-8.185 0-16.12 1.0497-23.688 3.0312-1.6775-31.868 15.003-24.871 14.594-66.188zm-40.188 22.875s4.409 27.779 15.656 46.531c-7.9248 3.0634-15.32 7.1944-22.031 12.188-3.6949-28.798 4.6726-35.311 6.375-58.719zm97.75 14.188s4.1298 27.815 9.75 46.469c-8.9061-7.1168-19.149-12.634-30.281-16.125 4.6914-9.6007 11.908-22.243 20.531-30.344zm-141.12 30.75s8.3701 8.4427 30.25 19.281c-7.6775 6.9028-14.195 15.07-19.25 24.156-3.412-11.175-8.2002-28.039-11-43.438zm185.28 10.25c0.73429 10.28 0.74714 35.29-3.9375 48.875l0.0312 0.46875c-4.139-12.619-10.892-24.048-19.625-33.656 5.6334-4.5022 15.212-11.682 23.531-15.688zm-93.438 10.906c36.831 1e-5 66.719 29.919 66.719 66.75s-29.888 66.719-66.719 66.719c-36.831 0-66.719-29.888-66.719-66.719 0-36.831 29.888-66.75 66.719-66.75z"/>
 </g>
</svg>
