<?xml version="1.0" encoding="UTF-8"?>
<svg width="125" height="125" version="1.0" viewBox="0 0 93.75 93.75" xmlns="http://www.w3.org/2000/svg">
 <title>Globally Harmonized System of Classification and Labelling of Chemicals (GHS) pictogram for hazardous substances</title>
 <g transform="matrix(.086024 0 0 .086031 21.984 21.954)">
  <path d="m25.301 289.67 264.03 264.03 264.07-264.07c-88.052-87.952-175.93-176.08-264.03-263.98z" fill="#fff"/>
  <path d="m6 289.67 283.33 283.33 283.38-283.38-283.33-283.28zm521.82-0.04724-238.49 238.48-238.38-238.5 238.43-238.38z" fill="#f00"/>
  <path d="m289.18 142.82c-0.87285 9e-3 -1.5848 0.0311-1.925 0.05-12.359 0.85041-23.29 5.2184-30.15 12.05-2.1827 2.1733-3.5655 4.0588-4.775 6.525-0.85041 1.7292-1.2815 3.0303-1.65 4.75-0.23623 1.1244-0.275 1.3706-0.275 3.525 0 2.0882 0.0232 2.4372 0.25 3.675 0.24567 1.3796 19.501 131.43 19.775 133.58 0.18898 1.4929 0.70196 3.461 1.25 4.85 2.863 7.2285 9.1847 12.288 16.725 13.375 1.4174 0.20787 4.5076 0.20787 5.925 0 9.3262-1.3418 16.756-8.886 17.975-18.25 0.34016-2.6174 19.529-132.36 19.775-133.65 0.21733-1.2284 0.225-1.5785 0.225-3.525 0-2.2772-0.0654-3.0937-0.5-4.7-0.73702-2.7024-2.1974-5.5061-4.125-7.925-1.5307-1.9276-4.0311-4.1992-6.45-5.9-5.4426-3.8174-13.012-6.6945-20.6-7.8-3.4016-0.49135-4.6192-0.5872-8.55-0.625-0.98742-9e-3 -2.0272-9e-3 -2.9 0zm2.1 201.12c-0.49666-2e-3 -0.96909 6e-3 -1.425 0.025-7.5025 0.32126-14.61 3.5156-20.175 9.1-1.6819 1.6819-2.7521 2.9657-4.075 4.95-3.0709 4.6206-4.7029 9.106-5.525 15.125-0.16063 1.2095-0.17008 6.6832 0 8.025 0.81262 6.6143 3.2342 12.489 7.25 17.525 0.97325 1.2284 2.95 3.2701 4.15 4.3 3.6284 3.1087 8.0062 5.4289 12.4 6.525 2.8725 0.71812 4.3663 0.9 7.475 0.9 3.0615 0 4.6131-0.19468 7.325-0.875 7.3891-1.8426 14.037-6.6012 18.45-13.225 3.2505-4.8946 5.1242-10.315 5.625-16.325 0.13229-1.6158 0.0484-5.7076-0.15-7.125-0.55749-4.1103-1.5525-7.4511-3.225-10.9-4.7151-9.6852-13.705-16.392-23.9-17.8-1.1126-0.14882-2.71-0.22102-4.2-0.225z"/>
 </g>
</svg>
