<?xml version="1.0" encoding="UTF-8"?>
<!-- Generator: Adobe Illustrator 24.1.0, SVG Export Plug-In . SVG Version: 6.00 Build 0)  -->
<svg width="125" height="125" version="1.1" viewBox="0 0 125 125" xml:space="preserve" xmlns="http://www.w3.org/2000/svg" xmlns:cc="http://creativecommons.org/ns#" xmlns:dc="http://purl.org/dc/elements/1.1/" xmlns:rdf="http://www.w3.org/1999/02/22-rdf-syntax-ns#"><metadata><rdf:RDF><cc:Work rdf:about=""><dc:format>image/svg+xml</dc:format><dc:type rdf:resource="http://purl.org/dc/dcmitype/StillImage"/></cc:Work></rdf:RDF></metadata><defs><clipPath id="clipPath18"><path d="m0 227.56v-227.56h566.93v227.56z"/></clipPath></defs>
<style type="text/css">
	.st0{fill:#FFEB1D;}
</style>


<g transform="matrix(1.3694 0 0 -1.9068 23.683 84.196)"><rect transform="matrix(.8 0 0 -.8 0 22.76)" x="56.643" y="4.0392" width="9.2429" height="19.671" rx=".42046" color="#000000" fill="#fff"/><g transform="scale(.1)"><g clip-path="url(#clipPath18)"><path d="m141.23 12.93h249.54v-12.93h84.425v12.93h53.907c16.132 11.531 37.832 31.094 37.832 50.703v100.29c0 20.742-21.7 39.207-37.832 50.73h-53.907v12.91h-84.425v-12.91h-249.54v12.91h-85.582v-12.91h-55.644v-201.72h55.644v-12.93h85.582v12.93" fill="#ed1c24"/><path d="m473.12 51.562 34.238 1.9141s6.446 35.957 6.446 63.398c0 27.437-6.446 62.031-6.446 62.031l-34.238 2.828v-130.17" fill="#fff"/></g></g></g></svg>
