<?xml version="1.0" encoding="UTF-8" standalone="no"?>
<!-- Generator: Adobe Illustrator 24.1.0, SVG Export Plug-In . SVG Version: 6.00 Build 0)  -->

<svg
   xmlns:dc="http://purl.org/dc/elements/1.1/"
   xmlns:cc="http://creativecommons.org/ns#"
   xmlns:rdf="http://www.w3.org/1999/02/22-rdf-syntax-ns#"
   xmlns:svg="http://www.w3.org/2000/svg"
   xmlns="http://www.w3.org/2000/svg"
   xmlns:sodipodi="http://sodipodi.sourceforge.net/DTD/sodipodi-0.dtd"
   xmlns:inkscape="http://www.inkscape.org/namespaces/inkscape"
   version="1.1"
   id="svg8"
   inkscape:export-filename="/media/juhele/data_2TB/_GRAFIKA/GHS hazard symbols/GHS06_toxic_substances.png"
   inkscape:export-xdpi="99.027519"
   inkscape:export-ydpi="99.027519"
   inkscape:version="0.92.5 (2060ec1f9f, 2020-04-08)"
   sodipodi:docname="opstelpl_RV_TS.svg"
   x="0px"
   y="0px"
   viewBox="0 0 125 125"
   xml:space="preserve"
   width="125"
   height="125"><metadata
   id="metadata916"><rdf:RDF><cc:Work
       rdf:about=""><dc:format>image/svg+xml</dc:format><dc:type
         rdf:resource="http://purl.org/dc/dcmitype/StillImage" /><dc:title /></cc:Work></rdf:RDF></metadata><defs
   id="defs914"><clipPath
     id="clipPath18"><path
       inkscape:connector-curvature="0"
       d="M 0,227.562 V 0 h 566.934 v 227.562 z"
       id="path20" /></clipPath><clipPath
     id="clipPath18-2"><path
       inkscape:connector-curvature="0"
       d="M 0,0 H 566.934 V 246 H 0 Z"
       id="path20-9" /></clipPath><clipPath
     id="clipPath18-2-1"><path
       inkscape:connector-curvature="0"
       d="M 0,0 H 566.934 V 246 H 0 Z"
       id="path20-9-0" /></clipPath><clipPath
     id="clipPath18-0"><path
       inkscape:connector-curvature="0"
       d="M 0,0 H 566.934 V 246 H 0 Z"
       id="path20-1" /></clipPath></defs><sodipodi:namedview
   pagecolor="#ffffff"
   bordercolor="#666666"
   borderopacity="1"
   objecttolerance="10"
   gridtolerance="10"
   guidetolerance="10"
   inkscape:pageopacity="0"
   inkscape:pageshadow="2"
   inkscape:window-width="1920"
   inkscape:window-height="1017"
   id="namedview912"
   showgrid="false"
   inkscape:zoom="6.1005126"
   inkscape:cx="43.382895"
   inkscape:cy="49.383253"
   inkscape:window-x="-8"
   inkscape:window-y="-8"
   inkscape:window-maximized="1"
   inkscape:current-layer="g944" />
<style
   type="text/css"
   id="style901">
	.st0{fill:#FFEB1D;}
</style>


<g
   id="g944"
   transform="matrix(1.0954926,0,0,1.411122,-43.307848,-18.392236)"><g
   id="g10"
   transform="matrix(1.25,0,0,-1.25,62.755096,68.085992)"><path
     style="fill:#ffffff;fill-opacity:1;stroke:none"
     id="path3001-6"
     transform="matrix(0.8,0,0,-0.8,0,24.65)"
     d="M 1.8959867,2.6096978 64.22655,2.8466961 68.729518,8.5346562 68.966516,23.465552 65.174543,27.257525 2.132985,27.494523 Z"
     inkscape:connector-curvature="0" /><g
     id="g12"
     transform="scale(0.1)"><g
       id="g14"><g
         id="g16"
         clip-path="url(#clipPath18-0)"><path
           style="fill:#ed1c24;fill-opacity:1;fill-rule:nonzero;stroke:none"
           id="path22"
           d="m 448.73,214.977 c 0,-4.278 0,-12.165 0,-12.165 0,0 52.325,-0.019 61.094,-0.019 21.543,-16.305 25.567,-27.145 25.567,-32.164 l 0.039,-94.711 c 0,-7.9805 -10.45,-20.3321 -25.879,-32.1602 -9.219,0 -60.703,0 -60.703,0 0,0 0,-7.957 -0.039,-12.1875 -15.235,0 -32.911,0 -48.223,0 0,4.2891 0,12.1485 0,12.1485 H 133.434 c 0,0 0,-7.9766 0,-12.2266 -15.485,0 -33.852,0 -49.3246,0 0,4.2695 -0.0078,12.207 -0.0078,12.207 0,0 -37.086,-0.039 -52.5352,-0.039 -0.0078,24.1132 -0.0469,134.9178 -0.0586,159.0388 15.461,0.012 52.5664,0.02 52.5664,0.02 0,0 0,7.922 0,12.187 15.4766,0 33.8478,0 49.3208,0 0,-4.277 0,-12.176 0,-12.176 l 267.152,0.028 c 0,0 0,7.961 0,12.207 15.312,0 32.91,0.012 48.183,0.012 z m 15.762,31.496 -95.43,-0.02 c 0,0 0,-7.949 0,-12.207 -25.449,0 -178.707,-0.008 -204.175,-0.019 0,4.277 0,12.168 0,12.168 H 52.582 c 0,0 0,-7.93 0,-12.188 C 37.125,234.199 0,234.188 0,234.188 L 0.078125,12.1289 c 0,0 37.105475,0.0391 52.554675,0.0391 C 52.6328,7.92188 52.6406,0 52.6406,0 H 164.926 c 0,0 0,7.97656 0,12.2266 25.461,0 178.726,0 204.176,0 0,-4.2891 0,-12.148475 0,-12.148475 h 111.113 c 0,0 0.039,7.957035 0.039,12.187475 15,0 40.234,0 40.234,0 l 4.102,2.9375 c 19.316,13.7891 42.305,35.5274 42.344,60.6758 l -0.039,94.7501 c 0,20.543 -13.848,40.41 -42.422,60.734 l -4.063,2.922 c 0,0 -25.156,0.012 -40.195,0.02 0,4.269 0,12.179 0,12.179 l -15.723,-0.011"
           inkscape:connector-curvature="0" /><path
           style="fill:#ed1c24;fill-opacity:1;fill-rule:nonzero;stroke:none"
           id="path24"
           d="m 462.617,62.4219 32.285,1.7656 c 0,0 6.114,33.957 6.075,59.9175 0,25.899 -6.114,58.52 -6.114,58.52 l -32.285,2.691 0.039,-122.8941"
           inkscape:connector-curvature="0" /></g></g></g></g><g
   aria-label="RV"
   style="font-style:normal;font-weight:normal;line-height:0%;font-family:sans-serif;letter-spacing:0px;word-spacing:0px;fill:#ed1c24;fill-opacity:1;stroke:none"
   id="text3036"><path
     d="m 90.366493,49.308411 q 0,-0.601563 -0.24707,-1.03125 -0.24707,-0.429688 -0.848633,-0.676758 -0.418945,-0.171875 -0.977539,-0.204102 -0.558594,-0.04297 -1.299805,-0.04297 h -1.493164 v 4.307617 h 1.267578 q 0.988282,0 1.654297,-0.09668 0.666016,-0.09668 1.117188,-0.44043 0.429687,-0.333007 0.623047,-0.730468 0.204101,-0.408204 0.204101,-1.084961 z M 96.801064,60.40509 H 91.762978 L 87.401649,54.539856 H 85.500282 V 60.40509 H 81.396767 V 44.409973 h 6.917968 q 1.417969,0 2.438477,0.161133 1.020508,0.161133 1.912109,0.698242 0.902344,0.53711 1.428711,1.396485 0.53711,0.848632 0.53711,2.137695 0,1.772461 -0.827149,2.889648 -0.816406,1.117188 -2.341797,1.858399 z"
     style="font-weight:bold;font-size:22px;line-height:1.25;font-family:sans-serif;-inkscape-font-specification:'Sans Bold';letter-spacing:0px;fill:#ed1c24;fill-opacity:1"
     id="path2065" /><path
     d="m 113.12919,44.409973 -5.83301,15.995117 h -4.61914 L 96.844032,44.409973 h 4.329098 l 3.86719,11.236328 3.86719,-11.236328 z"
     style="font-weight:bold;font-size:22px;line-height:1.25;font-family:sans-serif;-inkscape-font-specification:'Sans Bold';letter-spacing:0px;fill:#ed1c24;fill-opacity:1"
     id="path2067" /></g>
</g></svg>