<?xml version="1.0" encoding="UTF-8"?>
<!-- Generator: Adobe Illustrator 24.1.0, SVG Export Plug-In . SVG Version: 6.00 Build 0)  -->
<svg width="125" height="125" version="1.1" viewBox="0 0 125 125" xml:space="preserve" xmlns="http://www.w3.org/2000/svg" xmlns:cc="http://creativecommons.org/ns#" xmlns:dc="http://purl.org/dc/elements/1.1/" xmlns:rdf="http://www.w3.org/1999/02/22-rdf-syntax-ns#"><metadata><rdf:RDF><cc:Work rdf:about=""><dc:format>image/svg+xml</dc:format><dc:type rdf:resource="http://purl.org/dc/dcmitype/StillImage"/></cc:Work></rdf:RDF></metadata><defs><clipPath id="clipPath18-0"><path d="m0 0h566.93v246h-566.93z"/></clipPath></defs>
<style type="text/css">
	.st0{fill:#FFEB1D;}
</style>


<g transform="matrix(1.0955 0 0 1.4111 -43.308 -18.392)"><g transform="matrix(1.25 0 0 -1.25 61.151 72.7)"><path transform="matrix(.8 0 0 -.8 0 24.65)" d="m1.896 2.6097 62.331 0.237 4.503 5.688 0.237 14.931-3.792 3.792-63.042 0.237z" fill="#fff"/><g transform="scale(.1)"><g clip-path="url(#clipPath18-0)" fill="#ed1c24"><path d="m448.73 214.98v-12.165s52.325-0.019 61.094-0.019c21.543-16.305 25.567-27.145 25.567-32.164l0.039-94.711c0-7.9805-10.45-20.332-25.879-32.16h-60.703s0-7.957-0.039-12.188h-48.223v12.148h-267.15v-12.227h-49.325c0 4.2695-0.0078 12.207-0.0078 12.207s-37.086-0.039-52.535-0.039c-0.0078 24.113-0.0469 134.92-0.0586 159.04 15.461 0.012 52.566 0.02 52.566 0.02v12.187h49.321v-12.176l267.15 0.028v12.207c15.312 0 32.91 0.012 48.183 0.012zm15.762 31.496-95.43-0.02v-12.207c-25.449 0-178.71-8e-3 -204.18-0.019v12.168h-112.3v-12.188c-15.457-8e-3 -52.582-0.019-52.582-0.019l0.078125-222.06s37.105 0.0391 52.555 0.0391c0-4.2461 0.0078-12.168 0.0078-12.168h112.29v12.227h204.18v-12.148h111.11s0.039 7.957 0.039 12.187h40.234l4.102 2.9375c19.316 13.789 42.305 35.527 42.344 60.676l-0.039 94.75c0 20.543-13.848 40.41-42.422 60.734l-4.063 2.922s-25.156 0.012-40.195 0.02v12.179l-15.723-0.011"/><path d="m462.62 62.422 32.285 1.7656s6.114 33.957 6.075 59.918c0 25.899-6.114 58.52-6.114 58.52l-32.285 2.691 0.039-122.89"/></g></g></g><g transform="matrix(.97097 0 0 1.0299 1.6436 4.6616)" fill="#ed1c24" stroke-width=".8757" aria-label="SB"><path d="m96.533 53.735q0 2.0695-1.7591 3.3677-1.7497 1.2888-4.7599 1.2888-1.7403 0-3.0384-0.30102-1.2888-0.31043-2.4176-0.78078v-3.3583h0.39509q1.1194 0.89366 2.5023 1.3734 1.3922 0.47976 2.6716 0.47976 0.32924 0 0.86544-0.05644t0.87485-0.18814q0.41391-0.16932 0.6773-0.42331 0.2728-0.25399 0.2728-0.75256 0-0.46094-0.39509-0.79018-0.38569-0.33865-1.1382-0.51738-0.79018-0.18814-1.6744-0.34806-0.87485-0.16932-1.6462-0.42331-1.7685-0.57382-2.5493-1.5521-0.77137-0.98773-0.77137-2.4458 0-1.9566 1.7497-3.189 1.7591-1.2417 4.5153-1.2417 1.3828 0 2.728 0.2728 1.3546 0.2634 2.3423 0.66789v3.2266h-0.38568q-0.84663-0.6773-2.0789-1.1288-1.2229-0.46094-2.5023-0.46094-0.45153 0-0.90307 0.06585-0.44213 0.05644-0.85603 0.22577-0.36687 0.1411-0.63027 0.43272-0.2634 0.28221-0.2634 0.64908 0 0.55501 0.42331 0.85603 0.42331 0.29162 1.5992 0.5362 0.77137 0.15992 1.4769 0.31043 0.71493 0.15051 1.5333 0.41391 1.6086 0.52679 2.3706 1.4393 0.77137 0.90307 0.77137 2.3517z"/><path d="m111 53.848q0 1.016-0.41391 1.8155-0.4045 0.79959-1.1194 1.3264-0.82781 0.62086-1.825 0.88426-0.98773 0.2634-2.5117 0.2634h-6.1145v-14.007h5.4372q1.6933 0 2.474 0.11288 0.79019 0.11288 1.5616 0.49857 0.79959 0.4045 1.1853 1.0912 0.39509 0.6773 0.39509 1.5521 0 1.016-0.5362 1.7967-0.53619 0.77137-1.5145 1.2041v0.07526q1.3734 0.2728 2.173 1.1288 0.809 0.85603 0.809 2.2577zm-4.6282-5.7571q0-0.34806-0.17873-0.69612-0.16932-0.34806-0.61145-0.51738-0.39509-0.15051-0.98773-0.15992-0.58324-0.01881-1.6462-0.01881h-0.33865v2.9632h0.56441q0.85604 0 1.4581-0.02822 0.60205-0.02822 0.95011-0.18814 0.48916-0.21636 0.63967-0.55501 0.15051-0.34806 0.15051-0.79959zm0.88426 5.7006q0-0.66789-0.2634-1.0254-0.25399-0.36687-0.87485-0.5456-0.42331-0.12229-1.1665-0.1317-0.74315-0.0094-1.5522-0.0094h-0.79018v3.49h0.26339q1.5239 0 2.1824-0.0094t1.2135-0.24458q0.56441-0.23517 0.77137-0.62086 0.21636-0.39509 0.21636-0.90307z"/></g>
</g></svg>
