<?xml version="1.0" encoding="UTF-8" standalone="no"?>
<!-- Created with Inkscape (http://www.inkscape.org/) -->

<svg
   xmlns:dc="http://purl.org/dc/elements/1.1/"
   xmlns:cc="http://creativecommons.org/ns#"
   xmlns:rdf="http://www.w3.org/1999/02/22-rdf-syntax-ns#"
   xmlns:svg="http://www.w3.org/2000/svg"
   xmlns="http://www.w3.org/2000/svg"
   xmlns:sodipodi="http://sodipodi.sourceforge.net/DTD/sodipodi-0.dtd"
   xmlns:inkscape="http://www.inkscape.org/namespaces/inkscape"
   version="1.1"
   width="125"
   height="125"
   id="svg2"
   xml:space="preserve"
   sodipodi:docname="UGS.svg"
   inkscape:version="0.92.5 (2060ec1f9f, 2020-04-08)"><sodipodi:namedview
     pagecolor="#ffffff"
     bordercolor="#666666"
     borderopacity="1"
     objecttolerance="10"
     gridtolerance="10"
     guidetolerance="10"
     inkscape:pageopacity="0"
     inkscape:pageshadow="2"
     inkscape:window-width="1920"
     inkscape:window-height="1017"
     id="namedview20507"
     showgrid="false"
     inkscape:zoom="9.2900442"
     inkscape:cx="63.656147"
     inkscape:cy="63.956412"
     inkscape:window-x="-8"
     inkscape:window-y="-8"
     inkscape:window-maximized="1"
     inkscape:current-layer="text1662" /><metadata
     id="metadata8"><rdf:RDF><cc:Work
         rdf:about=""><dc:format>image/svg+xml</dc:format><dc:type
           rdf:resource="http://purl.org/dc/dcmitype/StillImage" /><dc:title></dc:title></cc:Work></rdf:RDF></metadata><defs
     id="defs6"><clipPath
       id="clipPath18"><path
         d="M 0,566.93 V 0 h 566.934 v 566.93 z"
         id="path20"
         inkscape:connector-curvature="0" /></clipPath></defs><g
     transform="matrix(1.1465179,0,0,-1.146526,30.000001,94.999999)"
     id="g10"><rect
       width="55.008522"
       height="55.24873"
       rx="0.056433745"
       x="0.72063559"
       y="-55.729153"
       transform="scale(1,-1)"
       id="rect3031"
       style="color:#000000;display:inline;overflow:visible;visibility:visible;fill:#ffffff;fill-opacity:1;fill-rule:nonzero;stroke:none;stroke-width:1;marker:none;enable-background:accumulate" /><g
       transform="scale(0.1)"
       id="g12"><g
         id="g16"
         clip-path="url(#clipPath18)"><path
           inkscape:connector-curvature="0"
           style="fill:#ff1500;fill-opacity:1;fill-rule:nonzero;stroke:none"
           id="path42"
           d="M 557.266,566.93 H 6.7266716e-7 V -2.2589979e-6 H 566.934 V 566.93 h -9.668"
           sodipodi:nodetypes="cccccc" /><g
           aria-label="UGS"
           transform="scale(0.90095557,-1.1099326)"
           style="font-style:normal;font-weight:normal;font-size:314.32537842px;line-height:1.25;font-family:sans-serif;letter-spacing:0px;word-spacing:0px;fill:#000000;fill-opacity:1;stroke:none;stroke-width:7.85813475"
           id="text1662"><path
             d="m 259.08451,-243.96342 q 0,16.9441 -10.3138,25.96868 -10.3138,9.02458 -30.38888,9.02458 -20.07508,0 -30.38888,-9.02458 -10.25241,-9.02458 -10.25241,-25.90729 v -58.38349 h 23.69718 v 57.03287 q 0,9.51571 3.99046,14.18148 3.99046,4.66577 12.95365,4.66577 8.8404,0 12.89225,-4.48159 4.11324,-4.4816 4.11324,-14.36566 v -57.03287 h 23.69719 z"
             style="font-style:normal;font-variant:normal;font-weight:bold;font-stretch:normal;font-size:125.73016357px;font-family:sans-serif;-inkscape-font-specification:'sans-serif Bold';fill:#ffffff;fill-opacity:1;stroke-width:7.85813475"
             id="path1674" /><path
             d="m 362.03837,-216.0916 q -6.13917,2.39428 -16.2688,4.78855 -10.12963,2.33289 -20.19786,2.33289 -23.32884,0 -36.52805,-12.64669 -13.19921,-12.70808 -13.19921,-35.05465 0,-21.30291 13.32199,-34.31795 13.322,-13.07643 37.14197,-13.07643 9.02458,0 17.18967,1.65758 8.16509,1.59618 18.17194,6.44612 v 21.4257 h -2.63985 q -1.71896,-1.28923 -5.03411,-3.62211 -3.31515,-2.39427 -6.38474,-4.05185 -3.56072,-1.96453 -8.34927,-3.37654 -4.72716,-1.41201 -10.06823,-1.41201 -6.26195,0 -11.35746,1.84175 -5.09551,1.84175 -9.14736,5.64803 -3.86768,3.6835 -6.13917,9.39293 -2.2101,5.64804 -2.2101,13.07643 0,15.16374 8.04231,23.20605 8.04231,8.04232 23.75858,8.04232 1.35061,0 2.9468,-0.0614 1.65757,-0.0614 3.00819,-0.18417 v -17.92637 h -18.23333 v -17.25107 h 42.17609 z"
             style="font-style:normal;font-variant:normal;font-weight:bold;font-stretch:normal;font-size:125.73016357px;font-family:sans-serif;-inkscape-font-specification:'sans-serif Bold';fill:#ffffff;fill-opacity:1;stroke-width:7.85813475"
             id="path1676" /><path
             d="m 456.27459,-239.60461 q 0,13.50617 -11.48024,21.97822 -11.41885,8.41066 -31.06419,8.41066 -11.35746,0 -19.82951,-1.96453 -8.41067,-2.02593 -15.77767,-5.09551 v -21.91683 h 2.57845 q 7.30561,5.83221 16.33019,8.96318 9.08597,3.13098 17.43524,3.13098 2.14871,0 5.64803,-0.36835 3.49933,-0.36835 5.70943,-1.22784 2.70123,-1.10505 4.4202,-2.76262 1.78036,-1.65758 1.78036,-4.91134 0,-3.00819 -2.57845,-5.1569 -2.51706,-2.2101 -7.42839,-3.37654 -5.15691,-1.22783 -10.92772,-2.27149 -5.70943,-1.10505 -10.74355,-2.76263 -11.54163,-3.74489 -16.63714,-10.12963 -5.03412,-6.44612 -5.03412,-15.96183 0,-12.76947 11.41885,-20.81178 11.48025,-8.10371 29.46801,-8.10371 9.02458,0 17.80359,1.78036 8.8404,1.71897 15.28652,4.35881 v 21.05735 h -2.51705 q -5.52526,-4.4202 -13.56757,-7.367 -7.98091,-3.00819 -16.33018,-3.00819 -2.9468,0 -5.89361,0.42974 -2.8854,0.36835 -5.58664,1.4734 -2.39427,0.92087 -4.11324,2.82401 -1.71897,1.84176 -1.71897,4.23603 0,3.62211 2.76263,5.58664 2.76262,1.90315 10.43658,3.49933 5.03412,1.04366 9.6385,2.02593 4.66577,0.98226 10.00684,2.70123 10.49798,3.43793 15.47071,9.39293 5.03411,5.8936 5.03411,15.34792 z"
             style="font-style:normal;font-variant:normal;font-weight:bold;font-stretch:normal;font-size:125.73016357px;font-family:sans-serif;-inkscape-font-specification:'sans-serif Bold';fill:#ffffff;fill-opacity:1;stroke-width:7.85813475"
             id="path1678" /></g><path
           sodipodi:type="star"
           style="fill:#ffffff;fill-opacity:1;fill-rule:evenodd;stroke:none;stroke-width:2.70614171;stroke-miterlimit:4;stroke-dasharray:none;stroke-opacity:1"
           id="path1666"
           sodipodi:sides="3"
           sodipodi:cx="55.543331"
           sodipodi:cy="35.549404"
           sodipodi:r1="8.6254854"
           sodipodi:r2="4.3127427"
           sodipodi:arg1="0.50831063"
           sodipodi:arg2="1.5555082"
           inkscape:flatsided="false"
           inkscape:rounded="0"
           inkscape:randomized="0"
           d="m 63.078279,39.747447 -7.469017,0.114196 -7.469016,0.114196 3.635611,-6.525456 3.635612,-6.525456 3.833405,6.41126 z"
           transform="matrix(10.544201,-0.0926083,-0.07388532,-6.5566503,-299.94305,730.90994)"
           inkscape:transform-center-x="-0.043174376"
           inkscape:transform-center-y="-1.6179132" /><path
           inkscape:transform-center-y="1.6206469"
           inkscape:transform-center-x="0.040429049"
           transform="matrix(-10.544119,0.10153993,0.07943931,6.5565854,866.6511,-160.8972)"
           d="m 63.078279,39.747447 -7.469017,0.114196 -7.469016,0.114196 3.635611,-6.525456 3.635612,-6.525456 3.833405,6.41126 z"
           inkscape:randomized="0"
           inkscape:rounded="0"
           inkscape:flatsided="false"
           sodipodi:arg2="1.5555082"
           sodipodi:arg1="0.50831063"
           sodipodi:r2="4.3127427"
           sodipodi:r1="8.6254854"
           sodipodi:cy="35.549404"
           sodipodi:cx="55.543331"
           sodipodi:sides="3"
           id="path1668"
           style="fill:#ffffff;fill-opacity:1;fill-rule:evenodd;stroke:none;stroke-width:2.70614171;stroke-miterlimit:4;stroke-dasharray:none;stroke-opacity:1"
           sodipodi:type="star" /><path
           inkscape:transform-center-y="-0.043177309"
           inkscape:transform-center-x="1.6179133"
           transform="matrix(0.09260895,10.544127,6.5566966,-0.0738848,-163.56721,-299.94096)"
           d="m 63.078279,39.747447 -7.469017,0.114196 -7.469016,0.114196 3.635611,-6.525456 3.635612,-6.525456 3.833405,6.41126 z"
           inkscape:randomized="0"
           inkscape:rounded="0"
           inkscape:flatsided="false"
           sodipodi:arg2="1.5555082"
           sodipodi:arg1="0.50831063"
           sodipodi:r2="4.3127427"
           sodipodi:r1="8.6254854"
           sodipodi:cy="35.549404"
           sodipodi:cx="55.543331"
           sodipodi:sides="3"
           id="path1670"
           style="fill:#ffffff;fill-opacity:1;fill-rule:evenodd;stroke:none;stroke-width:2.70614171;stroke-miterlimit:4;stroke-dasharray:none;stroke-opacity:1"
           sodipodi:type="star" /><path
           sodipodi:type="star"
           style="fill:#ffffff;fill-opacity:1;fill-rule:evenodd;stroke:none;stroke-width:2.70614171;stroke-miterlimit:4;stroke-dasharray:none;stroke-opacity:1"
           id="path1672"
           sodipodi:sides="3"
           sodipodi:cx="55.543331"
           sodipodi:cy="35.549404"
           sodipodi:r1="8.6254854"
           sodipodi:r2="4.3127427"
           sodipodi:arg1="0.50831063"
           sodipodi:arg2="1.5555082"
           inkscape:flatsided="false"
           inkscape:rounded="0"
           inkscape:randomized="0"
           d="m 63.078279,39.747447 -7.469017,0.114196 -7.469016,0.114196 3.635611,-6.525456 3.635612,-6.525456 3.833405,6.41126 z"
           transform="matrix(-0.10154065,-10.544045,-6.5566317,0.07943875,725.82388,866.645)"
           inkscape:transform-center-x="-1.6206464"
           inkscape:transform-center-y="0.040428739" /></g></g></g></svg>