<?xml version="1.0" encoding="utf-8"?>
<!-- Generator: Adobe Illustrator 25.0.1, SVG Export Plug-In . SVG Version: 6.00 Build 0)  -->
<svg version="1.1"
	 id="svg8" inkscape:export-filename="/media/juhele/data_2TB/_GRAFIKA/GHS hazard symbols/GHS06_toxic_substances.png" inkscape:export-xdpi="99.027519" inkscape:export-ydpi="99.027519" inkscape:version="0.92.5 (2060ec1f9f, 2020-04-08)" sodipodi:docname="opstelpl_1ste_TS.svg" xmlns:cc="http://creativecommons.org/ns#" xmlns:dc="http://purl.org/dc/elements/1.1/" xmlns:inkscape="http://www.inkscape.org/namespaces/inkscape" xmlns:rdf="http://www.w3.org/1999/02/22-rdf-syntax-ns#" xmlns:sodipodi="http://sodipodi.sourceforge.net/DTD/sodipodi-0.dtd" xmlns:svg="http://www.w3.org/2000/svg"
	 xmlns="http://www.w3.org/2000/svg" xmlns:xlink="http://www.w3.org/1999/xlink" x="0px" y="0px" width="125px" height="125px"
	 viewBox="0 0 125 125" style="enable-background:new 0 0 125 125;" xml:space="preserve">
<style type="text/css">
	.st0{fill:#9D9D9C;}
	.st1{fill:#FFFFFF;}
	.st2{fill:#878787;}
</style>
<sodipodi:namedview  bordercolor="#666666" borderopacity="1" gridtolerance="10" guidetolerance="10" id="namedview912" inkscape:current-layer="svg8" inkscape:cx="71.331366" inkscape:cy="49.383253" inkscape:pageopacity="0" inkscape:pageshadow="2" inkscape:window-height="1017" inkscape:window-maximized="1" inkscape:window-width="1920" inkscape:window-x="-8" inkscape:window-y="-8" inkscape:zoom="6.1005126" objecttolerance="10" pagecolor="#ffffff" showgrid="false">
	</sodipodi:namedview>
<path class="st0" d="M96,74.2l-4.7,0.4V49.7l4.7,0.5c0,0,0.9,6.6,0.9,11.8C96.8,67.3,96,74.2,96,74.2z"/>
<g id="g944" transform="matrix(1.0954926,0,0,1.411122,-43.307848,-18.392236)">
	<g id="g10" transform="matrix(1.25,0,0,-1.25,62.755096,68.085992)">
		<path id="path3001-6" inkscape:connector-curvature="0" class="st1" d="M2.2,18.9l49.9-0.2l3.6-4.6l0.2-11.9l-3-3L2.4-1L2.2,18.9z
			"/>
		<g id="g12" transform="scale(0.1)">
			<g id="g14">
				<g>
					<g id="g16">
						<path id="path22" inkscape:connector-curvature="0" class="st2" d="M455.9,178.4c0-4.3,0-12.2,0-12.2s52.3,0,61.1,0
							c21.5-16.3,25.6-27.1,25.6-32.2l0-94.7c0-8-10.5-20.3-25.9-32.2c-9.2,0-60.7,0-60.7,0s0-8,0-12.2c-15.2,0-32.9,0-48.2,0
							c0,4.3,0,12.1,0,12.1H140.6c0,0,0-8,0-12.2c-15.5,0-33.9,0-49.3,0c0,4.3,0,12.2,0,12.2s-37.1,0-52.5,0c0,24.1,0,134.9-0.1,159
							c15.5,0,52.6,0,52.6,0s0,7.9,0,12.2c15.5,0,33.8,0,49.3,0c0-4.3,0-12.2,0-12.2l267.2,0c0,0,0,8,0,12.2
							C423,178.4,440.6,178.4,455.9,178.4z M471.6,209.9l-95.4,0c0,0,0-7.9,0-12.2c-25.4,0-178.7,0-204.2,0c0,4.3,0,12.2,0,12.2
							H59.7c0,0,0-7.9,0-12.2c-15.5,0-52.6,0-52.6,0L7.2-24.5c0,0,37.1,0,52.6,0c0-4.2,0-12.2,0-12.2h112.3c0,0,0,8,0,12.2
							c25.5,0,178.7,0,204.2,0c0-4.3,0-12.1,0-12.1h111.1c0,0,0,8,0,12.2c15,0,40.2,0,40.2,0l4.1,2.9C551-7.6,574,14.1,574.1,39.3
							l0,94.8c0,20.5-13.8,40.4-42.4,60.7l-4.1,2.9c0,0-25.2,0-40.2,0c0,4.3,0,12.2,0,12.2L471.6,209.9"/>
						<path id="path24" inkscape:connector-curvature="0" class="st2" d="M469.8,25.8l32.3,1.8c0,0,6.1,34,6.1,59.9
							c0,25.9-6.1,58.5-6.1,58.5l-32.3,2.7L469.8,25.8"/>
					</g>
				</g>
			</g>
		</g>
	</g>
	<g>
		<path d="M82,56.2v0.8c0,2.3-0.7,5.3-4.4,5.3c-3.7,0-4.9-3.1-4.9-5.5c0-2.5,1-5.6,4.9-5.6c2.1,0,3.5,1,4.1,2.5L79,54.6
			c-0.1-0.5-0.3-1.4-1.4-1.4c-1.8-0.1-2,2.6-2,3.6c0,1.1,0.1,3.6,2.1,3.6c1.4,0,1.6-1.4,1.6-2.2h-1.7v-2H82z"/>
		<path d="M87.3,51.5v4.2H90v-4.2h2.7v10.7H90v-4.5h-2.8v4.5h-2.7V51.5H87.3z"/>
		<path d="M105,56.8c0,4-2.4,5.5-4.8,5.5c-2.4,0-4.8-1.5-4.8-5.5s2.4-5.5,4.8-5.5C102.6,51.3,105,52.8,105,56.8z M100.1,60.4
			c1.8,0,1.9-2.7,1.9-3.6c0-0.9-0.1-3.6-1.9-3.6c-1.8,0-1.9,2.6-1.9,3.6C98.2,57.7,98.3,60.4,100.1,60.4z"/>
		<path d="M107.5,62.2V51.5h2.7c1.7,0,4.8,0.1,4.8,3.1c0,1.2-0.6,2.2-2,2.8l2.4,4.9h-2.9l-2.4-4.9h0v4.9H107.5z M110.2,56.1l0.5,0
			c1.2,0,1.7-0.7,1.7-1.5c0-0.8-0.5-1.4-1.8-1.3h-0.4V56.1z"/>
	</g>
</g>
</svg>
