<?xml version="1.0" encoding="utf-8"?>
<!-- Generator: Adobe Illustrator 25.0.1, SVG Export Plug-In . SVG Version: 6.00 Build 0)  -->
<svg version="1.1"
	 id="svg8" inkscape:export-filename="/media/juhele/data_2TB/_GRAFIKA/GHS hazard symbols/GHS06_toxic_substances.png" inkscape:export-xdpi="99.027519" inkscape:export-ydpi="99.027519" inkscape:version="0.92.5 (2060ec1f9f, 2020-04-08)" sodipodi:docname="opstelpl_1ste_TS.svg" xmlns:cc="http://creativecommons.org/ns#" xmlns:dc="http://purl.org/dc/elements/1.1/" xmlns:inkscape="http://www.inkscape.org/namespaces/inkscape" xmlns:rdf="http://www.w3.org/1999/02/22-rdf-syntax-ns#" xmlns:sodipodi="http://sodipodi.sourceforge.net/DTD/sodipodi-0.dtd" xmlns:svg="http://www.w3.org/2000/svg"
	 xmlns="http://www.w3.org/2000/svg" xmlns:xlink="http://www.w3.org/1999/xlink" x="0px" y="0px" width="125px" height="125px"
	 viewBox="0 0 125 125" style="enable-background:new 0 0 125 125;" xml:space="preserve">
<style type="text/css">
	.st0{fill:#00A44D;}
	.st1{fill:#FFFFFF;}
	.st2{fill:#312783;}
</style>
<sodipodi:namedview  bordercolor="#666666" borderopacity="1" gridtolerance="10" guidetolerance="10" id="namedview912" inkscape:current-layer="svg8" inkscape:cx="71.331366" inkscape:cy="49.383253" inkscape:pageopacity="0" inkscape:pageshadow="2" inkscape:window-height="1017" inkscape:window-maximized="1" inkscape:window-width="1920" inkscape:window-x="-8" inkscape:window-y="-8" inkscape:zoom="6.1005126" objecttolerance="10" pagecolor="#ffffff" showgrid="false">
	</sodipodi:namedview>
<path class="st0" d="M98.9,43.5h-7.4V41H80v2.5H45.8V41H34.1v2.5h-7.6v38.5h7.6v2.5h11.7v-2.5H80v2.5h11.6v-2.5h7.4
	c2.2-2.2,5.2-5.9,5.2-9.7V53.1C104.1,49.2,101.1,45.7,98.9,43.5z M96,74.2l-4.7,0.4V49.7l4.7,0.5c0,0,0.9,6.6,0.9,11.8
	C96.8,67.3,96,74.2,96,74.2z"/>
<polygon class="st1" points="65.7,80.1 49.1,80.1 65.9,58.7 82.6,58.8 "/>
<polygon class="st2" points="59.8,45 53.4,53.3 53.4,74.4 53.4,74.4 76.5,45 "/>
</svg>
